<?xml version="1.0" encoding="utf-8"?>
<!-- Generator: Adobe Illustrator 24.0.1, SVG Export Plug-In . SVG Version: 6.00 Build 0)  -->
<svg version="1.1" id="Layer_1" xmlns="http://www.w3.org/2000/svg" xmlns:xlink="http://www.w3.org/1999/xlink" x="0px" y="0px"
	 width="149.9px" height="134.9px" viewBox="0 0 149.9 134.9" style="enable-background:new 0 0 149.9 134.9;" xml:space="preserve"
	>
<style type="text/css">
	.st0{clip-path:url(#SVGID_2_);}
	.st1{fill:#193276;}
	.st2{fill:#D70826;}
	.st3{fill:#FFFFFF;}
	.st4{clip-path:url(#SVGID_4_);}
</style>
<path d="M113.4,109c0,1-0.7,1.8-1.7,1.8l0,0h-6.2c-1,0-1.7-0.8-1.7-1.7V91.5c0-1-0.2-1-0.6-0.1l-5,13.7c-0.4,0.9-1.3,1.6-2.3,1.6H93
	c-1-0.1-1.9-0.7-2.3-1.6l-5.1-13.9c-0.3-0.9-0.6-0.8-0.6,0.1V109c0,1-0.8,1.7-1.7,1.7h-6.1c-1,0-1.7-0.8-1.7-1.7V67.9
	c0-1,0.8-1.7,1.7-1.7H84c1,0.1,1.9,0.7,2.3,1.6L94,89.4c0.3,0.9,0.7,1.2,0.9,0.7c0.2-0.5,0.5-1.6,0.9-2.5l7-19.7
	c0.4-0.9,1.3-1.6,2.3-1.6h6.7c1,0,1.7,0.8,1.7,1.7L113.4,109z M132.2,83l7-15.2c0.5-0.9,1.4-1.5,2.4-1.6h7.2c0.5-0.1,1,0.3,1.1,0.8
	c0.1,0.2,0,0.5-0.2,0.7L137.9,92c-0.5,1-0.7,2.1-0.7,3.3V109c0,1-0.8,1.7-1.7,1.7h-6.4c-1,0-1.7-0.8-1.7-1.7V95.2
	c-0.1-1.1-0.3-2.2-0.7-3.2l-11.9-24.2c-0.3-0.4-0.2-1.1,0.2-1.4c0.2-0.1,0.5-0.2,0.7-0.2h7.4c1,0.1,1.9,0.7,2.4,1.6L132.2,83z
	 M55.7,66.2c0,0,15.4-0.5,15.4,13.6c0,9.8-7.7,12.5-7.7,12.5l9.9,16.9c0.5,0.8,0.1,1.5-0.8,1.5h-8c-1-0.1-2-0.6-2.5-1.5l-8.7-15.3
	h-3.3v15c0,1-0.7,1.8-1.7,1.8l0,0h-6.4c-1,0-1.7-0.8-1.7-1.7V67.9c0-1,0.8-1.7,1.7-1.7l0,0L55.7,66.2z M49.8,84.7h4.2
	c7.1,0,7.1-3.7,7.1-5.3c0-2.4-0.5-4.7-7.1-4.7h-4.2V84.7z M38.3,109l-14-41.3c-0.4-1-1.3-1.6-2.2-1.6h-5.7c-1,0.1-1.9,0.7-2.2,1.6
	L0.1,109c-0.3,0.6-0.1,1.3,0.5,1.6c0.2,0.1,0.4,0.1,0.6,0.1h6.8c1-0.1,1.9-0.7,2.2-1.6l1.9-5.9l13.7,0.1l1.9,5.9
	c0.4,1,1.2,1.6,2.2,1.6h7c0.6,0.1,1.2-0.4,1.3-1C38.4,109.5,38.4,109.3,38.3,109z M15.3,94l3.9-11.9L23,94H15.3z"/>
<g>
	<g>
		<g>
			<defs>
				<path id="SVGID_1_" d="M119.3,59c-2.1,0.5-4.3,0.7-6.5,0.7c-2.2,0-4.4,0.1-6.5,0.3c-2.2,0.2-4.4,0.5-6.5,1
					c-4.3,0.8-8.7,0.9-13,0.1c-2.1-0.4-4.3-0.7-6.5-0.8c-2.2-0.1-4.4-0.1-6.5,0.2c-2.2,0.2-4.3,0.4-6.5,0.2
					c-2.2-0.1-4.3-0.4-6.4-0.8c-2.1-0.4-4.3-0.7-6.5-0.7c-2.2,0-4.4,0.2-6.5,0.7c-2.2,0.5-4.4,0.8-6.6,1C39.2,61,37,61.1,34.8,61
					c-2.2-0.1-4.5,0.2-6.6,0.8V0.2c2.1-0.3,4.2-0.3,6.3,0c2.1,0.3,4.2,0.4,6.2,0.5s4.2-0.1,6.2-0.3s4.2-0.2,6.3,0.1
					c2.1,0.2,4.2,0.7,6.2,1.5c2,0.7,4.1,1.2,6.2,1.6S69.8,4,71.9,4c2.1,0,4.2,0.1,6.2,0.5c2.1,0.3,4.2,0.8,6.2,1.5
					c2,0.6,4.1,1,6.2,1.2c2.1,0.2,4.2,0.2,6.3,0c2.1-0.2,4.2-0.3,6.4-0.2c2.1,0,4.2,0.1,6.4,0.4c2.1,0.2,4.3,0.2,6.4-0.1
					C116.7,22.7,118.4,43.4,119.3,59z"/>
			</defs>
			<clipPath id="SVGID_2_">
				<use xlink:href="#SVGID_1_"  style="overflow:visible;"/>
			</clipPath>
			<g class="st0">
				<g>
					<path class="st1" d="M81.5,20.9l0.6-0.3c1.6-0.8,3-1.8,4.6-2.6c2.2-1.1,4.9-1.7,7-3c2.4-1.5,3.9-3.5,6.2-5.1
						c1.8-1.1,4.1-1.9,6.1-2.9c-0.8-0.1-1.8-0.1-3-0.1c-2.1-0.1-4.2,0.1-6.4,0.2c-2.1,0.2-4.2,0.2-6.3,0c-2.1-0.2-4.2-0.6-6.2-1.2
						c-0.9-0.3-1.8-0.5-3.1-0.8C81,10.6,81.2,15.7,81.5,20.9 M62.9,19.5c-0.2-5.4-0.4-11-0.3-16.7c-1.3-0.3-2.2-0.6-3.1-0.9
						c-2-0.7-4.1-1.2-6.2-1.5c-2.1-0.3-4.2-0.3-6.3-0.1c-2.1,0.2-4.2,0.4-6.2,0.2c-1.1,0-2.1-0.1-2.9-0.1c2.2,1.6,4.8,2.6,7.1,4.2
						c1.6,1.2,3.1,2.6,4.8,3.8l0.6,0.4c2.1,1.4,4.4,2.5,6.2,4.1C58.9,15.1,60.5,17.6,62.9,19.5 M28.2,54.8c0.7-0.4,2.1-1.3,3.4-2.3
						l0.4-0.2c1.8-1.3,3.4-2.8,5.2-4.1c2.2-1.6,4.9-2.7,7.1-4.2c1.5-1.1,2.9-2.3,4.1-3.7h-0.2c-2.1,0.4-4.3,0.7-6.5,0.8
						c-2.2,0.2-4.4,0.2-6.7,0c-2.3-0.2-4.5,0-6.8,0.4L28.2,54.8 M28.2,20.8c2.2-0.3,4.4-0.3,6.5,0c2.1,0.2,4.2,0.4,6.4,0.4
						c2.1,0,4.2-0.1,6.3-0.4h0.2l-0.7-0.5c-2.8-2.1-6.4-3.3-9.1-5.4c-2.5-1.8-4.2-4.4-6.7-6.1c-0.8-0.5-1.8-1-2.8-1.3L28.2,20.8
						 M118.9,53c-0.2-3.8-0.5-7.5-0.7-11.3c-2.2,0.4-4.4,0.4-6.5,0.3s-4.3-0.2-6.5-0.1c-2.1,0.1-4.2,0.2-6.4,0.6h-0.2l0.7,0.5
						c2.9,1.8,6.5,2.7,9.4,4.3c2.7,1.5,4.4,3.5,7.1,4.7C117,52.5,117.9,52.8,118.9,53 M116.9,24.4c-0.2-3.8-0.5-7.5-0.7-11.2
						c-0.7,0.4-1.9,1-3.1,1.8l-0.3,0.2c-1.7,1-3.1,2.2-4.8,3.3c-2.1,1.3-4.7,2.1-6.8,3.4c-1.5,0.8-2.7,1.9-3.9,3.1h0.1
						c2.1-0.3,4.2-0.5,6.4-0.5c2.2-0.1,4.4,0,6.5,0.2C112.5,24.8,114.8,24.7,116.9,24.4 M83.6,60.4c1.3,0.2,2.3,0.4,3.3,0.5
						c4.3,0.8,8.7,0.8,13-0.1c2.1-0.5,4.3-0.8,6.5-1c1.1-0.1,2.1-0.2,2.9-0.2c-2.4-1.1-5.1-1.8-7.4-3c-1.7-0.9-3.3-2.1-5-3l-0.7-0.4
						c-1.5-0.8-3.1-1.3-4.7-2.2c-1.1-0.6-2.1-1.3-3-2.1c-1.8-1.5-3.2-3.3-5.1-4.7C83.5,49.6,83.6,54.9,83.6,60.4 M41.3,60.8
						c2.2-0.2,4.4-0.5,6.6-1c2.2-0.5,4.4-0.7,6.6-0.7c2.2,0,4.4,0.2,6.5,0.7c1,0.2,1.9,0.4,3.3,0.5c0.3-5.6,0.3-11,0.1-16.3
						l-0.6,0.3c-1.6,0.9-3.1,2-4.8,3c-2.3,1.3-5.1,2.2-7.3,3.8c-2.5,1.8-4.2,4.2-6.7,6.1c-1.9,1.5-4.3,2.5-6.4,3.9
						C39.2,61,40.2,60.9,41.3,60.8"/>
				</g>
				<path class="st2" d="M28.2,37.3c2.2-0.4,4.5-0.5,6.8-0.3c2.2,0.2,4.4,0.2,6.6,0.1c2.2-0.1,4.4-0.3,6.5-0.7
					c2.1-0.4,4.2-0.5,6.4-0.4c2.2,0.1,4.3,0.4,6.4,0.8c2.1,0.5,4.2,0.8,6.4,0.9c0.5,0.1,1,0.1,1.5,0.1c0.5,7.6,0.7,15.2,0.4,22.8
					c1.7,0.1,3.3-0.1,5-0.2c1.7-0.2,3.4-0.3,5.1-0.2c0.2-7.8-0.2-15.2-0.7-22.5c0.4,0,0.8,0.1,1.3,0.1c2.1,0.1,4.3,0.4,6.4,0.9
					s4.2,0.7,6.4,0.8c2.1,0.1,4.2,0,6.3-0.4c2.1-0.4,4.2-0.5,6.4-0.6c2.2-0.1,4.3-0.1,6.4,0.1c2.2,0.2,4.4,0.1,6.5-0.2l-0.7-10.4
					c-2.2,0.3-4.4,0.4-6.6,0.2c-2.2-0.2-4.4-0.2-6.5-0.2c-2.1,0-4.2,0.2-6.4,0.5c-2.1,0.3-4.2,0.4-6.3,0.2c-2.1-0.1-4.2-0.4-6.3-0.9
					c-2.1-0.5-4.2-0.8-6.3-1l-1.3-0.1c-0.6-7.4-0.8-14.9-0.7-22.4c-1.6-0.2-3.3-0.3-4.9-0.3c-1.6,0.1-3.2-0.1-4.8-0.3
					c-0.2,8,0.2,15.6,0.7,23c-0.4,0-0.9-0.1-1.4-0.1c-2.1-0.2-4.2-0.5-6.2-1.1c-2.1-0.5-4.2-0.9-6.3-1c-2.1-0.2-4.2-0.1-6.3,0.2
					c-2.1,0.3-4.2,0.5-6.4,0.5c-2.2,0.1-4.3-0.1-6.4-0.3c-2.2-0.2-4.4-0.2-6.6,0.1L28.2,37.3"/>
				<path class="st2" d="M28.2,5c2.8,1,4.2,2.2,6.4,4.4c1.1,1.3,2.4,2.5,3.9,3.4c2.2,1.5,4.8,2.4,7.1,4c1.6,1.1,3,2.3,4.7,3.4
					l0.2,0.1c2.7-0.1,5.3,0.2,7.9,0.8c-0.7-0.7-1.4-1.3-2.2-1.8c-2.2-1.6-4.9-2.8-7.1-4.4c-1.6-1.1-3-2.4-4.6-3.4L44,11.3
					c-0.7-0.4-1.5-0.8-2.2-1.3c-3.4-1.8-4.5-2.3-7.3-5.3c-1.6-1.7-3.2-3.3-6.4-4.5V5"/>
				<path class="st3" d="M28.2,0.2c2.1,0.8,2.1,0.6,8,6.2c2.6,2.4,6.2,3.7,9.2,5.8c1.5,1,2.8,2.2,4.3,3.3c2.1,1.5,4.5,2.5,6.6,4
					c0.7,0.5,1.4,1.1,2,1.7c-2.6-0.5-5.2-0.8-7.9-0.8l-0.3-0.2c-1.7-1.1-3.2-2.4-4.9-3.6c-2.2-1.5-4.7-2.4-6.8-3.8
					c-1.4-1-2.7-2.2-3.8-3.4C32.4,7.2,30.9,6,28.2,5v2.4c1,0.4,1.9,0.8,2.8,1.3c2.7,1.8,4.4,4.4,7.1,6.3c2.7,1.9,6.1,3.1,8.8,5.1
					l0.7,0.5h-0.2c-2.1,0.3-4.2,0.4-6.3,0.4c-2.1,0-4.3-0.1-6.4-0.4c-2.2-0.3-4.4-0.3-6.5,0v4.1c2.2-0.3,4.4-0.4,6.6-0.1
					c2.1,0.2,4.3,0.4,6.4,0.4c2.1,0,4.2-0.2,6.3-0.5s4.2-0.4,6.3-0.2c2.1,0.1,4.2,0.5,6.3,1c2.1,0.5,4.2,0.9,6.3,1.1
					c0.5,0.1,1,0.1,1.4,0.1c-0.5-7.4-0.9-15-0.7-23c-0.4-0.1-0.9-0.1-1.4-0.2c-1.2-0.2-2.2-0.4-3.1-0.6c-0.1,5.7,0.1,11.3,0.3,16.7
					c-2.4-2-4.1-4.5-6.5-6.5c-1.9-1.6-4.2-2.7-6.2-4.1l-0.6-0.4c-1.7-1.2-3.1-2.6-4.8-3.8c-2.1-1.8-4.7-2.8-6.9-4.3
					c-1.4-0.1-2.4-0.2-3.3-0.4C32.3-0.1,30.2-0.1,28.2,0.2 M78.9,60.1l1.4,0.1c1.3,0.1,2.4,0.1,3.3,0.2c0.1-5.5-0.1-10.8-0.4-16
					c2.5,1.8,4.2,4.1,6.7,5.8c1.9,1.4,4.4,2.2,6.5,3.3l0.3,0.2c1.9,1,3.5,2.2,5.3,3.1c2.3,1.2,5,1.8,7.2,2.9
					c1.5-0.1,2.6-0.1,3.6-0.1c2.1,0,4.2-0.2,6.3-0.7c-3.2-0.6-4.2-1.4-7.1-3.6c-2.5-1.9-3.1-2.7-7.5-4.4c-4.8-2.2-9-4.2-13.9-6.9
					c-1-0.4-1.9-1-2.8-1.6c1.6,0.2,3.1,0.4,4.7,0.4c1.1,0.1,2.2,0,3.3-0.1l0.3,0.2c1.8,1,3.3,2.1,5.1,3c2.2,1.2,4.9,1.9,7.1,3
					c1.5,0.7,2.8,1.7,4.1,2.7c2.2,1.7,3.7,2.6,6.6,3.2c-0.1-0.7-0.1-1.3-0.1-2c-1-0.2-2-0.5-3-0.9c-2.8-1.3-4.7-3.4-7.5-4.9
					s-6.3-2.4-9.1-4.1l-0.7-0.4h0.1c2.1-0.4,4.2-0.5,6.4-0.6c2.2-0.1,4.3-0.1,6.5,0.1c2.2,0.1,4.4,0,6.5-0.4l-0.2-3.4
					c-2.2,0.3-4.4,0.4-6.5,0.2s-4.3-0.2-6.5-0.1c-2.1,0.1-4.2,0.2-6.4,0.6c-2.1,0.4-4.2,0.5-6.3,0.4c-2.1-0.1-4.2-0.3-6.3-0.8
					s-4.2-0.8-6.4-0.9c-0.5-0.1-1-0.1-1.3-0.1C78.7,44.9,79.2,52.3,78.9,60.1"/>
				<path class="st2" d="M81.7,23.6c1.3,0.2,2.2,0.4,3.1,0.7c0.5,0.1,1.1,0.2,1.8,0.4c2.2-1.2,5-1.9,7.1-3.2c2.1-1.3,3.4-3,5.3-4.5
					c0.2-0.2,0.2-0.1,7.4-3.9c1.8-1,3.4-2.2,5.1-3.4c1.8-1.1,3.3-1.9,4.4-2.5l0,0c-2.1,0.3-4.2,0.3-6.4,0.1l-0.4-0.1l-0.2,0.2
					c-2.8,1.9-6.4,3-9,4.7c-2.5,1.6-4,3.8-6.5,5.3c-2.2,1.2-4.8,1.9-6.9,3c-1.5,0.8-2.8,1.8-4.4,2.5L81.7,23V23.6"/>
				<path class="st3" d="M77.4,26.7l1.3,0.1c2.1,0.2,4.2,0.5,6.3,1s4.2,0.8,6.3,0.9s4.2,0.1,6.3-0.2c2.1-0.3,4.2-0.5,6.4-0.5
					c2.2-0.1,4.4,0,6.5,0.2c2.2,0.2,4.4,0.1,6.6-0.2c-0.1-1.1-0.2-2.3-0.2-3.4c-2.2,0.3-4.4,0.4-6.6,0.2s-4.4-0.2-6.5-0.2
					c-2.1,0-4.2,0.2-6.4,0.5h-0.1c1.1-1.3,2.5-2.4,4-3.2c2.2-1.3,4.8-2.1,7-3.5c1.5-1,3-2.1,4.5-3.1l0.3-0.2
					c1.2-0.7,2.5-1.4,3.1-1.7c-0.1-2-0.2-4-0.3-6.1c-0.8,0.4-2.5,1.3-4.3,2.5c-1.8,1.2-3.5,2.5-5.4,3.6c-6.7,3.4-6.7,3.3-7.4,3.9
					c-1.7,1.4-3,3-5,4.2c-2.2,1.3-5,2-7.2,3.2c-0.6-0.1-1.2-0.2-1.8-0.4c-0.9-0.2-1.9-0.4-3.1-0.7V23l0.3-0.1c1.6-0.8,3-1.8,4.6-2.6
					c2.1-1.1,4.5-1.7,6.6-2.8c2.7-1.5,4.2-3.8,6.8-5.5c2.7-1.8,6.2-2.8,9-4.7l0.1-0.1c-0.9-0.1-1.8-0.2-3-0.2
					c-6.7,3.3-6.7,3.2-7.4,3.9c-1.8,1.4-3.1,3-5.1,4.2c-2.2,1.3-4.8,1.9-7.1,3c-1.6,0.8-3,1.8-4.6,2.6l-0.4,0.2
					c-0.3-5.1-0.5-10.3-0.3-15.8c-0.8-0.2-1.9-0.4-3.1-0.6c-0.5-0.1-0.9-0.1-1.3-0.2C76.6,11.7,76.8,19.2,77.4,26.7"/>
				<path class="st2" d="M34.7,61.1h0.6c3-2.5,6.7-4.1,9.6-6.2c2.6-2,4.3-4.6,7-6.4c2.3-1.5,5-2.3,7.2-3.6c1.5-0.9,2.9-1.9,4.5-2.8
					l0.5-0.3c0-0.2,0-0.4-0.1-0.7c-1.3-0.2-2.3-0.4-3.2-0.6c-0.5-0.1-1-0.2-1.6-0.3c-2.4,1.4-5.3,2.2-7.7,3.9
					c-2.1,1.4-3.4,3.3-5.3,5c-0.7,0.7-0.6,0.5-7.8,5c-2,1.3-3.7,2.8-5.6,4.4c-1,0.8-2.3,1.8-4.5,3.3C30.6,61.3,32.6,61,34.7,61.1"/>
				<path class="st3" d="M28.2,41.4c2.2-0.4,4.5-0.5,6.8-0.4c2.2,0.2,4.4,0.2,6.7,0c2.2-0.1,4.4-0.4,6.5-0.7h0.2
					c-1.2,1.4-2.6,2.7-4.2,3.8c-2.2,1.5-4.8,2.5-7.1,4.2c-1.6,1.2-3.1,2.6-4.8,3.9l-0.7,0.5c-1.3,1-2.8,1.9-3.3,2.2v7.1l0.4-0.1
					c1.2-0.8,2.7-1.9,4.4-3.3c2-1.6,3.8-3.3,5.9-4.6c6.7-4.1,6.6-3.9,7.7-5c1.7-1.6,3.1-3.4,5-4.7c2.4-1.6,5.3-2.5,7.7-3.9
					c0.5,0.1,1.1,0.2,1.6,0.3c1,0.2,1.9,0.4,3.2,0.6c0,0.2,0,0.4,0.1,0.7L63.9,42c-1.6,0.8-3.1,2-4.8,3c-2.2,1.3-5,2.2-7.3,3.6
					c-2.8,1.8-4.5,4.5-7.3,6.6s-6.4,3.5-9.2,5.9c0.8,0,1.8,0,3-0.1c6.9-4.4,6.9-4.2,7.9-5.1c1.9-1.8,3.4-3.6,5.5-5.1
					c2.2-1.5,5-2.4,7.3-3.7c1.6-1,3.1-2.1,4.8-3l0.4-0.2c0.2,5.3,0.2,10.7-0.1,16.3c0.8,0.1,1.9,0.2,3.2,0.2c0.5,0,1,0.1,1.5,0.1
					c0.3-7.6,0.2-15.2-0.4-22.8c-0.4,0-0.9-0.1-1.5-0.1c-2.1-0.1-4.2-0.4-6.4-0.9s-4.2-0.8-6.4-0.8c-2.1-0.1-4.3,0-6.4,0.4
					c-2.1,0.4-4.3,0.6-6.5,0.7c-2.2,0.1-4.4,0.1-6.6-0.1c-2.2-0.2-4.5-0.1-6.8,0.3L28.2,41.4"/>
				<path class="st2" d="M119.1,59l0.2-0.1l-0.2-3.9c-3-0.6-4.4-1.5-6.7-3.3c-1.3-1.1-2.7-2-4.1-2.7c-2.3-1.1-5.1-1.8-7.4-3.1
					c-1.6-0.9-3.1-1.9-4.8-2.8l-0.2-0.1C94.8,43,93.7,43,92.6,43c-1.6-0.1-3.1-0.2-4.7-0.4c0.7,0.6,1.5,1.1,2.2,1.6
					c2.3,1.5,5,2.3,7.3,3.7c1.6,0.9,3.1,2,4.8,2.8l0.3,0.2c0.7,0.4,1.5,0.7,2.3,1c3.6,1.3,4.7,1.7,7.7,4
					C116.7,59.1,118.9,59,119.1,59"/>
			</g>
		</g>
	</g>
</g>
<g>
	<g>
		<defs>
			<rect id="SVGID_3_" x="0" y="114.1" width="149.9" height="20.8"/>
		</defs>
		<clipPath id="SVGID_4_">
			<use xlink:href="#SVGID_3_"  style="overflow:visible;"/>
		</clipPath>
		<g class="st4">
			<path d="M122,131.2c0.1-0.3,0.4-0.5,0.7-0.4l0,0h0.1c1.5,0.7,3,1.1,4.6,1.1c2.4,0,3.4-0.9,3.4-2.8c0-1.6-0.8-2.2-3.4-3.3
				c-3.3-1.2-5.4-2.1-5.4-6c0-3.4,2.5-5.8,6.3-5.8c1.9,0,3.8,0.4,5.4,1.1c0.2,0.1,0.4,0.4,0.3,0.7l-0.5,1.8
				c-0.1,0.3-0.4,0.4-0.7,0.4c-1.4-0.5-2.9-0.8-4.4-0.8c-2,0-3,0.8-3,2.4s1,2.2,3.7,3.2c3.2,1.1,5.4,2.1,5.4,5.9
				c0,3.7-2.5,6.1-6.5,6.1c-2.1,0.1-4.1-0.4-5.9-1.4c-0.2-0.1-0.3-0.4-0.2-0.6L122,131.2z M119.2,131.3h-7.4c-0.2,0-0.3-0.1-0.3-0.3
				l0,0v-5.1c0-0.2,0.1-0.3,0.3-0.3h5.5c0.3,0,0.5-0.2,0.5-0.5V123c0-0.3-0.2-0.5-0.5-0.5h-5.5c-0.2,0-0.3-0.1-0.3-0.3l0,0v-4.3
				c0-0.2,0.1-0.3,0.3-0.3h7c0.3,0,0.5-0.2,0.5-0.5v-2c0-0.3-0.2-0.5-0.5-0.5h-10.4c-0.3,0-0.5,0.2-0.5,0.5v19
				c0,0.3,0.2,0.5,0.5,0.5h10.8c0.3,0,0.5-0.2,0.5-0.5v-2.1C119.7,131.5,119.5,131.3,119.2,131.3L119.2,131.3z M28.2,131.3h-7.4
				c-0.2,0-0.3-0.1-0.3-0.3l0,0v-5.1c0-0.2,0.1-0.3,0.3-0.3h5.5c0.3,0,0.5-0.2,0.5-0.5V123c0-0.3-0.2-0.5-0.5-0.5h-5.5
				c-0.2,0-0.3-0.1-0.3-0.3l0,0v-4.3c0-0.2,0.1-0.3,0.3-0.3h7c0.3,0,0.5-0.2,0.5-0.5l0,0v-2c0-0.3-0.2-0.5-0.5-0.5l0,0H17.3
				c-0.3,0-0.5,0.2-0.5,0.5l0,0v19c0,0.3,0.2,0.5,0.5,0.5l0,0h10.8c0.3,0,0.5-0.2,0.5-0.5v-2.1C28.6,131.5,28.4,131.3,28.2,131.3
				L28.2,131.3z M81.5,131.3h-7.4c-0.2,0-0.3-0.1-0.3-0.3l0,0v-5.1c0-0.2,0.1-0.3,0.3-0.3h5.5c0.3,0,0.5-0.2,0.5-0.5V123
				c0-0.3-0.2-0.5-0.5-0.5h-5.5c-0.2,0-0.3-0.1-0.3-0.3l0,0v-4.3c0-0.2,0.1-0.3,0.3-0.3h7c0.3,0,0.5-0.2,0.5-0.5v-2
				c0-0.3-0.2-0.5-0.5-0.5H70.6c-0.3,0-0.5,0.2-0.5,0.5v19c0,0.3,0.2,0.5,0.5,0.5h10.8c0.3,0,0.5-0.2,0.5-0.5v-2.1
				C82,131.5,81.7,131.3,81.5,131.3L81.5,131.3z M149.4,114.4h-13.7c-0.3,0-0.5,0.2-0.5,0.5v2.1c0,0.3,0.2,0.5,0.5,0.5h4.5
				c0.2,0,0.3,0.1,0.3,0.3v16c0,0.3,0.2,0.5,0.5,0.5l0,0h2.8c0.3,0,0.5-0.2,0.5-0.5v-16c0-0.2,0.1-0.3,0.3-0.3h4.6
				c0.3,0,0.5-0.2,0.5-0.5v-2.1C149.9,114.6,149.7,114.4,149.4,114.4L149.4,114.4z M49.3,114.4H35.7c-0.3,0-0.5,0.2-0.5,0.5v2.1
				c0,0.3,0.2,0.5,0.5,0.5h4.5c0.2,0,0.3,0.1,0.3,0.3v16c0,0.3,0.2,0.5,0.5,0.5h2.8c0.3,0,0.5-0.2,0.5-0.5l0,0v-16
				c0-0.2,0.1-0.3,0.3-0.3h4.6c0.3,0,0.5-0.2,0.5-0.5v-2.1C49.9,114.6,49.6,114.4,49.3,114.4z M66,114.4h-2.8
				c-0.3,0-0.5,0.2-0.5,0.5v7.2c0,0.2-0.1,0.3-0.3,0.3h-6.5c-0.2,0-0.3-0.1-0.3-0.3V115c0-0.3-0.2-0.5-0.5-0.5l0,0h-2.8
				c-0.3,0-0.5,0.2-0.5,0.5l0,0v19c0,0.3,0.2,0.5,0.5,0.5l0,0H55c0.3,0,0.5-0.2,0.5-0.5l0,0v-8c0-0.2,0.1-0.3,0.3-0.3h6.5
				c0.2,0,0.3,0.1,0.3,0.3v8c0,0.3,0.2,0.5,0.5,0.5H66c0.3,0,0.5-0.2,0.5-0.5v-19C66.6,114.6,66.3,114.4,66,114.4L66,114.4L66,114.4
				z M6.1,131.6h-2c-0.2,0-0.3-0.1-0.3-0.3v-5c0-0.2,0.1-0.3,0.3-0.3h2.1c1.8,0,3.8,0.5,3.8,3C9.9,130.8,8.9,131.6,6.1,131.6
				L6.1,131.6z M9.7,120c0,1.9-1,2.7-3.6,2.7H4.1c-0.2,0-0.3-0.1-0.3-0.3v-4.8c0-0.2,0.1-0.3,0.3-0.3H6C8.6,117.3,9.6,118.1,9.7,120
				 M13.8,129c0-2.4-0.9-3.9-2.8-4.8c1.6-1,2.6-2.7,2.5-4.6c0-4.7-4.2-5.3-7.4-5.3H0.6c-0.3,0-0.5,0.2-0.5,0.5v19
				c0,0.3,0.2,0.5,0.5,0.5h6.3C11.4,134.5,13.8,132.6,13.8,129 M97.3,131.6h-1.9c-0.2,0-0.3-0.1-0.3-0.3v-5c0-0.2,0.1-0.3,0.3-0.3
				h2.1c1.8,0,3.8,0.5,3.8,3C101.2,130.8,100.1,131.6,97.3,131.6L97.3,131.6z M100.9,120c0,1.9-1,2.7-3.6,2.7h-2
				c-0.2,0-0.3-0.1-0.3-0.3v-4.8c0-0.2,0.1-0.3,0.3-0.3h1.9C99.9,117.3,100.9,118.1,100.9,120 M105.1,129c0-2.4-0.9-3.9-2.8-4.8
				c1.6-1,2.6-2.7,2.5-4.6c0-4.7-4.2-5.3-7.4-5.3h-5.5c-0.3,0-0.5,0.2-0.5,0.5v19c0,0.3,0.2,0.5,0.5,0.5h6.3
				C102.7,134.5,105,132.6,105.1,129"/>
		</g>
	</g>
</g>
</svg>
