<?xml version="1.0" encoding="utf-8"?><svg id="Default" xmlns="http://www.w3.org/2000/svg" viewBox="0 0 726.47 251.74"><defs><style>.cls-1,.cls-2{fill:#353e90;}.cls-2{font-size:47px;font-family:Gravity-Regular, Gravity;}</style></defs><path class="cls-1" d="M449.37,17.75c-1.82,10.73-3.62,21.59-5.43,32.25q-4.38,25.71-8.74,51.4c-1.43,8.39-2.86,18-4.3,26.46h26.69s4.84-33,9.82-55.35c.85-3.8,1.7-7.33,2.53-10.4q3.18,19.67,6.36,39.29c1.36,8.4,2.63,18.07,4,26.46h18.45c10.93-21.68,21.85-44.38,32.75-66-4.13,23.62-7.28,44.85-10.9,66h26.35c6.22-36.29,12.41-73.74,18.64-110.11H529.92s-23.69,48.53-35.48,72.79l-1.65-11.7c-3.58-25.42-8.59-61.09-8.59-61.09"/><path class="cls-1" d="M302.23,17.75c-3.83,20.75-7.57,42.55-11.34,62.94l-1.55.14C281.48,60.13,273.6,38,265.93,17.75H239.48C233.23,53.61,227,92,220.78,127.86h26.57c3.68-20.69,7.34-42.83,11-63.42l1.7-.41c8,20.83,16,42.75,24.05,63.83h26.07C316.32,92.1,322.47,54,328.7,17.75,319.3,17.85,302.23,17.75,302.23,17.75Z"/><path class="cls-1" d="M626.08,17.75c-1.59,9.07-3.25,18.52-4.83,27.57l-4.74,27.13-4.74,27.13c-1.58,9.06-3.17,19.19-4.75,28.28h26.9c.91-3.41,1.41-7.09,1.8-8.94.7-3.23.62-3.19,2.75-12l1.67-6.71C641.28,99,647.64,91,651.73,89c1.28,3.2,2.54,6.39,3.81,9.56s2.52,6.32,3.77,9.47l3.74,9.4c1.25,3.12,2.87,7.3,4.11,10.41h30.33c-1-2.55-2.48-6.13-3.51-8.61l-3.07-7.4-3-7.29-3-7.24-3.09-7.43-3.1-7.45q-1.55-3.75-3.12-7.51t-3.15-7.58L683.6,55.08l11.21-12.29,11.33-12.44,9.66-10.6V17.66l-5.73,0-7.19,0c-2.34,0-4.63,0-6.89,0s-4.55.11-6.78,0c-1.15,0-3,0-3.86,0a4,4,0,0,0-2.17.25,4.38,4.38,0,0,0-1.19.72,29,29,0,0,0-3.44,3.73c-2.56,3.15-5.16,6.27-7.77,9.39s-5.23,6.21-7.87,9.3-5.28,6.18-7.92,9.27-5.09,6.06-7.71,9.17c-.3.36-2,2.9-2,2.87s.61-2.92.66-3.25c.59-3.39,1.21-6.8,1.77-10.2s1.13-6.83,1.7-10.28,1.15-6.92,1.73-10.45,1.14-6.9,1.74-10.52"/><path class="cls-1" d="M54.47,18.91C48.25,55.13,42.1,91,35.78,127.78c15.09,0,28.66.24,42.22-.1,8.22-.2,15.83-3,22.9-7.27,24.16-14.53,36.45-49.06,26.57-75.35-5-13.29-14-23-28.25-25.66A113.67,113.67,0,0,0,83.3,17.65H70.73C65.35,17.86,59.92,18.31,54.47,18.91Zm32.74,20.2c8.44.14,13.93,4.29,15.48,12.56,2.88,15.36.7,30.18-7.31,43.63-6.43,10.78-16.8,13-29.51,10.65q5.77-33.24,11.38-65.62C80.94,38.74,84.11,39.06,87.21,39.11Z"/><path class="cls-1" d="M377.06,17.75c-9.43,17.83-18.83,37-28.3,54.94s-19,36.85-28.71,55.17l15.37-.07,14.2.07c1.58-3.14,3.1-7.67,4.62-10.68s3-6,4.46-8.89h33.79c.51,3.08,1,6.07,1.5,9s1,7.51,1.49,10.53H422.8c-3.35-18.07-6.68-37.56-10-55.46q-1.53-8.3-3.08-16.58c-2.29-12.36-4.24-25.67-6.55-38.07M381.3,56.31l4.7-10,4.14,37.4H368.35C372.48,75,377,65.37,381.3,56.31Z"/><path class="cls-1" d="M334.17,169.68c8.64-9,17.31-17.88,26.39-27.24a10.05,10.05,0,0,0-2.15-.75l-146.89-.09c-2.14,0-4.23.07-5.83,1.7q-13.24,13.53-26.48,27.11h154A4.52,4.52,0,0,0,334.17,169.68Z"/><path class="cls-1" d="M379.46,141.58c-1.88,0-3.73.09-5.13,1.48-9,8.9-18,17.84-27.13,26.93l.68.42H500.29a4.21,4.21,0,0,0,1.06-.77l27.16-27a16.53,16.53,0,0,0-2.31-.91Z"/><path class="cls-1" d="M183.68,96.08a64.55,64.55,0,0,1,9.54-20c7.15-10,11.5-17.66,17.27-26.5s12.48-18,18.41-26.7a7.08,7.08,0,0,0,1.09-2,5,5,0,0,0-.73-3.16H201.15c-4.31,7-8.6,15.76-13,23.13L174.66,63.54c-2-8-3.85-15.51-5.67-22.84s-3.59-14.45-5.35-23.05H135.78l.34,1.51c.28,1,.52,2,.77,2.93s.48,1.79.75,2.65q4.29,13.38,8.58,26.76t8.66,26.72a38.42,38.42,0,0,1,1.85,8.66,29.67,29.67,0,0,1-.61,8.93c-1.12,5-2,10.15-2.82,15.32s-1.67,11.39-2.56,16.73c0,0,9.13,0,13.45,0s9.08,0,13.26,0"/><path class="cls-1" d="M693.74,142.13s.46-.49.25-.49c-47.88-.08-98-.18-145.9-.25-1.88,0-3.68.11-5.07,1.56l-26.47,27.46H664.41C674.17,161.43,684.4,152,693.74,142.13Z"/><path class="cls-1" d="M590.42,127.86c6.12-35.71,12.55-74,18.74-110.11,0,0-17.18.13-26.56,0-6.33,36.19-12.81,74-19.11,110.11Z"/><path class="cls-1" d="M166.14,169.66c8.64-8.95,17.31-17.87,26.39-27.23a9.33,9.33,0,0,0-2.15-.75l-146.88-.1c-2.15,0-4.23.07-5.84,1.71-8.8,9-17.63,18.08-26.45,27.12h154A3.94,3.94,0,0,0,166.14,169.66Z"/><text class="cls-2" transform="translate(15.09 230.63)">The Sports Flooring Specialists</text></svg>