<?xml version="1.0" encoding="UTF-8" standalone="no"?><svg id="Layer_1" data-name="Layer 1" xmlns="http://www.w3.org/2000/svg" xmlns:xlink="http://www.w3.org/1999/xlink" viewBox="0 0 542.1 272.1"><defs><style>.cls-1{fill:none;}.cls-2{clip-path:url(#clip-path);}.cls-3{fill:#0d181c;}</style><clipPath id="clip-path"><rect class="cls-1" x="-66.44" y="-66.21" width="674.98" height="404.52"/></clipPath></defs><g class="cls-2"><polygon class="cls-3" points="322.2 176.39 303.51 176.39 303.51 167.67 320.09 167.67 320.09 162.16 303.51 162.16 303.51 153.44 322.2 153.44 322.2 147.88 297.5 147.88 297.5 181.95 322.2 181.95 322.2 176.39"/><polygon class="cls-3" points="358.98 181.95 358.98 147.88 353.02 147.88 353.02 171.98 334.03 147.88 328.47 147.88 328.47 181.95 334.48 181.95 334.48 158.1 353.27 181.95 358.98 181.95"/><path class="cls-3" d="M382.64,182.7c4.76,0,10-1.25,15.73-3.71V162.36h-18v5.56h12.27v7.42a36.64,36.64,0,0,1-10,1.5,11.54,11.54,0,0,1-8.62-3.31,12,12,0,0,1-3.26-8.77,11,11,0,0,1,3.61-8.56,13.93,13.93,0,0,1,9.57-3.26,68,68,0,0,1,10.08,1.3l1.2-5.61a47.78,47.78,0,0,0-11.73-1.5c-5.71,0-10.32,1.6-13.83,4.86a16.77,16.77,0,0,0-5.21,12.77c0,5.37,1.66,9.73,5,13S377.18,182.7,382.64,182.7Z"/><polygon class="cls-3" points="429.48 176.54 411.54 176.54 411.54 147.88 405.53 147.88 405.53 181.95 429.48 181.95 429.48 176.54"/><path class="cls-3" d="M443.62,175h17l3.11,7h6.71l-15.48-34.27h-5.61L433.79,182h6.82Zm8.51-19.5,6.17,14.08H446Z"/><polygon class="cls-3" points="505 181.95 505 147.88 499.04 147.88 499.04 171.98 480.05 147.88 474.49 147.88 474.49 181.95 480.5 181.95 480.5 158.1 499.29 181.95 505 181.95"/><path class="cls-3" d="M537.42,177.49c3.25-3.25,4.91-7.46,4.91-12.73s-1.71-9.42-5.06-12.57-7.67-4.76-13-4.76c-3,0-7,.15-12,.45V182c3.36.25,7.62.4,12.88.4A16.58,16.58,0,0,0,537.42,177.49Zm-19.14-24.3c1.75-.15,3.75-.2,6-.2a11.51,11.51,0,0,1,8.47,3.26,11.32,11.32,0,0,1,3.3,8.51,12.27,12.27,0,0,1-3.15,8.72,10,10,0,0,1-7.72,3.36c-1.55,0-3.86-.05-6.86-.2Z"/><polygon class="cls-3" points="324.08 220.47 303.48 194.32 297.45 194.32 297.45 231.29 303.97 231.29 303.97 205.41 324.36 231.29 330.55 231.29 330.55 194.32 324.08 194.32 324.08 220.47"/><polygon class="cls-3" points="336.87 231.29 363.66 231.29 363.66 225.25 343.39 225.25 343.39 215.8 361.38 215.8 361.38 209.82 343.39 209.82 343.39 200.36 363.66 200.36 363.66 194.32 336.87 194.32 336.87 231.29"/><polygon class="cls-3" points="368.64 200.36 382.13 200.36 382.13 231.29 388.65 231.29 388.65 200.36 402.13 200.36 402.13 194.32 368.64 194.32 368.64 200.36"/><path class="cls-3" d="M428.77,212.43a8.61,8.61,0,0,0,6.85-8.65c0-6.25-4.62-9.73-12.94-9.73-4.07,0-9.07.11-15,.28v37c5.54.33,10.76.49,15.71.49,8.75,0,14-3.86,14-10.66C437.41,216.78,434.15,213.46,428.77,212.43ZM414.2,199.87c.87,0,2.18,0,3.92-.05s3-.06,3.8-.06c5.17,0,7.56,1.52,7.56,5,0,3.26-2.67,5.33-6.85,5.33H414.2ZM422.63,226c-1.63,0-4.46-.06-8.43-.22V215.63h9.57c4.4,0,7.23,1.85,7.23,5C431,224.22,428.23,226,422.63,226Z"/><path class="cls-3" d="M456.21,194.11l-16.86,37.18h7.4l3.26-7.56h18.43l3.37,7.56h7.28l-16.8-37.18Zm-3.65,23.75,6.69-15.27,6.69,15.27Z"/><polygon class="cls-3" points="490.79 194.32 484.27 194.32 484.27 231.29 510.45 231.29 510.45 225.42 490.79 225.42 490.79 194.32"/><polygon class="cls-3" points="522.67 194.32 516.15 194.32 516.15 231.29 542.33 231.29 542.33 225.42 522.67 225.42 522.67 194.32"/><path class="cls-3" d="M193.49,212.55a18.74,18.74,0,1,0-18.74,18.73A18.74,18.74,0,0,0,193.49,212.55Z"/><path class="cls-3" d="M280,109.13l-33.46,0a1.38,1.38,0,0,0-1.54,1.25,1,1,0,0,0,.39.81,1.85,1.85,0,0,0,1.15.34h1.2c9,0,13.14,9.25,13.14,17.85l0,62.29,0,2.42c0,1.17-.22,1.24-.23,1.25s-.32,0-1.14-1.34c-4.07-6.65-12.51-21.17-19.95-34-7-12.11-13.11-22.56-14.75-25.1C212.61,115,206.56,109.22,190,109.06H69.29a1.71,1.71,0,1,0,0,3.41H86.06V210c0,5,0,14.27-8.51,17.91H69.1a1.71,1.71,0,0,0,0,3.42h89a1.71,1.71,0,0,0,0-3.42H105.39a1.86,1.86,0,0,1,.42-.05c10.07,0,15.39-7.22,15.39-20.88V167.76h.75c8.6,0,17.85,4.11,17.85,13.14v1.19a1.83,1.83,0,0,0,.34,1.15,1,1,0,0,0,.8.4,1.39,1.39,0,0,0,1.26-1.55l0-33.45a1.2,1.2,0,0,0-2.4,0v1.47c0,6.85-5.59,14.22-17.87,14.22h-.72l0-51.86h13c22,1.83,38.51,17.12,38.51,35.57v34.8h0v4.35a1.71,1.71,0,0,0,3.41,0V148.05a33.35,33.35,0,0,0-.73-7L229,232.86l4.08,6.52c2.71,4.09,7.1,5.68,12.27,5.68h13.28a5.5,5.5,0,0,0,4.11-1.3c1.39-1.4,1.64-3.87,1.58-7.67V129.41c0-12.28,7.37-17.87,14.22-17.87H280a1.21,1.21,0,0,0,0-2.41Z"/><path class="cls-3" d="M176.15,149.24v.17l.06.25A1.42,1.42,0,0,0,176.15,149.24Z"/><path class="cls-3" d="M135.82,268.49c-73,0-132.44-59.41-132.44-132.44S62.79,3.61,135.82,3.61A132.85,132.85,0,0,1,260.4,91a1.81,1.81,0,0,0,3.33.15,1.83,1.83,0,0,0,.06-1.38A136.46,136.46,0,0,0,135.82,0c-75,0-136,61-136,136.05s61,136.05,136,136.05a136.17,136.17,0,0,0,88.23-32l-2.18-3.54A131.77,131.77,0,0,1,135.82,268.49Z"/></g></svg>