<?xml version="1.0" encoding="UTF-8" standalone="no"?>
<svg
   xmlns:dc="http://purl.org/dc/elements/1.1/"
   xmlns:cc="http://creativecommons.org/ns#"
   xmlns:rdf="http://www.w3.org/1999/02/22-rdf-syntax-ns#"
   xmlns:svg="http://www.w3.org/2000/svg"
   xmlns="http://www.w3.org/2000/svg"
   viewBox="0 0 834.37335 460.104"
   height="460.104"
   width="834.37335"
   xml:space="preserve"
   id="svg2"
   version="1.1"><metadata
     id="metadata8"><rdf:RDF><cc:Work
         rdf:about=""><dc:format>image/svg+xml</dc:format><dc:type
           rdf:resource="http://purl.org/dc/dcmitype/StillImage" /></cc:Work></rdf:RDF></metadata><defs
     id="defs6"><clipPath
       id="clipPath26"
       clipPathUnits="userSpaceOnUse"><path
         id="path24"
         d="M 0,345.078 H 625.78 V 0 H 0 Z" /></clipPath><clipPath
       id="clipPath94"
       clipPathUnits="userSpaceOnUse"><path
         id="path92"
         d="M 0,345.078 H 625.78 V 0 H 0 Z" /></clipPath></defs><g
     transform="matrix(1.3333333,0,0,-1.3333333,0,460.104)"
     id="g10"><g
       transform="translate(362.5453,145.9332)"
       id="g12"><path
         id="path14"
         style="fill:#ffffff;fill-opacity:1;fill-rule:nonzero;stroke:none"
         d="m 0,0 v -5.801 h -17.458 v -9.178 H 2.215 v -5.854 H -23.788 V 15.033 H 2.215 V 9.178 H -17.458 V 0 Z" /></g><g
       transform="translate(403.4808,125.1001)"
       id="g16"><path
         id="path18"
         style="fill:#ffffff;fill-opacity:1;fill-rule:nonzero;stroke:none"
         d="M 0,0 H -6.013 L -25.792,25.105 V 0 h -6.329 v 35.866 h 5.854 L -6.276,10.495 V 35.866 H 0 Z" /></g><g
       id="g20"><g
         clip-path="url(#clipPath26)"
         id="g22"><g
           transform="translate(444.9456,128.2115)"
           id="g28"><path
             id="path30"
             style="fill:#ffffff;fill-opacity:1;fill-rule:nonzero;stroke:none"
             d="m 0,0 c -6.065,-2.584 -11.552,-3.903 -16.562,-3.903 -5.75,0 -10.391,1.74 -13.924,5.169 -3.482,3.481 -5.223,8.07 -5.223,13.713 0,5.539 1.847,10.022 5.486,13.451 3.693,3.428 8.544,5.116 14.557,5.116 4.062,0 8.176,-0.527 12.343,-1.583 l -1.266,-5.907 c -5.012,0.896 -8.545,1.372 -10.601,1.372 -4.167,0 -7.491,-1.161 -10.075,-3.429 -2.531,-2.268 -3.797,-5.274 -3.797,-9.02 0,-3.849 1.16,-6.91 3.428,-9.229 2.268,-2.321 5.327,-3.481 9.072,-3.481 3.323,0 6.856,0.526 10.548,1.582 v 7.805 h -12.922 v 5.855 l 18.936,0 z" /></g><g
           transform="translate(452.474,125.1001)"
           id="g32"><path
             id="path34"
             style="fill:#ffffff;fill-opacity:1;fill-rule:nonzero;stroke:none"
             d="M 0,0 V 35.866 H 6.329 V 5.696 H 25.212 V 0 Z" /></g><g
           transform="translate(495.0462,138.1275)"
           id="g36"><path
             id="path38"
             style="fill:#ffffff;fill-opacity:1;fill-rule:nonzero;stroke:none"
             d="M 0,0 H 12.975 L 6.487,14.821 Z m -5.644,-13.027 h -7.173 L 3.534,23.049 h 5.907 l 16.298,-36.076 h -7.068 l -3.27,7.331 h -17.88 z" /></g><g
           transform="translate(557.1849,125.1001)"
           id="g40"><path
             id="path42"
             style="fill:#ffffff;fill-opacity:1;fill-rule:nonzero;stroke:none"
             d="M 0,0 H -6.012 L -25.791,25.105 V 0 h -6.329 v 35.866 h 5.854 L -6.275,10.495 V 35.866 H 0 Z" /></g><g
           transform="translate(586.5052,134.0132)"
           id="g44"><path
             id="path46"
             style="fill:#ffffff;fill-opacity:1;fill-rule:nonzero;stroke:none"
             d="m 0,0 c 2.215,2.374 3.323,5.434 3.323,9.178 0,3.745 -1.16,6.699 -3.481,8.967 -2.268,2.267 -5.275,3.428 -8.914,3.428 -2.321,0 -4.431,-0.052 -6.277,-0.212 V -3.322 c 3.165,-0.159 5.591,-0.211 7.226,-0.211 3.218,0 5.96,1.16 8.123,3.533 M 4.642,22.417 C 8.176,19.094 9.969,14.663 9.969,9.178 9.969,3.64 8.229,-0.791 4.8,-4.219 1.372,-7.647 -2.9,-9.336 -8.123,-9.336 c -5.538,0 -10.022,0.159 -13.555,0.423 v 35.866 c 5.275,0.317 9.494,0.475 12.606,0.475 5.643,0 10.179,-1.689 13.714,-5.011" /></g><g
           transform="translate(373.556,73.1656)"
           id="g48"><path
             id="path50"
             style="fill:#ffffff;fill-opacity:1;fill-rule:nonzero;stroke:none"
             d="M 0,0 H -6.523 L -27.98,27.236 V 0 h -6.867 v 38.909 h 6.352 L -6.81,11.387 V 38.909 H 0 Z" /></g><g
           transform="translate(406.0052,95.7671)"
           id="g52"><path
             id="path54"
             style="fill:#ffffff;fill-opacity:1;fill-rule:nonzero;stroke:none"
             d="M 0,0 V -6.294 H -18.939 V -16.25 H 2.403 v -6.352 h -28.209 v 38.91 H 2.403 V 9.956 H -18.939 V 0 Z" /></g><g
           transform="translate(434.7054,73.1656)"
           id="g56"><path
             id="path58"
             style="fill:#ffffff;fill-opacity:1;fill-rule:nonzero;stroke:none"
             d="m 0,0 h -6.865 v 32.558 h -14.191 v 6.351 H 14.191 V 32.558 H 0 Z" /></g><g
           transform="translate(479.2874,84.438)"
           id="g60"><path
             id="path62"
             style="fill:#ffffff;fill-opacity:1;fill-rule:nonzero;stroke:none"
             d="m 0,0 c 0,3.261 -2.976,5.207 -7.61,5.207 h -10.071 v -10.7 c 4.178,-0.172 7.153,-0.229 8.87,-0.229 C -2.918,-5.722 0,-3.834 0,0 M -13.561,21.857 C -15.392,21.8 -16.765,21.8 -17.681,21.8 V 11.043 h 8.87 c 4.406,0 7.209,2.174 7.209,5.607 0,3.662 -2.518,5.265 -7.954,5.265 -0.858,0 -2.173,0 -4.005,-0.058 M 6.752,-0.572 c 0,-7.153 -5.55,-11.215 -14.762,-11.215 -5.208,0 -10.701,0.171 -16.536,0.515 v 38.909 c 6.236,0.171 11.5,0.285 15.791,0.285 C 0,27.922 4.864,24.261 4.864,17.68 4.864,13.16 2.175,9.784 -2.346,8.582 3.318,7.496 6.752,4.005 6.752,-0.572" /></g><g
           transform="translate(501.9857,87.2994)"
           id="g64"><path
             id="path66"
             style="fill:#ffffff;fill-opacity:1;fill-rule:nonzero;stroke:none"
             d="M 0,0 H 14.076 L 7.039,16.078 Z m -6.122,-14.134 h -7.782 L 3.834,25.004 h 6.408 l 17.681,-39.138 h -7.667 l -3.548,7.953 H -2.689 Z" /></g><g
           transform="translate(535.3627,73.1656)"
           id="g68"><path
             id="path70"
             style="fill:#ffffff;fill-opacity:1;fill-rule:nonzero;stroke:none"
             d="M 0,0 V 38.909 H 6.866 V 6.18 H 27.559 V 0 Z" /></g><g
           transform="translate(568.9154,73.1656)"
           id="g72"><path
             id="path74"
             style="fill:#ffffff;fill-opacity:1;fill-rule:nonzero;stroke:none"
             d="M 0,0 V 38.909 H 6.866 V 6.18 H 27.559 V 0 Z" /></g><g
           transform="translate(209.555,112.6167)"
           id="g76"><path
             id="path78"
             style="fill:#ffffff;fill-opacity:1;fill-rule:nonzero;stroke:none"
             d="m 0,0 c -10.892,0 -19.722,-8.83 -19.722,-19.722 0,-10.892 8.83,-19.721 19.722,-19.721 10.893,0 19.722,8.829 19.722,19.721 C 19.722,-8.83 10.893,0 0,0" /></g><g
           transform="translate(320.3705,201.7486)"
           id="g80"><path
             id="path82"
             style="fill:#ffffff;fill-opacity:1;fill-rule:nonzero;stroke:none"
             d="m 0,0 -35.213,-0.022 c -1.058,0 -1.63,-0.683 -1.63,-1.325 0,-0.331 0.149,-0.632 0.419,-0.848 0.291,-0.232 0.709,-0.354 1.211,-0.354 h 1.254 c 9.507,0 13.837,-9.742 13.837,-18.793 l 0.018,-65.565 -0.042,-2.555 c 0,-1.226 -0.234,-1.304 -0.244,-1.307 -0.03,-0.002 -0.337,-0.032 -1.202,1.408 -4.28,6.996 -13.163,22.277 -20.997,35.759 -7.405,12.741 -13.8,23.745 -15.519,26.42 C -70.967,-6.213 -77.337,-0.091 -94.766,0.08 L -221.828,0.072 c -0.99,0 -1.797,-0.805 -1.797,-1.796 0,-0.99 0.807,-1.796 1.797,-1.796 h 17.657 v -102.047 l 0.001,-0.623 c 0.017,-5.254 0.047,-15.03 -8.949,-18.86 h -8.911 c -0.991,0 -1.796,-0.805 -1.796,-1.796 0,-0.991 0.805,-1.796 1.796,-1.796 h 93.637 c 0.991,0 1.796,0.805 1.796,1.796 0,0.991 -0.805,1.796 -1.796,1.796 h -55.43 c 0.132,0.036 0.28,0.055 0.441,0.055 10.594,0 16.192,7.6 16.192,21.98 l -0.011,41.301 0.79,-0.002 c 9.052,0 18.794,-4.33 18.794,-13.836 v -1.255 c 0,-0.501 0.122,-0.919 0.353,-1.21 0.216,-0.27 0.517,-0.419 0.848,-0.419 0.643,0 1.324,0.572 1.324,1.629 l 0.023,35.214 c 0,1.557 -2.527,1.555 -2.527,0 v -1.549 c 0,-7.208 -5.887,-14.965 -18.815,-14.965 h -0.759 l -0.019,54.587 13.713,10e-4 c 23.112,-1.931 40.539,-18.026 40.539,-37.44 V -77.6 l 0.006,10e-4 v -4.571 c 0,-0.991 0.805,-1.796 1.795,-1.796 0.991,0 1.796,0.805 1.796,1.796 v 39.778 l -0.005,0.025 v 1.408 c 0,2.434 -0.257,4.887 -0.764,7.308 l 56.418,-96.584 4.294,-6.861 c 2.851,-4.307 7.469,-5.985 12.913,-5.985 h 13.826 c 0.051,-0.001 0.102,-0.001 0.154,-0.001 2.017,0 3.395,0.437 4.325,1.372 1.469,1.474 1.724,4.078 1.668,8.075 l -0.003,109.657 -0.001,2.637 c 0,12.926 7.759,18.814 14.967,18.814 H 0 c 0.778,0 1.186,0.636 1.186,1.263 C 1.186,-0.636 0.778,0 0,0" /></g><g
           transform="translate(211.0306,159.5289)"
           id="g84"><path
             id="path86"
             style="fill:#ffffff;fill-opacity:1;fill-rule:nonzero;stroke:none"
             d="M 0,0 V -0.172 L 0.055,-0.441 C 0.055,-0.279 0.036,-0.132 0,0" /></g></g></g><g
       id="g88"><g
         clip-path="url(#clipPath94)"
         id="g90"><g
           transform="translate(303.2757,222.1509)"
           id="g96"><path
             id="path98"
             style="fill:#ffffff;fill-opacity:1;fill-rule:nonzero;stroke:none"
             d="m 0,0 c -20.446,56.509 -74.58,94.476 -134.704,94.476 -78.966,0 -143.209,-64.245 -143.209,-143.211 0,-78.966 64.243,-143.209 143.209,-143.209 34.376,0 67.19,11.939 92.87,33.693 l -2.29,3.728 c -25.253,-21.71 -57.256,-33.624 -90.58,-33.624 -76.872,0 -139.412,62.54 -139.412,139.412 0,76.873 62.54,139.413 139.412,139.413 58.528,0 111.226,-36.96 131.134,-91.97 0.353,-0.979 1.443,-1.49 2.432,-1.141 0.478,0.174 0.86,0.522 1.074,0.981 C 0.151,-0.991 0.174,-0.476 0,0" /></g></g></g></g></svg>