<?xml version="1.0" encoding="utf-8"?>
<!-- Generator: Adobe Illustrator 23.0.2, SVG Export Plug-In . SVG Version: 6.00 Build 0)  -->
<svg version="1.1" id="Layer_1" xmlns="http://www.w3.org/2000/svg" xmlns:xlink="http://www.w3.org/1999/xlink" x="0px" y="0px"
	 width="216px" height="95.9px" viewBox="0 0 216 95.9" style="enable-background:new 0 0 216 95.9;" xml:space="preserve">
<style type="text/css">
	.st0{fill:#001C58;}
	.st1{fill:#7DC242;}
	.st2{fill:#FFFFFF;}
</style>
<g>
	<path class="st0" d="M105.2,10.1c0,0,1.6-0.3,3.7-0.3c2.2,0,3.6,0.3,3.6,0.3l-5.7,27c0,0-1.6,0.3-3.7,0.3c-2.3,0-3.6-0.3-3.6-0.3
		l2.3-11h-7.2l-2.3,11c0,0-1.6,0.3-3.7,0.3c-2.3,0-3.6-0.3-3.6-0.3l5.7-27c0,0,1.5-0.3,3.7-0.3s3.6,0.3,3.6,0.3l-2.2,10.3h7.2
		L105.2,10.1z"/>
	<path class="st0" d="M128.4,17c2.1,0,3.3,0.3,3.3,0.3l-4.2,19.9c0,0-1.4,0.3-3.4,0.3s-3-0.3-3-0.3v-1.5c-1.3,1.3-2.9,2.2-5.2,2.2
		c-4.5,0-6.9-3.6-5-11.5c1.8-7.6,4.7-9.8,9.3-9.8c2.3,0,3.6,0.7,4.3,2.2l0.7-1.5C125.1,17.3,126.2,17,128.4,17z M121.6,21.9
		c-1.8,0-2.7,1.2-3.7,5.5c-0.9,4-0.4,5.2,1.4,5.2c1.3,0,2.2-1,2.6-2.4l1.2-5.9C123.3,23,122.9,21.9,121.6,21.9z"/>
	<path class="st0" d="M145.3,16.6c1.2,0,2.1,0.3,3.2,1.1c-0.7,2.3-1.8,4-3.7,5.5c-0.4-0.4-1.2-0.7-2-0.7c-1,0-2.1,0.5-3.2,1.5
		l-2.8,13.2c0,0-1.4,0.3-3.5,0.3c-2.2,0-3.4-0.3-3.4-0.3l4.2-19.9c0,0,1.3-0.3,3.5-0.3c2.3,0,2.8,0.3,2.8,0.3l-0.2,2
		C142,17.1,143.9,16.6,145.3,16.6z"/>
	<path class="st0" d="M161.7,16.6c1.2,0,2.1,0.3,3.2,1.1c-0.7,2.3-1.8,4-3.7,5.5c-0.4-0.4-1.2-0.7-2-0.7c-1,0-2.1,0.5-3.2,1.5
		l-2.8,13.2c0,0-1.4,0.3-3.5,0.3c-2.2,0-3.4-0.3-3.4-0.3l4.2-19.9c0,0,1.3-0.3,3.5-0.3c2.3,0,2.8,0.3,2.8,0.3l-0.2,2
		C158.4,17.1,160.2,16.6,161.7,16.6z"/>
	<path class="st0" d="M174.5,16.6c5.9,0,9,3.6,7.4,11.3s-5.8,10-11.6,10c-5.9,0-9.1-3.5-7.4-11.2C164.4,18.9,168.6,16.6,174.5,16.6z
		 M173.5,21.9c-1.7,0-2.7,1.1-3.6,5.4c-0.9,4.2-0.3,5.4,1.3,5.4s2.6-1.2,3.5-5.4C175.6,23,175.1,21.9,173.5,21.9z"/>
	<path class="st0" d="M202.5,8.6c2.1,0,3.4,0.3,3.4,0.3l-6,28.3c0,0-1.4,0.3-3.4,0.3s-3-0.3-3-0.3v-1.5c-1.3,1.3-3.1,2.2-5.4,2.2
		c-4.3,0-6.5-3.2-4.9-11.1c1.7-7.9,4.8-10.2,9.4-10.2c2,0,3.4,0.7,4.3,2l2-9.6C198.9,9,200.3,8.6,202.5,8.6z M194,21.9
		c-1.8,0-2.7,1.2-3.7,5.5c-0.9,3.9-0.3,5.2,1.4,5.2c1.3,0,2.2-1,2.6-2.4l1.2-5.9C195.8,23,195.4,21.9,194,21.9z"/>
</g>
<g>
	<path class="st0" d="M136.1,48.6c4.2,0,6.9,3.1,5.1,11.6c-1.8,8.3-5.4,10.6-9.8,10.6c-2.2,0-3.7-0.8-4.5-2l-2.2,10.3
		c0,0-1.5,0.3-3.7,0.3s-3.5-0.3-3.5-0.3l6.3-29.8c0,0,1.4-0.3,3.7-0.3c2.2,0,3.3,0.3,3.3,0.3v1.4C132.1,49.4,133.9,48.6,136.1,48.6z
		 M132.2,54.1c-1.2,0-2.4,1-2.9,2.8l-1.1,5.2c-0.3,1.6,0,3.2,1.6,3.2s2.7-0.7,3.7-5.6C134.5,55.2,133.9,54.1,132.2,54.1z"/>
	<path class="st0" d="M155.2,48.6c6.1,0,9.4,3.7,7.7,11.8c-1.7,8-6,10.4-12.1,10.4s-9.4-3.7-7.7-11.7
		C144.7,51,149.1,48.6,155.2,48.6z M154.2,54.1c-1.7,0-2.8,1.2-3.8,5.6c-0.9,4.4-0.3,5.6,1.4,5.6s2.7-1.2,3.7-5.6
		C156.4,55.3,155.8,54.1,154.2,54.1z"/>
	<path class="st0" d="M178.5,48.6c1.2,0,2.2,0.3,3.3,1.1c-0.8,2.4-1.9,4.2-3.9,5.7c-0.4-0.4-1.3-0.7-2-0.7c-1,0-2.2,0.5-3.3,1.6
		l-2.9,13.8c0,0-1.5,0.3-3.7,0.3c-2.3,0-3.6-0.3-3.6-0.3l4.4-20.8c0,0,1.4-0.3,3.7-0.3c2.4,0,2.9,0.3,2.9,0.3l-0.2,2.1
		C175,49.1,177,48.6,178.5,48.6z"/>
	<path class="st0" d="M187.7,62.7c-0.5,2.2,0.4,2.7,2.1,2.7c1,0,1.8-0.2,1.8-0.2s0.4,0.9,0,2.9c-0.3,1.4-0.8,2.2-0.8,2.2
		c-1.4,0.3-2.8,0.5-4.3,0.5c-5.7,0-7.4-2.2-6.2-8l1.8-8.4l1.1-5.1l0.8-3.7c2-0.9,5.1-1.2,7.5-1l-1,4.7h3.9c0,0,0.1,0.9-0.3,2.5
		c-0.3,1.5-0.8,2.6-0.8,2.6h-3.9L187.7,62.7z"/>
</g>
<g>
	<path class="st0" d="M211.4,4.9c0,0,0,0.2,0,0.5c-0.1,0.3-0.2,0.5-0.2,0.5h-1l-0.7,3.2c0,0-0.2,0.1-0.6,0.1c-0.3,0-0.5-0.1-0.5-0.1
		l0.7-3.2h-1c0,0,0-0.2,0-0.4c0.1-0.3,0.2-0.5,0.2-0.5h3.1V4.9z"/>
	<path class="st0" d="M215.3,4.9c0.2,0,0.6,0,0.7,0.1l-0.9,4.1c0,0-0.2,0.1-0.5,0.1s-0.5-0.1-0.5-0.1l0.2-1.2
		c0.2-0.7,0.4-1.6,0.5-1.8l0,0c-0.1,0.1-0.4,0.8-0.6,1.2l-0.5,0.9c0,0-0.2,0-0.5,0s-0.4,0-0.4,0l-0.1-0.9c-0.1-0.5-0.1-1.2-0.1-1.3
		l0,0c0,0.1-0.1,1-0.2,1.7l-0.3,1.2c0,0-0.2,0.1-0.5,0.1s-0.5-0.1-0.5-0.1l0.9-4.1c0.2,0,0.5-0.1,0.7-0.1c0.4,0,0.6,0.1,0.6,0.1
		l0.2,1.1c0.1,0.4,0.1,0.8,0.1,1.1l0,0c0.1-0.2,0.2-0.4,0.3-0.7c0.3-0.5,0.6-1,0.8-1.5C214.7,5,214.9,4.9,215.3,4.9z"/>
</g>
<circle class="st1" cx="39.7" cy="39.7" r="39.7"/>
<path class="st2" d="M62.3,12.1c-7.8-4.6-19.1,7.8-25.7,16.3c-1.9-0.3-4.1-0.5-6.3-0.5c-0.8,0-1.6,0-2.3,0.1
	c6.7-9.8,11.6-12.9,16-15.6c0.7-0.5,1.4-0.9,2.1-1.3c0,0,0.7-0.6,0.4-1.2c-0.3-0.6-1.1-0.4-1.1-0.4c-2.5,0.7-14.3,5.9-22.7,17.5
	c-0.5,0.7-1,1.4-1.4,2c-3.2,0.7-5.3,2.5-6,3.4c0,0-1.3,1.4-1.7,2c-0.4,0.7,0.2,0.5,0.2,0.5l2.4-1c0.8-0.3,1.7-0.5,2.7-0.7
	c-6.2,11.6-5.3,21.5-4.5,25.6c1,5.3,3.4,9.5,6.4,11.4c8.4,5.3,26.1-4.5,36.3-20.2c7.4-11.3,10.9-22.7,9.4-30.4
	C65.7,16.3,65.1,14.1,62.3,12.1L62.3,12.1z M30.4,32c1.2,0,2.4,0,3.5,0.1l0,0c-7.4,10.5-9.2,25.7-9.6,30.2c0,0.1,0,0.1,0,0.1l0,0
	l0,0c0,0,0,0.9,0.7,0.9c0.8,0.1,1-0.8,1-0.8l0,0c0.3-3.9,4.5-16.6,12.6-28.1c0.4-0.6,0.9-1.2,1.3-1.8c1.8,0.3,3.7,0.9,4.7,1.4
	c1,0.4,1.4,0.7,1.9,1c0.6,0.3,0.9,0.3,0.4-0.6c-0.5-0.8-1.3-1.9-1.3-1.9c-0.8-1-2-2-3.7-2.7C49.4,19.7,57,11.1,61.4,13.6
	c1.7,1.3,1.9,2.7,2,6.2c0.2,6.6-3.8,16.8-10.6,27.2C45.4,58.3,35,67.3,27.6,68.9c-2.3,0.5-4.1,0.2-5.6-0.7c-5.9-3.8-5.2-20.9,3.3-36
	C27,32.1,28.7,32,30.4,32z"/>
<g>
	<path class="st1" d="M86.3,86.8c0,0,0,0.3-0.1,0.7c-0.1,0.4-0.2,0.7-0.2,0.7h-1.6l-1.1,5.2c0,0-0.4,0.1-0.9,0.1
		c-0.6,0-0.9-0.1-0.9-0.1l1.1-5.2h-1.7c0,0,0-0.3,0.1-0.7c0.1-0.5,0.3-0.8,0.3-0.8h5V86.8z"/>
	<path class="st1" d="M90.8,93.5c0,0-0.3,0.1-0.9,0.1s-0.8-0.1-0.8-0.1l0.7-3.3c0.1-0.3,0-0.5-0.4-0.5c-0.2,0-0.3,0.1-0.5,0.2
		l-0.8,3.6c0,0-0.3,0.1-0.9,0.1s-0.8-0.1-0.8-0.1l1.5-6.9c0,0,0.3-0.1,0.9-0.1c0.5,0,0.8,0.1,0.8,0.1l-0.5,2.3
		c0.4-0.3,0.9-0.4,1.3-0.4c1,0,1.3,0.7,1.1,1.6L90.8,93.5z"/>
	<path class="st1" d="M94.6,91.5c-0.1,0.6,0.2,0.8,0.7,0.8s1-0.2,1-0.2c0.2,0.2,0.4,0.7,0.3,1.1c0,0-0.6,0.5-1.8,0.5
		c-1.6,0-2.3-1-1.9-2.8s1.4-2.5,2.8-2.5c1.2,0,1.9,0.7,1.7,2c-0.1,0.6-0.3,1.1-0.3,1.1H94.6z M95.6,89.6c-0.3,0-0.6,0.2-0.8,0.9h1
		c0-0.1,0-0.2,0.1-0.3C96,89.9,95.9,89.6,95.6,89.6z"/>
	<path class="st1" d="M104.2,88.4c1.4,0,2.2,0.9,1.8,2.8c-0.4,1.9-1.4,2.5-2.9,2.5c-1.4,0-2.2-0.9-1.8-2.8
		C101.8,89,102.8,88.4,104.2,88.4z M104,89.7c-0.4,0-0.7,0.3-0.9,1.3c-0.2,1-0.1,1.3,0.3,1.3s0.6-0.3,0.9-1.3
		C104.5,90,104.4,89.7,104,89.7z"/>
	<path class="st1" d="M111,88.4c0.3,0,0.5,0.1,0.8,0.3c-0.2,0.6-0.5,1-0.9,1.3c-0.1-0.1-0.3-0.2-0.5-0.2s-0.5,0.1-0.8,0.4l-0.7,3.2
		c0,0-0.4,0.1-0.9,0.1s-0.8-0.1-0.8-0.1l1-4.9c0,0,0.3-0.1,0.9-0.1s0.7,0.1,0.7,0.1V89C110.2,88.5,110.6,88.4,111,88.4z"/>
	<path class="st1" d="M113.8,93.5c0,0-0.3,0.1-0.9,0.1s-0.8-0.1-0.8-0.1l1-4.9c0,0,0.3-0.1,0.9-0.1c0.5,0,0.9,0.1,0.9,0.1
		L113.8,93.5z M115,87.9c0,0-0.3,0.1-0.9,0.1s-0.9-0.1-0.9-0.1l0.3-1.5c0,0,0.3-0.1,0.9-0.1c0.5,0,0.8,0.1,0.8,0.1L115,87.9z"/>
	<path class="st1" d="M118.4,93.2c-0.3,0.3-0.7,0.5-1.2,0.5c-1.1,0-1.6-0.8-1.2-2.7c0.4-1.9,1.2-2.5,2.3-2.5c0.6,0,0.9,0.2,1.1,0.5
		l0.1-0.3c0,0,0.3-0.1,0.9-0.1c0.5,0,0.8,0.1,0.8,0.1l-1,4.7c-0.4,1.9-1.5,2.6-3,2.6c-1.1,0-1.7-0.4-1.7-0.4
		c0.1-0.4,0.3-0.8,0.6-1.1c0,0,0.4,0.2,1,0.2s1.1-0.1,1.4-1.3L118.4,93.2z M118.1,92.4c0.3,0,0.6-0.3,0.7-0.7l0.3-1.3
		c0.1-0.4,0-0.7-0.4-0.7s-0.6,0.2-0.9,1.3C117.5,92.1,117.7,92.4,118.1,92.4z"/>
	<path class="st1" d="M123.6,93.5c0,0-0.3,0.1-0.9,0.1s-0.8-0.1-0.8-0.1l1-4.9c0,0,0.3-0.1,0.9-0.1c0.5,0,0.9,0.1,0.9,0.1
		L123.6,93.5z M124.8,87.9c0,0-0.3,0.1-0.9,0.1s-0.9-0.1-0.9-0.1l0.3-1.5c0,0,0.3-0.1,0.9-0.1c0.5,0,0.8,0.1,0.8,0.1L124.8,87.9z"/>
	<path class="st1" d="M129.7,93.5c0,0-0.3,0.1-0.9,0.1c-0.6,0-0.8-0.1-0.8-0.1l0.7-3.3c0.1-0.3,0-0.5-0.4-0.5
		c-0.2,0-0.3,0.1-0.5,0.2l-0.8,3.6c0,0-0.3,0.1-0.9,0.1s-0.8-0.1-0.8-0.1l1-4.9c0,0,0.3-0.1,0.9-0.1c0.5,0,0.8,0.1,0.8,0.1V89
		c0.4-0.3,0.9-0.5,1.4-0.5c1,0,1.3,0.6,1.1,1.6L129.7,93.5z"/>
	<path class="st1" d="M136.2,88.5c0.5,0,0.8,0.1,0.8,0.1l-1,4.9c0,0-0.3,0.1-0.8,0.1s-0.7-0.1-0.7-0.1v-0.4
		c-0.3,0.3-0.7,0.5-1.3,0.5c-1.1,0-1.7-0.9-1.2-2.8c0.4-1.9,1.2-2.4,2.3-2.4c0.6,0,0.9,0.2,1.1,0.5l0.2-0.4
		C135.4,88.6,135.7,88.5,136.2,88.5z M134.5,89.7c-0.4,0-0.7,0.3-0.9,1.3s-0.1,1.3,0.3,1.3c0.3,0,0.5-0.3,0.6-0.6l0.3-1.4
		C135,90,134.9,89.7,134.5,89.7z"/>
	<path class="st1" d="M139.5,93.5c0,0-0.3,0.1-0.9,0.1c-0.6,0-0.8-0.1-0.8-0.1l1.5-6.9c0,0,0.3-0.1,0.9-0.1c0.5,0,0.8,0.1,0.8,0.1
		L139.5,93.5z"/>
	<path class="st1" d="M146.9,88.4c1.1,0,1.6,0.3,1.6,0.3c-0.1,0.4-0.3,0.8-0.6,1.1c0,0-0.5-0.2-1.1-0.2c-0.4,0-0.6,0.1-0.7,0.3
		c-0.1,0.3,0.5,0.3,1,0.5s1,0.7,0.8,1.6c-0.2,1-0.9,1.6-2.4,1.6c-1.2,0-1.8-0.4-1.8-0.4c0.1-0.5,0.3-0.8,0.6-1.1
		c0,0,0.6,0.2,1.2,0.2c0.5,0,0.7-0.1,0.7-0.3c0.1-0.3-0.4-0.4-0.9-0.5c-0.5-0.2-1.1-0.6-0.9-1.6C144.8,88.9,145.5,88.4,146.9,88.4z"
		/>
	<path class="st1" d="M151,93.5c0,0-0.3,0.1-0.9,0.1c-0.6,0-0.8-0.1-0.8-0.1l1-4.9c0,0,0.3-0.1,0.9-0.1c0.5,0,0.9,0.1,0.9,0.1
		L151,93.5z M152.1,87.9c0,0-0.3,0.1-0.9,0.1c-0.6,0-0.9-0.1-0.9-0.1l0.3-1.5c0,0,0.3-0.1,0.9-0.1c0.5,0,0.8,0.1,0.8,0.1L152.1,87.9
		z"/>
	<path class="st1" d="M157.1,93.5c0,0-0.3,0.1-0.9,0.1c-0.6,0-0.8-0.1-0.8-0.1l0.7-3.3c0.1-0.3,0-0.5-0.4-0.5
		c-0.2,0-0.3,0.1-0.5,0.2l-0.8,3.6c0,0-0.3,0.1-0.9,0.1c-0.6,0-0.8-0.1-0.8-0.1l1-4.9c0,0,0.3-0.1,0.9-0.1c0.5,0,0.8,0.1,0.8,0.1V89
		c0.4-0.3,0.9-0.5,1.4-0.5c1,0,1.3,0.6,1.1,1.6L157.1,93.5z"/>
	<path class="st1" d="M161,91c-0.2,0.9,0,1.2,0.6,1.2c0.4,0,0.7-0.2,0.7-0.2c0.2,0.3,0.3,0.7,0.3,1.2c0,0-0.6,0.4-1.7,0.4
		c-1.5,0-2.1-0.8-1.7-2.6c0.4-1.8,1.3-2.7,2.8-2.7c1,0,1.4,0.3,1.4,0.3c-0.1,0.4-0.4,0.9-0.7,1.2c0,0-0.2-0.1-0.6-0.1
		C161.5,89.8,161.2,90.1,161,91z"/>
	<path class="st1" d="M166,91.5c-0.1,0.6,0.2,0.8,0.7,0.8s1-0.2,1-0.2c0.2,0.2,0.4,0.7,0.3,1.1c0,0-0.6,0.5-1.8,0.5
		c-1.6,0-2.3-1-1.9-2.8c0.4-1.8,1.4-2.5,2.8-2.5c1.2,0,1.9,0.7,1.7,2c-0.1,0.6-0.3,1.1-0.3,1.1H166z M166.9,89.6
		c-0.3,0-0.6,0.2-0.8,0.9h1c0-0.1,0-0.2,0.1-0.3C167.3,89.9,167.3,89.6,166.9,89.6z"/>
	<path class="st1" d="M175,87.1c0,0,0.4-0.1,0.9-0.1s0.9,0.1,0.9,0.1l-1.3,6.3c0,0-0.4,0.1-0.9,0.1s-0.9-0.1-0.9-0.1l0.8-3.7
		l0.1-0.6c-0.4,0.3-0.8,0.4-1.3,0.5c-0.3-0.3-0.4-0.8-0.2-1.4C173.9,88.1,174.5,87.7,175,87.1z"/>
	<path class="st1" d="M178.3,92.2c1-0.1,1.7-0.4,2.1-1.1c-0.2,0-0.4,0.1-0.7,0.1c-1.2,0-1.9-0.6-1.6-2.2c0.3-1.4,1.3-2.1,2.8-2.1
		s2.2,0.8,1.8,2.5c-0.5,2.5-2.3,3.9-4.8,4.1C177.9,93.2,178,92.6,178.3,92.2z M180.3,90c0.2,0,0.4,0,0.6-0.1c0-0.1,0.1-0.2,0.1-0.4
		c0.2-1,0-1.3-0.4-1.3s-0.7,0.3-0.8,0.8C179.7,89.7,179.9,90,180.3,90z"/>
	<path class="st1" d="M186.4,89.5c0.2,0,0.5,0,0.7,0.1c1.1,0.2,1.6,0.8,1.3,2c-0.3,1.4-1.4,2.1-3.1,2.1c-1.2,0-1.8-0.3-1.8-0.3
		c0.1-0.5,0.3-0.8,0.6-1.2c0,0,0.7,0.2,1.4,0.2s1.1-0.3,1.2-0.7c0.1-0.5-0.1-0.8-0.9-0.8c-0.4,0-0.9,0-1.3,0l0.8-3.8h3.8
		c0,0.4-0.1,1-0.3,1.4h-2.1L186.4,89.5z"/>
	<path class="st1" d="M193.4,87.1c0,0,0.4-0.1,0.9-0.1s0.8,0.1,0.8,0.1l-0.8,3.7h0.7c0,0,0,0.2-0.1,0.7c-0.1,0.4-0.2,0.7-0.2,0.7
		H194l-0.3,1.3c0,0-0.3,0.1-0.8,0.1s-0.8-0.1-0.8-0.1l0.3-1.3h-2.8c0,0,0-0.2,0-0.7c0.1-0.4,0.2-0.7,0.2-0.7L193.4,87.1z
		 M191.6,90.9h1.2l0.3-1.6L191.6,90.9z"/>
</g>
<g>
	<path class="st0" d="M113.4,41c5.4,0,8.4,1.4,8.4,1.4c-0.4,2-1.5,4.1-3,5.5c0,0-2.5-0.8-5.5-0.8s-4.6,0.8-5,2.4
		c-0.4,1.8,2.8,2.2,5.8,3.5c4,1.8,6,4,4.8,9.1c-1.3,6.1-5.4,8.7-13.1,8.7c-6.2,0-9.7-2.1-9.7-2.1c0.4-2,1.6-4.3,3-5.6
		c0,0,3.1,1.2,7.4,1.2c2.7,0,4.2-0.8,4.5-2.3s-1.4-2.2-3.6-2.9c-3.6-1.2-8.2-3.4-6.9-9.7C101.8,43.9,105.8,41,113.4,41z"/>
</g>
</svg>
