<svg xmlns="http://www.w3.org/2000/svg" xmlns:xlink="http://www.w3.org/1999/xlink" width="200" zoomAndPan="magnify" viewBox="0 0 150 149.999998" height="200" preserveAspectRatio="xMidYMid meet" version="1.0"><defs><clipPath id="id1"><path d="M 7.789062 7.789062 L 142.039062 7.789062 L 142.039062 142.039062 L 7.789062 142.039062 Z M 7.789062 7.789062 " clip-rule="nonzero"/></clipPath></defs><g clip-path="url(#id1)"><path fill="#ffffff" d="M 74.882812 19.890625 C 92.796875 19.890625 94.914062 19.949219 102.003906 20.273438 C 108.535156 20.570312 112.09375 21.65625 114.476562 22.597656 C 117.59375 23.804688 119.828125 25.273438 122.183594 27.628906 C 124.535156 29.980469 125.976562 32.21875 127.210938 35.335938 C 128.125 37.6875 129.210938 41.246094 129.535156 47.808594 C 129.859375 54.894531 129.917969 57.015625 129.917969 74.925781 C 129.917969 92.839844 129.859375 94.960938 129.535156 102.046875 C 129.242188 108.578125 128.152344 112.136719 127.210938 114.519531 C 126.007812 117.636719 124.535156 119.875 122.183594 122.226562 C 119.828125 124.578125 117.59375 126.019531 114.476562 127.257812 C 112.121094 128.167969 108.5625 129.257812 102.003906 129.582031 C 94.914062 129.902344 92.796875 129.960938 74.882812 129.960938 C 56.96875 129.960938 54.851562 129.902344 47.761719 129.582031 C 41.234375 129.285156 37.671875 128.199219 35.289062 127.257812 C 32.171875 126.050781 29.9375 124.578125 27.585938 122.226562 C 25.230469 119.875 23.789062 117.636719 22.554688 114.519531 C 21.640625 112.167969 20.554688 108.609375 20.230469 102.046875 C 19.90625 94.960938 19.847656 92.839844 19.847656 74.925781 C 19.847656 57.015625 19.90625 54.894531 20.230469 47.808594 C 20.523438 41.277344 21.613281 37.71875 22.554688 35.335938 C 23.761719 32.21875 25.230469 29.980469 27.585938 27.628906 C 29.9375 25.273438 32.171875 23.832031 35.289062 22.597656 C 37.644531 21.6875 41.203125 20.597656 47.761719 20.273438 C 54.851562 19.949219 56.96875 19.890625 74.882812 19.890625 M 74.882812 7.800781 C 56.644531 7.800781 54.382812 7.890625 47.203125 8.214844 C 40.054688 8.539062 35.171875 9.683594 30.90625 11.332031 C 26.496094 13.039062 22.761719 15.332031 19.023438 19.070312 C 15.316406 22.804688 13.023438 26.539062 11.316406 30.953125 C 9.671875 35.21875 8.523438 40.101562 8.199219 47.246094 C 7.875 54.394531 7.789062 56.691406 7.789062 74.898438 C 7.789062 93.136719 7.875 95.398438 8.199219 102.578125 C 8.523438 109.726562 9.671875 114.609375 11.316406 118.875 C 13.023438 123.285156 15.316406 127.019531 19.054688 130.757812 C 22.789062 134.492188 26.523438 136.789062 30.9375 138.492188 C 35.203125 140.140625 40.085938 141.289062 47.234375 141.609375 C 54.382812 141.933594 56.675781 142.023438 74.914062 142.023438 C 93.148438 142.023438 95.414062 141.933594 102.59375 141.609375 C 109.738281 141.289062 114.621094 140.140625 118.886719 138.492188 C 123.300781 136.789062 127.035156 134.492188 130.773438 130.757812 C 134.507812 127.019531 136.800781 123.285156 138.507812 118.875 C 140.15625 114.609375 141.300781 109.726562 141.625 102.578125 C 141.949219 95.429688 142.039062 93.136719 142.039062 74.898438 C 142.039062 56.660156 141.949219 54.394531 141.625 47.21875 C 141.300781 40.070312 140.15625 35.1875 138.507812 30.921875 C 136.800781 26.511719 134.507812 22.773438 130.773438 19.039062 C 127.035156 15.304688 123.300781 13.007812 118.886719 11.304688 C 114.621094 9.65625 109.738281 8.507812 102.59375 8.183594 C 95.414062 7.890625 93.121094 7.800781 74.882812 7.800781 " fill-opacity="1" fill-rule="nonzero"/></g><path fill="#ffffff" d="M 74.882812 40.453125 C 55.851562 40.453125 40.4375 55.867188 40.4375 74.898438 C 40.4375 93.929688 55.882812 109.371094 74.914062 109.371094 C 93.945312 109.371094 109.386719 93.957031 109.386719 74.898438 C 109.359375 55.867188 93.914062 40.453125 74.882812 40.453125 M 74.882812 97.28125 C 62.527344 97.28125 52.527344 87.28125 52.527344 74.925781 C 52.527344 62.574219 62.527344 52.570312 74.882812 52.570312 C 87.238281 52.570312 97.238281 62.574219 97.238281 74.925781 C 97.269531 87.253906 87.238281 97.28125 74.882812 97.28125 " fill-opacity="1" fill-rule="nonzero"/><path fill="#ffffff" d="M 118.769531 39.101562 C 118.769531 43.542969 115.152344 47.160156 110.710938 47.160156 C 106.269531 47.160156 102.652344 43.542969 102.652344 39.101562 C 102.652344 34.660156 106.269531 31.039062 110.710938 31.039062 C 115.152344 31.039062 118.769531 34.628906 118.769531 39.101562 " fill-opacity="1" fill-rule="nonzero"/></svg>