<?xml version="1.0" encoding="utf-8"?>
<!-- Generator: Adobe Illustrator 24.0.1, SVG Export Plug-In . SVG Version: 6.00 Build 0)  -->
<svg version="1.1" id="Layer_1" xmlns="http://www.w3.org/2000/svg" xmlns:xlink="http://www.w3.org/1999/xlink" x="0px" y="0px"
	 width="150px" height="83.4px" viewBox="0 0 150 83.4" style="enable-background:new 0 0 150 83.4;" xml:space="preserve">
<style type="text/css">
	.st0{fill:#6FBF4A;}
	.st1{fill:#F4E501;}
</style>
<g>
	<ellipse class="st0" cx="75" cy="41.7" rx="75" ry="41.7"/>
	<path class="st1" d="M20.5,16.8l10.4,1.7v34.1c0,0,0,7.9-6.7,9.9l-8.8-4.9c0,0,5.3-2.3,5.2-7.2C20.5,45.5,20.5,16.8,20.5,16.8z"/>
	<path class="st1" d="M77.2,9.7l6.2,3.5v0.4c0,0-8.7,1.9-7.1,11.7l11-2.1c0,0-2-11.7,10.8-14.8l6,3.3v0.4c0,0-8.1,0.5-7,9.4l6.3-0.5
		v7.2L97,29c0,0,0.1,15.2,0.1,23.4s-6.6,13.8-6.6,13.8l-8.3-3.5c0,0,3.2-3.3,4.5-6.3c1.4-3,0.5-25.4,0.5-25.4l-11.1,2.3
		c0,0,0.1,20.1,0,21.7c-0.1,1.3,0,7.5-6.3,12.1l-8.6-3c0,0,5.3-2.3,5.2-10.5c-0.2-8.2,0-18.3,0-18.3l-5.7,1.1V28l5.6-1
		C66.3,27,65.1,13.4,77.2,9.7z"/>
	<path class="st1" d="M132.7,46.5c0,0-5.4-4.1-5.1-9.8s1.4-16.7-13.2-17.4c0,0-6.1-0.4-9.7,3.1l4.9,5.2c0,0,1.8-1.4,4.3-1.4
		c2.5,0,4.2,1.8,4.2,3.3c0,0-17.2-0.8-17.3,10.3s16,13.1,20.6,7l3.2,3.4c0,0,7-3.1,7.7-3.2C132.9,46.9,132.7,46.5,132.7,46.5z
		 M114.1,42.3c-2.6,0-3.8-2.1-3.8-3.4c0-1.3,1.2-4.6,7.7-3.8c0,0,0.2,4.7,0.5,5.2C118.5,40.3,116.7,42.3,114.1,42.3z"/>
	<path class="st1" d="M59.4,45.4c-0.1-4.7,2.6-17-12.7-17.6c0,0-6.5,0-10.5,3l5.2,6.9c0,0,2.1-1.4,4.3-1.4s3.9,1.6,3.9,3.4
		c0,0-17.5-0.3-17.3,9s15.1,12.4,20.5,6.2l3.4,2.1l8.3-4.4C64.6,52.5,59.4,50.1,59.4,45.4z M45.9,51.6c-2.5,0-3.6-1.7-3.6-2.9
		c0-1.1,1.2-3.9,7.4-3.2c0,0,0.2,3.9,0.5,4.3C50.1,49.9,48.4,51.6,45.9,51.6z"/>
	<path class="st1" d="M138.1,46.8v-0.4c0,0,0.8,0,0.8-0.9c0-0.8-1.1-2.8-4-2.4v4.7l1.6,0.5v-1.6l1.4,2h1.5V48L138.1,46.8z
		 M137.3,45.6h-0.7h-0.1v-1.2C137.5,44.4,137.3,45.6,137.3,45.6z"/>
	<path class="st1" d="M142.2,47.5c-0.2-2.4-2.9-6.8-6.8-6.8c-3.9,0-4.2,4.4-4.2,4.4c0.5,4,4.9,6.1,6.9,6.1
		C140.1,51.2,142.4,49.9,142.2,47.5z M137.6,49.4c-1.3,0-4.3-1.4-4.5-4c0,0,0.1-2.9,2.8-2.9s4.4,2.9,4.5,4.5
		C140.5,48.5,138.9,49.4,137.6,49.4z"/>
</g>
</svg>
