<?xml version="1.0" encoding="utf-8"?>
<!-- Generator: Adobe Illustrator 24.0.1, SVG Export Plug-In . SVG Version: 6.00 Build 0)  -->
<svg version="1.1" id="Layer_1" xmlns:svg="http://www.w3.org/2000/svg"
	 xmlns="http://www.w3.org/2000/svg" xmlns:xlink="http://www.w3.org/1999/xlink" x="0px" y="0px" width="150px" height="53.5px"
	 viewBox="0 0 150 53.5" style="enable-background:new 0 0 150 53.5;" xml:space="preserve">
<path d="M16.5,53.4c-4.5-0.2-8.1-1.4-11-3.7C5,49.3,3.7,48,3.3,47.5C2.1,46,1.3,44.6,0.8,43C-0.8,38.2,0,31.8,3.2,24.8
	c2.7-6,6.9-11.9,14.2-20.1C18.5,3.5,21.7,0,21.7,0c0,0-0.2,0.3-0.4,0.7c-1.9,3.2-3.5,6.9-4.4,10.2c-1.4,5.2-1.2,9.7,0.5,13.1
	c1.2,2.4,3.3,4.5,5.6,5.6c4.1,2,10,2.2,17.3,0.5c0.5-0.1,25.4-6.7,55.3-14.7C125.5,7.4,150,0.9,150,0.9c0,0-69.5,29.7-105.5,45.2
	c-5.7,2.4-7.2,3.1-9.9,4C27.7,52.5,21.5,53.6,16.5,53.4z"/>
</svg>
