<svg xmlns="http://www.w3.org/2000/svg" xmlns:xlink="http://www.w3.org/1999/xlink" width="200" zoomAndPan="magnify" viewBox="0 0 150 149.999998" height="200" preserveAspectRatio="xMidYMid meet" version="1.0"><defs><clipPath id="id1"><path d="M 38 4.046875 L 112 4.046875 L 112 78 L 38 78 Z M 38 4.046875 " clip-rule="nonzero"/></clipPath><clipPath id="id2"><path d="M 4.046875 75 L 145.796875 75 L 145.796875 145.796875 L 4.046875 145.796875 Z M 4.046875 75 " clip-rule="nonzero"/></clipPath></defs><g clip-path="url(#id1)"><path fill="#ffffff" d="M 74.921875 77.757812 C 95.242188 77.757812 111.777344 61.222656 111.777344 40.902344 C 111.777344 20.582031 95.242188 4.046875 74.921875 4.046875 C 54.601562 4.046875 38.066406 20.582031 38.066406 40.902344 C 38.066406 61.222656 54.601562 77.757812 74.921875 77.757812 Z M 74.921875 77.757812 " fill-opacity="1" fill-rule="nonzero"/></g><g clip-path="url(#id2)"><path fill="#ffffff" d="M 119.105469 76.226562 C 117.929688 75.28125 116.214844 75.425781 115.214844 76.5625 C 104.96875 88.128906 90.28125 94.765625 74.921875 94.765625 C 59.566406 94.765625 44.878906 88.128906 34.628906 76.5625 C 33.628906 75.429688 31.914062 75.28125 30.734375 76.226562 C 13.777344 89.769531 4.046875 109.960938 4.046875 131.621094 L 4.046875 142.960938 C 4.046875 144.53125 5.316406 145.796875 6.882812 145.796875 L 142.960938 145.796875 C 144.53125 145.796875 145.796875 144.53125 145.796875 142.960938 L 145.796875 131.621094 C 145.796875 109.964844 136.066406 89.773438 119.105469 76.226562 Z M 119.105469 76.226562 " fill-opacity="1" fill-rule="nonzero"/></g></svg>