<?xml version="1.0" encoding="utf-8"?>
<!-- Generator: Adobe Illustrator 23.1.0, SVG Export Plug-In . SVG Version: 6.00 Build 0)  -->
<svg version="1.1" id="Layer_1" xmlns="http://www.w3.org/2000/svg" xmlns:xlink="http://www.w3.org/1999/xlink" x="0px" y="0px"
	 width="221px" height="137px" viewBox="0 0 221 137" style="enable-background:new 0 0 221 137;" xml:space="preserve">
<style type="text/css">
	.st0{fill:#0079C1;}
	.st1{fill:none;}
	.st2{fill-rule:evenodd;clip-rule:evenodd;fill:#016CA8;}
	.st3{fill-rule:evenodd;clip-rule:evenodd;fill:#FBEE3C;}
	.st4{fill-rule:evenodd;clip-rule:evenodd;fill:#D2003C;}
	.st5{fill:#D2003C;}
	.st6{fill:#FFCC00;}
	.st7{fill:#173F66;}
	.st8{fill-rule:evenodd;clip-rule:evenodd;fill:#173F66;}
	.st9{fill:#FFE990;}
	.st10{fill:#706F6F;}
	.st11{fill:#0064A7;}
	.st12{fill:#FEC905;}
	.st13{fill:url(#SVGID_1_);}
	.st14{fill:url(#SVGID_2_);}
	.st15{fill:#FFFFFF;}
	.st16{opacity:0.2;fill:#FFFFFF;enable-background:new    ;}
</style>
<g>
	<g>
		<path class="st0" d="M-409.6-93.7l-6.1,7.3h-17.5v4.9h20.7l-5.7,7.3h-15v12.1h-9.7v-31.6H-409.6z"/>
		<path class="st0" d="M-399.1-62.1h-9.7v-31.6h9.7V-62.1z"/>
		<path class="st0" d="M-359.4-93.7l-6.1,9.7h-9.3v21.9h-9.7V-84h-12.3l6.1-9.7H-359.4z"/>
		<path class="st0" d="M-321.4-66.4c0,2.7-1.2,4.2-3.9,4.2c-1.7,0-3.6-0.7-5.1-2l-17.8-15.2v17.2h-9.7v-27.3c0-1.2,0.2-2,1-3
			c0.7-0.7,1.7-1.2,3.1-1.2c1.7,0,3.4,0.7,4.8,2l17.8,15.4v-17.4h9.7C-321.4-93.7-321.4-66.4-321.4-66.4z"/>
		<path class="st0" d="M-285.1-69.4l-6.2,7.3H-319v-31.6h33.9l-6.2,7.3h-17.9v4.9h23l-6.1,7.3h-16.9v4.9H-285.1z"/>
		<path class="st0" d="M-243.7-93.2l-6.4,6.8h-21.6c-1.2,1-1.7,1.5-1.7,2.2c0,0.7,1.7,2.7,1.7,2.7h15.8c3.5,0,6.6,0.9,8.9,2.6
			c2.6,1.9,3.7,4.2,3.7,7.3c0,2.8-1.2,5.2-3.7,7c-2.3,1.6-5.4,2.6-8.9,2.6h-28l5.7-7.3h22c0,0,1.9-1.4,2.7-1.7c1-0.5,1.5-1,1.5-1.7
			c0-0.7-0.5-1.5-1.5-1.7c-0.7-0.2-2.7,0.2-2.7,0.2h-16.6c-3.6,0-6.6-0.8-9.2-2.6s-3.8-4.1-3.8-7.2c0-3.1,1.3-5.4,3.8-7.2
			c2.6-1.8,5.4-2.6,9.2-2.6h29.1V-93.2z"/>
		<path class="st0" d="M-202.4-93.2l-5,6.8H-229c-1.2,1-1.7,1.5-1.7,2.2c0,0.7,1.7,2.7,1.7,2.7h15.8c3.5,0,6.6,0.9,8.9,2.6
			c2.6,1.9,3.7,4.2,3.7,7.3c0,2.8-1.2,5.2-3.7,7c-2.3,1.6-5.4,2.6-8.9,2.6h-28l5.7-7.3h22c0,0,1.9-1.4,2.7-1.7c1-0.5,1.5-1,1.5-1.7
			c0-0.7-0.5-1.5-1.5-1.7c-0.7-0.2-2.7,0.2-2.7,0.2h-18.1c-3.6,0-6.6-0.8-9.2-2.6s-3.8-4.1-3.8-7.2c0-3.1,1.3-5.4,3.8-7.2
			c2.6-1.8,5.4-2.6,9.2-2.6h29.1V-93.2z"/>
	</g>
	<g>
		<path class="st1" d="M-294.4-154.4c-3.5-3-5.3-6.8-5.3-11.4c0-4.5,1.8-8.3,5.3-11.1s8.1-4.3,13.6-4.3h14.7h0.8
			c-8.4-30.9-41.2-51.8-76.8-40.2c-16.9,5.5-30.2,19-35.9,35.8c-13.7,41,16.7,79.2,55.8,79.2c27.3,0,50-18.4,56.8-43.2h-15.7
			C-286.4-149.8-290.9-151.3-294.4-154.4z M-312.6-152l-9.2-4.9H-336v4.9h-6.2h-3.1h-27.1v-29.1h9.7v21.9h17v-7.3h26.9
			c1.8,0,3-0.3,4-0.8c1.3-0.8,2-1.5,2-2.8c0-2.5-2-3.8-6-3.8h-25.1l5.7-7.3h19.7c4.5,0,8.2,0.9,11,2.6c3.3,1.9,4.7,4.7,4.7,8.5
			c0,2.1-0.7,4-1.9,5.6c-1.2,1.6-3.1,3.1-5.4,3.8l10.6,8.7H-312.6z"/>
		<polygon class="st0" points="-362.7,-159.3 -362.7,-181.1 -372.4,-181.1 -372.4,-152 -345.7,-152 -345.7,-159.3 		"/>
		<path class="st0" d="M-304.7-164.5c1.2-1.6,1.9-3.5,1.9-5.6c0-3.8-1.6-6.6-4.7-8.5c-2.8-1.6-6.6-2.6-11-2.6h-19.7l-5.7,7.3h27.5
			c4,0,6,1.3,6,3.8c0,1.3-0.8,2.3-2,2.8c-1,0.5-2.5,0.8-4,0.8h-26.9v9.7h2.3l0.7,7.3l6.8-2.4v-4.9h11.8l9.2,4.9h13.3l-10.6-8.7
			C-307.7-161.6-305.9-162.8-304.7-164.5z"/>
		<polygon class="st0" points="-343.3,-156.9 -343.3,-149.6 -340.3,-149.6 -341,-156.9 		"/>
		<path class="st0" d="M-259.1-169h-7.6H-290l5.9,7.3h11.3v2.4h-10.8c-2.6,0-4.8-0.7-6.2-1.9c-1.7-1.2-2.4-3.1-2.4-5.3
			c0-2.2,0.7-3.8,2.4-5.3c1.7-1.4,3.8-2.2,6.2-2.2h17.4h6.3c-0.2-1.7-0.7-4.4-1.5-6.8c-6.8-27.4-31.6-47.8-61.2-47.8
			c-34.7,0-63.1,28.2-63.1,63.1c0,34.7,28.2,63.1,63.1,63.1c29.6,0,54.4-20.4,61.2-47.8c1.2-4.9,1.9-10,1.9-15.1
			C-259.1-166.6-259.1-169-259.1-169z M-322.3-111.3c-32.6,0-58.6-28.5-54.6-61.8c3.1-25.9,24.7-46.3,50.8-48
			c27.1-1.8,50,15.9,56.7,40.1h-0.7h-13.6c-5.2,0-9.4,1.4-12.7,4s-4.9,6.1-4.9,10.3c0,4.2,1.6,7.8,4.9,10.6s7.5,4.2,12.7,4.2h14.6
			C-275.8-128.5-296.9-111.3-322.3-111.3z"/>
	</g>
</g>
<g>
	<path d="M156.6-88.1v-4.5h0.8v0.4v0.5c0.2,1.5,0,2.6-0.4,3.6H156.6z M156.7-101.5h3.4c0-2.2,0.4-3.9,1.3-4.9
		c0.9-1.1,2.3-1.6,4.1-1.6h0v15.7v0.5c0,0.8,0,1.5-0.2,1.7c-0.1,0.2-0.2,0.5-0.5,0.5c-0.4,0.2-0.8,0.2-1.4,0.2
		c-0.5,0.1-1.2,0.1-2,0.1v3.2h16.3v-2.8c-1.3,0-2.2-0.1-2.7-0.1c-0.5-0.1-0.8-0.2-1.1-0.2c-0.2-0.1-0.4-0.2-0.5-0.5
		c-0.1-0.2-0.6-1.7-0.6-1.7V-108h0.4c1.9,0,3.3,0.5,4.2,1.6c0.9,1.1,1.3,2.7,1.3,4.9h3.8v-9.8h-26L156.7-101.5L156.7-101.5z
		 M157.4-111.3v9.8h-0.8v-9.8h0.4H157.4z M156.6-92.6h-1.5c0,1.6-0.1,2.6-0.3,3.2c-0.2,0.6-0.6,0.8-1.1,0.8c-0.4,0-0.7-0.2-0.9-0.6
		c-0.2-0.3-0.2-1.1-0.2-2.2v-2.5c0-1.6-0.3-2.8-1.1-3.6c-0.7-0.8-2-1.4-3.8-1.6c2-0.3,3.6-1.1,4.7-2c1.1-1,1.6-2.2,1.6-3.8
		c0-2.1-0.8-3.8-2.5-4.8c-1.6-1.1-4.1-1.6-7.4-1.6h-2.9v3.4c1.5,0.1,2.6,0.3,3.2,0.8c0.8,0.6,1.2,1.5,1.2,2.8s-0.4,2.2-1.2,2.7
		c-0.6,0.4-1.7,0.7-3.2,0.7v3.4c1.2,0.1,2,0.2,2.5,0.7c0.5,0.4,0.8,1.4,0.8,2.8v2.5c0,2.3,0.5,3.9,1.6,5c1,1.1,2.7,1.6,4.9,1.6
		c2.2,0,3.7-0.6,4.7-1.7c0.4-0.4,0.7-1,1-1.5V-92.6L156.6-92.6z M142-111.4v3.4c-0.2,0-0.6,0-0.9,0h-3.2v7.3h2.8
		c0.4,0,0.8,0,1.2-0.1v3.3c-0.2,0-0.5,0-0.7,0h-3.3v6c0,1,0.2,1.5,0.4,1.8c0.3,0.2,1,0.3,2,0.3h0.8v4.1h-15.5v-3.3h1.6
		c1.1,0,1.7-0.1,2.1-0.3c0.2-0.3,0.4-0.8,0.4-1.9v-15c0-1.1-0.2-1.7-0.4-1.9c-0.3-0.3-1-0.3-2.1-0.3h-0.8v-3.3H142V-111.4z
		 M80.9-85.6V-89c1.6-0.1,2.6-0.4,3.2-0.9c0.9-0.7,1.4-1.7,1.4-3.2c0-1.5-0.4-2.5-1.4-3.3c-0.7-0.5-1.7-0.8-3.2-1v-3.4
		c1.2-0.2,1.9-0.4,2.5-0.8c0.8-0.6,1.2-1.5,1.2-2.8s-0.4-2.1-1.1-2.7c-0.5-0.4-1.3-0.7-1.7-0.7v-3.5H82c3.5,0.1,6.1,0.6,7.7,1.5
		c1.6,1,2.4,2.4,2.4,4.6c0,1.4-0.5,2.6-1.5,3.7c-1,1.1-2.4,1.8-4.2,2.4c2.4,0.5,4.2,1.3,5.3,2.3c1.1,1.1,1.7,2.4,1.7,4.2
		c0,2.5-0.9,4.3-2.8,5.4c-1.9,1.1-5,1.6-9.3,1.3h-0.6V-85.6z M95.6-85.9v-3.4h1.5c1.1,0,1.8-0.1,2.1-0.3c0.3-0.2,0.4-0.8,0.4-1.9
		v-14.3c0-1.1-0.2-1.6-0.4-1.9c-0.3-0.2-1-0.3-2.1-0.3h-1.5v-3.3h26.9v9.8h-3.6c-0.2-1.5-0.5-2.6-0.8-3.5c-0.3-0.7-0.7-1.4-1.2-1.8
		c-0.5-0.5-1.2-0.7-2-1c-0.8-0.2-2.2-0.2-4.3-0.2H107v7.3h0.7c1.5,0,2.6-0.2,3.1-0.8c0.5-0.5,0.8-1.6,0.8-3.3h3.6v11.4h-3.6
		c-0.1-1.7-0.3-2.8-0.8-3.3c-0.5-0.5-1.5-0.8-3.1-0.8H107v8.1h3.7c3,0,5-0.5,6.1-1.5c1.1-1,1.7-2.9,2.1-5.8h3.6v10.6H95.6V-85.9z
		 M12.2-85.2l-1-1.9c-1.3,0.8-2.7,1.5-4.1,1.9c-1.4,0.4-2.8,0.6-4.4,0.6c-4.1,0-7.5-1.2-9.9-3.6s-3.7-5.6-3.7-9.6
		c0-4.1,1.3-7.5,3.8-10.1c2.5-2.5,5.8-3.8,9.9-3.8c1.5,0,2.8,0.2,4.1,0.6s2.5,1,3.7,1.8l0.7-1.9h4.3v10.6h-4.1
		c-0.3-2.4-1-4.2-2.2-5.5c-1.2-1.2-2.8-1.8-5.1-1.8c-2.2,0-3.9,0.8-5.1,2.4c-1.1,1.6-1.7,4-1.7,7.1c0,3.7,0.5,6.4,1.6,8.1
		s2.7,2.5,5,2.5c1.6,0,2.8-0.3,3.4-0.8C8.1-89,8.5-90,8.5-91.3v-2.5c0-0.9-0.2-1.5-0.3-1.7c-0.3-0.2-0.8-0.3-1.7-0.3h-2v-3.3h14.7
		v3.3h-1.4c-0.7,0-1.2,0.1-1.4,0.3c-0.2,0.2-0.4,0.6-0.4,1.4v8.9H12.2L12.2-85.2z M80.9-111.3v3.3c-0.4-0.1-0.9-0.1-1.4-0.1h-1.8
		v7.3h1.7c0.5,0,1.1,0,1.5-0.1v3.4c-0.4,0-0.8-0.1-1.3-0.1h-2v8.1h1.8c0.5,0,0.9,0,1.4-0.1v3.3H65.5v-3.3h2.1c1.1,0.3,1.7,0.2,2,0
		c0.3-0.2,0.4-0.8,0.8-1.9v-14.4c-0.4-1.1-0.5-1.6-0.8-1.9c-0.3-0.2-2-0.6-2-0.6h-2.1v-3.3L80.9-111.3L80.9-111.3z M20.7-85.6v-3.7
		h1.7c1,0,1.7-0.1,2-0.3c0.3-0.2,0.4-0.8,0.4-1.9v-14.3c0-1.1-0.2-1.6-0.4-1.9c-0.3-0.2-1-0.3-2-0.3h-1.7v-3.3H37v3.3h-2.1
		c-1.1,0.3-1.8,0.5-2,0.7c-0.3,0.2-0.4,0.8-0.8,1.9V-91c0.4,1,0.5,1.5,0.8,1.9c0.3,0.2,2-0.2,2-0.2H37v4.1H20.7V-85.6z M37.8-111.3
		h16.3v3.3h-1.7c-1,0-1.8,0.2-2,0.4c-0.3,0.2-0.4,0.8-0.4,1.8v17.3h2.2c2.1,0,3.7-0.1,4.5-0.3c0.8-0.2,1.5-0.5,2-0.9
		c0.6-0.5,1-1.3,1.4-2.2c0.3-0.9,0.5-2.3,0.7-3.9h3v10.6h-26v-3.3h1.5c1.1,0,1.7-0.1,2-0.3c0.3-0.2,0.5-0.8,0.5-1.8V-106
		c0-1-0.2-1.5-0.5-1.7c-0.2-0.2-1-0.3-2-0.3h-1.5V-111.3z"/>
	<g>
		<path d="M50.8-213.3c35.2,9.8,59.5,26.1,59.5,44.6S86-133.8,50.8-124.1v-4c24.9-9.9,40.3-24.4,40.3-40.6
			c0-16.1-15.5-30.7-40.3-40.6L50.8-213.3L50.8-213.3z M50.8-139.6v8.5c17.9-9.8,28.9-23,28.9-37.6s-11.1-27.8-28.9-37.6v8.5
			c8.6,8.4,13.3,18.4,13.3,29.1C64.2-157.9,59.4-148,50.8-139.6z M-20.8-222.8c25.9,0.2,50.7,3.8,71.6,9.6v4
			c-11.7-4.7-25.3-8.2-40.5-10.6c15.5,2.8,29.3,7.5,40.5,13.6v8.6c-14.5-14-39.7-23.8-71.6-25V-222.8L-20.8-222.8z M50.8-124.1
			c-21,5.8-45.8,9.3-71.6,9.6v-0.1c31.9-1.2,57.2-10.9,71.6-25v8.6c-11.2,6-25,10.8-40.5,13.6c15.1-2.3,28.8-6,40.5-10.6V-124.1z"/>
		<path d="M195.7-222.8c-25.9,0.2-50.7,3.8-71.6,9.6v4c11.7-4.7,25.3-8.2,40.5-10.6c-15.5,2.8-29.3,7.5-40.5,13.6v8.6
			c14.5-14.1,39.7-23.9,71.6-25L195.7-222.8L195.7-222.8z M124.1-124.1c21,5.8,45.8,9.3,71.6,9.6v-0.1c-31.9-1.2-57.2-10.9-71.6-25
			v8.6c11.2,6,25,10.8,40.5,13.6c-15.1-2.3-28.8-6-40.5-10.6L124.1-124.1L124.1-124.1z M124.1-213.3c-35.2,9.8-59.5,26.1-59.5,44.6
			s24.3,34.8,59.5,44.6v-4c-24.9-9.9-40.4-24.4-40.4-40.6c0-16.1,15.5-30.7,40.4-40.6V-213.3L124.1-213.3z M124.1-139.6v8.5
			c-17.9-9.8-28.9-23-28.9-37.6s11.1-27.8,28.9-37.6v8.5c-8.6,8.5-13.3,18.4-13.3,29.1C110.7-157.9,115.4-148,124.1-139.6z"/>
	</g>
	<g>
		<path d="M23-76.3c0-0.7-0.1-1.2-0.3-1.4c-0.2-0.2-0.7-0.3-1.5-0.3h-0.6v-2.4h8.6l6.8,13.1v-9c0-0.7-0.1-1.2-0.3-1.3
			c-0.2-0.2-0.6-0.3-1.4-0.3h-0.8v-2.4h8.1v2.4h-0.7c-0.7,0-1.1,0.1-1.4,0.2c-0.2,0.2-0.3,0.6-0.3,1.3v13.9h-5.6l-7.5-13.3v9.5
			c0,0,0.2,1.1,0.4,1.3c0.2,0.2,0.7,0.2,1.4,0.1h0.6v2.4h-8.1v-2.4h0.9c0.7,0,1-0.1,1.3-0.3c0.1-0.2,0.3-0.7,0.3-1.3L23-76.3
			L23-76.3z"/>
		<path d="M42.7-62.5v-2.4h0.9c0.7,0,1-0.1,1.3-0.2c0.1-0.2,0.3-0.6,0.3-1.3v-10c0-0.7-0.1-1.1-0.3-1.3c-0.1-0.2-0.6-0.2-1.3-0.2
			h-0.9v-2.4h18.7v7.3h-2.5c-0.2-1.2-0.3-2-0.5-2.6c-0.2-0.6-0.5-1.1-0.8-1.4c-0.3-0.4-0.8-0.6-1.4-0.7c-0.5-0.2-1.5-0.2-3-0.2h-2.5
			v5.7h0.4c1-0.6,1.7-0.7,2-1.1s0.5-1.1,0.5-2.1h2.8v8.1H54c0-1.3-0.2-2.3-0.5-2.6c-0.4-0.4-1.1-0.6-2.2-0.6h-0.5v5.7h2.3
			c1.9,0,3.2-0.3,3.9-1c0.7-0.6,1.1-1.9,1.3-3.9h2.2v7.3L42.7-62.5L42.7-62.5z"/>
		<path d="M80.9-80.3v7.2h-2.5c0,0-0.3-3-0.9-3.7c-0.6-0.7-1.5-1.1-2.7-1.1h-0.4v11.6c0.2,0.7,0.2,1.1,0.3,1.2
			c0.1,0.2,0.2,0.3,0.3,0.4c0.2,0.1,0.4,0.2,0.7,0.2s1.9,0.1,1.9,0.1v2H66.3v-2c0,0,1.5,0,1.9-0.1c0.4,0,0.7-0.1,1-0.2
			c0.2-0.1,0.2-0.2,0.3-0.4c0.1-0.2,0.1-0.6,0-1.2v-0.3v-11.2h-0.2c-1.2-0.1-2.1,0.3-2.8,1.1C66-76.1,65.7-73,65.7-73H63v-7.3
			L80.9-80.3L80.9-80.3z"/>
		<path d="M81.7-62.6v-2.3h0.9c0.7,0,1-0.1,1.3-0.2c0.1-0.2,0.3-0.6,0.3-1.3v-10c0-0.7-0.1-1.1-0.3-1.3c-0.1-0.2-0.6-0.2-1.3-0.2
			h-0.9v-2.4h10.4c2.3,0,4,0.3,5.1,1c1.1,0.6,1.5,1.6,1.6,2.9c0,1-0.2,2-0.9,2.7c-0.6,0.8-1.6,1.4-2.8,1.8c1.5,0.3,2.7,0.9,3.4,1.6
			c0.7,0.7,1.1,1.7,1.1,3c0,1.8-0.6,3-1.8,3.8c-1.2,0.7-3.3,1.1-6.2,1.1h-10V-62.6z M89.9-73h1.1c1.1,0,2-0.2,2.4-0.6
			c0.5-0.4,0.8-1,0.8-1.9c0-0.8-0.2-1.4-0.8-1.8c-0.5-0.4-1.3-0.5-2.4-0.5h-1.2L89.9-73L89.9-73z M89.8-64.9h1.4
			c1.3,0,2.3-0.2,2.8-0.7c0.6-0.5,0.9-1.2,0.9-2.1c0-1-0.3-1.7-0.9-2.2c-0.6-0.5-1.6-0.7-2.8-0.7h-1.3L89.8-64.9L89.8-64.9z"/>
		<path d="M101.3-62.6v-2.3h0.6c0.6,0,1-0.1,1.3-0.2c0.2-0.2,0.6-0.6,0.8-1.4l4.6-13.8h5.3l4.4,13.8c0.2,0.6,0.5,1.1,0.7,1.4
			c0.2,0.2,0.6,0.3,1.1,0.3h0.7v2.4H111v-2.4h0.7c0.6,0,1-0.1,1.2-0.2c0.2-0.1,0.3-0.2,0.3-0.5c0-0.1,0-0.2-0.1-0.4
			c0-0.1-0.1-0.2-0.1-0.2l-0.7-2.1h-4.8l-0.6,2c0,0.2-0.1,0.2-0.1,0.4s0,0.2,0,0.3c0,0.2,0.1,0.4,0.2,0.5c0.2,0.1,0.5,0.2,1.1,0.2
			h1.1v2.4h-8.1V-62.6z M111.9-70.6l-1.8-5.7l-1.9,5.7H111.9z"/>
		<path d="M121.6-80.4h9.8v2.4h-0.7c-0.7-0.1-1.2,0-1.4,0.2s-0.4,1.3-0.4,1.3v11.6h1.4c1.4,0,2.3-0.1,2.8-0.2c0.5-0.2,1-0.3,1.3-0.6
			c0.4-0.3,0.6-0.8,0.9-1.4c0.2-0.6,0.3-1.5,0.4-2.6h2.1v7.3h-16.3v-2.4h0.9c0.7,0,1-0.1,1.3-0.3c0.1-0.2,0.3-0.7,0.3-1.3v-9.9
			c0-0.7-0.1-1.1-0.3-1.3c-0.1-0.2-0.6-0.2-1.3-0.2h-0.9L121.6-80.4L121.6-80.4z"/>
		<path d="M140.3-80.4h9.8v2.4h-0.7c-0.7-0.1-1.2,0-1.4,0.2s-0.4,1.3-0.4,1.3v11.6h1.4c1.4,0,2.3-0.1,2.8-0.2c0.5-0.2,1-0.3,1.3-0.6
			c0.4-0.3,0.6-0.8,0.9-1.4c0.2-0.6,0.3-1.5,0.4-2.6h2.1v7.3h-16.3v-2.4h0.9c0.7,0,1-0.1,1.3-0.3c0.1-0.2,0.3-0.7,0.3-1.3v-9.9
			c0-0.7-0.1-1.1-0.3-1.3c-0.1-0.2-0.6-0.2-1.3-0.2h-0.9L140.3-80.4L140.3-80.4z"/>
	</g>
</g>
<g>
	<g>
		<g>
			<g>
				<path d="M-370,116.3c0,0-74.8-8.7-76.7-36.9c0-48.2,206.6-42.8,219.5-28.4c-15.6-4.9-177.6-17-200.5,24
					C-443.1,103.5-370,116.3-370,116.3z"/>
			</g>
			<g>
				<path d="M-345.9,62.1v38.4h-7.7V62.1H-345.9z"/>
			</g>
			<g>
				<path d="M-274.7,67.9c0,0-0.4,10.2-2.5,12.6c2.7,3.4,2.4,20.9,2.4,20.9h-7.8c0,0,0.3-22-3.9-13.8v12.9h-7.7V62.1h7.7v16.8
					c2.5,1.5,4.5-11.1,4.5-11.1L-274.7,67.9z"/>
			</g>
			<g>
				<path d="M-251.2,85.1h-11.2v6.4c0,1.3,0.1,2.2,0.3,2.6c0.2,0.3,0.6,0.6,1.1,0.6c0.7,0,1.1-0.3,1.2-0.8c0.2-0.5,0.3-1.5,0.3-3V87
					h8.6v2.1c-0.4,2-0.5,3.5-0.6,4.6c-0.2,1.1-0.7,2.2-1.5,3.5c-0.8,1.2-1.8,2.1-3,2.8c-1.2,0.6-2.8,1-4.6,1c-1.8,0-3.4-0.3-4.7-0.9
					s-2.4-1.4-3.2-2.5c-0.8-1.1-1.2-2.2-1.5-3.5c-0.3-1.2-0.5-3.1,0-5.5v-9.5c-0.5-2.9-0.2-5.1,0.5-6.7c0.7-1.6,1.7-2.9,3.2-3.7
					c1.5-0.9,3.2-1.3,5.1-1.3c2.4,0,4.3,0.5,5.9,1.5s2.6,2.4,3.3,4.2c0.6,1.7,1,4.2,1.3,7.3v4.7H-251.2z M-259.6,79.3v-2.4
					c-0.1-1.7-0.2-2.8-0.3-3.3c-0.2-0.5-0.5-0.8-1-0.8c-0.6,0-1,0.2-1.1,0.6c-0.1,0.4-0.2,1.5-0.6,3.4v2.5H-259.6z"/>
			</g>
			<g>
				<path d="M-238.7,66.9l0.1,1.8c1.1-3.2,5.2-2.3,7.5-2.1c5.7,0.7,4.1,16.6,4.1,16.6h-7c0,0,1.2-10.8-2.5-10.5c0,0-1.4-0.2-1.6,0.8
					c-0.1,0.9-0.3,10.7-0.3,13.8v13.2h-7.7V66.9H-238.7z"/>
			</g>
			<g>
				<path d="M-386.8,62.1c0,0,0.6,11-3.6,15.3c4.5,5,4,23.1,4,23.1h-8.9c0,0,0.9-20.3-3.5-16.4c0.1,0.2,0,16.4,0,16.4h-8.6V62.1h8.6
					v14.9c2.8-0.6,3.8-14.9,3.8-14.9S-386.8,62.1-386.8,62.1z"/>
			</g>
			<g>
				<rect x="-381.4" y="62.1" width="7.7" height="3.8"/>
			</g>
			<g>
				<rect x="-381.4" y="67.8" width="7.7" height="32.6"/>
			</g>
			<g>
				<path d="M-360.3,62.4v5.4h1.9v5.8h-1.9v17.7c-0.3,2.2-0.2,3.5,0,3.7c0.2,0.3,2.9,0.4,2.9,0.4v5h-3.3c-1.9,0-3.2-0.1-3.9-0.3
					c-0.8-0.2-1.5-0.7-2.1-1.3c-0.6-0.7-1-1.5-1.1-2.4c-0.1-0.9-0.2-3.1-0.2-6.4V73.6h-1.9v-5.8h1.9V64L-360.3,62.4z"/>
			</g>
			<g>
				<path d="M-233.7,91.8h7.7v8.6h-7.7V91.8z"/>
			</g>
			<g>
				<path d="M-203,81.2h-7.7v-4.8c0-1.7-0.1-2.7-0.4-3.1c-0.3-0.4-0.8-0.6-1.6-0.6c-0.7,0-1.2,0.2-1.5,0.6c-0.3,0.4-0.4,1.4-0.4,3.1
					v16.2c0,1.7,0.1,2.7,0.4,3.1c0.3,0.4,0.7,0.6,1.5,0.6c0.7,0,1.2-0.2,1.6-0.6c0.3-0.4,0.4-1.4,0.4-3.1V88h7.7v3.5
					c0,4.2-0.8,7.2-2.2,8.9c-1.4,1.7-3.9,2.5-7.4,2.5c-3.5,0-6-0.8-7.4-2.5c-1.4-1.7-2.2-4.6-2.2-8.9V77.6c0-4.2,0.8-7.1,2.2-8.9
					c1.4-1.7,3.9-2.6,7.4-2.6c3.5,0,6,0.8,7.4,2.6c1.4,1.7,2.2,4.6,2.2,8.9V81.2z"/>
			</g>
			<g>
				<path d="M-199.2,77.7c0-3.9,0.8-6.6,2.2-8.2c1.4-1.5,3.9-2.4,7.4-2.4c3.5,0,6,0.8,7.4,2.4c1.4,1.5,2.2,4.3,2.2,8.2v12.7
					c0,3.9-0.8,6.6-2.2,8.2c-1.4,1.5-3.9,2.3-7.4,2.3c-3.5,0-6-0.8-7.4-2.3c-1.4-1.5-2.2-4.3-2.2-8.2V77.7z M-187.7,92.3V76
					c0-1.7-0.1-2.7-0.4-3.1c-0.3-0.4-0.8-0.6-1.6-0.6c-0.7,0-1.2,0.2-1.5,0.6c-0.3,0.4-0.4,1.5-0.4,3.1v16.3c0,1.7,0.1,2.7,0.4,3.1
					c0.3,0.4,0.7,0.6,1.5,0.6c0.7,0,1.2-0.2,1.6-0.6C-187.8,94.9-187.7,93.8-187.7,92.3z"/>
			</g>
			<g>
				<path d="M-175.2,100.5V67.8h7.7v1.8c0.8-0.8,1.5-1.3,2.4-1.7s1.8-0.6,2.9-0.6c1,0,2.1,0.3,2.9,0.8c0.9,0.5,1.6,1.2,2.3,2.2
					c0.8-1,1.6-1.7,2.6-2.2c0.9-0.5,2-0.8,3.1-0.8c2.4,0,4.2,0.8,5.2,2.2c1,1.5,1.6,4.1,1.6,7.8v23.1h-7.7v-24
					c0-1.5-0.1-2.5-0.4-2.9c-0.3-0.4-0.8-0.6-1.6-0.6c-0.7,0-1.2,0.2-1.5,0.6c-0.3,0.4-0.4,1.3-0.4,2.9v24h-7.7v-24
					c0-1.5-0.1-2.5-0.4-2.9c-0.3-0.4-0.8-0.6-1.6-0.6c-0.7,0-1.2,0.2-1.5,0.6c-0.3,0.4-0.4,1.3-0.4,2.9v24L-175.2,100.5
					L-175.2,100.5z"/>
			</g>
			<g>
				<path d="M-144.5,64v-1h1.9v1h-1v2.9h-1V64L-144.5,64z"/>
				<path d="M-140.7,66.9v-2.9c0.8,0.2,0.7,0.4,0.6,0.6c-0.1,0.2-0.1,0.5,0.4,0.9v0.2v1.3H-140.7v-1.5c-0.4-0.4-0.4-0.7-0.5-0.9
					c-0.1-0.2-0.2-0.4-0.5-0.6v2.9h-1V63h1.2c0.1,0.1,0.2,0.3,0.3,0.5c0.1,0.2,0.2,0.4,0.3,0.5c0.1-0.2,0.2-0.4,0.3-0.5
					c0.1-0.2,0.2-0.4,0.4-0.5h1.2v3.8H-140.7z"/>
			</g>
			<g>
				<path d="M-298.9,81.2h-7.7v-4.8c0-1.7-0.1-2.7-0.4-3.1c-0.3-0.4-0.8-0.6-1.6-0.6s-1.2,0.2-1.5,0.6c-0.3,0.4-0.4,1.4-0.4,3.1
					v16.2c0,1.7,0.1,2.7,0.4,3.1c0.3,0.4,0.7,0.6,1.5,0.6s1.2-0.2,1.6-0.6c0.3-0.4,0.4-1.4,0.4-3.1V88h7.7v3.5
					c0,4.2-0.8,7.2-2.2,8.9s-3.9,2.5-7.4,2.5c-3.5,0-6-0.8-7.4-2.5c-1.4-1.7-2.2-4.6-2.2-8.9V77.6c0-4.2,0.8-7.1,2.2-8.9
					c1.4-1.7,3.9-2.6,7.4-2.6c3.5,0,6,0.8,7.4,2.6c1.4,1.7,2.2,4.6,2.2,8.9V81.2z"/>
			</g>
			<g>
				<path d="M-341.2,77.7c0-3.9,0.8-6.6,2.2-8.2c1.4-1.5,3.9-2.4,7.4-2.4c3.5,0,6,0.8,7.4,2.4c1.4,1.5,2.2,4.3,2.2,8.2v12.7
					c0,3.9-0.8,6.6-2.2,8.2c-1.4,1.5-3.9,2.3-7.4,2.3c-3.5,0-6-0.8-7.4-2.3c-1.4-1.5-2.2-4.3-2.2-8.2V77.7z M-329.6,92.3V76
					c0-1.7-0.1-2.7-0.4-3.1c-0.3-0.4-0.8-0.6-1.6-0.6s-1.2,0.2-1.5,0.6c-0.3,0.4-0.4,1.5-0.4,3.1v16.3c0,1.7,0.1,2.7,0.4,3.1
					c0.3,0.4,0.7,0.6,1.5,0.6s1.2-0.2,1.6-0.6C-329.7,94.9-329.6,93.8-329.6,92.3z"/>
			</g>
		</g>
	</g>
</g>
<g>
	<rect x="0.3" y="-0.4" class="st2" width="218.9" height="137.2"/>
	<g>
		<path class="st3" d="M108.4,114.6c-1.5-0.1-4.1-0.1-6.8-0.2c-2.6-0.1-5.3-0.4-8-0.7c-2.5-0.2-5-0.6-7.4-0.9
			c-3.9-0.6-7.9-1.4-11.8-2.3c-6.1-1.5-12-3.4-17.8-5.9c-5.3-2.3-10.4-5-15.1-8.4c-3.6-2.6-6.9-5.4-9.7-8.8
			c-2.6-3.1-4.7-6.3-6.1-10.1c-1.5-3.9-2-7.9-1.6-12c0.4-3.6,1.5-7.1,3.2-10.4c1.8-3.4,4.1-6.4,6.8-9.1c3.6-3.7,7.8-6.8,12.3-9.4
			c5.5-3.3,11.3-5.8,17.4-8c5.5-1.9,11.2-3.4,16.9-4.5c3.2-0.7,6.5-1.2,9.7-1.5c2.6-0.3,5.3-0.6,7.8-0.8c3.1-0.2,6.3-0.4,9.4-0.4
			c3.4,0,6.8,0,10.2,0.2c2,0.1,3.9,0.3,6,0.4c1.9,0.1,3.7,0.4,5.6,0.6c2.9,0.4,5.8,0.8,8.7,1.4c4.8,0.9,9.6,2.1,14.2,3.6
			c6.6,2.1,13,4.7,19,8.2c4.2,2.4,8.2,5.2,11.9,8.5c3.1,2.8,5.8,5.9,7.9,9.5c1.7,2.8,2.9,5.9,3.6,9.1c0.9,4.7,0.6,9.3-0.9,13.8
			c-1.3,3.8-3.4,7.2-5.8,10.2c-2.9,3.5-6.3,6.6-10,9.2c-4.5,3.3-9.3,5.9-14.4,8.2c-5.8,2.6-11.7,4.5-17.8,6.1
			c-3.5,0.9-6.9,1.6-10.5,2.2c-2.6,0.4-5.3,0.8-8,1.1C121.4,114.3,115.5,114.6,108.4,114.6z M49.3,39.6c0,0.1,0,0.1,0.1,0.1
			c0.3,0,0.6,0,0.9,0c8.7,0,17.3,0,26,0c0.7,0,1.2,0,1.9,0c1.8,0.1,3.4,0.3,5.1,0.7c3.1,0.7,5.4,2.6,6.8,5.4c0.4,0.7,0.7,1.5,1,2.3
			c0.9,2.6,1.2,5.4,1.4,8.1c0.1,2.5,0.1,5.1,0,7.6c-0.1,2.1-0.4,4.1-0.9,6.1c-0.4,1.5-0.9,3.1-1.8,4.5c-1.3,2.2-3.3,3.7-5.8,4.3
			c-1.2,0.3-2.6,0.4-3.9,0.4c-7.4,0-14.9,0-22.3,0c-0.3,0-0.5,0-0.8,0c-0.1,0-0.3,0.1-0.5,0.1c0,6.8,0,13.4,0,20.2
			c0.3,0.1,0.7,0.3,0.9,0.4c8,3.6,16.5,6,25.1,7.6c3.7,0.7,7.3,1.2,11,1.6c2.3,0.2,4.7,0.5,7.1,0.6c2.6,0.1,5.1,0.2,7.6,0.3
			c5.1,0.1,10.2-0.1,15.3-0.5c2.4-0.2,4.7-0.4,7.2-0.7c3-0.4,5.9-0.9,8.9-1.5c5.3-1.1,10.6-2.4,15.7-4.3c5.7-2,11.2-4.4,16.4-7.5
			c2.4-1.5,4.7-3,7-4.8c0.1-0.1,0.4-0.2,0.5-0.6c-1.2,0-2.3,0-3.5,0s-2.3,0-3.4,0c-1.2,0-2.3,0-3.4,0c-1.2,0-2.3,0-3.4,0
			c-1.2,0-2.3,0-3.6,0c-1.2,0-2.3,0-3.4,0c-1.2,0-2.3,0-3.4,0c-1.2,0-2.3,0.1-3.5-0.1c0-2.5,0-5,0-7.4c0-2.5,0-4.9,0-7.4
			s0-4.9,0-7.4s0-4.9,0-7.4c0-2.5,0-4.9,0-7.4c0-2.5,0-4.9,0-7.4c0-2.5,0-4.9,0-7.4s0-4.9,0-7.4c-0.1-0.1-0.2-0.1-0.4-0.1
			c-1.2-0.4-2.4-0.7-3.6-1c-3.6-1-7.2-1.8-10.8-2.4c-1.9-0.4-3.9-0.7-5.8-0.9c-1.8-0.2-3.5-0.4-5.3-0.6c-1.8-0.1-3.7-0.4-5.4-0.4
			c-2-0.1-4-0.1-6.1-0.2c-3.4-0.1-6.9-0.1-10.3,0.1c-2.8,0.1-5.7,0.3-8.5,0.7c-2.4,0.5-4.5,0.7-6.7,1c-2.6,0.4-5,0.8-7.6,1.3
			c-5.7,1.1-11.3,2.6-16.8,4.6c-4.8,1.8-9.5,3.8-13.9,6.4C49.8,39.3,49.5,39.4,49.3,39.6z M163.8,36.4c-0.1,0.4-0.1,0.7-0.1,1.1
			c0,13.3,0,26.5,0,39.8c0,0.2,0,0.4,0,0.6c0,0.1,0.1,0.3,0.1,0.5c0.2,0,0.4,0,0.7,0c7.2,0,14.2,0,21.4-0.1c0.8,0,1.5,0,2.3-0.1
			c0.7-1.1,1.3-2.3,1.7-3.5c0.5-1.5,0.8-3.2,0.9-4.8c0.2-2.3,0.1-4.6-0.4-6.9c-0.7-3-1.8-5.7-3.4-8.2c-1.9-3-4.3-5.6-6.9-8
			c-4.7-4.2-10.1-7.4-15.8-10.1C164.1,36.5,163.9,36.5,163.8,36.4z M43.3,92.3c0.1-0.4,0.1-0.7,0.1-1c0-10.4,0-20.9,0-31.4
			c0-5.1,0-10.2,0-15.3c0-0.2,0-0.4,0-0.7c0-0.1,0-0.3-0.1-0.4c-0.1,0.1-0.2,0.1-0.3,0.1c-3.1,2.3-6,5-8.5,8c-1.9,2.4-3.5,5-4.6,7.9
			c-1.6,4.1-2,8.2-1.2,12.6c0.6,3.2,1.9,6.1,3.6,8.8c2.8,4.4,6.5,8,10.7,11C43,92.1,43.1,92.2,43.3,92.3z M56.5,66.6
			c0.3,0,0.6,0.1,0.9,0.1c5.7,0,11.4,0,17,0c0.3,0,0.6,0,0.9,0c1.4-0.1,2.4-0.8,2.9-2.1c0.2-0.4,0.4-0.9,0.4-1.4
			c0.1-0.6,0.2-1.1,0.3-1.8c0.1-1.7,0.1-3.4-0.3-5.2c-0.2-0.9-0.6-1.9-1.1-2.6c-0.7-1-1.7-1.5-2.9-1.6c-0.2,0-0.4,0-0.6,0
			c-2.9,0-5.8,0-8.7,0c-2.6,0-5.2,0-7.7,0c-0.3,0-0.6-0.1-0.9,0.1c0,0.1-0.1,0.2-0.1,0.3c0,4.6,0,9.3,0,13.9
			C56.5,66.4,56.5,66.5,56.5,66.6z"/>
		<path class="st3" d="M134.2,71.1c-1.7,0-3.4,0-5.1,0c-1.6,0-3.3,0-4.9,0c-1.6,0-3.3,0-4.9-0.1c-0.2-0.3-0.1-0.6-0.1-0.9
			c0-2.6,0-4.6,0-7.1c0-0.4,0-0.9,0-1.4c0.2-0.1,0.4-0.1,0.5-0.1s0.4,0,0.5,0c8.5,0,17.1,0,25.6,0c0.3,0,0.7,0,0.9,0
			c0.3,0.3,0.2,0.6,0.2,0.8c0,2.2,0,4.4,0,6.6c0,3,0,6.2,0,9.2c0,1.7-0.2,3.5-0.8,5.1c-0.7,2.1-2,3.7-3.9,4.9
			c-1.5,0.9-3,1.4-4.7,1.8c-1.9,0.4-3.7,0.7-5.7,0.7c-3.1,0.1-6.3,0.1-9.6,0.1c-2.6,0-5.1,0-7.7,0c-1.9,0-3.7-0.1-5.6-0.1
			c-1.7-0.1-3.3-0.3-4.9-0.8c-3.6-1-6.2-3.4-7.8-6.8c-0.8-1.7-1.2-3.5-1.5-5.4c-0.3-2.2-0.4-4.5-0.3-6.7c0-2.4,0-4.8,0-7.2
			c-0.1-2.9,0-5.5,0.1-8.3c0.1-2.1,0.4-4.2,1-6.3c0.4-1.3,0.9-2.6,1.7-3.7c1.3-2,3.1-3.4,5.3-4.2c1.5-0.6,3.1-1,4.7-1.2
			c2-0.3,4.1-0.4,6.2-0.4c10.8,0,21.7,0,32.4,0c0.4,0,0.7,0,1.1,0c0,0.2,0.1,0.4,0.1,0.5c0,0.1,0,0,0,0v10.7v0.7
			c-0.4,0-0.5,0.1-0.7,0.5h-1.9c-4.5-0.4-13.3,0-13.3,0h-15.9c0,0-2.4-0.2-3.6,0h-0.1c-2.3,0.6-3.7,1.9-4.2,4.3
			c-0.4,1.5-0.4,4.7-0.4,4.7s0,5.2,0,7.9c0,1.4,0.1,2.7,0.4,4.1c0.7,3.1,2.6,5,5.7,5.6c1.4,0.3,2.9,0.4,4.4,0.4c1.9,0,3.8,0,5.7,0
			c1.3,0,2.7,0,4.1-0.1c1,0,2.1-0.2,3.1-0.5c0.4-0.2,0.8-0.3,1.2-0.5c1.2-0.6,2-1.6,2.4-2.9C134.4,73.9,134.4,72.5,134.2,71.1z"/>
	</g>
</g>
<g>
	<g id="Red_Bull_1_">
		<path class="st4" d="M-234.7,377.4v-21.2h-11.5v23.4c0,7.9,8.2,14.4,18.3,14.4c10.1,0,18.3-6.4,18.3-14.4v-23.4h-11.5v21.2
			c0,3.5-3,6.4-6.8,6.4C-231.7,383.8-234.7,381-234.7,377.4z"/>
		<rect x="-183.4" y="330.8" class="st4" width="11.9" height="61.6"/>
		<rect x="-203.1" y="330.8" class="st4" width="11.9" height="61.6"/>
		<path class="st4" d="M-418.1,344h-6v48.9h-12.7v-59.1c0,0,21,0,21.3,0c9.7,0,17.6,7.8,17.6,17.5c0,8.2-5.7,15.1-13.4,17l17.1,24.7
			h-14.6l-12.4-19.4v-14.3h2.9c4.5,0,8.2-3.4,8.2-7.6C-410.1,347.4-413.5,344-418.1,344z"/>
		<path class="st5" d="M-356.8,376.8c0.1-0.8,0.1-1.6,0.1-2.5c0.2-12.7-8.2-19.7-18.9-19.7s-19.4,8.8-19.4,19.6
			c0,10.8,8.7,19.7,19.4,19.7c8.2,0,14.6-3.7,17.9-9.5l-9.5-4.4c-1.2,2.6-4.1,4.5-7.4,4.5c-4.6,0-7.9-3.4-8-7.3c0-0.3,0-0.4,0-0.4
			L-356.8,376.8z M-382.9,369.8c0-3.9,3.2-7.2,7.2-7.2c3.9,0,7.2,3.2,7.2,7.2H-382.9z"/>
		<path class="st5" d="M-310.3,392.4v-61.6h-11.9v29.3c-2.8-3.1-7-5-11.5-5c-9.7,0-17.5,8.6-17.5,19.2c0,10.6,7.8,19.2,17.5,19.2
			c4.6,0,11.9-5.1,11.9-5.1v3.9L-310.3,392.4L-310.3,392.4z M-330.4,383.6c-4.8,0-8.6-4.2-8.6-9.4s3.9-9.4,8.6-9.4s8.6,4.2,8.6,9.4
			C-321.8,379.3-325.6,383.6-330.4,383.6z"/>
		<path class="st5" d="M-260.7,360.4c3.2-3,5.2-7,5.2-11.4c0-4-1.5-7.7-4.2-10.5c-2.8-3.1-7.8-4.8-14.4-4.8h-20.1v58.7h25.9
			c9.9-0.2,17.9-7.7,17.9-16.9C-250.5,368.9-252.9,364.1-260.7,360.4z M-270.5,382.6h-11.1V344h7.8c3.4,0,6.2,3.1,6.2,6.5
			c0,3.4-2.8,6.2-6.2,6.2h-4.1v10.7h7.4c4.1,0,7.2,3.4,7.2,7.6C-263.4,379.3-266,382.3-270.5,382.6z"/>
	</g>
	<g id="Sun_1_">
		<circle class="st6" cx="-303.8" cy="275.8" r="42.5"/>
	</g>
	<g id="Outline_1_">
		<g>
			<path class="st6" d="M-306.8,295.5c-2.4-1.4-2.9-4-4.1-5.7c-0.5-0.7-1.4-1.4-1.6-1.9c-2.2-5.5-2.9-8.7-3.7-14
				c-0.4-2.8-2.2-5.1-4.9-8.4c-1.2-1.4-2.8-3.8-4.3-5.2c-4.8-4.1-7.4-6.3-10.7-8.5c-0.7-0.5-1.4-0.8-2-1l0,0l0,0h0l0,0
				c-1.1-0.5-3.4-0.8-3.4-0.8s-0.3,0-0.4,0c-2.4,0-4.7,0.9-7,2.7c-1.7,1.1-3.6,1.7-5.5,2.3c-2.3,0.7-4.8,1.5-6.8,3.2
				c-0.4,0.2-0.7,0.6-1,0.9c-0.5,0.5-0.7,1-1.4,1.2c-0.6,0.1-1,0.1-1.4,0.2c-0.7,0.1-1.5,0.2-2.2,0.3c-2.5,0.6-4.3,2.1-6.3,3.7
				c-0.2,0.2-0.5,0.4-0.7,0.5c-1.3,1-3.5,1.9-4.7,2c-3.5,0.1-5.9,0.9-8.5,2.8c-2.6,2-5.5,4.1-8.6,5.4c-0.7,0.3-1.5,0.4-2.3,0.4
				c-0.8,0-2-0.2-2.9-1c-1.2-1.1-1.6-3.2-0.9-4.6c1.1-2.1,3.2-3.8,5-5.1c2.3-1.7,4.5-4,3.5-7.7c-1.1-3.4-5.3-4.5-8-5.3
				c-0.8-0.2-1.5-0.4-1.9-0.6c-0.9-0.4-1.5-0.8-2.1-1.2c-0.6-0.4-1.2-0.8-1.9-1.1c-0.1,0-0.2-0.1-0.3-0.1c-0.4,0-0.7,0.2-0.9,0.6
				c-1,1.7-1.3,3.5-0.9,5.3c0.7,2.8,3.5,5.4,6.4,5.9c0.3,0.1,0.6,0.1,0.9,0.1c0.3,0,0.6,0,0.9,0.1c-2,1.6-3.8,3.2-5.3,5.1
				c-2.1,2.5-2.7,6.7-1.4,9.7c1.2,3,4.2,5.4,7.3,5.9c0.6,0.1,1.3,0.2,2,0.2c1.1,0,2.2-0.1,3.2-0.2c0.2,0,0.5,0,0.8-0.1
				c0.1,2.4,0.2,3.8,1.5,7.2c0.1,0.2,0,0.6-0.2,0.8c-0.2,0.2-2.1,1-2.7,1.1c-0.2,0-0.5,0-0.7,0c-0.1,0-0.2,0-0.4,0s-0.3,0-0.4,0
				c-0.2,0-0.6,0-0.9,0c-1.2,0.2-1.8,1.2-2.2,2.2c-0.2,0.6-0.5,1.1-0.6,1.6c-0.4,1.1-0.7,1.8-1.4,2.3c0,0-1.6-1.4-1.9-1.6
				c-0.3-0.2-0.8-0.3-1.3-0.3c-1,0-1.9,0.7-2.8,1.3c-0.3,0.2-0.6,0.4-0.8,0.6c-0.7,0.5-1.3,1.3-1.5,2.1c-1.2,0.6-2.4,1.3-2.9,2.5
				c-0.2,0.5-0.3,1.2-0.4,1.7c0,0.3,0,0.6-0.1,0.9c-0.1,0.2-0.2,0.4-0.3,0.6c-0.3,0.5-0.6,1.2-0.6,1.6c0,0.9,0.3,1.2,0.8,1.6
				c0.6,0.4,2.2,0.9,3.4,1.2c0.1,0,0.2,0,0.2,0c0.4,0,0.6-0.2,0.9-0.4c0.1-0.1,0.2-0.2,0.4-0.2c0.9,0.2,2.4,0.5,3.7,0.5
				c0.7,0,1.4-0.1,1.9-0.2c1.4-0.4,2.6-2.3,3.2-3.3c0.2-0.2,0.3-0.5,0.4-0.5c0,0,0,0,0.1,0c0.2,0,0.6,0.1,0.9,0.2
				c0.4,0.1,0.9,0.2,1.4,0.3c1.6,0.1,3.1-0.8,4.1-1.6c0.4-0.3,0.8-0.7,1.3-1.1c0.5-0.5,0.9-0.9,1.4-1.2c0.5-0.2,1.1-0.3,1.7-0.3
				c0.2,0,0.5,0,0.7,0c1.2,0.2,2.6,0.5,4.1,0.5c1.4,0,2.5-0.2,3.5-0.7l0.9-0.5c0.9-0.5,1.9-1,2.9-1.5c1.8-1,2.5-2.6,3.1-3.9l0.2-0.3
				c0.3-0.7,0.9-2.1,1-2.4c0.3,0,0.6,0,0.9,0c1,0,1.9-0.2,2.8-0.4c0.9-0.2,1.9-0.4,2.8-0.4c0.5,0,0.9,0,1.4,0.2
				c1.7,0.3,3.9,0.7,6.2,0.7c1.3,0,2.5-0.1,3.5-0.4c0.2,0.2,0.6,0.5,0.8,0.7c0.3,0.2,0.5,0.4,0.8,0.7c-0.2,0-0.5,0.1-0.8,0.1
				c-0.8,0.1-1.6,0.2-2.2,0.8c-0.6-0.2-1.3-0.4-2.1-0.4s-1.6,0.1-2.4,0.2c-0.3,0-0.6,0.1-0.9,0.1c-1.2,0.1-2.1,0.6-2.5,1.4
				c-0.2,0.5-0.5,1.1,0,1.9l2.4,4c0.3,0.5,0.8,0.9,1.1,0.9c0.2,0,0.4,0,0.7,0c0.2,0,0.4,0,0.6,0c0.4,0,0.6,0.1,0.7,0.2
				c0.1,0.2,0.2,0.4,0.4,0.5c0.5,0.8,1,1.6,1.8,2.3c1.2,1,3,1.4,4.8,1c0.7-0.2,1.3-0.5,2-0.7c2.1-0.7,4.2-1.5,6.3-2.4l3.5-0.5
				c1.2-0.2,2-1.8,2.3-2.4l0,0c0,0,0-0.1,0.1-0.2c0,0,1-2.1,1.4-3.3c0,0.2,0,0.9,0,0.9s0.2,4.4,3.6,4.3c1.8-0.1,4.3-1.2,6-1.5
				c1.8-0.3,4.2,0.5,6-0.4c1.7-0.7,2.7-2.1,3-1.8c0.7,0.7,3.7,3.5,8.7,3.3c2.5-0.1,2.8-2.1,1-3c3.4,0.4,4.4-1.4,3.7-2
				C-305.3,296.4-305.6,296.2-306.8,295.5z M-337.2,293.6c-1.3-1.7-2.1-3-2.2-4.5c1.6-0.2,3.1-0.7,5.5-0.9
				C-334.5,290.1-336.7,291-337.2,293.6z"/>
			<path class="st6" d="M-193.6,305c-0.1-0.3-0.2-0.5-0.3-0.6c-0.1-0.4-0.1-0.8-0.2-1.2c0-0.5,0-0.9-0.2-1.4
				c-0.4-1.3-1.8-2.2-2.8-2.6c0-0.5-0.1-1-0.6-1.4c-1.9-1.4-2.9-2.2-3.5-2.7c-0.3-0.3-0.5-0.3-0.5-0.4c-0.2-0.1-0.5-0.2-0.7-0.2
				c-0.8,0-1.5,0.7-2.2,1.4c-0.2,0.2-0.3,0.3-0.5,0.5h-0.1c-0.2,0-0.6-0.6-0.7-0.9c-0.2-0.5-0.3-1-0.5-1.4c-0.2-0.8-0.5-1.6-0.9-2.4
				c-0.7-1.4-2.2-1.4-3.5-1.4c-0.1,0-0.3,0-0.4,0c-0.6,0-1.4-0.1-1.5-0.5c-0.1-0.4,0.2-1.2,0.3-1.7c0.1-0.4,0.2-0.8,0.3-1.1
				c0.3-1.5,0.4-3.5,0.1-5.1c0.3,0,0.7,0,1,0.1c0.3,0,0.6,0.1,0.9,0.1c0.1,0-0.1,0-0.1,0c2,0,3.7-0.4,5.2-1.2c3-1.8,4.8-4.7,4.9-7.8
				c-0.1-1.6-0.5-2.9-1.3-4.6c-1.1-2.2-3-4.3-5.7-6.6c1.5-0.3,2.8-0.7,4.1-1.5c2.4-1.5,3.5-4.4,3.1-7.9c-0.1-0.9-0.4-2.3-1.2-2.7
				c-0.1,0-0.2-0.1-0.3-0.1c-0.5,0-1,0.6-1.5,1.1c-0.2,0.2-0.3,0.4-0.4,0.5c-0.9,0.7-1.8,0.9-2.8,1.1c-0.5,0.1-1.1,0.2-1.6,0.4
				c-2.4,0.8-6.6,2.6-7,5.9s2,5.5,4.2,7.6c0.8,0.7,1.5,1.4,2.1,2.1c1.3,1.5,2.4,3,2.1,4.7c-0.1,0.6-0.9,1.5-1.7,1.8
				c-0.6,0.2-1.2,0.3-1.9,0.3c-2.1,0-4.1-1.1-5.9-2.2l-0.2-0.2c-4.1-2.8-8.3-5.8-13.6-6.3c-2-0.4-3.7-1.6-5.5-2.8
				c-0.4-0.3-0.8-0.5-1.2-0.8c-1.8-1.1-3.7-1.7-5.7-2c-1.1-0.1-1.9-0.8-2.8-1.5c-0.4-0.4-0.9-0.8-1.5-1.1c-2.1-1.3-4.3-2.2-6.8-2.7
				c-0.2-0.1-0.5-0.1-0.7-0.2c-0.7-0.1-1.3-0.3-1.7-0.8c-0.7-0.8-1.7-1.9-2.8-2.7c-1.5-1-3.9-2.1-6-2.1c-0.4,0-0.9,0-1.3,0.2
				c-1.2,0.3-2.1,1-3,1.7c-0.1,0.1-0.2,0.2-0.4,0.3l0,0c-1.9,1.5-4.5,3.5-6.5,5c-6,4.3-8.2,6.1-11.2,9.4c-7.6,8.3-5.3,20.8-11.9,28
				c-1.7,1.9-2.2,2.1-2.8,2.6c-0.8,0.7-0.9,4.1,4.1,2.4c-2.3,2-0.9,2.8,0.7,2.9c2.6,0,5.5-0.9,8.4-3.9c2,2.8,5.5,1.5,7.2,1.7
				c1.7,0.1,4.8,2,6.6,1.9c2.8-0.2,3.8-2.9,3.5-4.4c0.4,0,0.6-0.1,0.7-0.3c0.3,1.6,0.5,2.7,0.9,3.5c0,0,0,0.1,0.1,0.2l0,0l0,0
				c0.2,0.4,0.6,1.1,1,1.5c0.5,0.6,1.2,0.7,1.7,0.7c0.2,0,0.4,0,0.7,0c0.1,0,0.1,0,0.2,0c0.3,0.1,0.8,0.3,1.1,0.4
				c0.5,0.4,0.9,0.8,1.5,1c2.6,0.7,4.8,1.3,6.9,2c0.4,0.1,1.1,0.3,1.7,0.3c0.2,0,0.4,0,0.6,0c2-0.4,3.7-2.1,4.2-4.1
				c0-0.3,0.2-0.3,0.6-0.3c0.3,0,0.6,0,0.7-0.2c1.1-0.9,1.7-2,2.4-3.2c0.1-0.2,0.3-0.5,0.4-0.7c0.3-0.4,0.4-1.2,0.1-1.9
				c-0.2-0.4-0.6-0.7-1.1-0.9c-1.1-0.3-2.2-0.3-3.2-0.3c-0.2,0-0.4,0-0.6,0s-0.4,0-0.6,0c-0.5,0-1.1,0-1.7,0l-0.4-0.4
				c-0.3-0.3-0.7-0.3-1-0.4c-0.1,0-0.2,0-0.3,0l0.9-0.7c0.4,0,1.1,0,1.1,0s4.3-0.4,6.1-0.8c1.8-0.4,5-0.9,5-0.9s0.5,0,0.7,0
				c0.3,0,0.5,0,0.8,0c1,0.1,2,0.1,3,0.1c1.4,0,2.4-0.1,3.4-0.4c0.1,0.5,0.2,1,0.3,1.5c0.4,1.9,0.7,3.6,2.1,5.2
				c0.8,1.1,1.9,1.7,3,2.4c0.5,0.3,1.1,0.7,1.6,1c0.7,0.4,1.3,0.4,2.1,0.4c1.1,0,2.6-0.5,3.4-0.5c3.4,0,6,1.9,8.9,4.3
				c0.5,0.3,1.1,0.5,1.8,0.5c0.9,0,1.8-0.3,2.7-0.7l0.1,0.1c0.5,0.8,1.1,1.6,1.8,2.2c1.1,1,2.4,1.1,3.6,1.1c0.4,0,0.8,0,1.2,0
				c0.6,0,1.2,0,1.7,0c0.2,0.3,0.7,0.6,1,0.6s4-1.3,4.2-1.3c0.2-0.1,0.5-0.3,0.5-0.3C-192.4,307.3-193.1,306-193.6,305z
				 M-269.8,293.7c-0.9-1.8-1.6-3.4-2.7-5c2.5,0.6,5.4,0.3,5.4,0.3C-267.9,290.2-268.8,291.8-269.8,293.7z"/>
		</g>
	</g>
	<g id="Bulls_red_1_">
		<g>
			<path class="st5" d="M-254.1,295.5c-0.1-0.2-0.5-0.4-0.5-0.4h-0.2l-1.3,0.4h-0.7h-0.5c-0.3-0.1-0.7,0-0.7,0h0l0,0
				c0,0.1-0.9,1.5-0.8,2.5c0.1,1,1.2,1.2,1.9,1.4c0.3,0,0.6,0.1,0.9,0.1c0.5,0,0.9-0.2,1.1-0.6c0.5-1.2,0.7-2.2,0.9-3.1
				C-254,295.7-254.1,295.5-254.1,295.5z"/>
			<path class="st5" d="M-198.6,298.8c-0.5-0.7-1.3-1.2-2-1.7c-0.3-0.2-0.6-0.4-0.8-0.5l-0.1-0.1c-0.2-0.1-0.3-0.2-0.5-0.2
				c-0.7,0-1.6,0.9-1.6,1.2c0,0.5,0.6,1.3,1.5,2.3l0.2,0.2c0.4,0.5,0.9,0.8,1.4,0.8l0,0c0.5,0,0.9-0.2,1.3-0.5
				C-199,300-198.4,299.3-198.6,298.8z"/>
			<path class="st5" d="M-195.1,304.6c-0.1-0.3-0.2-0.5-0.3-0.7c-0.1-0.3-0.1-0.7-0.2-1c-0.1-0.6-0.1-1.1-0.3-1.5
				c-0.2-0.5-0.8-0.9-1.4-0.9c-0.2,0-0.4,0-0.5,0.1c-0.8,0.4-1.3,0.9-1.2,1.8c0.5,1.4,0.7,2.3,1,3.7c0,0.2,0.2,0.9,0.5,0.9
				c0,0,0,0,0.1,0l2.4-0.8c0.1,0,0.2-0.1,0.2-0.2C-194.6,305.7-194.9,305.1-195.1,304.6z"/>
			<path class="st5" d="M-199.5,306.4c-0.2-1.4-0.6-2.8-1.2-4.2l0-0.1h-0.1c-1.4,0.1-2.3-1-3.1-2.1c-0.3-0.4-0.5-0.7-0.8-1
				c-0.4-0.5-0.9-0.9-1.3-1.3c-0.5-0.4-0.9-0.8-1.1-1.1c-0.2-0.4-0.4-1.2-0.6-1.9c-0.2-0.5-0.3-1.1-0.4-1.4c0-0.1,0-0.2-0.1-0.2
				c-0.2-0.7-0.6-1.5-1.4-1.6c-0.5-0.1-0.9-0.1-1.4-0.1c-1.2,0-2.5-0.3-3.2-1.1c-0.6-0.8-0.3-1.6,0-2.4c0.2-0.4,0.2-0.7,0.3-1
				c0.5-1.5,0.6-3.3,0.2-4.7c0-0.2-0.1-0.4-0.2-0.6c-0.2-0.5-0.4-1.4-0.2-1.6c0.1-0.2,0.3-0.3,0.5-0.3c0.2,0,0.5,0.1,0.7,0.1
				c0.2,0,0.3,0.1,0.5,0.1c0.6,0.2,1.6,0.3,2.4,0.3c1.4,0,2.9-0.3,4.1-0.9c2.4-1.1,4.8-3.8,4.7-7c-0.3-3.3-2.3-6.4-6.2-9.7
				c-0.1-0.1-0.2-0.2-0.3-0.2c-0.5-0.4-1.1-0.9-1.2-1.4c0-0.4,1.2-0.7,2-0.9c0.2,0,0.3-0.1,0.5-0.1l0.2,0c1-0.2,2-0.5,2.8-1.1
				c2.8-1.8,2.7-5.1,2.4-6.9c0,0,0-0.1,0-0.2c0-0.2-0.1-0.5-0.3-0.5c-0.1,0-0.1,0-0.2,0.1c-0.1,0.1-0.2,0.2-0.2,0.2
				c-0.3,0.3-0.7,0.7-1.1,0.9c-0.9,0.5-1.9,0.7-3,0.9c-0.7,0.1-1.3,0.3-2,0.5c-2.8,0.9-4.5,2.3-5.1,4.1c-0.3,0.9-0.2,2.1,0.5,3.2
				c0.9,1.4,2.2,2.7,3.5,3.9c2,1.9,4.1,3.8,4.5,6.5c0.2,1.6-0.4,2.9-1.9,4c-0.8,0.5-1.8,0.7-3,0.7c-1.4,0-3-0.4-4.2-1.1
				c-1.6-0.8-3.2-1.8-4.7-2.9c-2.3-1.5-4.6-3.1-7.2-3.9c-1.2-0.5-2.4-0.8-3.6-1c-1.7-0.4-3.5-0.7-4.9-1.8c-0.5-0.3-1-0.7-1.4-1
				c-1.3-0.9-2.6-1.9-4.1-2.3c-0.6-0.2-1.1-0.3-1.6-0.4c-0.8-0.1-1.6-0.2-2.3-0.7c-0.3-0.2-0.7-0.5-1-0.7c-1.2-0.9-2.5-1.8-3.7-2.4
				c-2.1-1.1-4.4-1.6-7-2.2c-0.8-0.2-1.3-0.8-1.8-1.5c-0.4-0.4-0.7-0.9-1.2-1.2c-2-1.6-3.7-2.6-6-2.6c-0.2,0-0.5,0-0.7,0
				c-1.2,0.1-2.4,1-3.2,1.7c-2.3,2-4.8,3.8-7.1,5.5c-3.6,2.6-7.2,5.2-10.4,8.6c-3.1,3.2-4.2,7.1-5.3,11c-0.2,0.6-0.3,1.1-0.5,1.7
				c-0.3,1.1-0.6,2.1-0.8,3.2c-1.4,5.7-2.9,11.3-8.6,15c-0.4,0.2-0.2,0.7,0.1,0.9c0.2,0,2.5,0.9,4.9-1.5c1.4-1.8,2.2-3.4,3.9-5.2
				c0,0,0.2-0.2,0.4-0.2c0.1,0,0.1,0.1,0.1,0.3c-0.2,0.7-0.7,1.4-1.1,2c-0.5,0.7-0.9,1.3-1.1,2c-0.5,1.6-2.1,2.9-3.4,4.1
				c0,0-0.2,0.1-0.3,0.3c-0.1,0.2-0.1,0.2-0.1,0.2c0,0.4,0.2,0.6,0.8,0.6l0,0c3.2,0,5.5-2.2,7.6-4.4c0.1-0.1,0.2-0.1,0.4-0.1
				c0.1,0,0.2,0,0.4,0c0.2,0.1,0.5,0.4,0.7,0.6c0.7,0.7,1.4,1.3,2.4,1.5l0,0l0,0c1.1-0.2,2.2-0.3,3.3-0.3c0.3,0,0.6,0,0.9,0
				c1.2,0.4,2.3,0.8,3.5,1.2c0.8,0.3,1.6,0.6,2.4,0.9l0,0l0,0c1.1,0,1.8-1,2.4-1.9c0.2-0.6,0.1-1.2,0-1.8c-0.1-0.4-0.1-0.7-0.1-1
				c0.2-0.1,0.5-0.1,0.7,0c0.2,0,0.6,0,0.7,0c0.3,0,0.6-0.4,0.5-0.8c-0.2-1.1-0.7-1.7-1.3-2.5c-0.5-0.7-0.9-1.3-1.1-2.1
				c-0.4-1-1.1-1.8-1.8-2.5c-0.8-0.9-1.6-1.8-1.8-2.8c0,0-0.1-0.2,0-0.3c0.1-0.1,0.3,0,0.3,0c0.4,0.3,0.8,0.6,1.2,0.9
				c1.2,1,2.5,2,4,2.2c1.4,0.1,3,0.3,4.5,0.2c0.4-0.1,0.6-0.4,0.5-0.7c-0.6-1.3-1.2-2.6-1.6-4.1c-0.3-1.1-1-4.1-0.3-6.3
				c0.1-0.2,0.2-0.3,0.3-0.3h0c0.2,0,0.4,0.3,0.5,0.6l0,0.3c0.2,3,0.4,5.9,2.3,8.3c0.5,0.8,1.2,1.2,1.9,1.6c0.5,0.3,1,0.5,1.4,1
				c0.4,0.5,0.5,1.3,0.2,1.8l-2.3,3.3c-0.5,0.8-1.1,1.6-1.2,2.4c-0.2,0.9-0.1,1.7,0,2.4v0.3c0,0-0.1-0.1-0.2-0.2
				c-0.9-1.7-1.1-3.1-0.7-4.2c0.3-0.7,2.2-3.4,2.7-4.2c0.2-0.3,0.3-0.6,0.2-0.7c-0.2-0.2-1.6-0.8-2-0.8c0,0,0,0-0.1,0
				c-0.3,0.1-0.5,0.4-0.7,0.7c0,0-0.1,0.1-0.1,0.2l-2.9,5.1l0,0.2c-0.2,0.5-0.3,1-0.2,1.6c0.2,0.8,0.4,1.6,0.6,2.2
				c0,0.2,0.1,0.3,0.1,0.5c0.2,0.9,0.5,1.7,0.9,2.2c0.2,0.3,0.6,0.4,1,0.4c0.2,0,0.5,0,0.7-0.1c0.4,0,0.7-0.1,1,0
				c0.4,0.1,0.7,0.4,1,0.7c0.3,0.3,0.6,0.7,1.1,0.8c0.9,0.3,1.8,0.5,2.7,0.8c1.2,0.3,2.4,0.6,3.6,1.1c0.7,0.2,1.4,0.4,2.1,0.4
				c0.7,0,1.2-0.2,1.9-0.7c0.9-0.7,1.2-1.5,1.5-2.6c0.2-1,0.5-1,1.2-1.1c0.3,0,0.4,0,0.7-0.1c0.4-0.1,1.4-1.4,1.9-2.4
				c0.2-0.3,0.3-0.5,0.5-0.7c0.2-0.2,0.2-0.5,0.2-0.7c0-0.5-0.4-0.7-0.7-0.7h-0.3c0,0-2.9,0-3.7,0c-1.2,0.1-1.7,1.2-2.2,2.2
				c-0.2,0.4-0.3,0.8-0.5,1.1c-0.3,0.6-0.9,0.9-1.7,0.9c-0.2,0-0.7-0.1-1-0.2c-1.6-0.4-3.2-0.8-3.9-2.4c-0.1-0.3-0.2-0.8,0.2-1.3
				c0.8-1,2-2.2,3.1-3.1c1.6-0.3,3.2-1.5,4-3c0.2-0.2,0.3-0.6,0.4-0.8c0.2-0.4,0.3-0.9,0.7-1.1c0.2-0.1,0.5-0.1,0.5,0.1
				c0.2,0.8-0.2,1.6-0.5,2.4c-0.1,0.2-0.1,0.4-0.2,0.5l0,0.1h0.2c0,0,0.9,0.1,1.4,0.1c1.7,0,3.3-0.3,4.8-0.6
				c1.5-0.3,3.1-0.6,4.8-0.7h0.5c0.7,0.2,1.4,0.2,2.1,0.3c0.7,0,1.4,0.1,2.1,0.1c0.2,0,0.5,0,0.7,0c2.1-0.1,3.6-1,4.1-2.5
				c0.5-1.3,0.4-3.5-0.1-6.6c0-0.2-0.2-0.2-0.2-0.2V281c0-0.1,0-0.2,0.2-0.3c0.2-0.1,0.4,0,0.5,0.2c0.8,2.2,1.2,4.7,1.5,6.5
				c0.3,1.7,1,3.4,2.2,5.3c1.5,2.2,3.9,3.5,6.7,3.5c0.7,0,1.3-0.1,2-0.2c0.5,0,0.6,0,0.9,0c3.6,0,6.7,1.6,9,4.4c0,0,0,0,0,0.1
				c0,0.1-0.2,0.2-0.3,0.2l-0.3-0.2c-2-1.6-4.1-3.1-6.7-3.5c-0.5-0.1-0.9-0.1-1.5-0.1c-0.7,0-1.5,0.1-2.2,0.2
				c-0.7,0.1-1.4,0.2-2.1,0.2c-0.9,0-1.6-0.1-2.3-0.4c-3-1-5.5-4.4-6.2-6.5c0-0.1-0.1-0.2-0.3-0.2c-0.1,0-0.2,0-0.2,0.1
				c-0.3,0.2-0.4,0.3-0.5,0.5c0,0.2,0.2,1.7,0.4,2.4c0.4,1.6,1,4.1,3.1,5c0.2,0.2,0.5,0.3,0.8,0.5c1.1,0.7,2.2,1.4,3.5,1.4
				c0.3,0,0.6,0,0.9-0.1c0.7-0.2,1.5-0.2,2.3-0.2c2.5,0,5,0.8,7.1,2.4c0.4,0.2,0.7,0.5,1,0.7c0.5,0.4,0.9,0.8,1.5,1
				c0.4,0.1,0.7,0.2,1.1,0.2c0.9,0,1.2-0.3,1.9-0.6c0.3-0.2,0.6-0.2,0.8-0.2c0.8,0,1.2,0.6,1.7,1.3c0.3,0.4,0.7,1,1.2,1.4
				c0.7,0.7,1.6,0.8,2.4,0.8c0.4,0,0.8,0,1.2,0c0.4,0,0.9,0,1.1-0.1c0.2,0,0.4-0.1,0.4-0.1L-199.5,306.4z M-280.5,295.2
				c-0.1,0.2-0.5,0.4-0.9,0.4c-0.4,0-0.8-0.1-1-0.3c-0.6-0.4-0.9-1.1-0.9-2c0-0.2,0-0.4,0.2-0.6c0.1-0.1,0.2-0.1,0.4-0.1
				c0.5,0,1.4,0.4,1.9,0.9C-280.8,293.6-280.1,294.6-280.5,295.2z M-279.7,282.6c-0.2,0.2-0.5,0.5-0.8,0.3c-0.3-0.1-0.5-0.5-0.7-0.7
				c-0.2-0.3-0.4-0.7-0.8-0.6c0,0,0,0-0.1,0c-0.4,0-0.7,0.2-1,0.5c-0.2,0.1-0.8,0.6-1,0.7c-0.9,0.7-1.8,1.5-2,2.6
				c-0.1,0.4-0.1,0.4-0.1,0.6c-0.1,0.4-0.1,0.7-0.5,0.9h0c0,0-0.1,0-0.1,0c-0.1,0-0.3,0-0.4-0.2c-0.1-0.1-0.2-0.2-0.2-0.4
				c-0.2-1.8,0.5-3.5,1.7-4.6c0.8-0.7,1.5-1.5,2.1-2.3c0.3-0.4,0.6-0.8,1-1.2c0.2-0.2,0.7,0,1.4,0.7c0.3,0.3,1.2,1.8,1.6,2.8
				C-279.5,282.3-279.7,282.6-279.7,282.6z M-264.7,261.6c-0.3,0.3-0.7,0.7-1.1,1c-1.3,1.2-2.6,2.3-3.5,3.7c-0.4,0.6-0.7,1.2-1,1.8
				c0,0.1-0.1,0.2-0.2,0.2c-0.1,0-0.1,0-0.2-0.1c-0.2-0.2,0-2,0.3-2.8c0.7-1.9,2.3-3.9,4.4-5.4c0.2-0.1,0.5-0.2,0.8-0.2
				c0.4,0,0.7,0.2,0.8,0.5C-264.1,260.7-264.2,261.2-264.7,261.6z"/>
		</g>
		<g>
			<path class="st5" d="M-349.8,297.5c-0.1-0.1-0.1-0.2-0.2-0.4c-0.2-0.4-0.3-0.8-0.5-1.2c-0.2-0.7-0.4-1.4-1.2-1.3
				c-1.2,0.2-2.3,0.2-3.5,0.2c0,0-0.4,0-0.5,0.3c-0.1,0.3,0.2,0.6,0.5,0.9c0.2,0.2,0.4,0.4,0.5,0.5c0.2,0.3,0.5,0.8,0.7,1.3
				c0.3,0.7,0.6,1.4,1,1.5c0.1,0,0.3,0.1,0.5,0.1c0.8,0,1.8-0.4,2.6-1C-349.4,298.1-349.5,297.8-349.8,297.5z"/>
			<path class="st5" d="M-405.6,296.3L-405.6,296.3c-0.3-0.2-0.7-0.2-1,0c-0.2,0.1-0.4,0.3-0.6,0.4c-0.7,0.4-1.3,0.9-2,1.4
				c-0.2,0.2-0.4,0.6-0.4,0.9c0,0.2,0,0.5,0.1,0.6c0,0.1,0.6,0.6,0.7,0.7c0.2,0.1,0.5,0.3,0.8,0.3c0.2,0,0.5,0,0.7-0.2
				c1.2-0.6,2.5-2.9,2.5-3C-404.6,297.1-405,296.8-405.6,296.3z"/>
			<path class="st5" d="M-409.6,301.9c-0.2-0.4-1.1-1.4-1.6-1.4c0,0-0.1,0-0.1,0c-0.7,0.3-1.4,1.1-1.4,1.6c-0.2,2.2-0.2,2.5-0.8,3.1
				c-0.2,0.2-0.3,0.6-0.1,0.8c0.2,0.2,2.3,0.9,2.6,0.9h0c0.2,0,0.4-0.6,0.8-2.1c0.2-0.8,0.5-1.8,0.8-2.6
				C-409.4,302.2-409.4,302.1-409.6,301.9z M-411.1,306.7L-411.1,306.7L-411.1,306.7L-411.1,306.7z"/>
			<path class="st5" d="M-343.2,301.6c0.9-0.1,1.8-0.1,2.5-0.8c0.8-1.2,1.5-2.5,2.2-3.7c0.6-1.2,0.6-2.3,0-3.2
				c-1.7-2.7-2-3.4-2.6-5.2v0.2h0c-0.2-0.1-0.4-0.2-0.6-0.3c-0.4-0.2-1.3-0.5-1.3-0.5h-0.3c-0.6,0-1,0.2-1.1,0.5l0,0l3,6
				c0.2,0.5,0.4,1,0.3,1.6c-0.1,0.7-1.6,3-2,3.3c-0.1,0.1-0.2,0.1-0.2,0.1c0,0-0.2,0-0.1-0.4c0.3-1,0.6-3.2,0.5-4
				c-0.1-0.8-2.6-5-2.7-5.2l0-0.1c-0.4-0.6-0.8-1.3-0.7-2.1c0-0.4,0.3-0.6,0.6-0.7c0.5-0.2,0.9-0.2,1.3-0.3c1.1-0.2,2.2-0.5,2.6-1.1
				c1.2-1.8,1.9-3.7,2.4-6.4c0-0.1,0.1-0.3,0.3-0.3c0.1,0,0.2,0,0.2,0.2c0.5,2.5-0.2,5.2-1.7,7.2c-0.1,0.1-0.2,0.4-0.1,0.6
				c0,0.2,0.3,0.4,0.3,0.4c0.6,0.4,2.7,0.2,4.2-0.6c1.2,0,2.3-0.2,3.3-0.4c0.3-0.1,0.7-0.1,1-0.2c0.1,0,0.2,0.2,0.2,0.2
				c-0.9,1-1.5,2.2-1.7,3.6c-0.2,0.2-0.5,0.5-0.8,0.7c-1,0.9-2,1.9-2.1,3.2c0,0,0,0.5,0.5,0.5c0.2,0,0.3-0.1,0.5-0.1
				c0.2-0.1,0.4-0.2,0.5-0.1c0.2,0,0.3,0.2,0.3,0.3l-1.1,1.7c-0.4,0.7-0.2,1.4-0.1,2.1c0.1,0.4,0.1,0.7,0.2,1
				c0.3,0.8,1.3,1.2,2.1,1.2c1.5-0.1,2.8-0.5,4.1-1c0.2-0.1,0.5-0.2,0.7-0.2c1.4-0.6,3.3-0.7,5.5-0.4c1.8-0.1,3.2-1.3,4.5-2.5
				c0.5,0,1.1,0.3,1.7,1c2,2.1,4.3,3.1,7.3,3.1c0.1,0,0.3,0,0.4,0l0.3,0c0.3-0.1,0.4-0.2,0.4-0.4c0-0.2-0.2-0.5-0.5-0.6l-1.7-0.9
				c-1.3-0.8-2.8-1.9-3.1-3.2c-0.4-1.4-1.2-2.9-1.8-3.8c-0.1-0.2-0.2-0.4-0.4-0.6c-0.2-0.3-0.5-0.7-0.7-1l0,0c1.8,0.7,2.8,2,4,4.2
				c0.9,1.7,3.3,3.4,5.5,3.4c0.3,0,0.6,0,0.9-0.1c0.2,0,0.4-0.2,0.4-0.4c0-0.2,0-0.4-0.2-0.5c-0.6-0.3-1.4-0.7-1.4-0.7
				c-1.6-1-2.5-2.5-3.4-4c-0.3-0.6-0.7-1.2-1.1-1.7c-0.2-0.4-0.7-0.8-1.1-1.1c-0.3-0.3-0.7-0.6-0.7-0.7c-1.4-4-3.1-8.7-3.4-13.9
				c0-0.8-0.6-2.6-1.3-3.7c-2.1-3.4-7-9.2-7.3-9.5c-0.2-0.2-0.4-0.4-0.5-0.5l-0.1-0.1l-8.9-7.4c-1.8-1.2-2.3-1.5-3.6-1.9
				c-0.8-0.3-1.8-0.5-2.8-0.5c-1.3,0-2.5,0.2-3.6,0.7c-0.7,0.4-1.4,0.8-2.1,1.2c-1.2,0.7-2.3,1.5-3.6,1.9c-1,0.5-2.1,0.8-3.1,1.1
				c-2,0.6-4.1,1.3-5.8,2.8c-0.5,0.5-0.9,0.8-1.2,1.1c-1.5,1.4-1.7,1.6-2.9,1.6c-2.9,0-5,0.7-7.1,2.5c-1.7,1.5-3.4,3-5.3,3.7
				c-0.9,0.3-1.9,0.4-2.9,0.5c-1.5,0.1-1.7,0.2-3.1,0.5c-2.1,0.5-4.4,2.2-6.3,3.7c-0.6,0.5-1.4,1.1-1.9,1.4
				c-0.2,0.1-0.5,0.3-0.7,0.4c-2.4,1.4-4.6,2.7-7.4,2.7c-0.1,0,0.2,0,0.1,0c-2.1-0.2-4-1.6-4.7-3.6c-0.6-2.2,0-4.4,1.8-6.1
				c0.8-0.8,1.8-1.6,2.7-2.4c1.4-1.2,2.8-2.4,3.8-3.7c1.1-1.5,1-4-0.2-5.3c-1.2-1.3-4-2-5-2.3l-0.2,0c-0.1,0-0.3,0-0.4-0.1
				c-0.7-0.1-1.3-0.2-1.9-0.4c-1.6-0.4-2.9-1.7-4.4-2.5c-0.6,0.9-0.7,1.8-0.7,2.8c0.3,2.2,2.1,4.5,4.1,5.4c0.1,0,0.2,0.1,0.2,0.1
				c0.7,0.3,1.3,0.3,2,0.3c0.1,0,0.3,0,0.4,0s0.3,0,0.4,0c0.4,0,0.9,0,1.3,0.1c0.4,0.1,0.8,0.5,0.9,1c0,0.3-0.1,0.5-0.5,0.8
				c-0.3,0.3-0.7,0.6-1,0.9c-1.8,1.4-3.6,3-5.1,4.8c-2,2.1-2.1,5.9-1.2,8.3c1.2,3.2,4.5,5,7.1,5.3c0.5,0.1,1,0.1,1.5,0.1
				c1.6,0,3.1-0.4,4.6-0.7c0,0,0.1,0,0.1,0c0.1,0,0.2,0,0.2,0.3c0,0.7,0.1,1.4,0.1,2.1c0,1.2,0.1,2.3,0.2,2.8c0.2,1,0.7,2.3,1.1,3.1
				c0.2,0.4,0.2,0.6,0.3,0.8c0.1,0.5,0,1-0.3,1.3c-1.1,1-3.4,1.9-3.8,1.9c-0.7,0.1-1.4,0.1-1.9,0.2c-0.2,0-0.5,0-0.6,0
				c-0.2,0-0.5,0.1-0.6,0.3c-0.3,0.3-0.7,1.2-1.1,2.2c-0.2,0.6-0.5,1.3-0.7,1.8c-0.7,1.2-1.9,1.9-3.1,2.6c-0.3,0.2-0.6,0.3-0.9,0.5
				l0,0c-0.5,0.7-0.9,1.5-1.6,2c-0.5,0.5-1.1,0.5-1.7,0.6h0l0,0c-0.9,1-1.2,2.3-1.5,3.7c0,0.2-0.1,0.4-0.1,0.6l0,0.2h-0.8
				c0.5,0,1,0.2,1.5,0.2c0.7,0.1,1.4,0.3,2,0.3c0.6,0,1.2-0.1,1.7-0.4c0.9-0.4,1.3-1.2,1.8-2c0.3-0.5,0.6-1,1-1.5
				c0.2-0.2,0.5-0.4,0.9-0.4c0.3,0,0.7,0.1,1.1,0.2c0.3,0.1,0.7,0.2,1,0.2c1.6,0.1,3.1-0.9,3.9-1.5c0.3-0.2,0.7-0.5,1-0.9
				c0.5-0.5,1-0.9,1.5-1.2c0.7-0.3,1.5-0.5,2.4-0.5c1.2,0,2.5,0.2,3.5,0.4c0.5,0.1,1.1,0.2,1.7,0.2c1,0,1.9-0.2,2.6-0.6
				c0.9-0.5,1.8-1,2.5-1.4c0.4-0.2,0.8-0.4,1.1-0.6c1.3-0.7,2.4-2.7,2.8-3.5c0.4-0.7,1-2.4,1-2.4l0-0.1l-1.5-1.1l0,0.1
				c0,0-1,1.6-1.6,2.4c-2.6,3.6-6.9,4-10.4,4c-0.2,0-0.5,0-0.7,0c-4.3,0-7.7,1.4-10.2,4.2c-0.1,0.1-0.3,0.2-0.4,0
				c0-0.1-0.1-0.2,0-0.3c0.1-0.3,0.1-0.4,0.3-0.7c2.7-3.8,7.2-4.4,10.9-4.4c2.7-0.2,4.7-0.7,6.4-1.5c2.2-1.1,3.8-3.6,4.5-5.6
				c0.4-1.3,0.6-2.7,0.8-4c0.2-1,0.3-2.2,0.6-3.2c0-0.1,0.2-0.2,0.3-0.2c0,0,0,0,0.1,0c0.1,0,0.4,0.1,0.4,0.3
				c-0.4,2.1-0.9,4.9,0.1,7.3c0.5,1,1.4,1.4,2.9,1.4c0.9,0,1.9-0.2,2.9-0.3c0.7-0.1,1.5-0.2,2-0.2c0.2,0,0.5,0,0.8,0
				c1.2,0,2.4,0.2,3.5,0.5c1,0.2,2,0.4,3,0.5c0.2,0,0.4,0,0.6,0c0.4,0,0.7,0,1.1,0c0.9,0,1.5-0.2,2-0.5c0.3-0.2,0.2-0.6,0.1-1.1
				l0-0.1c0-0.1,0-0.2-0.1-0.3c-0.2-0.7-0.5-1.6,0-2.1c0.1,0,0.2-0.1,0.3-0.1c0.1,0,0.2,0,0.2,0.2c0,0.2,0.1,0.4,0.2,0.6
				c0.2,0.8,0.5,1.6,1,2.3c1,1.3,2.7,2.6,4.7,3.7c1.3,0.9,2.9,2.4,3,4.5c0,1-0.9,1.6-1.6,2c-1.1,0.5-3,1.1-3.8,1.1
				c-0.2,0-0.3,0-0.3,0c-1.2-0.7-1.9-1.7-2.6-2.9c-0.4-0.6-0.7-1.2-1.2-1.8c-0.7-0.7-1.5-1-2.6-0.9s-2.1,0.3-3.2,0.5
				c-0.2,0-0.4,0.2-0.5,0.4c-0.1,0.2-0.1,0.5,0.1,0.8c0.6,1.1,1.2,2.1,1.8,3.1l0.3,0.5c0.2,0.2,0.5,0.3,0.7,0.3c0.1,0,0.3,0,0.5,0
				c0.2,0,0.4,0,0.5,0c0.5,0,0.9,0.1,1.1,0.4c0.2,0.3,0.4,0.6,0.5,0.9c0.4,0.7,0.8,1.5,1.5,2c0.7,0.6,1.6,0.9,2.5,0.9
				c0.4,0,0.8-0.1,1.2-0.2c2.8-0.9,5.6-1.8,8.2-3.2C-344.6,301.6-343.5,301.6-343.2,301.6z M-338.4,270.4c0,0.2-0.2,0.3-0.3,0.3
				c0,0-0.2,0-0.2-0.2c-0.5-2.4-0.7-3.5-1.3-4.6c-0.2-0.4-0.4-0.7-0.6-0.9c-0.4-0.5-0.7-1-0.4-1.6c0.1-0.2,0.4-0.3,0.7-0.3
				c0.2,0,0.3,0,0.4,0.1c0.5,0.2,0.9,0.8,1.4,1.7C-337.5,267-338.4,270.4-338.4,270.4z M-323.5,294.1c0,0-0.1,0.7-0.4,0.9
				c-0.3,0.3-1.4,0.5-2.1,0.4c-0.6,0-0.8-0.1-0.9-0.3c-0.1-0.2,0.1-0.6,0.1-0.6c0.1-0.2,0.8-1.6,2.2-2c0,0,0.5-0.2,0.9,0
				C-323.3,292.8-323.5,293.9-323.5,294.1z M-319.4,284.7c-0.1,0.5-0.2,0.8-0.3,0.9c-0.1,0.1-0.2,0.4-0.6,0.4
				c-0.5,0-0.4-0.5-0.4-0.6c0,0,0-1.5-0.3-2.1c-0.3-0.7-1.8-2.5-2.6-2.5c-0.2,0-0.8,0.4-1.2,0.9c-0.5,0.7-0.5,0.7-0.7,0.8
				c-0.2,0.1-0.4,0-0.4-0.3c-0.1-0.4-0.1-0.7,0-1.4c0.2-0.7,0.4-0.9,0.6-1.4c0,0,0.5-1,0.6-1.3c0.5-0.7,1.1-0.7,1.1-0.7
				c0.2,0,0.7,0,1.2,0.7c0.7,0.8,0.5,0.7,0.7,1c0.2,0.3,0.4,0.6,0.9,1.2c0.5,0.6,1.2,1.7,1.3,2.4
				C-319.3,283.5-319.3,284.2-319.4,284.7z"/>
		</g>
	</g>
</g>
<g>
	<g>
		<path class="st7" d="M150.1,289.3c0-1.5-0.5-2.6-1.3-3.2c-0.9-0.6-2-0.9-3.4-0.9c-1.9,0-4.5,0.6-4.5,3.1c0,2.8,5.7,3.1,9.4,4.3
			c6.6,2.3,8.8,6,8.8,10.5c0,9.2-8.9,13.4-17.1,13.4c-8.7,0-16.6-4-16.1-13.7h11.4c0,2,0.5,3.3,1.4,4.3c1,0.9,2.4,0.9,4.3,0.9
			c2.3,0,5.1-1.1,5.1-3.7c0-2.8-3.8-3.2-9.2-4.9c-4.6-1.5-9.1-4-9.1-10.3c0-8.6,8.3-12.5,16-12.5c8,0,15.3,3.1,15.2,12.4h-11V289.3z
			"/>
		<path class="st7" d="M167.1,277.8h18.4c7,0,11.4,3.8,11.4,12.1c0,7.6-6.3,14.2-16.3,14.2h-7.7l-2.4,11.3h-11.3L167.1,277.8z
			 M174.9,295.3h4.3c4.6,0,6-1.7,6-4.2c0-2.8-2.5-3.3-4.9-3.3h-3.8L174.9,295.3z"/>
		<path class="st7" d="M218.5,277.5c10.5,0,16.9,5,16.9,16.3c0,12.5-8.3,22.7-20.9,22.7c-10.5,0-16.9-5.6-16.9-16.3
			C197.5,287.8,205.7,277.5,218.5,277.5 M214.8,307.4c6.9,0,9.1-8.1,9.1-13.7c0-3.4-1.3-6.8-5.8-6.8c-6.9,0-9.1,8.1-9.1,13.7
			C208.9,304,210.3,307.4,214.8,307.4"/>
		<path class="st7" d="M241.7,277.8h19c6.9,0,12.2,1.9,12.2,9.8c0,5.4-3.4,9.4-8.8,10.3v0.8c3.3,0.9,3.8,4,3.8,7.4
			c0,3.4-0.4,7.1,0.5,9.2h-10.6c-0.4-0.9-0.5-1.9-0.5-3.5c0-1.7,0.6-3.9,0.6-5.7c0-1.8-1.5-3.3-4.5-3.3h-5.8l-2.7,12.5h-11
			L241.7,277.8z M249.2,295.3h6.1c3.8,0,5.7-1.9,5.7-4.2c0-1.5-0.9-3.3-4-3.3h-6.4L249.2,295.3z"/>
		<polygon class="st7" points="284.4,287.8 273.3,287.8 275.4,277.8 308.9,277.8 306.8,287.8 295.7,287.8 290.1,315.4 278.7,315.4 
					"/>
		<polygon class="st7" points="134.2,329.2 164.8,329.2 163,338 143.7,338 142.6,343 160.6,343 158.7,351.7 140.8,351.7 
			139.7,356.7 159.5,356.7 157.5,366.8 126.3,366.8 		"/>
		<polygon class="st7" points="168.4,329.2 179.8,329.2 186.6,349.2 186.7,349.2 191,329.2 202,329.2 194,366.8 182.9,366.8 
			176,345.5 175.8,345.5 171.4,366.8 160.5,366.8 		"/>
		<path class="st7" d="M225.4,361.9L225.4,361.9c-2.5,3.1-6.2,4.4-10,4.4c-12.8,0-14.9-10.9-14.9-15.4c0-11.5,6.5-22.9,21-22.9
			c8.3,0,15.1,4.2,15.2,13.7h-10.8c-0.2-3.3-2.3-4.5-5.1-4.5c-6.1,0-8.9,6.5-8.9,12.7c0,4.2,1.8,7,6.3,7c3,0,5.5-1.1,6.7-4h-5
			l1.5-7.5h15.3l-4.2,20.1h-7.3L225.4,361.9z"/>
		<polygon class="st7" points="243.8,329.2 255.3,329.2 249.6,356.7 266.1,356.7 264,366.8 236,366.8 		"/>
		<path class="st7" d="M286.6,329.2h11l5.6,36.3H292l-0.6-5h-11.6l-2.7,5h-11.6L286.6,329.2z M283.8,353h7.2l-1.3-11.3h-0.1
			L283.8,353z"/>
		<polygon class="st7" points="313.1,329.2 324.6,329.2 331.5,349.2 331.6,349.2 335.7,329.2 346.9,329.2 339,366.8 327.6,366.8 
			320.7,345.6 320.7,345.6 316.2,366.8 305.2,366.8 		"/>
		<path class="st7" d="M349.9,329.2h17.3c7,0,15.6,4.3,14.9,16.6c-0.6,12.5-8.5,21-21.5,21h-18.6L349.9,329.2z M355.6,356.7h5.7
			c7.8,0,9.6-8,9.6-11.7c0-5.8-3-7.1-7-7.1h-4.4L355.6,356.7z"/>
		<path class="st8" d="M99.9,319.9c0,0.6,0.3,1.4,0.3,2c-0.1,24.8-15.3,45.9-36.6,55l-0.3-20.1c0,0,0-17.3,10.5-26.4
			C85.9,320.2,99.9,319.9,99.9,319.9"/>
		<path class="st8" d="M17.2,376.9c-21.6-8.9-36.6-30.2-36.6-55c0-0.6,0.3-1.4,0.3-2c0,0,13.8,0.3,25.9,10.5
			c10.5,9.1,10.4,26.4,10.4,26.4S17.2,376.9,17.2,376.9z"/>
		<path class="st8" d="M19.5,298.3c0-11.4,9.4-20.7,20.9-20.7c11.4,0,20.7,9.4,20.7,20.7c0,11.4-9.4,20.7-20.7,20.7
			C28.9,319.2,19.5,309.8,19.5,298.3 M37.8,381.8h2.9h2.9v-28.4c-0.3,0,0-23.2,16.2-37C75.9,302.6,96,300.1,96,300.1
			c-8.8-22.2-30.2-37.7-55.4-37.7S-6.1,278-14.8,300.1c0,0,19.9,2.4,36.3,16.3c16.3,13.8,16.4,37,16.9,37v27.8L37.8,381.8z"/>
	</g>
</g>
<g>
	<path class="st9" d="M-405.5,569.4c-9.2-28.9,6.8-59.8,35.7-69c26.5-8.5,54.7,4.4,66.3,28.8c0.2,0.5,0.4,0.9,0.7,1.4
		c0.6,1.3,1,2.7,1.1,2.8c0.2,0.6,0.3,1,0.3,1l0.1-0.1c0,0-0.1-0.4-0.2-0.6s-0.1-0.3-0.2-0.5c-0.1-0.2-0.2-0.4-0.2-0.7
		c-9.8-30.8-42.7-47.9-73.5-38.1c-30.8,9.9-47.9,42.8-38.1,73.7s42.7,47.9,73.5,38.1c0.3-0.1,0.6-0.2,0.9-0.3c0.1,0,1.3-0.5,1.9-0.7
		c0.1-0.1,0.2-0.1,0.2-0.1v-0.1c0,0-1.2,0.4-2.6,0.8c-0.8,0.2-1.7,0.5-3.5,0.8c-0.3,0.1-1,0.2-1.4,0.2c-1.2,0.2-1.6,0.2-2.7,0.4
		C-372.6,610.1-397.5,594.7-405.5,569.4"/>
	<path class="st10" d="M-289.7,603.6c0.1,3.3,1,4.9,4.2,4.9c1.9,0,3.2-0.7,3.8-2l1.7,0.7c-0.9,1.8-2.4,2.9-5.6,2.9
		c-4.4,0-6.3-2.2-6.3-7.1c0-4.5,1.6-7.1,6.4-7.1c5.1,0,5.7,3.3,5.7,7.1v0.6L-289.7,603.6L-289.7,603.6z M-285.5,597.5
		c-2.7,0-4,1.1-4.2,4.4h7.9C-281.8,599.2-282.4,597.5-285.5,597.5"/>
	<path class="st10" d="M-268.2,609.3l-3.4-4.7c-0.3-0.4-0.4-0.7-0.6-1.1c-0.2,0.4-0.3,0.7-0.6,1.1l-3.3,4.7h-2.2l4.9-6.9l-4.6-6.4
		h2.2l3.1,4.3c0.2,0.3,0.4,0.6,0.6,1.1c0.2-0.4,0.3-0.7,0.5-1.1l2.9-4.3h2.3l-4.6,6.5l4.9,6.8L-268.2,609.3L-268.2,609.3z"/>
	<path class="st10" d="M-258.3,610.1c-1.2,0-2.3-0.3-3.2-1.2v7.1h-1.7v-19.9h0.7l0.7,1.6c1.7-1.3,2.7-1.8,4-1.8
		c4.1,0,5.8,2.7,5.8,6.8C-252,607.3-253.9,610.1-258.3,610.1 M-257.5,597.5c-1.3,0-2.7,0.9-4,1.8v8c1.2,0.9,2.4,1.2,3.6,1.2
		c3,0,4.2-2,4.2-5.8C-253.7,599.7-254.6,597.5-257.5,597.5"/>
	<path class="st10" d="M-247.4,603.6c0.1,3.3,1,4.9,4.2,4.9c2,0,3.2-0.7,3.8-2l1.7,0.7c-0.9,1.8-2.5,2.9-5.5,2.9
		c-4.3,0-6.3-2.2-6.3-7.1c0-4.5,1.6-7.1,6.4-7.1c5.1,0,5.7,3.3,5.7,7.1v0.6L-247.4,603.6L-247.4,603.6z M-243.4,597.5
		c-2.7,0-4,1.1-4.2,4.4h7.9C-239.7,599.2-240.4,597.5-243.4,597.5"/>
	<path class="st10" d="M-228.9,597.9c-1.1,0-1.8,0.2-2.9,1.1l-0.7,0.7v9.7h-2.5v-13.3h1.6l0.3,1.4l1.1-0.9c0.8-0.7,1.9-0.8,2.4-0.8
		c0.6,0,0.8,0.1,1.1,0.2v2.2c-0.4-0.2-0.8-0.2-1.2-0.2"/>
	<path class="st10" d="M-223.4,594.4h-2.3c-0.1,0-0.2-0.1-0.2-0.2v-2.2c0-0.1,0.1-0.2,0.2-0.2h2.1c0.2,0,0.2,0,0.2,0.3v2.1
		c0,0.2,0,0.2-0.2,0.2 M-225.9,596.1h1.7v13.3h-1.7V596.1z"/>
	<path class="st10" d="M-219.3,603.6c0.1,3.3,1,4.9,4.2,4.9c2,0,3.2-0.7,3.8-2l1.7,0.7c-0.9,1.8-2.4,2.9-5.6,2.9
		c-4.4,0-6.3-2.2-6.3-7.1c0-4.5,1.6-7.1,6.4-7.1c5.1,0,5.7,3.3,5.7,7.1v0.6L-219.3,603.6L-219.3,603.6z M-214.9,597.5
		c-2.7,0-4,1.1-4.2,4.4h7.9C-211.2,599.2-211.8,597.5-214.9,597.5"/>
	<path class="st10" d="M-197.7,609.7v-8.8c0-2.6-1.1-3.2-2.6-3.2c-1.1,0-1.7,0.3-2.9,1.1l-1.2,0.8v9.7h-1.7v-13.3h1.3l0.4,1.9l1-0.7
		c1.2-0.9,2.3-1.3,3.5-1.3c2.7,0,4.8,1.4,4.6,5.1v8.2h-2.5V609.7z"/>
	<path class="st10" d="M-186.2,610.1c-4.7,0-6.3-2.6-6.3-7.1c0-4.6,1.6-7.1,6.3-7.1c2.4,0,3.7,0.8,4.9,2.5l-1.6,0.8
		c-0.3-0.4-0.6-0.7-1-1.1c-0.5-0.3-1.2-0.6-2.2-0.6c-2.9,0-4.3,1.2-4.3,5.5c0,4.2,1.2,5.5,4.3,5.5c2,0,2.7-0.7,3.4-1.7l1.5,0.8
		C-182.5,609.4-184,610.1-186.2,610.1"/>
	<path class="st10" d="M-177,603.6c0.1,3.3,1,4.9,4.2,4.9c2,0,3.2-0.7,3.8-2l1.8,0.7c-0.9,1.8-2.5,2.9-5.5,2.9
		c-4.3,0-6.3-2.2-6.3-7.1c0-4.5,1.6-7.1,6.4-7.1c5.1,0,5.7,3.3,5.7,7.1v0.6L-177,603.6L-177,603.6z M-173.2,597.5
		c-2.7,0-4,1.1-4.2,4.4h7.9C-169.5,599.2-170.1,597.5-173.2,597.5"/>
	<path class="st10" d="M-160.2,610.1c-2.3,0-4.5-1-5.1-3l1.8-0.6c0.5,1.3,1.7,2,3.4,2c2.6,0,3.5-1.1,3.5-2.7c0-1.2-0.7-1.8-1.8-2
		l-3.4-0.6c-1.8-0.3-3.1-1.4-3.1-3.5c0-2.4,1.7-4,5.1-4c2.1,0,3.9,0.7,4.8,2.3l-1.6,0.8c-0.6-0.8-1.4-1.5-3.1-1.5
		c-2.2,0-3.2,0.9-3.2,2.3c0,0.8,0.2,1.5,1.7,1.7l3.3,0.5c1.9,0.3,3.4,1.6,3.4,3.7C-154.7,609-157.2,610.1-160.2,610.1"/>
	<path class="st11" d="M-352.6,584.8c-12.6,0-21.5-4.8-26.7-16.1l13.8-6.4c3.1,5.9,6,8.3,13,8.3c6.6,0,8.1-2.1,8.1-5.2
		c0-2.6-0.7-4-4.2-4.6l-12.8-2.2c-10.1-1.7-15.8-8.1-15.8-18.1c0-13.8,12.9-18.4,24.7-18.4c11,0,19.1,3.2,24.9,12.8l-13.8,6.5
		c-2.5-3.9-5.5-5.5-11.2-5.5c-5.5,0-7.3,1.5-7.3,3.6c0,2.3,1,3.3,2.9,3.6c13.5,2.1,29.8,2.2,29.8,21.2
		C-327,578.3-337.7,584.8-352.6,584.8"/>
	<path class="st11" d="M-297.7,585.2c-2,0-4-0.3-6.1-1.3v26.3H-322v-71.3h13.9l1,2.9c3.5-2.8,7.7-4.3,12.1-4.3
		c12.8,0,22.5,6.3,22.5,23.6C-272.6,576.9-281.8,585.2-297.7,585.2 M-299.4,548.7c-1.5,0-3.1,0.4-5.2,1.4v22.5
		c1.9,0.6,3.3,0.9,4.7,0.9c5.7,0,7.9-4.3,7.9-12.7C-292,553.5-293.8,548.7-299.4,548.7"/>
	<path class="st11" d="M-245.4,584.9c-18.5,0-25.3-9.9-25.3-23.6c0-13.7,6.8-23.7,25.3-23.7s25.4,9.9,25.4,23.6
		C-220.1,574.8-227,584.9-245.4,584.9 M-245.4,549.7c-4.8,0-7.4,2.2-7.4,11.6c0,9.3,2.6,11.5,7.4,11.5c4.8,0,7.5-2.2,7.5-11.6
		S-240.6,549.7-245.4,549.7"/>
	<path class="st11" d="M-189.5,552.1c-3.2,0-6.5,0.4-9,1.7v29.9H-216v-44.7h14.8l1.6,4.1c2.8-3.9,7.2-5.4,11.9-5.4
		c1.3,0,2.7,0.1,4,0.3v14.6c-1.7-0.4-3.6-0.6-5.6-0.6"/>
	<path class="st11" d="M-151.7,584.9c-9.2,0-17.9-3.4-17.9-15.3V553h-9.9v-14.9h9.9v-13.2l17.4-4.9v18.1h16.7l-4.6,14.9h-12.1v16.5
		c0,1.8,1.2,2.4,2.6,2.4c1.8,0,4.1-1,5.3-2.1l9.5,9c-4.2,3.8-10.9,6-17.2,6"/>
	<path class="st12" d="M-400.6,570.3c-8.8-27.7,6.5-57.4,34.3-66.1c25.8-8.2,53.3,4.6,64,28.8c0.2,0.6,0.6,1.2,0.7,1.8h0.2l-0.1-0.2
		c-9.5-29.2-40.8-45.4-70.2-36c-29.5,9.4-45.9,40.9-36.5,70.4c9.4,29.5,40.9,45.9,70.4,36.5c0.3-0.1,0.9-0.3,0.9-0.3h-0.1
		c0,0,0.1,0-0.2,0.1C-364.1,612.3-392.1,597.1-400.6,570.3"/>
	<path class="st11" d="M-370.1,626.2c0,0.2,0,0.6,0,0.6s0.5,0.2,0.4,0.3c0,0.1-0.1,0.2-0.1,0.2s-0.1,0.1-0.2,0.1s-0.1,0-0.2-0.1
		c-0.1,0-0.2-0.1-0.2-0.1c-0.1,0-0.2-0.1-0.3-0.1c-0.2,0-0.3-0.1-0.5-0.1c-0.2,0-0.4,0-0.6,0.1c-0.2,0.1-0.2,0.2-0.4,0.3
		c-0.1,0.2-0.2,0.3-0.2,0.6c-0.1,0.2-0.2,0.9-0.2,0.9v1.1h2.1c0.1,0,0.2,0,0.2,0.1c0.1,0,0.1,0.1,0.2,0.2c0,0.1,0.1,0.3,0.1,0.4
		s0,0.3,0,0.6c0,0.4,0,0.8-0.1,0.9c-0.1,0.2-0.2,0.3-0.3,0.3h-2.1v8.6c0,0.1,0,0.2-0.1,0.2s-0.2,0.1-0.3,0.2c-0.1,0-0.3,0.1-0.5,0.1
		c-0.2,0-0.4,0-0.8,0c-0.3,0-0.5,0-0.8,0c-0.2,0-0.3-0.1-0.5-0.1c-0.1,0-0.2-0.1-0.3-0.2s-0.1-0.2-0.1-0.2v-8.6h-1.3
		c-0.2,0-0.2-0.1-0.3-0.3s-0.1-0.5-0.1-0.9c0-0.3,0-0.4,0-0.6s0.1-0.3,0.1-0.4c0-0.1,0.1-0.2,0.2-0.2c0.1,0,0.2-0.1,0.2-0.1h1.2
		v-0.9c0-0.7,0.1-1.4,0.2-1.9c0.2-0.6,0.4-1,0.6-1.4c0.3-0.3,0.7-0.7,1.1-0.8c0.5-0.2,1-0.2,1.7-0.2c0.3,0,0.6,0,0.9,0.1
		c0.2,0.1,0.5,0.1,0.6,0.2c0.2,0.1,0.2,0.1,0.3,0.2c0.1,0.1,0.1,0.2,0.2,0.2c0,0.1,0.1,0.2,0.1,0.4
		C-370.2,625.8-370.1,626.1-370.1,626.2z M-357.7,635.7c0,0.9-0.1,1.7-0.3,2.5c-0.2,0.7-0.6,1.4-1.1,2s-1.1,1-1.8,1.2
		c-0.7,0.3-1.6,0.4-2.6,0.4s-1.8-0.2-2.5-0.4c-0.7-0.2-1.3-0.7-1.7-1.2c-0.5-0.5-0.8-1.2-1.1-1.9c-0.2-0.7-0.3-1.6-0.3-2.6
		c0-0.9,0.1-1.7,0.3-2.6c0.2-0.7,0.6-1.4,1.1-2c0.5-0.6,1.1-1,1.8-1.2c0.7-0.3,1.6-0.4,2.6-0.4s1.8,0.2,2.5,0.4
		c0.7,0.2,1.3,0.7,1.7,1.2c0.5,0.5,0.8,1.2,1.1,1.9C-357.8,633.8-357.7,634.8-357.7,635.7z M-360.9,635.8c0-0.5-0.1-1-0.2-1.5
		c-0.1-0.4-0.2-0.8-0.4-1.2c-0.2-0.3-0.5-0.6-0.8-0.7c-0.3-0.2-0.7-0.2-1.2-0.2c-0.4,0-0.8,0.1-1.2,0.2c-0.3,0.2-0.6,0.4-0.8,0.7
		c-0.2,0.3-0.4,0.7-0.5,1.2c-0.1,0.4-0.2,1-0.2,1.6c0,0.5,0.1,1,0.2,1.5c0.1,0.4,0.2,0.8,0.4,1.2c0.2,0.3,0.5,0.6,0.8,0.7
		c0.3,0.2,0.7,0.2,1.2,0.2s0.8-0.1,1.2-0.2c0.3-0.2,0.6-0.4,0.8-0.7c0.2-0.3,0.4-0.7,0.5-1.2C-360.9,636.9-360.9,636.4-360.9,635.8z
		 M-348.5,631.4c0,0,0,0.4,0,0.7c0,0.2,0,0.4-0.1,0.4c0,0.1-0.1,0.2-0.2,0.3c-0.1,0-0.1,0.1-0.2,0.1c-0.1,0-0.2,0-0.3-0.1
		c-0.1,0-0.2-0.1-0.3-0.1c-0.1,0-0.3-0.1-0.4-0.1c-0.1,0-0.3-0.1-0.4-0.1s-0.4,0-0.5,0.1s-0.4,0.2-0.5,0.4c-0.2,0.2-0.4,0.4-0.6,0.6
		c-0.2,0.3-0.4,0.6-0.7,1v6.6c0,0,0.4,0.2,0.3,0.2c-0.1,0.1-0.2,0.1-0.2,0.2c-0.1,0-0.2,0.1-0.5,0.1h-0.7h-0.7
		c-0.2,0-0.3-0.1-0.5-0.1c-0.1,0-0.2-0.1-0.2-0.2c-0.1-0.1,0.1-0.2,0.1-0.2v-10.9c0,0-0.2-0.2-0.1-0.2c0-0.1,0.1-0.1,0.2-0.2
		c0.1,0,0.2-0.1,0.4,0.2h0.7h0.7c0.2-0.3,0.3-0.2,0.4-0.2s0.2,0.1,0.2,0.2c0,0.1,0.1,0.2,0.1,0.2v1.3c0.3-0.4,0.6-0.7,0.8-1
		c0.2-0.2,0.5-0.5,0.7-0.7c0.2-0.2,0.4-0.2,0.7-0.3c0.2-0.1,0.7,0.4,0.7,0.4h0.3c0,0,0.2-0.5,0.4-0.4c0.2,0,0.2,0.1,0.3,0.1
		s0.2,0.1,0.2,0.1s0.1,0.1,0.1,0.2c0,0.1,0,0.1-0.2,0.2v0.4C-348.3,630.9-348.5,631.4-348.5,631.4z M-334.4,640.1
		c0,0.3,0,0.7-0.1,0.8s-0.1,0.3-0.2,0.4s-0.2,0.2-0.3,0.2c-0.2,0.1-0.3,0.1-0.5,0.2c-0.2,0.1-0.6-0.1-0.6-0.1s-0.6,0-0.8,0
		c-0.6,0-1.1-0.1-1.5-0.2c-0.4-0.2-0.8-0.4-1-0.7c-0.3-0.3-0.5-0.7-0.6-1.2c-0.2-0.5-0.2-1-0.2-1.7v-5.2h-1.3
		c-0.2,0-0.2-0.1-0.3-0.2s-0.1-0.5-0.1-0.9c0-0.2,0-0.7,0-0.7s0-0.2,0-0.4c0-0.1,0.1-0.2,0.2-0.2s0.2-0.1,0.2-0.1h1.2v-2.4
		c0.1-0.1,0.1-0.2,0.2-0.2s0.2-0.1,0.2-0.2c0.1-0.1,0.5-0.5,0.5-0.5h0.7h0.7c0.2,0.4,0.3,0.5,0.5,0.5c0.1,0.1,0.2,0.1,0.2,0.2
		s0.1,0.2,0.1,0.2v2.4h2.3c0.1,0,0.2,0,0.2,0.1c0.1,0,0.1,0.1,0.2,0.2c0,0.1-0.2,0.4-0.2,0.4v0.6c0,0,0.3,0.7,0.2,0.9
		c-0.1,0.2-0.2,0.2-0.3,0.4h-2.3v4.9c-0.1,0.6,0,1,0.2,1.3c0.2,0.3,0.5,0.4,1,0.4c0.2,0,0.3,0,0.4-0.1c0.2,0,0.2-0.1,0.3-0.1
		s0.2-0.1,0.2-0.1c0.1,0,0.2-0.1,0.2-0.1c0.1,0,0.1,0,0.2,0.1c0.1,0,0.1,0.1,0.1,0.2c0,0.1,0.1,0.2,0.1,0.3
		C-334.4,639.7-334.4,639.9-334.4,640.1z M-321.9,640.8c0,0.5,0,0.6-0.1,0.6c-0.1,0.1-0.2,0.1-0.2,0.2c-0.1,0-0.5,0-0.5,0
		s-0.7,0-1,0s-0.6,0-0.7,0s-0.3-0.1-0.5-0.1c-0.1,0-0.2-0.1-0.2-0.2c-0.1-0.1-0.1-0.2-0.1-0.2V635c0-0.5,0-0.9-0.1-1.2
		c-0.1-0.3-0.2-0.6-0.3-0.7c-0.2-0.2-0.3-0.4-0.6-0.5c-0.2-0.1-0.5-0.2-0.8-0.2c-0.4,0-0.7,0.2-1.1,0.4c-0.4,0.2-0.8,0.7-1.2,1.2
		v7.1c0,0.1,0,0.2-0.1,0.2s-0.2,0.1-0.3,0.2c-0.1,0-0.3,0.1-0.5,0.1c-0.2,0-0.4,0-0.8,0s-0.6,0-0.8,0s-0.3-0.1-0.5-0.1
		c-0.1,0-0.2-0.1-0.3-0.2s-0.1-0.2-0.1-0.2v-15.6c0-0.1,0-0.2,0.1-0.2s0.2-0.1,0.3-0.2s0.3-0.1,0.5-0.1c0.2,0,0.4,0,0.8,0
		s0.6,0,0.8,0s0.3,0.1,0.5,0.1c0.1,0.1,0.2,0.1,0.3,0.2s0.1,0.2,0.1,0.2v5.8c0,0,1.3-0.9,1.8-1.2c0.6-0.2,1.1-0.4,1.7-0.4
		c0.7,0,1.3,0.1,1.8,0.3c0.5,0.2,0.9,0.6,1.2,1c0.3,0.4,0.5,0.9,0.7,1.5c0.2,0.6,0.2,1.2,0.2,2.1L-321.9,640.8L-321.9,640.8z
		 M-308.9,635.9c0,0-0.1,0.3-0.2,0.5s-0.4,0.2-0.7,0.4h-6.5c0,0.4,0.1,0.8,0.2,1.1c0.1,0.4,0.2,0.7,0.5,1c0.2,0.2,0.6,0.5,0.9,0.6
		c0.4,0.2,0.8,0.2,1.3,0.2s1,0,1.4-0.1c0.4-0.1,0.7-0.2,1.1-0.2c0.3-0.1,0.6-0.2,0.7-0.2c0.2-0.1,0.3-0.1,0.5-0.1
		c0.1,0,0.2,0,0.2,0.1c0.1,0,0.1,0.1,0.1,0.2c0,0.1,0.1,0.2-0.1,0.3v0.5v0.4v0.3c0.2,0.1,0.2,0.2,0.1,0.2c0,0.1-0.1,0.1-0.2,0.2
		s-0.2,0.2-0.4,0.2c-0.2,0.1-0.5,0.2-0.9,0.2c-0.3,0.1-0.7,0.2-1.2,0.2c-0.5,0.1-1,0.1-1.5,0.1c-1,0-1.8-0.1-2.6-0.3
		c-0.7-0.2-1.3-0.6-1.8-1.1c-0.5-0.5-0.8-1.1-1.1-1.9c-0.2-0.7-0.3-1.7-0.3-2.7s0.2-1.8,0.4-2.6c0.2-0.7,0.6-1.4,1.1-2
		c0.5-0.5,1.1-0.9,1.7-1.2c0.7-0.2,1.5-0.4,2.3-0.4c0.9,0,1.7,0.2,2.3,0.4c0.7,0.2,1.2,0.7,1.6,1.1c0.4,0.5,0.7,1,0.9,1.7
		c0.2,0.7,0.3,1.3,0.4,2.1v0.9H-308.9z M-312.1,634.9c0-0.8-0.2-1.5-0.5-2c-0.3-0.5-0.9-0.7-1.7-0.7c-0.4,0-0.7,0.1-1,0.2
		c-0.2,0.2-0.5,0.3-0.7,0.6c-0.2,0.2-0.3,0.5-0.4,0.9c-0.1,0.3-0.2,0.7-0.2,1.1L-312.1,634.9L-312.1,634.9z M-290.4,640.8
		c0,0.5,0,0.6-0.1,0.6c-0.1,0.1-0.2,0.1-0.2,0.2c-0.1,0-0.5,0-0.5,0h-0.7h-0.7c-0.2,0.1-0.3,0-0.5,0c-0.1,0-0.2-0.1-0.2-0.2
		c-0.1-0.1-0.1-0.2-0.3-0.2v-6.1c0.3-0.5,0.3-0.9,0.2-1.2c-0.1-0.3-0.2-0.6-0.3-0.7c-0.2-0.2-0.3-0.4-0.6-0.5
		c-0.2-0.1-0.5-0.2-0.8-0.2c-0.4,0-0.7,0.2-1.2,0.4c-0.4,0.2-0.8,0.7-1.4,1.2v7.2c0.2,0.1,0.2,0.2,0.1,0.2c-0.1,0.1-0.2,0.1-0.2,0.2
		c-0.1,0-0.5,0.8-0.5,0.8s-0.1,0-0.4,0s-0.5,0-0.7,0c-0.2,0-0.3-0.1-0.5-0.1c-0.1,0-0.2-0.1-0.2-0.2c-0.1-0.1-0.1-0.2-0.1-0.3v-11.4
		c0-0.1,0-0.2,0.1-0.3c0-0.1,0.1-0.1,0.2-0.2c0.1,0,0.2-0.1,0.4-0.1c0.2,0,0.4,0,0.6,0s0.5,0,0.6,0s0.3,0.1,0.4,0.1
		c0.1,0,0.2,0.1,0.2,0.2s0.1,0.2,0.1,0.3v1.1c0,0,1-1.2,1.6-1.5s1.2-0.5,1.9-0.5c0.7,0,1.3,0.1,1.8,0.3c0.5,0.2,0.9,0.6,1.2,1
		c0.3,0.4,0.5,0.9,0.7,1.5s0.2,1.2,0.2,2L-290.4,640.8L-290.4,640.8z M-277.4,635.9c0,0-0.1,0.3-0.2,0.5c-0.2,0.2-0.4,0.2-0.7,0.4
		h-6.5c0,0.4,0.1,0.8,0.2,1.1c0.1,0.4,0.2,0.7,0.5,1c0.2,0.2,0.6,0.5,0.9,0.6c0.4,0.2,0.8,0.2,1.3,0.2c0.5,0,1,0,1.4-0.1
		c0.4-0.1,0.7-0.2,1.1-0.2c0.3-0.1,0.6-0.2,0.7-0.2c0.2-0.1,0.3-0.1,0.5-0.1c0.1,0,0.2,0,0.2,0.1c0.1,0,0.1,0.1,0.1,0.2
		c0,0.1,0.1,0.2-0.1,0.3v0.5v0.4v0.3c0.2,0.1,0.2,0.2,0.1,0.2c0,0.1-0.1,0.1-0.2,0.2s-0.2,0.2-0.4,0.2c-0.2,0.1-0.5,0.2-0.9,0.2
		c-0.3,0.1-0.7,0.2-1.2,0.2c-0.5,0.1-1,0.1-1.5,0.1c-1,0-1.8-0.1-2.6-0.3c-0.7-0.2-1.3-0.6-1.8-1.1c-0.5-0.5-0.8-1.1-1.1-1.9
		c-0.2-0.7-0.3-1.7-0.3-2.7s0.2-1.8,0.4-2.6c0.2-0.7,0.6-1.4,1.1-2c0.5-0.5,1.1-0.9,1.7-1.2c0.7-0.2,1.5-0.4,2.3-0.4
		c0.9,0,1.7,0.2,2.3,0.4c0.7,0.2,1.2,0.7,1.6,1.1c0.4,0.5,0.7,1,0.9,1.7c0.2,0.7,0.3,1.3,0.4,2.1v0.9H-277.4z M-280.6,634.9
		c0-0.8-0.2-1.5-0.5-2c-0.3-0.5-0.9-0.7-1.7-0.7c-0.4,0-0.7,0.1-1,0.2c-0.2,0.2-0.5,0.3-0.7,0.6c-0.2,0.2-0.3,0.5-0.4,0.9
		c-0.1,0.3-0.2,0.7-0.2,1.1L-280.6,634.9L-280.6,634.9z M-265.9,641c0.1,0.2,0.1,0.2,0.1,0.3c0,0.1-0.1,0.2-0.2,0.2
		c-0.1,0.1-0.2,0.1-0.5,0.1c-0.2,0-0.6,0-0.9,0s-0.7,0-0.9,0c-0.2,0-0.4,0-0.5-0.1c-0.2,0-0.2-0.1-0.2-0.2c-0.1-0.1-0.1-0.1-0.2-0.2
		l-2-3.8l-2,3.8c0,0.1-0.1,0.2-0.2,0.2c-0.1,0.1-0.2,0.1-0.2,0.2c-0.1,0-0.2,0.1-0.5,0.1c-0.2,0-0.5,0-0.8,0c-0.3,0-0.7,0-0.8,0
		c-0.2,0-0.3-0.1-0.5-0.1c-0.1-0.1-0.2-0.2-0.2-0.2c0-0.1,0-0.2,0.1-0.3l3-5.3l-2.7-5c-0.1-0.2-0.1-0.2-0.1-0.3
		c0-0.1,0.1-0.2,0.2-0.2c0.1-0.1,0.2-0.1,0.5-0.1c0.2,0,0.6,0,0.9,0c0.3,0,0.7,0,0.8,0c0.2,0,0.4,0,0.5,0.1c0.1,0,0.2,0.1,0.2,0.1
		c0.1,0.1,0.1,0.1,0.2,0.2l1.9,3.6l1.9-3.6c0-0.1,0.1-0.1,0.1-0.2c0.1-0.1,0.2-0.1,0.2-0.1c0.1,0,0.2-0.1,0.4-0.1c0.2,0,0.4,0,0.7,0
		c0.3,0,0.7,0,0.8,0c0.2,0,0.3,0.1,0.5,0.1c0.1,0.1,0.2,0.2,0.2,0.2c0,0.1-0.1,0.2-0.2,0.4l-2.7,4.9L-265.9,641z M-257.5,640.1
		c0,0.3,0,0.7-0.1,0.8c-0.1,0.2-0.1,0.3-0.2,0.4s-0.2,0.2-0.3,0.2c-0.2,0.1-0.3,0.1-0.5,0.2c-0.2,0.1-0.6-0.1-0.6-0.1s-0.4,0-0.7,0
		c-0.6,0-1.1-0.1-1.5-0.2s-0.8-0.4-1-0.7c-0.3-0.3-0.5-0.7-0.6-1.2c-0.2-0.5-0.2-1-0.2-1.7v-5.2h-1.3c-0.2,0-0.2-0.1-0.3-0.2
		s-0.1-0.5-0.1-0.9c0-0.2,0-0.7,0-0.7s-0.1-0.2-0.1-0.4c0-0.1,0.1-0.2,0.2-0.2c0.1,0,0.2-0.1,0.2-0.1h1.4v-2.4
		c-0.1-0.1-0.1-0.2,0-0.2s0.2-0.1,0.2-0.2c0.1-0.1,0.5-0.5,0.5-0.5h0.7h0.7c0.2,0.4,0.3,0.5,0.5,0.5c0.1,0.1,0.2,0.1,0.2,0.2
		s0.1,0.2,0.3,0.2v2.4h2.1c0.1,0,0.2,0,0.2,0.1c0.1,0,0.1,0.1,0.2,0.2c0,0.1,0,0.4,0,0.4v0.6c0,0,0.1,0.7,0,0.9
		c-0.1,0.2-0.2,0.2-0.3,0.4h-2.2v4.9c-0.2,0.6-0.1,1,0,1.3c0.2,0.3,0.5,0.4,1,0.4c0.2,0,0.3,0,0.4-0.1c0.2,0,0.2-0.1,0.3-0.1
		c0.1,0,0.2-0.1,0.2-0.1s0.2-0.1,0.2-0.1c0.1,0,0.1,0,0.2,0.1c0.1,0,0.1,0.1,0.1,0.2c0,0.1,0.1,0.2,0.1,0.3
		C-257.5,639.7-257.5,639.9-257.5,640.1z M-240,631.1c0,0.4-0.1,0.7-0.1,0.8c-0.1,0.2-0.2,0.2-0.3,0.6h-1.2c0.2-0.2,0.3,0.1,0.4,0.3
		c0.1,0.2,0.1,0.5,0.1,0.7c0,0.7-0.1,1.2-0.3,1.7s-0.5,0.9-0.9,1.2c-0.4,0.3-0.8,0.6-1.4,0.7s-1.2,0.2-1.8,0.2c-0.3,0-0.7-0.1-1-0.2
		c-0.3-0.1-0.6-0.2-0.7-0.3c-0.1,0.1-0.2,0.2-0.2,0.4s-0.1,0.3-0.1,0.5c0,0.2,0.1,0.4,0.3,0.6c0.2,0.2,0.5,0.2,0.8,0.2l2.7,0.1
		c0.6,0,1.2,0.1,1.7,0.2s0.9,0.3,1.2,0.7c0.3,0.2,0.6,0.6,0.7,1c0.2,0.4,0.2,0.8,0.2,1.3s-0.1,1.1-0.3,1.5c-0.2,0.5-0.6,0.9-1.1,1.2
		c-0.5,0.3-1.1,0.7-1.7,0.8c-0.7,0.2-1.6,0.3-2.5,0.3c-0.9,0-1.7-0.1-2.3-0.2c-0.7-0.2-1.2-0.3-1.6-0.6c-0.4-0.2-0.7-0.6-0.9-0.9
		s-0.2-0.7-0.2-1.2c0-0.2,0-0.5,0.1-0.7c0.1-0.2,0.2-0.5,0.3-0.7c0.2-0.2,0.3-0.4,0.5-0.7c0.2-0.2,0.4-0.4,0.7-0.6
		c-0.3-0.2-0.6-0.4-0.8-0.7c-0.2-0.3-0.2-0.7-0.2-1.1c0-0.5,0.1-0.9,0.3-1.3s0.5-0.7,0.8-1.1c-0.2-0.2-0.5-0.7-0.7-1
		c-0.2-0.4-0.2-0.9-0.2-1.5c0-0.7,0.1-1.2,0.3-1.7c0.2-0.5,0.5-0.9,0.9-1.2s0.8-0.6,1.4-0.8c0.6-0.2,1.2-0.2,1.8-0.2
		c0.3,0,0.7,0,1,0.1c0.3,0,0.6,0.1,0.8,0.3h3.4c0.2-0.1,0.2,0,0.3,0.1V631.1z M-242.7,642.3c0-0.3-0.2-0.7-0.4-0.8
		c-0.3-0.2-0.7-0.3-1.2-0.3l-2.2-0.1c-0.2,0.2-0.4,0.3-0.5,0.4c-0.2,0.2-0.2,0.2-0.3,0.4c-0.1,0.2-0.2,0.2-0.2,0.4
		c0,0.1,0,0.2,0,0.4c0,0.4,0.2,0.7,0.6,0.9c0.4,0.2,1,0.3,1.7,0.3c0.5,0,0.8-0.1,1.2-0.2c0.3-0.1,0.6-0.2,0.7-0.3
		c0.2-0.2,0.3-0.3,0.4-0.5C-242.8,642.7-242.7,642.5-242.7,642.3z M-243.9,633.7c0-0.6-0.2-1-0.5-1.3c-0.3-0.3-0.7-0.5-1.4-0.5
		c-0.3,0-0.6,0.1-0.8,0.2c-0.2,0.1-0.4,0.2-0.6,0.4c-0.2,0.2-0.2,0.4-0.3,0.6c-0.1,0.2-0.1,0.5-0.1,0.7c0,0.6,0.2,1,0.5,1.3
		c0.3,0.3,0.7,0.5,1.3,0.5c0.3,0,0.6-0.1,0.8-0.2c0.2-0.1,0.4-0.2,0.6-0.4s0.2-0.3,0.3-0.6C-243.9,634.2-243.9,633.9-243.9,633.7z
		 M-228.2,635.9c0,0-0.1,0.3-0.2,0.5c-0.2,0.2-0.4,0.2-0.7,0.4h-6.5c0,0.4,0.1,0.8,0.2,1.1c0.1,0.4,0.2,0.7,0.5,1
		c0.2,0.2,0.6,0.5,0.9,0.6c0.4,0.2,0.8,0.2,1.3,0.2s1,0,1.4-0.1c0.4-0.1,0.7-0.2,1.1-0.2c0.3-0.1,0.6-0.2,0.7-0.2
		c0.2-0.1,0.3-0.1,0.5-0.1c0.1,0,0.2,0,0.2,0.1c0.1,0,0.1,0.1,0.1,0.2c0,0.1,0.1,0.2-0.4,0.3v0.5v0.4v0.3c0.5,0.1,0.5,0.2,0.4,0.2
		c0,0.1-0.1,0.1-0.2,0.2c-0.1,0.1-0.2,0.2-0.4,0.2c-0.2,0.1-0.5,0.2-0.9,0.2c-0.3,0.1-0.7,0.2-1.2,0.2c-0.5,0.1-1,0.1-1.5,0.1
		c-1,0-1.8-0.1-2.6-0.3c-0.7-0.2-1.3-0.6-1.8-1.1c-0.5-0.5-0.8-1.1-1.1-1.9c-0.2-0.7-0.3-1.7-0.3-2.7s0.2-1.8,0.4-2.6s0.6-1.4,1.1-2
		c0.5-0.5,1.1-0.9,1.7-1.2c0.7-0.2,1.5-0.4,2.3-0.4c0.9,0,1.7,0.2,2.3,0.4c0.7,0.2,1.2,0.7,1.6,1.1c0.4,0.5,0.7,1,0.9,1.7
		c0.2,0.7,0.3,1.3,0.1,2.1v0.9H-228.2z M-230.9,634.9c0-0.8-0.2-1.5-0.5-2c-0.3-0.5-0.9-0.7-1.7-0.7c-0.4,0-0.7,0.1-1,0.2
		c-0.2,0.2-0.5,0.3-0.7,0.6c-0.2,0.2-0.3,0.5-0.4,0.9c-0.1,0.3-0.2,0.7-0.2,1.1L-230.9,634.9L-230.9,634.9z M-215.4,640.8
		c0,0.5,0,0.6-0.1,0.6c-0.1,0.1-0.2,0.1-0.2,0.2c-0.1,0-0.5,0-0.5,0h-0.7h-0.7c-0.2,0.1-0.3,0-0.5,0c-0.1,0-0.2-0.1-0.2-0.2
		c-0.1-0.1-0.1-0.2,0-0.2v-6.1c-0.1-0.5-0.1-0.9-0.1-1.2c-0.1-0.3-0.2-0.6-0.3-0.7c-0.2-0.2-0.3-0.4-0.6-0.5
		c-0.2-0.1-0.5-0.2-0.8-0.2c-0.4,0-0.7,0.2-1.2,0.4c-0.4,0.2-0.8,0.7-1.1,1.2v7.2c-0.1,0.1-0.1,0.2-0.2,0.2
		c-0.1,0.1-0.2,0.1-0.2,0.2c-0.1,0-0.5,0.8-0.5,0.8s-0.6,0-0.9,0s-0.5,0-0.7,0s-0.3-0.1-0.5-0.1c-0.1,0-0.2-0.1-0.2-0.2
		s-0.1-0.2-0.1-0.3v-11.4c0-0.1,0-0.2,0.1-0.3c0-0.1,0.1-0.1,0.2-0.2c0.1,0,0.2-0.1,0.4-0.1s0.4,0,0.6,0s0.5,0,0.6,0
		s0.3,0.1,0.4,0.1s0.2,0.1,0.2,0.2s0.1,0.2,0.1,0.3v1.1c0,0,1.5-1.2,2.1-1.5s1.2-0.5,1.9-0.5c0.7,0,1.3,0.1,1.8,0.3
		c0.5,0.2,0.9,0.6,1.2,1s0.5,0.9,0.7,1.5c0.2,0.6,0.2,1.2-0.3,2v6.3H-215.4z M-202.3,635.9c0,0-0.1,0.3-0.2,0.5
		c-0.2,0.2-0.4,0.2-0.7,0.4h-6.5c0,0.4,0.1,0.8,0.2,1.1c0.1,0.4,0.2,0.7,0.5,1c0.2,0.2,0.6,0.5,0.9,0.6c0.4,0.2,0.8,0.2,1.3,0.2
		s1,0,1.4-0.1c0.4-0.1,0.7-0.2,1.1-0.2c0.3-0.1,0.6-0.2,0.7-0.2c0.2-0.1,0.3-0.1,0.5-0.1c0.1,0,0.2,0,0.2,0.1c0.1,0,0.1,0.1,0.1,0.2
		c0,0.1,0.1,0.2,0.2,0.3v0.5v0.4v0.3c-0.1,0.1-0.1,0.2-0.2,0.2c0,0.1-0.1,0.1-0.2,0.2c-0.1,0.1-0.2,0.2-0.4,0.2
		c-0.2,0.1-0.5,0.2-0.9,0.2c-0.3,0.1-0.7,0.2-1.2,0.2c-0.5,0.1-1,0.1-1.5,0.1c-1,0-1.8-0.1-2.6-0.3c-0.7-0.2-1.3-0.6-1.8-1.1
		c-0.5-0.5-0.8-1.1-1.1-1.9c-0.2-0.7-0.3-1.7-0.3-2.7s0.2-1.8,0.4-2.6s0.6-1.4,1.1-2c0.5-0.5,1.1-0.9,1.7-1.2
		c0.7-0.2,1.5-0.4,2.3-0.4c0.9,0,1.7,0.2,2.3,0.4c0.7,0.2,1.2,0.7,1.6,1.1c0.4,0.5,0.7,1,0.9,1.7c0.2,0.7,0.3,1.3,0.7,2.1v0.9
		H-202.3z M-205.2,634.9c0-0.8-0.2-1.5-0.5-2c-0.3-0.5-0.9-0.7-1.7-0.7c-0.4,0-0.7,0.1-1,0.2c-0.2,0.2-0.5,0.3-0.7,0.6
		c-0.2,0.2-0.3,0.5-0.4,0.9c-0.1,0.3-0.2,0.7-0.2,1.1L-205.2,634.9L-205.2,634.9z M-192.8,631.4c0,0,0,0.4,0,0.7
		c0,0.2,0,0.4-0.1,0.4c0,0.1-0.1,0.2-0.2,0.3c-0.1,0-0.1,0.1-0.2,0.1c-0.1,0-0.2,0-0.3-0.1c-0.1,0-0.2-0.1-0.3-0.1
		c-0.1,0-0.3-0.1-0.4-0.1s-0.3-0.1-0.4-0.1c-0.2,0-0.4,0-0.5,0.1c-0.2,0.1-0.4,0.2-0.5,0.4c-0.2,0.2-0.4,0.4-0.6,0.6
		c-0.2,0.3-0.4,0.6-0.7,1v6.7c0,0.1,0,0.2-0.1,0.2c-0.1,0.1-0.2,0.1-0.3,0.2c-0.1,0-0.3,0.1-0.5,0.1c-0.2,0-0.4,0-0.8,0
		s-0.6,0-0.8,0c-0.2,0-0.3-0.1-0.5-0.1c-0.1,0-0.2-0.1-0.3-0.2c-0.1-0.1-0.1-0.2-0.1-0.2v-10.9c0,0,0.3-0.2,0.3-0.2
		c0-0.1,0.1-0.1,0.2-0.2c0.1,0,0.2-0.1,0.4,0.2h0.7h0.7c0.2-0.3,0.3-0.2,0.4-0.2s0.2,0.1,0.2,0.2c0,0.1,0.1,0.2-0.4,0.2v1.3
		c0.8-0.4,1.1-0.7,1.3-1c0.2-0.2,0.5-0.5,0.7-0.7s0.4-0.2,0.7-0.3c0.2-0.1,0.7,0.4,0.7,0.4h0.3c0,0,0.2-0.5,0.4-0.4
		c0.2,0,0.2,0.1,0.3,0.1c0.1,0,0.2,0.1,0.2,0.1c0.1,0,0.1,0.1,0.1,0.2c0,0.1,0,0.1-0.7,0.2v0.4
		C-192.9,630.9-192.8,631.4-192.8,631.4z M-182.1,641.7c0,0.1,0,0.2-0.1,0.3c-0.1,0.1-0.2,0.1-0.4,0.2c-0.2,0-0.4,0.1-0.7,0.1
		s-0.6,0-0.8-0.1c-0.2,0-0.2-0.1-0.3-0.2c-0.1-0.1-0.1-0.2-0.1-0.3v-0.8c-0.4,0.5-0.9,0.8-1.4,1.1c-0.6,0.3-1.2,0.4-1.8,0.4
		c-0.6,0-1-0.1-1.5-0.3c-0.5-0.2-0.9-0.3-1.2-0.7s-0.6-0.7-0.8-1.1s-0.3-0.9-0.3-1.5c0-0.7,0.1-1.2,0.3-1.7c0.2-0.5,0.6-0.8,1-1.2
		c0.5-0.3,1-0.5,1.8-0.7c0.7-0.2,1.5-0.3,2.5-0.3h0.7v-0.7c0-0.3,0-0.7-0.1-0.9c-0.1-0.2-0.2-0.5-0.3-0.7s-0.3-0.3-0.6-0.4
		c-0.2-0.1-0.5-0.1-0.9-0.1c-0.5,0-0.9,0.1-1.2,0.2c-0.4,0.1-0.7,0.2-1,0.4s-0.5,0.2-0.7,0.4c-0.2,0.1-0.4,0.2-0.5,0.2
		c-0.1,0-0.2,0-0.2-0.1c-0.1-0.1-0.2-0.2-0.2-0.2c-0.1-0.1-0.1-0.2-0.1-0.4s0-0.7,0-0.9c0-0.2,0-0.4,0.1-0.6c0-0.2,0.1-0.2,0.2-0.4
		c0.1-0.1,0.3-0.2,0.6-0.4c0.2-0.2,0.6-0.2,1-0.4c0.4-0.1,0.8-0.2,1.2-0.3c0.4-0.1,0.9-0.1,1.4-0.1c0.8,0,1.5,0.1,2.1,0.2
		c0.6,0.2,1.1,0.4,1.5,0.7c0.4,0.3,0.7,0.7,0.8,1.3c0.2,0.6,0.2,1.1,0.2,1.9L-182.1,641.7L-182.1,641.7z M-185.2,636.7h-1.2
		c-0.5,0-0.9,0-1.2,0.1s-0.7,0.2-0.8,0.3c-0.2,0.2-0.4,0.3-0.5,0.5c-0.1,0.2-0.2,0.4-0.2,0.7c0,0.4,0.2,0.8,0.4,1.1
		c0.2,0.2,0.7,0.4,1.2,0.4c0.4,0,0.8-0.1,1.2-0.3s0.7-0.5,1.1-1L-185.2,636.7L-185.2,636.7z M-168.7,630c0.3,0,0.5,0.1,0.7,0.2
		c0.2,0.2,0.2,0.3,0.2,0.7v10.3c0,0.1,0,0.2-0.1,0.2c-0.1,0.1-0.2,0.1-0.3,0.2c-0.1,0-0.3,0.1-0.5,0.1c-0.2,0-0.4,0-0.8,0
		s-0.6,0-0.8,0c-0.2,0-0.3-0.1-0.5-0.1c-0.1,0-0.2-0.1-0.3-0.2c-0.1-0.1-0.1-0.2-0.1-0.2v-8.6h-5v5.1c0,0.6,0.1,1,0.2,1.3
		c0.2,0.3,0.5,0.4,0.9,0.4c0.2,0,0.3,0,0.4-0.1c0.2,0,0.2-0.1,0.3-0.1s0.2-0.1,0.2-0.1c0.1,0,0.2-0.1,0.2-0.1c0.1,0,0.1,0,0.2,0.1
		c0.1,0,0.1,0.1,0.1,0.2c0,0.1,0.1,0.2,0.1,0.3s0,0.1,0,0.3c0,0.3,0,0.7-0.1,0.8c0,0.2-0.1,0.3-0.2,0.4c-0.1,0.1-0.2,0.2-0.3,0.2
		c-0.2,0.1-0.3,0.1-0.5,0.2c-0.2,0.1-0.4,0.1-0.6,0.1c-0.2,0-0.4,0-0.7,0c-0.6,0-1.2-0.1-1.6-0.2s-0.8-0.4-1.1-0.7
		c-0.3-0.3-0.5-0.7-0.7-1.2c-0.2-0.5-0.2-1.1-0.2-1.7v-5.1h-1.3c-0.2,0-0.2-0.1-0.3-0.3s-0.1-0.5-0.1-0.9c0-0.3,0-0.4,0-0.6
		s0.1-0.3,0.1-0.4c0-0.1,0.1-0.2,0.2-0.2s0.2-0.1,0.2-0.1h1.2v-2.4c0.4-0.1,0.4-0.2,0.5-0.2c0.1-0.1,0.2-0.1,0.2-0.2
		c0.1-0.1,0.2-0.1,0.5-0.5h0.7h0.7c0.2,0.4,0.3,0.5,0.5,0.5c0.1,0.1,0.2,0.1,0.2,0.2c0.1,0.1,0.1,0.2-0.2,0.2v2.4L-168.7,630
		L-168.7,630z M-167.9,626.7c0,0.6-0.2,1.1-0.4,1.2c-0.2,0.2-0.7,0.3-1.4,0.3c-0.7,0-1.2-0.1-1.4-0.3c-0.2-0.2-0.3-0.7-0.3-1.2
		s0.1-1.1,0.3-1.2c0.2-0.2,0.7-0.3,1.4-0.3c0.7,0,1.2,0.1,1.4,0.3C-168,625.7-167.9,626.1-167.9,626.7z M-154.1,635.7
		c0,0.9-0.1,1.7-0.3,2.5c-0.2,0.7-0.6,1.4-1.1,2c-0.5,0.6-1.1,1-1.8,1.2c-0.7,0.3-1.6,0.4-2.6,0.4c-1,0-1.8-0.2-2.5-0.4
		c-0.7-0.2-1.3-0.7-1.7-1.2c-0.5-0.5-0.8-1.2-1.1-1.9c-0.2-0.7-0.3-1.6-0.3-2.6c0-0.9,0.1-1.7,0.3-2.6c0.2-0.7,0.6-1.4,1.1-2
		c0.5-0.6,1.1-1,1.8-1.2c0.7-0.3,1.6-0.4,2.6-0.4c1,0,1.8,0.2,2.5,0.4c0.7,0.2,1.3,0.7,1.7,1.2c0.5,0.5,0.8,1.2,1.1,1.9
		C-154.2,633.8-154.1,634.8-154.1,635.7z M-157.2,635.8c0-0.5-0.1-1-0.2-1.5c-0.1-0.4-0.2-0.8-0.4-1.2c-0.2-0.3-0.5-0.6-0.8-0.7
		c-0.3-0.2-0.7-0.2-1.2-0.2c-0.4,0-0.8,0.1-1.2,0.2c-0.3,0.2-0.6,0.4-0.8,0.7c-0.2,0.3-0.4,0.7-0.5,1.2c-0.1,0.4-0.2,1-0.2,1.6
		c0,0.5,0.1,1,0.2,1.5c0.1,0.4,0.2,0.8,0.4,1.2c0.2,0.3,0.5,0.6,0.8,0.7c0.3,0.2,0.7,0.2,1.2,0.2s0.8-0.1,1.2-0.2
		c0.3-0.2,0.6-0.4,0.8-0.7c0.2-0.3,0.4-0.7,0.5-1.2C-157.3,636.9-157.2,636.4-157.2,635.8z M-141.4,640.8c0,0.5,0,0.6-0.1,0.6
		c-0.1,0.1-0.2,0.1-0.2,0.2c-0.1,0-0.5,0-0.5,0h-0.7h-0.7c-0.2,0.1-0.3,0-0.5,0c-0.1,0-0.2-0.1-0.2-0.2c-0.1-0.1-0.1-0.2-0.3-0.2
		v-6.1c0.2-0.5,0.2-0.9,0.1-1.2c-0.1-0.3-0.2-0.6-0.3-0.7c-0.2-0.2-0.3-0.4-0.6-0.5c-0.2-0.1-0.5-0.2-0.8-0.2
		c-0.4,0-0.7,0.2-1.2,0.4c-0.4,0.2-0.8,0.7-1.3,1.2v7.2c0.1,0.1,0.1,0.2,0,0.2c-0.1,0.1-0.2,0.1-0.2,0.2c-0.1,0-0.5,0.8-0.5,0.8
		s-0.9,0-1.2,0c-0.3,0-0.5,0-0.7,0c-0.2,0-0.3-0.1-0.5-0.1c-0.1,0-0.2-0.1-0.2-0.2c-0.1-0.1-0.1-0.2-0.1-0.3v-11.4
		c0-0.1,0-0.2,0.1-0.3c0-0.1,0.1-0.1,0.2-0.2c0.1,0,0.2-0.1,0.4-0.1s0.4,0,0.6,0c0.2,0,0.5,0,0.6,0c0.2,0,0.3,0.1,0.4,0.1
		s0.2,0.1,0.2,0.2s0.1,0.2,0.1,0.3v1.1c0,0,1.8-1.2,2.3-1.5s1.2-0.5,1.9-0.5c0.7,0,1.3,0.1,1.8,0.3c0.5,0.2,0.9,0.6,1.2,1
		s0.5,0.9,0.7,1.5c0.2,0.6,0.2,1.2,0.3,2L-141.4,640.8L-141.4,640.8z"/>
</g>
<g>
	
		<linearGradient id="SVGID_1_" gradientUnits="userSpaceOnUse" x1="-1787.9135" y1="3497.8855" x2="-1787.9135" y2="3605.1216" gradientTransform="matrix(0.6463 0 0 -0.6463 1277.2845 2803.6833)">
		<stop  offset="0" style="stop-color:#B00005"/>
		<stop  offset="0.25" style="stop-color:#B70007"/>
		<stop  offset="0.5" style="stop-color:#BE010A"/>
		<stop  offset="0.75" style="stop-color:#C6010D"/>
		<stop  offset="1" style="stop-color:#CD010F"/>
	</linearGradient>
	<path class="st13" d="M222.5,473.6H16.5V543h205.9c2.5,0,4.6-2,4.6-4.6v-38.1l0,0v-22C227,475.5,225.1,473.6,222.5,473.6z"/>
	
		<linearGradient id="SVGID_2_" gradientUnits="userSpaceOnUse" x1="-2039.5596" y1="3605.3267" x2="-2039.5596" y2="3497.5679" gradientTransform="matrix(0.6463 0 0 -0.6463 1277.2845 2803.6833)">
		<stop  offset="0" style="stop-color:#001455"/>
		<stop  offset="0.25" style="stop-color:#001150"/>
		<stop  offset="0.5" style="stop-color:#000E4B"/>
		<stop  offset="0.75" style="stop-color:#000B46"/>
		<stop  offset="1" style="stop-color:#000841"/>
	</linearGradient>
	<path class="st14" d="M16.7,473.6H-93.9c-2.5,0-4.6,2-4.6,4.6v42v18.4c0,2.5,2,4.6,4.6,4.6H16.5v-34.2l0,0v-35.3H16.7z"/>
	<path class="st15" d="M-44.2,521.2c0,2.8-1.1,4.6-6.7,4.6c-0.7,0-1.3,0-2-0.2v-38c0-2.8,1.1-5.9,6.5-5.9c0.7,0,1.5,0,2.2,0.2V521.2
		L-44.2,521.2z M-54.9,515.3c0,5.4-3.5,9.3-10.6,10c-5.2,0.7-12.6,0-16.1-0.4c-0.2-0.7-0.2-1.3-0.2-2c0-4.8,2.6-5.9,5-5.9
		s6.3,0.4,9.3,0.4s4.1-1.1,4.1-2.2c0-1.3-1.3-2-3.7-2.4l-6.7-1.3c-5.6-1.1-8.7-5-8.7-9.1c0-5,3.5-9.1,10.4-10
		c5.2-0.7,11.7,0,15.2,0.4c0.2,0.7,0.2,1.1,0.2,1.7c0,4.8-2.4,5.6-4.8,5.6c-1.7,0-4.6-0.4-7.8-0.4s-4.6,0.9-4.6,2s1.3,1.7,3.3,2
		l6.5,1.1C-57.7,507.1-54.9,510.8-54.9,515.3 M-20.2,535.9c0.7,0.4,2.2,0.9,4.1,0.9c3.3,0,5-1.1,6.3-4.1l17.6-39.1
		c-0.7-0.4-2.4-0.9-3.7-0.9c-2.2,0-5.2,0.4-7.2,5l-5.6,13.5l-11.1-18c-0.7-0.2-2.4-0.4-3.7-0.4c-3.9,0-6.1,1.5-8.5,3.9l-10.8,11.7
		l8.7,13.7c1.5,2.4,3.7,3.7,7.2,3.7c2.2,0,4.1-0.4,5-0.9l-10.4-15.6l7.4-7.8l12.2,19.1"/>
	<g>
		<path id="path4078_1_" class="st15" d="M31.9,519.5c1.5,0,5.3,1.7,10.2,1.7c4.5,0,7.7-1.5,7.7-4.7c0-7-19.8-3.2-19.8-14.7
			c0-4.3,3.2-9,12.1-9c6.6,0,11.3,2.1,11.3,2.1s0,0.4,0,1.1c0,1.5-0.6,3-1.9,3c-2.1,0-4.5-1.5-9.6-1.5c-4.7,0-7,1.9-7,4.3
			c0,6.8,19.8,3.2,19.8,14.7c0,5.1-4,9.4-13,9.4c-7,0-12.1-2.1-12.1-2.1s0-0.4,0-1.1C29.7,519.9,31,519.5,31.9,519.5L31.9,519.5z"/>
		<path id="path4080_1_" class="st15" d="M78.6,492.8c-7.8,0-10,5.6-10,5.6v-3.3c0,0-2.2-2-3.9-2c-1.3,0-2.6,0.4-2.6,0.4v42.5
			c0,0,1.1,0.2,2.6,0.2c1.7,0,1.7-2.2,1.7-2.2v-13.9c0,0,4.3,5.6,12.1,5.6c8.5,0,15.4-6.3,15.4-16.5C94,497.7,85.5,492.8,78.6,492.8
			z M76.8,497.3c6.5,0,11.1,5.2,11.1,11.9c0,6.3-3.9,12.2-11.3,12.2c-5,0-8.9-3.5-10.2-6.1v-11.7C67.9,500.8,71.6,497.3,76.8,497.3
			L76.8,497.3z"/>
		<path id="path4084_1_" class="st15" d="M115.4,492.8c-8.9,0-16.5,6.5-16.5,16.5c0,9.8,7.2,16.5,16.5,16.5
			c9.3,0,16.5-6.9,16.5-16.5C131.9,499.3,124.6,492.8,115.4,492.8L115.4,492.8z M115.4,497.3c6.5,0,11.1,5.2,11.1,11.9
			c0,7.6-5,12.2-11.1,12.2c-6.1,0-11.1-4.8-11.1-12.2C104.4,502.1,109.4,497.3,115.4,497.3L115.4,497.3z"/>
		<path id="path4088_1_" class="st15" d="M190.3,519.5c1.5,0,5.3,1.7,10.2,1.7c4.5,0,7.7-1.5,7.7-4.7c0-7-19.8-3.2-19.8-14.7
			c0-4.3,3.2-9,12.1-9c6.6,0,11.3,2.1,11.3,2.1s0,0.4,0,1.1c0,1.5-0.6,3-1.9,3c-2.1,0-4.5-1.5-9.6-1.5c-4.7,0-7,1.9-7,4.3
			c0,6.8,19.8,3.2,19.8,14.7c0,5.1-4,9.4-13,9.4c-7,0-12.1-2.1-12.1-2.1s0-0.4,0-1.1C188.2,519.9,189.4,519.5,190.3,519.5
			L190.3,519.5z"/>
		<path id="path4090_1_" class="st15" d="M138,525.1v-31.7c0.2,0,1.1-0.4,2.6-0.4c2.2,0,2.8,0.9,1.7,2.2v3.7c3-2.8,6.5-5.9,12.4-5.9
			c1.5,0,2.6,0.2,2.6,0.2s0.2,0.7,0.2,2.2s-0.2,2.4-2.8,2.4c-5.4,0-9.1,2.4-12.4,6.9v18.4c1.1,1.3,0.2,2-1.5,2
			C139.1,525.5,138.2,525.1,138,525.1z"/>
		<path id="path4118_1_" class="st15" d="M172.7,526c-6.7,0-10.2-4.1-10.8-9.5v-28.9c0.6-1.1,1.1-2.2,3.5-2.2c1.3,0,2.4,0.4,0.9,0.4
			v7.3h14.3c0,0.3,0.2,1.2,0.2,2.5c0,2.2-0.9,2.4-2,1.9h-12.6v18.8c1.5,3,3,5,6.9,5c3,0,5.2-1.3,6.7-1.3c2,0,2.2,2.2,2,3.9
			C182.1,523.8,178.2,526,172.7,526L172.7,526z"/>
	</g>
	<path class="st16" d="M227,480.3c0-2.5-2-4.6-4.6-4.6H15.6l0,0H-93.9c-2.5,0-4.6,2-4.6,4.6v41.2c0-2.6,1.5-6.5,6.9-6.7l107.2-4.3
		l0,0l0,0l0,0L227,502V480.3z"/>
</g>
</svg>
