<?xml version="1.0" encoding="utf-8"?>
<svg id="Layer_1" data-name="Layer 1" xmlns="http://www.w3.org/2000/svg" viewBox="0 0 334 104.6665">
  <g>
    <path d="M61.9482,27.8237a9.4075,9.4075,0,0,0-3.456-3.24,21.7555,21.7555,0,0,0-5.9043-2.0161,46.59,46.59,0,0,0-8.28-.648H23.2119V51.3677h14.4V42.1514h7.416a36.2493,36.2493,0,0,0,8.4961-.792A15.77,15.77,0,0,0,59.14,39.2a9.4655,9.4655,0,0,0,3.024-3.0962,8.5339,8.5339,0,0,0,.936-3.8159A8.4243,8.4243,0,0,0,61.9482,27.8237ZM47.8359,34.52a9.574,9.574,0,0,1-4.0317.792H37.6118V28.76H41.86a12.256,12.256,0,0,1,1.6562.0717c3.8877.2164,5.9038,1.2242,5.9038,3.024A2.824,2.824,0,0,1,47.8359,34.52Z" fill="#004fa3" fill-rule="evenodd"/>
    <path d="M61.9482,21.9194H74.4038V32.6475a14.3475,14.3475,0,0,1,4.4644-2.5918,16.4059,16.4059,0,0,1,5.1836-.72c4.248,0,7.2724.792,9.288,2.4483a8.136,8.136,0,0,1,2.9522,6.48v13.104h-12.6v-11.16a4.1108,4.1108,0,0,0-1.08-3.1679,4.8678,4.8678,0,0,0-3.3838-1.0079c-3.1679,0-4.8242,1.44-4.8242,4.2481V51.3677H61.9482Z" fill="#004fa3" fill-rule="evenodd"/>
    <path d="M97.228,29.9116h12.4561L115.1563,43.16l5.4-13.2481H132.58L121.2759,52.3755a14.1979,14.1979,0,0,1-2.0879,3.168,7.9454,7.9454,0,0,1-2.52,1.872,12.1376,12.1376,0,0,1-3.4561.9361,31.3823,31.3823,0,0,1-4.896.288c-1.0078,0-3.3838,0-6.9121-.144V52.5918h1.9443a17.7355,17.7355,0,0,0,3.5279-.2881c.72-.2163,1.08-.5762,1.08-1.1523a4.2436,4.2436,0,0,0-.504-1.7276Z" fill="#004fa3" fill-rule="evenodd"/>
    <path d="M151.3,36.0317c-.2881-1.3681-1.6558-2.0883-3.96-2.0883-2.2319.0722-3.312.6484-3.312,1.5122,0,.72,1.3682,1.3681,4.104,1.8,2.6641.36,4.6084.6479,5.76.792,1.1518.2158,2.52.5039,4.0317.9355A14.2026,14.2026,0,0,1,161.74,40.64a4.0736,4.0736,0,0,1,2.0157,2.5918,3.8706,3.8706,0,0,1,.288,1.584,4.7531,4.7531,0,0,1-2.16,3.8882,15.7725,15.7725,0,0,1-6.0479,2.52,41.2892,41.2892,0,0,1-8.8559.792,42.6458,42.6458,0,0,1-7.7759-.72,14.09,14.09,0,0,1-5.688-2.3037,5.9881,5.9881,0,0,1-2.5923-4.32H142.876c.2158,1.728,1.8,2.664,4.68,2.664a6.99,6.99,0,0,0,2.8081-.5039q1.08-.432,1.08-1.2959c0-.6479-.6479-1.1518-2.0878-1.5839a39.7683,39.7683,0,0,0-4.896-.792c-2.4483-.36-4.5362-.72-6.2642-1.1519a13.1875,13.1875,0,0,1-4.32-1.9443,4.4685,4.4685,0,0,1-1.9439-3.6A5.1173,5.1173,0,0,1,133.3,33.08a10.6622,10.6622,0,0,1,4.896-2.6641,31.429,31.429,0,0,1,9.144-1.08,33.8835,33.8835,0,0,1,8.9283.9361,11.4712,11.4712,0,0,1,4.896,2.52,5.5555,5.5555,0,0,1,1.728,3.24Z" fill="#004fa3" fill-rule="evenodd"/>
    <path d="M166.8521,29.9116h11.5917V51.3677H166.8521V29.9116Zm0-8.7842h11.5917v6.0484H166.8521Z" fill="#004fa3" fill-rule="evenodd"/>
    <path d="M282.5562,61.16a1.1074,1.1074,0,0,0-1.2242-.8643c-5.3281,1.1524-11.2319,2.16-16.56,1.9443a85.3424,85.3424,0,0,1-22.896-4.1762c-5.2559-1.6558-10.8721-3.5279-15.9121-5.4,6.1924-3.24,10.44-8.4239,10.44-15.0479.0723-11.9521-12.5278-18.144-27.6479-18.2163H208.54c-15.2641,0-27.5039,9-27.4321,18.2163,0,9.1441,7.4883,19.0078,27.4321,19.08h.2159a39.9107,39.9107,0,0,0,11.0161-1.5122c12.7441,4.9678,25.2719,10.2959,39.8159,10.5122,7.3442.144,15.12-1.3682,22.1763-3.24A1.1463,1.1463,0,0,0,282.5562,61.16Zm-72.36-7.4883a9.205,9.205,0,0,1-1.44-.0718C195.58,53.0234,189.1,45.1758,189.0278,37.76c0-7.7764,5.04-15.0484,19.584-15.0484h.1441c10.728.0723,19.728,5.9043,19.6562,15.84C228.4121,49.7837,219.7,53.7437,210.1958,53.6714Z" fill="#ed1c24" fill-rule="evenodd"/>
    <path d="M291.5562,46.8315h-.5044a9.4659,9.4659,0,0,1-3.816-1.1518,3.7133,3.7133,0,0,1-1.9438-3.0962h23.9761a10.7533,10.7533,0,0,0-1.0083-4.68,12.3655,12.3655,0,0,0-3.168-4.248,14.5893,14.5893,0,0,0-5.76-3.0962,25.4144,25.4144,0,0,0-8.28-1.2242h-.36a27.8818,27.8818,0,0,0-7.7041.9361,18.4386,18.4386,0,0,0-5.6157,2.5923,10.379,10.379,0,0,0-3.3843,3.7436q-.216.4322-.4316.8643v-7.56h-12.96v10.584a5.1559,5.1559,0,0,1-1.2241,3.8159,5.6633,5.6633,0,0,1-3.7442,1.08,5.4933,5.4933,0,0,1-3.5278-.8643,3.8242,3.8242,0,0,1-1.0083-3.0957v-11.52H238.2759V43.0874c0,3.1685,1.08,5.4722,3.3843,6.84,2.2319,1.44,5.2558,2.0879,9,2.0879a18.3714,18.3714,0,0,0,4.248-.4321,13.78,13.78,0,0,0,3.4556-1.08,12.4653,12.4653,0,0,0,3.24-2.2319v3.0962h11.9522V44.3115a8.3005,8.3005,0,0,0,1.5117,2.376,13.6383,13.6383,0,0,0,6.2641,3.96,29.385,29.385,0,0,0,9.5039,1.3681h.2159c5.1123,0,9.0722-.72,11.88-2.0879,2.88-1.3681,4.6079-3.0962,5.2559-4.9682H296.2358C295.3,46.1836,293.7881,46.8315,291.5562,46.8315Zm-4.68-11.3037a7.6056,7.6056,0,0,1,4.1758-1.0083h.144a7.7393,7.7393,0,0,1,3.8159,1.0083,3.5058,3.5058,0,0,1,1.8,2.6636h-11.52A2.92,2.92,0,0,1,286.876,35.5278Z" fill="#004fa3" fill-rule="evenodd"/>
    <path d="M307.978,21.4512a6.1936,6.1936,0,0,1,2.0352.331,5.273,5.273,0,0,1,1.7.9644,4.3807,4.3807,0,0,1,1.1152,1.435,3.9536,3.9536,0,0,1,.0078,3.419,4.1937,4.1937,0,0,1-1.123,1.4053,5.769,5.769,0,0,1-1.7378.9814,5.89,5.89,0,0,1-1.9971.3472,5.8237,5.8237,0,0,1-1.9746-.3379,5.4331,5.4331,0,0,1-1.6972-.98,4.4389,4.4389,0,0,1-1.1451-1.436,3.7575,3.7575,0,0,1-.3965-1.6846,3.8149,3.8149,0,0,1,.399-1.7065,4.5857,4.5857,0,0,1,1.1582-1.4673,5.01,5.01,0,0,1,1.6543-.9444A6.0624,6.0624,0,0,1,307.978,21.4512Zm4.1709,4.4419a3.0488,3.0488,0,0,0-.313-1.3526A3.4872,3.4872,0,0,0,310.94,23.4a4.26,4.26,0,0,0-1.3525-.7754,4.7582,4.7582,0,0,0-1.5957-.2627,4.8682,4.8682,0,0,0-1.5972.2554,4.0155,4.0155,0,0,0-1.3222.76,3.6819,3.6819,0,0,0-.916,1.1635,3.014,3.014,0,0,0-.32,1.3526,2.9807,2.9807,0,0,0,.3169,1.3427,3.5794,3.5794,0,0,0,.9048,1.1421,4.3371,4.3371,0,0,0,1.3511.7774,4.7937,4.7937,0,0,0,3.1719-.0039,4.3842,4.3842,0,0,0,1.373-.7852,3.3259,3.3259,0,0,0,.8945-1.1186A3.0933,3.0933,0,0,0,312.1489,25.8931Zm-4.1-2.5049a3.8094,3.8094,0,0,1,1.8443.3613,1.1462,1.1462,0,0,1,.6352,1.0523,1.1624,1.1624,0,0,1-.2993.7983,1.7486,1.7486,0,0,1-.8423.4966l1.2407,2.0981H308.686L307.6821,26.35h-.1728v1.8452h-1.7822V23.3882Zm-.2715.9414h-.268v1.1416h.3735a1.04,1.04,0,0,0,.6074-.1489.4938.4938,0,0,0,.209-.43.4638.4638,0,0,0-.2231-.4282A1.3978,1.3978,0,0,0,307.7773,24.33Z" fill="#004fa3"/>
    <g>
      <path d="M90.5127,87.6758V72.4663h2.3916a12.39,12.39,0,0,1,3.0435.2691A4.0733,4.0733,0,0,1,98.1216,74.08a3.5326,3.5326,0,0,1,.8076,2.3159,3.376,3.376,0,0,1-.3672,1.5767,4.0093,4.0093,0,0,1-1.1943,1.3286,4.7594,4.7594,0,0,1,2.0268,1.6284,4.118,4.118,0,0,1,.6411,2.311,4.3047,4.3047,0,0,1-.6626,2.3365,4.23,4.23,0,0,1-1.708,1.5771,6.559,6.559,0,0,1-2.8877.522Zm2.895-12.4487v3.205h.6333a2.356,2.356,0,0,0,1.5723-.4443,1.5163,1.5163,0,0,0,.5137-1.21,1.414,1.414,0,0,0-.4878-1.1318,2.2333,2.2333,0,0,0-1.4839-.4189Zm0,5.79V84.915h.7261a4.4832,4.4832,0,0,0,2.4311-.4546,1.5344,1.5344,0,0,0,.6275-1.3237,1.8541,1.8541,0,0,0-.7363-1.5508,4.0692,4.0692,0,0,0-2.4468-.5688Z" fill="#004fa3"/>
      <path d="M103.8652,72.4663h8.3023v2.833h-5.4282V78.05h5.4282v2.7813h-5.4282v4.0014h5.4282v2.8433h-8.3023Z" fill="#004fa3"/>
      <path d="M136.8867,75.1392,134.8618,77.07a6.2678,6.2678,0,0,0-4.6484-2.1841,5.0948,5.0948,0,0,0-5.1651,5.1646,5.4318,5.4318,0,0,0,.6612,2.7017,4.7377,4.7377,0,0,0,1.87,1.8525,5.4314,5.4314,0,0,0,2.686.6724,5.538,5.538,0,0,0,2.3037-.4707,8.2506,8.2506,0,0,0,2.293-1.7129l1.9629,2.0478a10.7791,10.7791,0,0,1-3.1846,2.2813,8.6963,8.6963,0,0,1-3.4223.6357,7.88,7.88,0,0,1-5.8057-2.2485,7.7862,7.7862,0,0,1-2.2588-5.7642,7.8889,7.8889,0,0,1,1.0288-4.043,7.6482,7.6482,0,0,1,2.9463-2.8432,8.3121,8.3121,0,0,1,4.1309-1.0752,8.7678,8.7678,0,0,1,6.6274,3.0552Z" fill="#004fa3"/>
      <path d="M147.66,72.084a7.5526,7.5526,0,0,1,5.55,2.3364,7.7756,7.7756,0,0,1,2.3227,5.6973,7.6873,7.6873,0,0,1-2.2915,5.6347A7.9408,7.9408,0,0,1,141.99,85.69a7.9911,7.9911,0,0,1,5.67-13.6064Zm-.0313,2.833a4.7731,4.7731,0,0,0-3.55,1.4683,5.1114,5.1114,0,0,0-1.4385,3.7324,4.8635,4.8635,0,0,0,1.8116,3.9912,4.9643,4.9643,0,0,0,3.229,1.1474,4.7137,4.7137,0,0,0,3.5083-1.4887,5.3656,5.3656,0,0,0-.01-7.3462A4.7593,4.7593,0,0,0,147.6284,74.917Z" fill="#004fa3"/>
      <path d="M159.332,72.4663h2.7769l6.5078,10.0088V72.4663h2.895V87.6758h-2.7851l-6.4995-9.9776v9.9776H159.332Z" fill="#004fa3"/>
      <path d="M176.0854,72.4663h7.5479v2.8228H178.96V78.05h4.6733v2.7813H178.96v6.8447h-2.8746Z" fill="#004fa3"/>
      <path d="M187.06,72.4663h2.8745V87.6758H187.06Z" fill="#004fa3"/>
      <path d="M194.26,72.4663h3.43a11.2962,11.2962,0,0,1,4.9273.8223,6.4185,6.4185,0,0,1,2.6553,2.6728,9.3685,9.3685,0,0,1,.4594,7.5528,6.7051,6.7051,0,0,1-1.6113,2.4453,5.6958,5.6958,0,0,1-2.2266,1.3442,15.8526,15.8526,0,0,1-4.1523.3721H194.26Zm2.874,2.792V84.853h1.3442a6.72,6.72,0,0,0,2.8794-.4555,3.45,3.45,0,0,0,1.4634-1.5318,5.6208,5.6208,0,0,0,.5683-2.65,5.0385,5.0385,0,0,0-1.3544-3.7568,5.4277,5.4277,0,0,0-3.9185-1.2007Z" fill="#004fa3"/>
      <path d="M210.1455,72.4663h8.3023v2.833H213.02V78.05h5.4283v2.7813H213.02v4.0014h5.4283v2.8433h-8.3023Z" fill="#004fa3"/>
      <path d="M222.2153,72.4663h2.7769L231.5,82.4751V72.4663h2.895V87.6758H231.61l-6.5-9.9776v9.9776h-2.8951Z" fill="#004fa3"/>
      <path d="M237.4287,72.4663h8.4058V75.32h-2.771V87.6758h-2.9361V75.32h-2.6987Z" fill="#004fa3"/>
    </g>
    <rect x="22.667" y="78.9409" width="62.6665" height="1.7261" fill="#004fa3"/>
    <rect x="249.667" y="78.833" width="59.5415" height="1.7261" fill="#004fa3"/>
  </g>
</svg>
