<?xml version="1.0" encoding="utf-8"?>
<!-- Generator: Adobe Illustrator 23.1.0, SVG Export Plug-In . SVG Version: 6.00 Build 0)  -->
<svg version="1.1" id="Layer_1" xmlns="http://www.w3.org/2000/svg" xmlns:xlink="http://www.w3.org/1999/xlink" x="0px" y="0px"
	 width="276px" height="170px" viewBox="0 0 276 170" style="enable-background:new 0 0 276 170;" xml:space="preserve">
<style type="text/css">
	.st0{fill:#0079C1;}
	.st1{fill:none;}
	.st2{fill-rule:evenodd;clip-rule:evenodd;fill:#016CA8;}
	.st3{fill-rule:evenodd;clip-rule:evenodd;fill:#FBEE3C;}
	.st4{fill-rule:evenodd;clip-rule:evenodd;fill:#D2003C;}
	.st5{fill:#D2003C;}
	.st6{fill:#FFCC00;}
	.st7{fill:#173F66;}
	.st8{fill-rule:evenodd;clip-rule:evenodd;fill:#173F66;}
	.st9{fill:#FFE990;}
	.st10{fill:#706F6F;}
	.st11{fill:#0064A7;}
	.st12{fill:#FEC905;}
	.st13{fill:url(#SVGID_1_);}
	.st14{fill:url(#SVGID_2_);}
	.st15{fill:#FFFFFF;}
	.st16{opacity:0.2;fill:#FFFFFF;enable-background:new    ;}
</style>
<g>
	<g>
		<path class="st0" d="M33.4-322.7l-6.1,7.3H9.9v4.9h20.7l-5.7,7.3h-15v12.1H0.1v-31.6H33.4z"/>
		<path class="st0" d="M43.9-291.1h-9.7v-31.6h9.7V-291.1z"/>
		<path class="st0" d="M83.6-322.7l-6.1,9.7h-9.3v21.9h-9.7V-313H46.2l6.1-9.7H83.6z"/>
		<path class="st0" d="M121.6-295.4c0,2.7-1.2,4.2-3.9,4.2c-1.7,0-3.6-0.7-5.1-2l-17.8-15.2v17.2h-9.7v-27.3c0-1.2,0.2-2,1-3
			c0.7-0.7,1.7-1.2,3.1-1.2c1.7,0,3.4,0.7,4.8,2l17.8,15.4v-17.4h9.7C121.6-322.7,121.6-295.4,121.6-295.4z"/>
		<path class="st0" d="M157.9-298.4l-6.2,7.3H124v-31.6h33.9l-6.2,7.3h-17.9v4.9h23l-6.1,7.3h-16.9v4.9H157.9z"/>
		<path class="st0" d="M199.3-322.2l-6.4,6.8h-21.6c-1.2,1-1.7,1.5-1.7,2.2c0,0.7,1.7,2.7,1.7,2.7H187c3.5,0,6.6,0.9,8.9,2.6
			c2.6,1.9,3.7,4.2,3.7,7.3c0,2.8-1.2,5.2-3.7,7c-2.3,1.6-5.4,2.6-8.9,2.6h-28l5.7-7.3h22c0,0,1.9-1.4,2.7-1.7c1-0.5,1.5-1,1.5-1.7
			s-0.5-1.5-1.5-1.7c-0.7-0.2-2.7,0.2-2.7,0.2h-16.6c-3.6,0-6.6-0.8-9.2-2.6c-2.6-1.8-3.8-4.1-3.8-7.2s1.3-5.4,3.8-7.2
			c2.6-1.8,5.4-2.6,9.2-2.6h29.1V-322.2z"/>
		<path class="st0" d="M240.6-322.2l-5,6.8H214c-1.2,1-1.7,1.5-1.7,2.2c0,0.7,1.7,2.7,1.7,2.7h15.8c3.5,0,6.6,0.9,8.9,2.6
			c2.6,1.9,3.7,4.2,3.7,7.3c0,2.8-1.2,5.2-3.7,7c-2.3,1.6-5.4,2.6-8.9,2.6h-28l5.7-7.3h22c0,0,1.9-1.4,2.7-1.7c1-0.5,1.5-1,1.5-1.7
			s-0.5-1.5-1.5-1.7c-0.7-0.2-2.7,0.2-2.7,0.2h-18.1c-3.6,0-6.6-0.8-9.2-2.6c-2.6-1.8-3.8-4.1-3.8-7.2s1.3-5.4,3.8-7.2
			c2.6-1.8,5.4-2.6,9.2-2.6h29.1V-322.2z"/>
	</g>
	<g>
		<path class="st1" d="M148.6-383.4c-3.5-3-5.3-6.8-5.3-11.4s1.8-8.3,5.3-11.1c3.5-2.8,8.1-4.3,13.6-4.3h14.7h0.8
			c-8.4-30.9-41.2-51.8-76.8-40.2c-16.9,5.5-30.2,19-35.9,35.8c-13.7,41,16.7,79.2,55.8,79.2c27.3,0,50-18.4,56.8-43.2h-15.7
			C156.6-378.8,152.1-380.3,148.6-383.4z M130.4-381l-9.2-4.9H107v4.9h-6.2h-3.1H70.6v-29.1h9.7v21.9h17v-7.3h26.9
			c1.8,0,3-0.3,4-0.8c1.3-0.8,2-1.5,2-2.8c0-2.5-2-3.8-6-3.8H99.1l5.7-7.3h19.7c4.5,0,8.2,0.9,11,2.6c3.3,1.9,4.7,4.7,4.7,8.5
			c0,2.1-0.7,4-1.9,5.6c-1.2,1.6-3.1,3.1-5.4,3.8l10.6,8.7H130.4z"/>
		<polygon class="st0" points="80.3,-388.3 80.3,-410.1 70.6,-410.1 70.6,-381 97.3,-381 97.3,-388.3 		"/>
		<path class="st0" d="M138.3-393.5c1.2-1.6,1.9-3.5,1.9-5.6c0-3.8-1.6-6.6-4.7-8.5c-2.8-1.6-6.6-2.6-11-2.6h-19.7l-5.7,7.3h27.5
			c4,0,6,1.3,6,3.8c0,1.3-0.8,2.3-2,2.8c-1,0.5-2.5,0.8-4,0.8H99.7v9.7h2.3l0.7,7.3l6.8-2.4v-4.9h11.8l9.2,4.9h13.3l-10.6-8.7
			C135.3-390.6,137.1-391.8,138.3-393.5z"/>
		<polygon class="st0" points="99.7,-385.9 99.7,-378.6 102.7,-378.6 102,-385.9 		"/>
		<path class="st0" d="M183.9-398h-7.6H153l5.9,7.3h11.3v2.4h-10.8c-2.6,0-4.8-0.7-6.2-1.9c-1.7-1.2-2.4-3.1-2.4-5.3
			s0.7-3.8,2.4-5.3c1.7-1.4,3.8-2.2,6.2-2.2h17.4h6.3c-0.2-1.7-0.7-4.4-1.5-6.8c-6.8-27.4-31.6-47.8-61.2-47.8
			c-34.7,0-63.1,28.2-63.1,63.1c0,34.7,28.2,63.1,63.1,63.1c29.6,0,54.4-20.4,61.2-47.8c1.2-4.9,1.9-10,1.9-15.1
			C183.9-395.6,183.9-398,183.9-398z M120.7-340.3c-32.6,0-58.6-28.5-54.6-61.8c3.1-25.9,24.7-46.3,50.8-48
			c27.1-1.8,50,15.9,56.7,40.1h-0.7h-13.6c-5.2,0-9.4,1.4-12.7,4c-3.3,2.6-4.9,6.1-4.9,10.3c0,4.2,1.6,7.8,4.9,10.6
			c3.3,2.8,7.5,4.2,12.7,4.2h14.6C167.2-357.5,146.1-340.3,120.7-340.3z"/>
	</g>
</g>
<g>
	<path d="M599.6-317.1v-4.5h0.8v0.4v0.5c0.2,1.5,0,2.6-0.4,3.6H599.6z M599.7-330.5h3.4c0-2.2,0.4-3.9,1.3-4.9s2.3-1.6,4.1-1.6h0
		v15.7v0.5c0,0.8,0,1.5-0.2,1.7c-0.1,0.2-0.2,0.5-0.5,0.5c-0.4,0.2-0.8,0.2-1.4,0.2c-0.5,0.1-1.2,0.1-2,0.1v3.2h16.3v-2.8
		c-1.3,0-2.2-0.1-2.7-0.1c-0.5-0.1-0.8-0.2-1.1-0.2c-0.2-0.1-0.4-0.2-0.5-0.5s-0.6-1.7-0.6-1.7V-337h0.4c1.9,0,3.3,0.5,4.2,1.6
		c0.9,1.1,1.3,2.7,1.3,4.9h3.8v-9.8h-26L599.7-330.5L599.7-330.5z M600.4-340.3v9.8h-0.8v-9.8h0.4H600.4z M599.6-321.6h-1.5
		c0,1.6-0.1,2.6-0.3,3.2c-0.2,0.6-0.6,0.8-1.1,0.8c-0.4,0-0.7-0.2-0.9-0.6c-0.2-0.3-0.2-1.1-0.2-2.2v-2.5c0-1.6-0.3-2.8-1.1-3.6
		c-0.7-0.8-2-1.4-3.8-1.6c2-0.3,3.6-1.1,4.7-2c1.1-1,1.6-2.2,1.6-3.8c0-2.1-0.8-3.8-2.5-4.8c-1.6-1.1-4.1-1.6-7.4-1.6h-2.9v3.4
		c1.5,0.1,2.6,0.3,3.2,0.8c0.8,0.6,1.2,1.5,1.2,2.8s-0.4,2.2-1.2,2.7c-0.6,0.4-1.7,0.7-3.2,0.7v3.4c1.2,0.1,2,0.2,2.5,0.7
		c0.5,0.4,0.8,1.4,0.8,2.8v2.5c0,2.3,0.5,3.9,1.6,5c1,1.1,2.7,1.6,4.9,1.6c2.2,0,3.7-0.6,4.7-1.7c0.4-0.4,0.7-1,1-1.5V-321.6
		L599.6-321.6z M585-340.4v3.4c-0.2,0-0.6,0-0.9,0h-3.2v7.3h2.8c0.4,0,0.8,0,1.2-0.1v3.3c-0.2,0-0.5,0-0.7,0h-3.3v6
		c0,1,0.2,1.5,0.4,1.8c0.3,0.2,1,0.3,2,0.3h0.8v4.1h-15.5v-3.3h1.6c1.1,0,1.7-0.1,2.1-0.3c0.2-0.3,0.4-0.8,0.4-1.9v-15
		c0-1.1-0.2-1.7-0.4-1.9c-0.3-0.3-1-0.3-2.1-0.3h-0.8v-3.3H585V-340.4z M523.9-314.6v-3.4c1.6-0.1,2.6-0.4,3.2-0.9
		c0.9-0.7,1.4-1.7,1.4-3.2s-0.4-2.5-1.4-3.3c-0.7-0.5-1.7-0.8-3.2-1v-3.4c1.2-0.2,1.9-0.4,2.5-0.8c0.8-0.6,1.2-1.5,1.2-2.8
		s-0.4-2.1-1.1-2.7c-0.5-0.4-1.3-0.7-1.7-0.7v-3.5h0.3c3.5,0.1,6.1,0.6,7.7,1.5c1.6,1,2.4,2.4,2.4,4.6c0,1.4-0.5,2.6-1.5,3.7
		c-1,1.1-2.4,1.8-4.2,2.4c2.4,0.5,4.2,1.3,5.3,2.3c1.1,1.1,1.7,2.4,1.7,4.2c0,2.5-0.9,4.3-2.8,5.4s-5,1.6-9.3,1.3h-0.6V-314.6z
		 M538.6-314.9v-3.4h1.5c1.1,0,1.8-0.1,2.1-0.3s0.4-0.8,0.4-1.9v-14.3c0-1.1-0.2-1.6-0.4-1.9c-0.3-0.2-1-0.3-2.1-0.3h-1.5v-3.3h26.9
		v9.8h-3.6c-0.2-1.5-0.5-2.6-0.8-3.5c-0.3-0.7-0.7-1.4-1.2-1.8c-0.5-0.5-1.2-0.7-2-1c-0.8-0.2-2.2-0.2-4.3-0.2H550v7.3h0.7
		c1.5,0,2.6-0.2,3.1-0.8c0.5-0.5,0.8-1.6,0.8-3.3h3.6v11.4h-3.6c-0.1-1.7-0.3-2.8-0.8-3.3c-0.5-0.5-1.5-0.8-3.1-0.8H550v8.1h3.7
		c3,0,5-0.5,6.1-1.5s1.7-2.9,2.1-5.8h3.6v10.6h-26.9V-314.9z M455.2-314.2l-1-1.9c-1.3,0.8-2.7,1.5-4.1,1.9
		c-1.4,0.4-2.8,0.6-4.4,0.6c-4.1,0-7.5-1.2-9.9-3.6c-2.4-2.4-3.7-5.6-3.7-9.6c0-4.1,1.3-7.5,3.8-10.1c2.5-2.5,5.8-3.8,9.9-3.8
		c1.5,0,2.8,0.2,4.1,0.6c1.3,0.4,2.5,1,3.7,1.8l0.7-1.9h4.3v10.6h-4.1c-0.3-2.4-1-4.2-2.2-5.5c-1.2-1.2-2.8-1.8-5.1-1.8
		c-2.2,0-3.9,0.8-5.1,2.4c-1.1,1.6-1.7,4-1.7,7.1c0,3.7,0.5,6.4,1.6,8.1c1,1.7,2.7,2.5,5,2.5c1.6,0,2.8-0.3,3.4-0.8
		c0.6-0.5,0.9-1.4,0.9-2.8v-2.5c0-0.9-0.2-1.5-0.3-1.7c-0.3-0.2-0.8-0.3-1.7-0.3h-2v-3.3h14.7v3.3h-1.4c-0.7,0-1.2,0.1-1.4,0.3
		c-0.2,0.2-0.4,0.6-0.4,1.4v8.9H455.2L455.2-314.2z M523.9-340.3v3.3c-0.4-0.1-0.9-0.1-1.4-0.1h-1.8v7.3h1.7c0.5,0,1.1,0,1.5-0.1
		v3.4c-0.4,0-0.8-0.1-1.3-0.1h-2v8.1h1.8c0.5,0,0.9,0,1.4-0.1v3.3h-15.5v-3.3h2.1c1.1,0.3,1.7,0.2,2,0c0.3-0.2,0.4-0.8,0.8-1.9
		v-14.4c-0.4-1.1-0.5-1.6-0.8-1.9c-0.3-0.2-2-0.6-2-0.6h-2.1v-3.3L523.9-340.3L523.9-340.3z M463.7-314.6v-3.7h1.7
		c1,0,1.7-0.1,2-0.3s0.4-0.8,0.4-1.9v-14.3c0-1.1-0.2-1.6-0.4-1.9c-0.3-0.2-1-0.3-2-0.3h-1.7v-3.3H480v3.3h-2.1
		c-1.1,0.3-1.8,0.5-2,0.7c-0.3,0.2-0.4,0.8-0.8,1.9v14.4c0.4,1,0.5,1.5,0.8,1.9c0.3,0.2,2-0.2,2-0.2h2.1v4.1h-16.3V-314.6z
		 M480.8-340.3h16.3v3.3h-1.7c-1,0-1.8,0.2-2,0.4c-0.3,0.2-0.4,0.8-0.4,1.8v17.3h2.2c2.1,0,3.7-0.1,4.5-0.3c0.8-0.2,1.5-0.5,2-0.9
		c0.6-0.5,1-1.3,1.4-2.2c0.3-0.9,0.5-2.3,0.7-3.9h3v10.6h-26v-3.3h1.5c1.1,0,1.7-0.1,2-0.3c0.3-0.2,0.5-0.8,0.5-1.8V-335
		c0-1-0.2-1.5-0.5-1.7c-0.2-0.2-1-0.3-2-0.3h-1.5V-340.3z"/>
	<g>
		<path d="M493.8-442.3c35.2,9.8,59.5,26.1,59.5,44.6s-24.3,34.8-59.5,44.6v-4c24.9-9.9,40.3-24.4,40.3-40.6
			c0-16.1-15.5-30.7-40.3-40.6L493.8-442.3L493.8-442.3z M493.8-368.6v8.5c17.9-9.8,28.9-23,28.9-37.6s-11.1-27.8-28.9-37.6v8.5
			c8.6,8.4,13.3,18.4,13.3,29.1C507.2-386.9,502.4-377,493.8-368.6z M422.2-451.8c25.9,0.2,50.7,3.8,71.6,9.6v4
			c-11.7-4.7-25.3-8.2-40.5-10.6c15.5,2.8,29.3,7.5,40.5,13.6v8.6c-14.5-14-39.7-23.8-71.6-25V-451.8L422.2-451.8z M493.8-353.1
			c-21,5.8-45.8,9.3-71.6,9.6v-0.1c31.9-1.2,57.2-10.9,71.6-25v8.6c-11.2,6-25,10.8-40.5,13.6c15.1-2.3,28.8-6,40.5-10.6V-353.1z"/>
		<path d="M638.7-451.8c-25.9,0.2-50.7,3.8-71.6,9.6v4c11.7-4.7,25.3-8.2,40.5-10.6c-15.5,2.8-29.3,7.5-40.5,13.6v8.6
			c14.5-14.1,39.7-23.9,71.6-25V-451.8L638.7-451.8z M567.1-353.1c21,5.8,45.8,9.3,71.6,9.6v-0.1c-31.9-1.2-57.2-10.9-71.6-25v8.6
			c11.2,6,25,10.8,40.5,13.6c-15.1-2.3-28.8-6-40.5-10.6L567.1-353.1L567.1-353.1z M567.1-442.3c-35.2,9.8-59.5,26.1-59.5,44.6
			s24.3,34.8,59.5,44.6v-4c-24.9-9.9-40.4-24.4-40.4-40.6c0-16.1,15.5-30.7,40.4-40.6V-442.3L567.1-442.3z M567.1-368.6v8.5
			c-17.9-9.8-28.9-23-28.9-37.6s11.1-27.8,28.9-37.6v8.5c-8.6,8.5-13.3,18.4-13.3,29.1C553.7-386.9,558.4-377,567.1-368.6z"/>
	</g>
	<g>
		<path d="M466-305.3c0-0.7-0.1-1.2-0.3-1.4c-0.2-0.2-0.7-0.3-1.5-0.3h-0.6v-2.4h8.6l6.8,13.1v-9c0-0.7-0.1-1.2-0.3-1.3
			c-0.2-0.2-0.6-0.3-1.4-0.3h-0.8v-2.4h8.1v2.4h-0.7c-0.7,0-1.1,0.1-1.4,0.2c-0.2,0.2-0.3,0.6-0.3,1.3v13.9h-5.6l-7.5-13.3v9.5
			c0,0,0.2,1.1,0.4,1.3c0.2,0.2,0.7,0.2,1.4,0.1h0.6v2.4h-8.1v-2.4h0.9c0.7,0,1-0.1,1.3-0.3c0.1-0.2,0.3-0.7,0.3-1.3L466-305.3
			L466-305.3z"/>
		<path d="M485.7-291.5v-2.4h0.9c0.7,0,1-0.1,1.3-0.2c0.1-0.2,0.3-0.6,0.3-1.3v-10c0-0.7-0.1-1.1-0.3-1.3c-0.1-0.2-0.6-0.2-1.3-0.2
			h-0.9v-2.4h18.7v7.3h-2.5c-0.2-1.2-0.3-2-0.5-2.6c-0.2-0.6-0.5-1.1-0.8-1.4s-0.8-0.6-1.4-0.7c-0.5-0.2-1.5-0.2-3-0.2h-2.5v5.7h0.4
			c1-0.6,1.7-0.7,2-1.1c0.3-0.4,0.5-1.1,0.5-2.1h2.8v8.1H497c0-1.3-0.2-2.3-0.5-2.6c-0.4-0.4-1.1-0.6-2.2-0.6h-0.5v5.7h2.3
			c1.9,0,3.2-0.3,3.9-1c0.7-0.6,1.1-1.9,1.3-3.9h2.2v7.3L485.7-291.5L485.7-291.5z"/>
		<path d="M523.9-309.3v7.2h-2.5c0,0-0.3-3-0.9-3.7c-0.6-0.7-1.5-1.1-2.7-1.1h-0.4v11.6c0.2,0.7,0.2,1.1,0.3,1.2
			c0.1,0.2,0.2,0.3,0.3,0.4s0.4,0.2,0.7,0.2c0.3,0,1.9,0.1,1.9,0.1v2h-11.4v-2c0,0,1.5,0,1.9-0.1c0.4,0,0.7-0.1,1-0.2
			c0.2-0.1,0.2-0.2,0.3-0.4c0.1-0.2,0.1-0.6,0-1.2v-0.3v-11.2h-0.2c-1.2-0.1-2.1,0.3-2.8,1.1c-0.6,0.7-0.9,3.8-0.9,3.8H506v-7.3
			L523.9-309.3L523.9-309.3z"/>
		<path d="M524.7-291.6v-2.3h0.9c0.7,0,1-0.1,1.3-0.2c0.1-0.2,0.3-0.6,0.3-1.3v-10c0-0.7-0.1-1.1-0.3-1.3c-0.1-0.2-0.6-0.2-1.3-0.2
			h-0.9v-2.4h10.4c2.3,0,4,0.3,5.1,1c1.1,0.6,1.5,1.6,1.6,2.9c0,1-0.2,2-0.9,2.7c-0.6,0.8-1.6,1.4-2.8,1.8c1.5,0.3,2.7,0.9,3.4,1.6
			c0.7,0.7,1.1,1.7,1.1,3c0,1.8-0.6,3-1.8,3.8c-1.2,0.7-3.3,1.1-6.2,1.1h-10V-291.6z M532.9-302h1.1c1.1,0,2-0.2,2.4-0.6
			c0.5-0.4,0.8-1,0.8-1.9c0-0.8-0.2-1.4-0.8-1.8c-0.5-0.4-1.3-0.5-2.4-0.5h-1.2L532.9-302L532.9-302z M532.8-293.9h1.4
			c1.3,0,2.3-0.2,2.8-0.7c0.6-0.5,0.9-1.2,0.9-2.1c0-1-0.3-1.7-0.9-2.2c-0.6-0.5-1.6-0.7-2.8-0.7h-1.3L532.8-293.9L532.8-293.9z"/>
		<path d="M544.3-291.6v-2.3h0.6c0.6,0,1-0.1,1.3-0.2c0.2-0.2,0.6-0.6,0.8-1.4l4.6-13.8h5.3l4.4,13.8c0.2,0.6,0.5,1.1,0.7,1.4
			s0.6,0.3,1.1,0.3h0.7v2.4H554v-2.4h0.7c0.6,0,1-0.1,1.2-0.2c0.2-0.1,0.3-0.2,0.3-0.5c0-0.1,0-0.2-0.1-0.4c0-0.1-0.1-0.2-0.1-0.2
			l-0.7-2.1h-4.8l-0.6,2c0,0.2-0.1,0.2-0.1,0.4c0,0.2,0,0.2,0,0.3c0,0.2,0.1,0.4,0.2,0.5c0.2,0.1,0.5,0.2,1.1,0.2h1.1v2.4h-8.1
			V-291.6z M554.9-299.6l-1.8-5.7l-1.9,5.7H554.9z"/>
		<path d="M564.6-309.4h9.8v2.4h-0.7c-0.7-0.1-1.2,0-1.4,0.2c-0.2,0.2-0.4,1.3-0.4,1.3v11.6h1.4c1.4,0,2.3-0.1,2.8-0.2
			c0.5-0.2,1-0.3,1.3-0.6c0.4-0.3,0.6-0.8,0.9-1.4c0.2-0.6,0.3-1.5,0.4-2.6h2.1v7.3h-16.3v-2.4h0.9c0.7,0,1-0.1,1.3-0.3
			c0.1-0.2,0.3-0.7,0.3-1.3v-9.9c0-0.7-0.1-1.1-0.3-1.3c-0.1-0.2-0.6-0.2-1.3-0.2h-0.9V-309.4L564.6-309.4z"/>
		<path d="M583.3-309.4h9.8v2.4h-0.7c-0.7-0.1-1.2,0-1.4,0.2c-0.2,0.2-0.4,1.3-0.4,1.3v11.6h1.4c1.4,0,2.3-0.1,2.8-0.2
			c0.5-0.2,1-0.3,1.3-0.6c0.4-0.3,0.6-0.8,0.9-1.4c0.2-0.6,0.3-1.5,0.4-2.6h2.1v7.3h-16.3v-2.4h0.9c0.7,0,1-0.1,1.3-0.3
			c0.1-0.2,0.3-0.7,0.3-1.3v-9.9c0-0.7-0.1-1.1-0.3-1.3c-0.1-0.2-0.6-0.2-1.3-0.2h-0.9L583.3-309.4L583.3-309.4z"/>
	</g>
</g>
<g>
	<g>
		<g>
			<g>
				<path d="M73-112.7c0,0-74.8-8.7-76.7-36.9c0-48.2,206.6-42.8,219.5-28.4c-15.6-4.9-177.6-17-200.5,24
					C-0.1-125.5,73-112.7,73-112.7z"/>
			</g>
			<g>
				<path d="M97.1-166.9v38.4h-7.7v-38.4H97.1z"/>
			</g>
			<g>
				<path d="M168.3-161.1c0,0-0.4,10.2-2.5,12.6c2.7,3.4,2.4,20.9,2.4,20.9h-7.8c0,0,0.3-22-3.9-13.8v12.9h-7.7v-38.4h7.7v16.8
					c2.5,1.5,4.5-11.1,4.5-11.1L168.3-161.1z"/>
			</g>
			<g>
				<path d="M191.8-143.9h-11.2v6.4c0,1.3,0.1,2.2,0.3,2.6c0.2,0.3,0.6,0.6,1.1,0.6c0.7,0,1.1-0.3,1.2-0.8c0.2-0.5,0.3-1.5,0.3-3
					v-3.9h8.6v2.1c-0.4,2-0.5,3.5-0.6,4.6c-0.2,1.1-0.7,2.2-1.5,3.5c-0.8,1.2-1.8,2.1-3,2.8c-1.2,0.6-2.8,1-4.6,1
					c-1.8,0-3.4-0.3-4.7-0.9c-1.3-0.6-2.4-1.4-3.2-2.5c-0.8-1.1-1.2-2.2-1.5-3.5s-0.5-3.1,0-5.5v-9.5c-0.5-2.9-0.2-5.1,0.5-6.7
					s1.7-2.9,3.2-3.7c1.5-0.9,3.2-1.3,5.1-1.3c2.4,0,4.3,0.5,5.9,1.5c1.5,1.1,2.6,2.4,3.3,4.2c0.6,1.7,1,4.2,1.3,7.3v4.7H191.8z
					 M183.4-149.7v-2.4c-0.1-1.7-0.2-2.8-0.3-3.3c-0.2-0.5-0.5-0.8-1-0.8c-0.6,0-1,0.2-1.1,0.6c-0.1,0.4-0.2,1.5-0.6,3.4v2.5H183.4z
					"/>
			</g>
			<g>
				<path d="M204.3-162.1l0.1,1.8c1.1-3.2,5.2-2.3,7.5-2.1c5.7,0.7,4.1,16.6,4.1,16.6h-7c0,0,1.2-10.8-2.5-10.5c0,0-1.4-0.2-1.6,0.8
					c-0.1,0.9-0.3,10.7-0.3,13.8v13.2h-7.7v-33.6H204.3z"/>
			</g>
			<g>
				<path d="M56.2-166.9c0,0,0.6,11-3.6,15.3c4.5,5,4,23.1,4,23.1h-8.9c0,0,0.9-20.3-3.5-16.4c0.1,0.2,0,16.4,0,16.4h-8.6v-38.4h8.6
					v14.9c2.8-0.6,3.8-14.9,3.8-14.9S56.2-166.9,56.2-166.9z"/>
			</g>
			<g>
				<rect x="61.6" y="-166.9" width="7.7" height="3.8"/>
			</g>
			<g>
				<rect x="61.6" y="-161.2" width="7.7" height="32.6"/>
			</g>
			<g>
				<path d="M82.7-166.6v5.4h1.9v5.8h-1.9v17.7c-0.3,2.2-0.2,3.5,0,3.7s2.9,0.4,2.9,0.4v5h-3.3c-1.9,0-3.2-0.1-3.9-0.3
					c-0.8-0.2-1.5-0.7-2.1-1.3c-0.6-0.7-1-1.5-1.1-2.4S75-135.7,75-139v-16.4h-1.9v-5.8H75v-3.8L82.7-166.6z"/>
			</g>
			<g>
				<path d="M209.3-137.2h7.7v8.6h-7.7V-137.2z"/>
			</g>
			<g>
				<path d="M240-147.8h-7.7v-4.8c0-1.7-0.1-2.7-0.4-3.1c-0.3-0.4-0.8-0.6-1.6-0.6c-0.7,0-1.2,0.2-1.5,0.6c-0.3,0.4-0.4,1.4-0.4,3.1
					v16.2c0,1.7,0.1,2.7,0.4,3.1s0.7,0.6,1.5,0.6c0.7,0,1.2-0.2,1.6-0.6c0.3-0.4,0.4-1.4,0.4-3.1v-4.8h7.7v3.5
					c0,4.2-0.8,7.2-2.2,8.9c-1.4,1.7-3.9,2.5-7.4,2.5c-3.5,0-6-0.8-7.4-2.5c-1.4-1.7-2.2-4.6-2.2-8.9v-13.8c0-4.2,0.8-7.1,2.2-8.9
					c1.4-1.7,3.9-2.6,7.4-2.6c3.5,0,6,0.8,7.4,2.6c1.4,1.7,2.2,4.6,2.2,8.9V-147.8z"/>
			</g>
			<g>
				<path d="M243.8-151.3c0-3.9,0.8-6.6,2.2-8.2c1.4-1.5,3.9-2.4,7.4-2.4c3.5,0,6,0.8,7.4,2.4c1.4,1.5,2.2,4.3,2.2,8.2v12.7
					c0,3.9-0.8,6.6-2.2,8.2s-3.9,2.3-7.4,2.3c-3.5,0-6-0.8-7.4-2.3s-2.2-4.3-2.2-8.2V-151.3z M255.3-136.7V-153
					c0-1.7-0.1-2.7-0.4-3.1c-0.3-0.4-0.8-0.6-1.6-0.6c-0.7,0-1.2,0.2-1.5,0.6c-0.3,0.4-0.4,1.5-0.4,3.1v16.3c0,1.7,0.1,2.7,0.4,3.1
					c0.3,0.4,0.7,0.6,1.5,0.6c0.7,0,1.2-0.2,1.6-0.6C255.2-134.1,255.3-135.2,255.3-136.7z"/>
			</g>
			<g>
				<path d="M267.8-128.5v-32.7h7.7v1.8c0.8-0.8,1.5-1.3,2.4-1.7c0.9-0.4,1.8-0.6,2.9-0.6c1,0,2.1,0.3,2.9,0.8
					c0.9,0.5,1.6,1.2,2.3,2.2c0.8-1,1.6-1.7,2.6-2.2c0.9-0.5,2-0.8,3.1-0.8c2.4,0,4.2,0.8,5.2,2.2c1,1.5,1.6,4.1,1.6,7.8v23.1h-7.7
					v-24c0-1.5-0.1-2.5-0.4-2.9c-0.3-0.4-0.8-0.6-1.6-0.6c-0.7,0-1.2,0.2-1.5,0.6c-0.3,0.4-0.4,1.3-0.4,2.9v24h-7.7v-24
					c0-1.5-0.1-2.5-0.4-2.9c-0.3-0.4-0.8-0.6-1.6-0.6c-0.7,0-1.2,0.2-1.5,0.6c-0.3,0.4-0.4,1.3-0.4,2.9v24L267.8-128.5L267.8-128.5z
					"/>
			</g>
			<g>
				<path d="M298.5-165v-1h1.9v1h-1v2.9h-1V-165L298.5-165z"/>
				<path d="M302.3-162.1v-2.9c0.8,0.2,0.7,0.4,0.6,0.6c-0.1,0.2-0.1,0.5,0.4,0.9v0.2v1.3H302.3v-1.5c-0.4-0.4-0.4-0.7-0.5-0.9
					c-0.1-0.2-0.2-0.4-0.5-0.6v2.9h-1v-3.8h1.2c0.1,0.1,0.2,0.3,0.3,0.5c0.1,0.2,0.2,0.4,0.3,0.5c0.1-0.2,0.2-0.4,0.3-0.5
					c0.1-0.2,0.2-0.4,0.4-0.5h1.2v3.8H302.3z"/>
			</g>
			<g>
				<path d="M144.1-147.8h-7.7v-4.8c0-1.7-0.1-2.7-0.4-3.1c-0.3-0.4-0.8-0.6-1.6-0.6c-0.7,0-1.2,0.2-1.5,0.6
					c-0.3,0.4-0.4,1.4-0.4,3.1v16.2c0,1.7,0.1,2.7,0.4,3.1s0.7,0.6,1.5,0.6c0.7,0,1.2-0.2,1.6-0.6c0.3-0.4,0.4-1.4,0.4-3.1v-4.8h7.7
					v3.5c0,4.2-0.8,7.2-2.2,8.9c-1.4,1.7-3.9,2.5-7.4,2.5c-3.5,0-6-0.8-7.4-2.5c-1.4-1.7-2.2-4.6-2.2-8.9v-13.8
					c0-4.2,0.8-7.1,2.2-8.9c1.4-1.7,3.9-2.6,7.4-2.6c3.5,0,6,0.8,7.4,2.6c1.4,1.7,2.2,4.6,2.2,8.9V-147.8z"/>
			</g>
			<g>
				<path d="M101.8-151.3c0-3.9,0.8-6.6,2.2-8.2c1.4-1.5,3.9-2.4,7.4-2.4c3.5,0,6,0.8,7.4,2.4c1.4,1.5,2.2,4.3,2.2,8.2v12.7
					c0,3.9-0.8,6.6-2.2,8.2c-1.4,1.5-3.9,2.3-7.4,2.3s-6-0.8-7.4-2.3c-1.4-1.5-2.2-4.3-2.2-8.2V-151.3z M113.4-136.7V-153
					c0-1.7-0.1-2.7-0.4-3.1c-0.3-0.4-0.8-0.6-1.6-0.6s-1.2,0.2-1.5,0.6c-0.3,0.4-0.4,1.5-0.4,3.1v16.3c0,1.7,0.1,2.7,0.4,3.1
					c0.3,0.4,0.7,0.6,1.5,0.6c0.7,0,1.2-0.2,1.6-0.6C113.3-134.1,113.4-135.2,113.4-136.7z"/>
			</g>
		</g>
	</g>
</g>
<g>
	<rect x="443.3" y="-229.4" class="st2" width="218.9" height="137.2"/>
	<g>
		<path class="st3" d="M551.4-114.4c-1.5-0.1-4.1-0.1-6.8-0.2c-2.6-0.1-5.3-0.4-8-0.7c-2.5-0.2-5-0.6-7.4-0.9
			c-3.9-0.6-7.9-1.4-11.8-2.3c-6.1-1.5-12-3.4-17.8-5.9c-5.3-2.3-10.4-5-15.1-8.4c-3.6-2.6-6.9-5.4-9.7-8.8
			c-2.6-3.1-4.7-6.3-6.1-10.1c-1.5-3.9-2-7.9-1.6-12c0.4-3.6,1.5-7.1,3.2-10.4c1.8-3.4,4.1-6.4,6.8-9.1c3.6-3.7,7.8-6.8,12.3-9.4
			c5.5-3.3,11.3-5.8,17.4-8c5.5-1.9,11.2-3.4,16.9-4.5c3.2-0.7,6.5-1.2,9.7-1.5c2.6-0.3,5.3-0.6,7.8-0.8c3.1-0.2,6.3-0.4,9.4-0.4
			c3.4,0,6.8,0,10.2,0.2c2,0.1,3.9,0.3,6,0.4c1.9,0.1,3.7,0.4,5.6,0.6c2.9,0.4,5.8,0.8,8.7,1.4c4.8,0.9,9.6,2.1,14.2,3.6
			c6.6,2.1,13,4.7,19,8.2c4.2,2.4,8.2,5.2,11.9,8.5c3.1,2.8,5.8,5.9,7.9,9.5c1.7,2.8,2.9,5.9,3.6,9.1c0.9,4.7,0.6,9.3-0.9,13.8
			c-1.3,3.8-3.4,7.2-5.8,10.2c-2.9,3.5-6.3,6.6-10,9.2c-4.5,3.3-9.3,5.9-14.4,8.2c-5.8,2.6-11.7,4.5-17.8,6.1
			c-3.5,0.9-6.9,1.6-10.5,2.2c-2.6,0.4-5.3,0.8-8,1.1C564.4-114.7,558.5-114.4,551.4-114.4z M492.3-189.4c0,0.1,0,0.1,0.1,0.1
			c0.3,0,0.6,0,0.9,0c8.7,0,17.3,0,26,0c0.7,0,1.2,0,1.9,0c1.8,0.1,3.4,0.3,5.1,0.7c3.1,0.7,5.4,2.6,6.8,5.4c0.4,0.7,0.7,1.5,1,2.3
			c0.9,2.6,1.2,5.4,1.4,8.1c0.1,2.5,0.1,5.1,0,7.6c-0.1,2.1-0.4,4.1-0.9,6.1c-0.4,1.5-0.9,3.1-1.8,4.5c-1.3,2.2-3.3,3.7-5.8,4.3
			c-1.2,0.3-2.6,0.4-3.9,0.4c-7.4,0-14.9,0-22.3,0c-0.3,0-0.5,0-0.8,0c-0.1,0-0.3,0.1-0.5,0.1c0,6.8,0,13.4,0,20.2
			c0.3,0.1,0.7,0.3,0.9,0.4c8,3.6,16.5,6,25.1,7.6c3.7,0.7,7.3,1.2,11,1.6c2.3,0.2,4.7,0.5,7.1,0.6c2.6,0.1,5.1,0.2,7.6,0.3
			c5.1,0.1,10.2-0.1,15.3-0.5c2.4-0.2,4.7-0.4,7.2-0.7c3-0.4,5.9-0.9,8.9-1.5c5.3-1.1,10.6-2.4,15.7-4.3c5.7-2,11.2-4.4,16.4-7.5
			c2.4-1.5,4.7-3,7-4.8c0.1-0.1,0.4-0.2,0.5-0.6c-1.2,0-2.3,0-3.5,0s-2.3,0-3.4,0c-1.2,0-2.3,0-3.4,0c-1.2,0-2.3,0-3.4,0
			c-1.2,0-2.3,0-3.6,0c-1.2,0-2.3,0-3.4,0c-1.2,0-2.3,0-3.4,0c-1.2,0-2.3,0.1-3.5-0.1c0-2.5,0-5,0-7.4c0-2.5,0-4.9,0-7.4
			s0-4.9,0-7.4s0-4.9,0-7.4s0-4.9,0-7.4s0-4.9,0-7.4s0-4.9,0-7.4s0-4.9,0-7.4c-0.1-0.1-0.2-0.1-0.4-0.1c-1.2-0.4-2.4-0.7-3.6-1
			c-3.6-1-7.2-1.8-10.8-2.4c-1.9-0.4-3.9-0.7-5.8-0.9c-1.8-0.2-3.5-0.4-5.3-0.6c-1.8-0.1-3.7-0.4-5.4-0.4c-2-0.1-4-0.1-6.1-0.2
			c-3.4-0.1-6.9-0.1-10.3,0.1c-2.8,0.1-5.7,0.3-8.5,0.7c-2.4,0.5-4.5,0.7-6.7,1c-2.6,0.4-5,0.8-7.6,1.3c-5.7,1.1-11.3,2.6-16.8,4.6
			c-4.8,1.8-9.5,3.8-13.9,6.4C492.8-189.7,492.5-189.6,492.3-189.4z M606.8-192.6c-0.1,0.4-0.1,0.7-0.1,1.1c0,13.3,0,26.5,0,39.8
			c0,0.2,0,0.4,0,0.6s0.1,0.3,0.1,0.5c0.2,0,0.4,0,0.7,0c7.2,0,14.2,0,21.4-0.1c0.8,0,1.5,0,2.3-0.1c0.7-1.1,1.3-2.3,1.7-3.5
			c0.5-1.5,0.8-3.2,0.9-4.8c0.2-2.3,0.1-4.6-0.4-6.9c-0.7-3-1.8-5.7-3.4-8.2c-1.9-3-4.3-5.6-6.9-8c-4.7-4.2-10.1-7.4-15.8-10.1
			C607.1-192.5,606.9-192.5,606.8-192.6z M486.3-136.7c0.1-0.4,0.1-0.7,0.1-1c0-10.4,0-20.9,0-31.4c0-5.1,0-10.2,0-15.3
			c0-0.2,0-0.4,0-0.7c0-0.1,0-0.3-0.1-0.4c-0.1,0.1-0.2,0.1-0.3,0.1c-3.1,2.3-6,5-8.5,8c-1.9,2.4-3.5,5-4.6,7.9
			c-1.6,4.1-2,8.2-1.2,12.6c0.6,3.2,1.9,6.1,3.6,8.8c2.8,4.4,6.5,8,10.7,11C486-136.9,486.1-136.8,486.3-136.7z M499.5-162.4
			c0.3,0,0.6,0.1,0.9,0.1c5.7,0,11.4,0,17,0c0.3,0,0.6,0,0.9,0c1.4-0.1,2.4-0.8,2.9-2.1c0.2-0.4,0.4-0.9,0.4-1.4
			c0.1-0.6,0.2-1.1,0.3-1.8c0.1-1.7,0.1-3.4-0.3-5.2c-0.2-0.9-0.6-1.9-1.1-2.6c-0.7-1-1.7-1.5-2.9-1.6c-0.2,0-0.4,0-0.6,0
			c-2.9,0-5.8,0-8.7,0c-2.6,0-5.2,0-7.7,0c-0.3,0-0.6-0.1-0.9,0.1c0,0.1-0.1,0.2-0.1,0.3c0,4.6,0,9.3,0,13.9
			C499.5-162.6,499.5-162.5,499.5-162.4z"/>
		<path class="st3" d="M577.2-157.9c-1.7,0-3.4,0-5.1,0c-1.6,0-3.3,0-4.9,0s-3.3,0-4.9-0.1c-0.2-0.3-0.1-0.6-0.1-0.9
			c0-2.6,0-4.6,0-7.1c0-0.4,0-0.9,0-1.4c0.2-0.1,0.4-0.1,0.5-0.1s0.4,0,0.5,0c8.5,0,17.1,0,25.6,0c0.3,0,0.7,0,0.9,0
			c0.3,0.3,0.2,0.6,0.2,0.8c0,2.2,0,4.4,0,6.6c0,3,0,6.2,0,9.2c0,1.7-0.2,3.5-0.8,5.1c-0.7,2.1-2,3.7-3.9,4.9
			c-1.5,0.9-3,1.4-4.7,1.8c-1.9,0.4-3.7,0.7-5.7,0.7c-3.1,0.1-6.3,0.1-9.6,0.1c-2.6,0-5.1,0-7.7,0c-1.9,0-3.7-0.1-5.6-0.1
			c-1.7-0.1-3.3-0.3-4.9-0.8c-3.6-1-6.2-3.4-7.8-6.8c-0.8-1.7-1.2-3.5-1.5-5.4c-0.3-2.2-0.4-4.5-0.3-6.7c0-2.4,0-4.8,0-7.2
			c-0.1-2.9,0-5.5,0.1-8.3c0.1-2.1,0.4-4.2,1-6.3c0.4-1.3,0.9-2.6,1.7-3.7c1.3-2,3.1-3.4,5.3-4.2c1.5-0.6,3.1-1,4.7-1.2
			c2-0.3,4.1-0.4,6.2-0.4c10.8,0,21.7,0,32.4,0c0.4,0,0.7,0,1.1,0c0,0.2,0.1,0.4,0.1,0.5c0,0.1,0,0,0,0v10.7v0.7
			c-0.4,0-0.5,0.1-0.7,0.5h-1.9c-4.5-0.4-13.3,0-13.3,0h-15.9c0,0-2.4-0.2-3.6,0h-0.1c-2.3,0.6-3.7,1.9-4.2,4.3
			c-0.4,1.5-0.4,4.7-0.4,4.7s0,5.2,0,7.9c0,1.4,0.1,2.7,0.4,4.1c0.7,3.1,2.6,5,5.7,5.6c1.4,0.3,2.9,0.4,4.4,0.4c1.9,0,3.8,0,5.7,0
			c1.3,0,2.7,0,4.1-0.1c1,0,2.1-0.2,3.1-0.5c0.4-0.2,0.8-0.3,1.2-0.5c1.2-0.6,2-1.6,2.4-2.9C577.4-155.1,577.4-156.5,577.2-157.9z"
			/>
	</g>
</g>
<g>
	<g id="Red_Bull_1_">
		<path class="st4" d="M208.3,148.4v-21.2h-11.5v23.4c0,7.9,8.2,14.4,18.3,14.4c10.1,0,18.3-6.4,18.3-14.4v-23.4h-11.5v21.2
			c0,3.5-3,6.4-6.8,6.4C211.3,154.8,208.3,152,208.3,148.4z"/>
		<rect x="259.6" y="101.8" class="st4" width="11.9" height="61.6"/>
		<rect x="239.9" y="101.8" class="st4" width="11.9" height="61.6"/>
		<path class="st4" d="M24.9,115h-6v48.9H6.2v-59.1c0,0,21,0,21.3,0c9.7,0,17.6,7.8,17.6,17.5c0,8.2-5.7,15.1-13.4,17l17.1,24.7
			H34.2l-12.4-19.4v-14.3h2.9c4.5,0,8.2-3.4,8.2-7.6C32.9,118.4,29.5,115,24.9,115z"/>
		<path class="st5" d="M86.2,147.8c0.1-0.8,0.1-1.6,0.1-2.5c0.2-12.7-8.2-19.7-18.9-19.7S48,134.4,48,145.3s8.7,19.7,19.4,19.7
			c8.2,0,14.6-3.7,17.9-9.5l-9.5-4.4c-1.2,2.6-4.1,4.5-7.4,4.5c-4.6,0-7.9-3.4-8-7.3c0-0.3,0-0.4,0-0.4L86.2,147.8z M60.1,140.8
			c0-3.9,3.2-7.2,7.2-7.2c3.9,0,7.2,3.2,7.2,7.2H60.1z"/>
		<path class="st5" d="M132.7,163.4v-61.6h-11.9v29.3c-2.8-3.1-7-5-11.5-5c-9.7,0-17.5,8.6-17.5,19.2c0,10.6,7.8,19.2,17.5,19.2
			c4.6,0,11.9-5.1,11.9-5.1v3.9L132.7,163.4L132.7,163.4z M112.6,154.6c-4.8,0-8.6-4.2-8.6-9.4c0-5.2,3.9-9.4,8.6-9.4
			c4.8,0,8.6,4.2,8.6,9.4C121.2,150.3,117.4,154.6,112.6,154.6z"/>
		<path class="st5" d="M182.3,131.4c3.2-3,5.2-7,5.2-11.4c0-4-1.5-7.7-4.2-10.5c-2.8-3.1-7.8-4.8-14.4-4.8h-20.1v58.7h25.9
			c9.9-0.2,17.9-7.7,17.9-16.9C192.5,139.9,190.1,135.1,182.3,131.4z M172.5,153.6h-11.1V115h7.8c3.4,0,6.2,3.1,6.2,6.5
			c0,3.4-2.8,6.2-6.2,6.2h-4.1v10.7h7.4c4.1,0,7.2,3.4,7.2,7.6C179.6,150.3,177,153.3,172.5,153.6z"/>
	</g>
	<g id="Sun_1_">
		<circle class="st6" cx="139.2" cy="46.8" r="42.5"/>
	</g>
	<g id="Outline_1_">
		<g>
			<path class="st6" d="M136.2,66.5c-2.4-1.4-2.9-4-4.1-5.7c-0.5-0.7-1.4-1.4-1.6-1.9c-2.2-5.5-2.9-8.7-3.7-14
				c-0.4-2.8-2.2-5.1-4.9-8.4c-1.2-1.4-2.8-3.8-4.3-5.2c-4.8-4.1-7.4-6.3-10.7-8.5c-0.7-0.5-1.4-0.8-2-1l0,0l0,0h0l0,0
				c-1.1-0.5-3.4-0.8-3.4-0.8s-0.3,0-0.4,0c-2.4,0-4.7,0.9-7,2.7c-1.7,1.1-3.6,1.7-5.5,2.3c-2.3,0.7-4.8,1.5-6.8,3.2
				c-0.4,0.2-0.7,0.6-1,0.9c-0.5,0.5-0.7,1-1.4,1.2c-0.6,0.1-1,0.1-1.4,0.2c-0.7,0.1-1.5,0.2-2.2,0.3c-2.5,0.6-4.3,2.1-6.3,3.7
				c-0.2,0.2-0.5,0.4-0.7,0.5c-1.3,1-3.5,1.9-4.7,2c-3.5,0.1-5.9,0.9-8.5,2.8c-2.6,2-5.5,4.1-8.6,5.4c-0.7,0.3-1.5,0.4-2.3,0.4
				c-0.8,0-2-0.2-2.9-1c-1.2-1.1-1.6-3.2-0.9-4.6c1.1-2.1,3.2-3.8,5-5.1c2.3-1.7,4.5-4,3.5-7.7c-1.1-3.4-5.3-4.5-8-5.3
				c-0.8-0.2-1.5-0.4-1.9-0.6c-0.9-0.4-1.5-0.8-2.1-1.2c-0.6-0.4-1.2-0.8-1.9-1.1c-0.1,0-0.2-0.1-0.3-0.1c-0.4,0-0.7,0.2-0.9,0.6
				c-1,1.7-1.3,3.5-0.9,5.3c0.7,2.8,3.5,5.4,6.4,5.9c0.3,0.1,0.6,0.1,0.9,0.1c0.3,0,0.6,0,0.9,0.1c-2,1.6-3.8,3.2-5.3,5.1
				c-2.1,2.5-2.7,6.7-1.4,9.7c1.2,3,4.2,5.4,7.3,5.9c0.6,0.1,1.3,0.2,2,0.2c1.1,0,2.2-0.1,3.2-0.2c0.2,0,0.5,0,0.8-0.1
				c0.1,2.4,0.2,3.8,1.5,7.2c0.1,0.2,0,0.6-0.2,0.8c-0.2,0.2-2.1,1-2.7,1.1c-0.2,0-0.5,0-0.7,0c-0.1,0-0.2,0-0.4,0
				c-0.1,0-0.3,0-0.4,0c-0.2,0-0.6,0-0.9,0c-1.2,0.2-1.8,1.2-2.2,2.2c-0.2,0.6-0.5,1.1-0.6,1.6c-0.4,1.1-0.7,1.8-1.4,2.3
				c0,0-1.6-1.4-1.9-1.6c-0.3-0.2-0.8-0.3-1.3-0.3c-1,0-1.9,0.7-2.8,1.3c-0.3,0.2-0.6,0.4-0.8,0.6c-0.7,0.5-1.3,1.3-1.5,2.1
				c-1.2,0.6-2.4,1.3-2.9,2.5c-0.2,0.5-0.3,1.2-0.4,1.7c0,0.3,0,0.6-0.1,0.9c-0.1,0.2-0.2,0.4-0.3,0.6c-0.3,0.5-0.6,1.2-0.6,1.6
				c0,0.9,0.3,1.2,0.8,1.6c0.6,0.4,2.2,0.9,3.4,1.2c0.1,0,0.2,0,0.2,0c0.4,0,0.6-0.2,0.9-0.4c0.1-0.1,0.2-0.2,0.4-0.2
				c0.9,0.2,2.4,0.5,3.7,0.5c0.7,0,1.4-0.1,1.9-0.2c1.4-0.4,2.6-2.3,3.2-3.3c0.2-0.2,0.3-0.5,0.4-0.5c0,0,0,0,0.1,0
				c0.2,0,0.6,0.1,0.9,0.2c0.4,0.1,0.9,0.2,1.4,0.3c1.6,0.1,3.1-0.8,4.1-1.6c0.4-0.3,0.8-0.7,1.3-1.1c0.5-0.5,0.9-0.9,1.4-1.2
				c0.5-0.2,1.1-0.3,1.7-0.3c0.2,0,0.5,0,0.7,0c1.2,0.2,2.6,0.5,4.1,0.5c1.4,0,2.5-0.2,3.5-0.7l0.9-0.5c0.9-0.5,1.9-1,2.9-1.5
				c1.8-1,2.5-2.6,3.1-3.9l0.2-0.3c0.3-0.7,0.9-2.1,1-2.4c0.3,0,0.6,0,0.9,0c1,0,1.9-0.2,2.8-0.4s1.9-0.4,2.8-0.4
				c0.5,0,0.9,0,1.4,0.2c1.7,0.3,3.9,0.7,6.2,0.7c1.3,0,2.5-0.1,3.5-0.4c0.2,0.2,0.6,0.5,0.8,0.7c0.3,0.2,0.5,0.4,0.8,0.7
				c-0.2,0-0.5,0.1-0.8,0.1c-0.8,0.1-1.6,0.2-2.2,0.8c-0.6-0.2-1.3-0.4-2.1-0.4s-1.6,0.1-2.4,0.2c-0.3,0-0.6,0.1-0.9,0.1
				c-1.2,0.1-2.1,0.6-2.5,1.4c-0.2,0.5-0.5,1.1,0,1.9l2.4,4c0.3,0.5,0.8,0.9,1.1,0.9c0.2,0,0.4,0,0.7,0c0.2,0,0.4,0,0.6,0
				c0.4,0,0.6,0.1,0.7,0.2c0.1,0.2,0.2,0.4,0.4,0.5c0.5,0.8,1,1.6,1.8,2.3c1.2,1,3,1.4,4.8,1c0.7-0.2,1.3-0.5,2-0.7
				c2.1-0.7,4.2-1.5,6.3-2.4l3.5-0.5c1.2-0.2,2-1.8,2.3-2.4l0,0c0,0,0-0.1,0.1-0.2c0,0,1-2.1,1.4-3.3c0,0.2,0,0.9,0,0.9
				s0.2,4.4,3.6,4.3c1.8-0.1,4.3-1.2,6-1.5c1.8-0.3,4.2,0.5,6-0.4c1.7-0.7,2.7-2.1,3-1.8c0.7,0.7,3.7,3.5,8.7,3.3
				c2.5-0.1,2.8-2.1,1-3c3.4,0.4,4.4-1.4,3.7-2C137.7,67.4,137.4,67.2,136.2,66.5z M105.8,64.6c-1.3-1.7-2.1-3-2.2-4.5
				c1.6-0.2,3.1-0.7,5.5-0.9C108.5,61.1,106.3,62,105.8,64.6z"/>
			<path class="st6" d="M249.4,76c-0.1-0.3-0.2-0.5-0.3-0.6c-0.1-0.4-0.1-0.8-0.2-1.2c0-0.5,0-0.9-0.2-1.4c-0.4-1.3-1.8-2.2-2.8-2.6
				c0-0.5-0.1-1-0.6-1.4c-1.9-1.4-2.9-2.2-3.5-2.7c-0.3-0.3-0.5-0.3-0.5-0.4c-0.2-0.1-0.5-0.2-0.7-0.2c-0.8,0-1.5,0.7-2.2,1.4
				c-0.2,0.2-0.3,0.3-0.5,0.5H238c-0.2,0-0.6-0.6-0.7-0.9c-0.2-0.5-0.3-1-0.5-1.4c-0.2-0.8-0.5-1.6-0.9-2.4
				c-0.7-1.4-2.2-1.4-3.5-1.4c-0.1,0-0.3,0-0.4,0c-0.6,0-1.4-0.1-1.5-0.5c-0.1-0.4,0.2-1.2,0.3-1.7c0.1-0.4,0.2-0.8,0.3-1.1
				c0.3-1.5,0.4-3.5,0.1-5.1c0.3,0,0.7,0,1,0.1c0.3,0,0.6,0.1,0.9,0.1c0.1,0-0.1,0-0.1,0c2,0,3.7-0.4,5.2-1.2c3-1.8,4.8-4.7,4.9-7.8
				c-0.1-1.6-0.5-2.9-1.3-4.6c-1.1-2.2-3-4.3-5.7-6.6c1.5-0.3,2.8-0.7,4.1-1.5c2.4-1.5,3.5-4.4,3.1-7.9c-0.1-0.9-0.4-2.3-1.2-2.7
				c-0.1,0-0.2-0.1-0.3-0.1c-0.5,0-1,0.6-1.5,1.1c-0.2,0.2-0.3,0.4-0.4,0.5c-0.9,0.7-1.8,0.9-2.8,1.1c-0.5,0.1-1.1,0.2-1.6,0.4
				c-2.4,0.8-6.6,2.6-7,5.9c-0.4,3.3,2,5.5,4.2,7.6c0.8,0.7,1.5,1.4,2.1,2.1c1.3,1.5,2.4,3,2.1,4.7c-0.1,0.6-0.9,1.5-1.7,1.8
				c-0.6,0.2-1.2,0.3-1.9,0.3c-2.1,0-4.1-1.1-5.9-2.2l-0.2-0.2c-4.1-2.8-8.3-5.8-13.6-6.3c-2-0.4-3.7-1.6-5.5-2.8
				c-0.4-0.3-0.8-0.5-1.2-0.8c-1.8-1.1-3.7-1.7-5.7-2c-1.1-0.1-1.9-0.8-2.8-1.5c-0.4-0.4-0.9-0.8-1.5-1.1c-2.1-1.3-4.3-2.2-6.8-2.7
				c-0.2-0.1-0.5-0.1-0.7-0.2c-0.7-0.1-1.3-0.3-1.7-0.8c-0.7-0.8-1.7-1.9-2.8-2.7c-1.5-1-3.9-2.1-6-2.1c-0.4,0-0.9,0-1.3,0.2
				c-1.2,0.3-2.1,1-3,1.7c-0.1,0.1-0.2,0.2-0.4,0.3l0,0c-1.9,1.5-4.5,3.5-6.5,5c-6,4.3-8.2,6.1-11.2,9.4c-7.6,8.3-5.3,20.8-11.9,28
				c-1.7,1.9-2.2,2.1-2.8,2.6c-0.8,0.7-0.9,4.1,4.1,2.4c-2.3,2-0.9,2.8,0.7,2.9c2.6,0,5.5-0.9,8.4-3.9c2,2.8,5.5,1.5,7.2,1.7
				c1.7,0.1,4.8,2,6.6,1.9c2.8-0.2,3.8-2.9,3.5-4.4c0.4,0,0.6-0.1,0.7-0.3c0.3,1.6,0.5,2.7,0.9,3.5c0,0,0,0.1,0.1,0.2l0,0l0,0
				c0.2,0.4,0.6,1.1,1,1.5c0.5,0.6,1.2,0.7,1.7,0.7c0.2,0,0.4,0,0.7,0c0.1,0,0.1,0,0.2,0c0.3,0.1,0.8,0.3,1.1,0.4
				c0.5,0.4,0.9,0.8,1.5,1c2.6,0.7,4.8,1.3,6.9,2c0.4,0.1,1.1,0.3,1.7,0.3c0.2,0,0.4,0,0.6,0c2-0.4,3.7-2.1,4.2-4.1
				c0-0.3,0.2-0.3,0.6-0.3c0.3,0,0.6,0,0.7-0.2c1.1-0.9,1.7-2,2.4-3.2c0.1-0.2,0.3-0.5,0.4-0.7c0.3-0.4,0.4-1.2,0.1-1.9
				c-0.2-0.4-0.6-0.7-1.1-0.9c-1.1-0.3-2.2-0.3-3.2-0.3c-0.2,0-0.4,0-0.6,0s-0.4,0-0.6,0c-0.5,0-1.1,0-1.7,0l-0.4-0.4
				c-0.3-0.3-0.7-0.3-1-0.4c-0.1,0-0.2,0-0.3,0l0.9-0.7c0.4,0,1.1,0,1.1,0s4.3-0.4,6.1-0.8c1.8-0.4,5-0.9,5-0.9s0.5,0,0.7,0
				c0.3,0,0.5,0,0.8,0c1,0.1,2,0.1,3,0.1c1.4,0,2.4-0.1,3.4-0.4c0.1,0.5,0.2,1,0.3,1.5c0.4,1.9,0.7,3.6,2.1,5.2
				c0.8,1.1,1.9,1.7,3,2.4c0.5,0.3,1.1,0.7,1.6,1c0.7,0.4,1.3,0.4,2.1,0.4c1.1,0,2.6-0.5,3.4-0.5c3.4,0,6,1.9,8.9,4.3
				c0.5,0.3,1.1,0.5,1.8,0.5c0.9,0,1.8-0.3,2.7-0.7l0.1,0.1c0.5,0.8,1.1,1.6,1.8,2.2c1.1,1,2.4,1.1,3.6,1.1c0.4,0,0.8,0,1.2,0
				c0.6,0,1.2,0,1.7,0c0.2,0.3,0.7,0.6,1,0.6s4-1.3,4.2-1.3c0.2-0.1,0.5-0.3,0.5-0.3C250.6,78.3,249.9,77,249.4,76z M173.2,64.7
				c-0.9-1.8-1.6-3.4-2.7-5c2.5,0.6,5.4,0.3,5.4,0.3C175.1,61.2,174.2,62.8,173.2,64.7z"/>
		</g>
	</g>
	<g id="Bulls_red_1_">
		<g>
			<path class="st5" d="M188.9,66.5c-0.1-0.2-0.5-0.4-0.5-0.4h-0.2l-1.3,0.4h-0.7h-0.5c-0.3-0.1-0.7,0-0.7,0h0l0,0
				c0,0.1-0.9,1.5-0.8,2.5c0.1,1,1.2,1.2,1.9,1.4c0.3,0,0.6,0.1,0.9,0.1c0.5,0,0.9-0.2,1.1-0.6c0.5-1.2,0.7-2.2,0.9-3.1
				C189,66.7,188.9,66.5,188.9,66.5z"/>
			<path class="st5" d="M244.4,69.8c-0.5-0.7-1.3-1.2-2-1.7c-0.3-0.2-0.6-0.4-0.8-0.5l-0.1-0.1c-0.2-0.1-0.3-0.2-0.5-0.2
				c-0.7,0-1.6,0.9-1.6,1.2c0,0.5,0.6,1.3,1.5,2.3l0.2,0.2c0.4,0.5,0.9,0.8,1.4,0.8l0,0c0.5,0,0.9-0.2,1.3-0.5
				C244,71,244.6,70.3,244.4,69.8z"/>
			<path class="st5" d="M247.9,75.6c-0.1-0.3-0.2-0.5-0.3-0.7c-0.1-0.3-0.1-0.7-0.2-1c-0.1-0.6-0.1-1.1-0.3-1.5
				c-0.2-0.5-0.8-0.9-1.4-0.9c-0.2,0-0.4,0-0.5,0.1c-0.8,0.4-1.3,0.9-1.2,1.8c0.5,1.4,0.7,2.3,1,3.7c0,0.2,0.2,0.9,0.5,0.9
				c0,0,0,0,0.1,0l2.4-0.8c0.1,0,0.2-0.1,0.2-0.2C248.4,76.7,248.1,76.1,247.9,75.6z"/>
			<path class="st5" d="M243.5,77.4c-0.2-1.4-0.6-2.8-1.2-4.2l0-0.1h-0.1c-1.4,0.1-2.3-1-3.1-2.1c-0.3-0.4-0.5-0.7-0.8-1
				c-0.4-0.5-0.9-0.9-1.3-1.3c-0.5-0.4-0.9-0.8-1.1-1.1c-0.2-0.4-0.4-1.2-0.6-1.9c-0.2-0.5-0.3-1.1-0.4-1.4c0-0.1,0-0.2-0.1-0.2
				c-0.2-0.7-0.6-1.5-1.4-1.6c-0.5-0.1-0.9-0.1-1.4-0.1c-1.2,0-2.5-0.3-3.2-1.1c-0.6-0.8-0.3-1.6,0-2.4c0.2-0.4,0.2-0.7,0.3-1
				c0.5-1.5,0.6-3.3,0.2-4.7c0-0.2-0.1-0.4-0.2-0.6c-0.2-0.5-0.4-1.4-0.2-1.6c0.1-0.2,0.3-0.3,0.5-0.3c0.2,0,0.5,0.1,0.7,0.1
				c0.2,0,0.3,0.1,0.5,0.1c0.6,0.2,1.6,0.3,2.4,0.3c1.4,0,2.9-0.3,4.1-0.9c2.4-1.1,4.8-3.8,4.7-7c-0.3-3.3-2.3-6.4-6.2-9.7
				c-0.1-0.1-0.2-0.2-0.3-0.2c-0.5-0.4-1.1-0.9-1.2-1.4c0-0.4,1.2-0.7,2-0.9c0.2,0,0.3-0.1,0.5-0.1l0.2,0c1-0.2,2-0.5,2.8-1.1
				c2.8-1.8,2.7-5.1,2.4-6.9c0,0,0-0.1,0-0.2c0-0.2-0.1-0.5-0.3-0.5c-0.1,0-0.1,0-0.2,0.1c-0.1,0.1-0.2,0.2-0.2,0.2
				c-0.3,0.3-0.7,0.7-1.1,0.9c-0.9,0.5-1.9,0.7-3,0.9c-0.7,0.1-1.3,0.3-2,0.5c-2.8,0.9-4.5,2.3-5.1,4.1c-0.3,0.9-0.2,2.1,0.5,3.2
				c0.9,1.4,2.2,2.7,3.5,3.9c2,1.9,4.1,3.8,4.5,6.5c0.2,1.6-0.4,2.9-1.9,4c-0.8,0.5-1.8,0.7-3,0.7c-1.4,0-3-0.4-4.2-1.1
				c-1.6-0.8-3.2-1.8-4.7-2.9c-2.3-1.5-4.6-3.1-7.2-3.9c-1.2-0.5-2.4-0.8-3.6-1c-1.7-0.4-3.5-0.7-4.9-1.8c-0.5-0.3-1-0.7-1.4-1
				c-1.3-0.9-2.6-1.9-4.1-2.3c-0.6-0.2-1.1-0.3-1.6-0.4c-0.8-0.1-1.6-0.2-2.3-0.7c-0.3-0.2-0.7-0.5-1-0.7c-1.2-0.9-2.5-1.8-3.7-2.4
				c-2.1-1.1-4.4-1.6-7-2.2c-0.8-0.2-1.3-0.8-1.8-1.5c-0.4-0.4-0.7-0.9-1.2-1.2c-2-1.6-3.7-2.6-6-2.6c-0.2,0-0.5,0-0.7,0
				c-1.2,0.1-2.4,1-3.2,1.7c-2.3,2-4.8,3.8-7.1,5.5c-3.6,2.6-7.2,5.2-10.4,8.6c-3.1,3.2-4.2,7.1-5.3,11c-0.2,0.6-0.3,1.1-0.5,1.7
				c-0.3,1.1-0.6,2.1-0.8,3.2c-1.4,5.7-2.9,11.3-8.6,15c-0.4,0.2-0.2,0.7,0.1,0.9c0.2,0,2.5,0.9,4.9-1.5c1.4-1.8,2.2-3.4,3.9-5.2
				c0,0,0.2-0.2,0.4-0.2c0.1,0,0.1,0.1,0.1,0.3c-0.2,0.7-0.7,1.4-1.1,2c-0.5,0.7-0.9,1.3-1.2,2c-0.5,1.6-2.1,2.9-3.4,4.1
				c0,0-0.2,0.1-0.3,0.3c-0.1,0.2-0.1,0.2-0.1,0.2c0,0.4,0.2,0.6,0.8,0.6l0,0c3.2,0,5.5-2.2,7.6-4.4c0.1-0.1,0.2-0.1,0.4-0.1
				c0.1,0,0.2,0,0.4,0c0.2,0.1,0.5,0.4,0.7,0.6c0.7,0.7,1.4,1.3,2.4,1.5l0,0l0,0c1.2-0.2,2.2-0.3,3.3-0.3c0.3,0,0.6,0,0.9,0
				c1.2,0.4,2.3,0.8,3.5,1.2c0.8,0.3,1.6,0.6,2.4,0.9l0,0l0,0c1.1,0,1.8-1,2.4-1.9c0.2-0.6,0.1-1.2,0-1.8c-0.1-0.4-0.1-0.7-0.1-1
				c0.2-0.1,0.5-0.1,0.7,0c0.2,0,0.6,0,0.7,0c0.3,0,0.6-0.4,0.5-0.8c-0.2-1.1-0.7-1.7-1.3-2.5c-0.5-0.7-0.9-1.3-1.1-2.1
				c-0.4-1-1.1-1.8-1.8-2.5c-0.8-0.9-1.6-1.8-1.8-2.8c0,0-0.1-0.2,0-0.3c0.1-0.1,0.3,0,0.3,0c0.4,0.3,0.8,0.6,1.2,0.9
				c1.2,1,2.5,2,4,2.2c1.4,0.1,3,0.3,4.5,0.2c0.4-0.1,0.6-0.4,0.5-0.7c-0.6-1.3-1.2-2.6-1.6-4.1c-0.3-1.1-1-4.1-0.3-6.3
				c0.1-0.2,0.2-0.3,0.3-0.3h0c0.2,0,0.4,0.3,0.5,0.6l0,0.3c0.2,3,0.4,5.9,2.3,8.3c0.5,0.8,1.2,1.2,1.9,1.6c0.5,0.3,1,0.5,1.4,1
				c0.4,0.5,0.5,1.3,0.2,1.8l-2.3,3.3c-0.5,0.8-1.1,1.6-1.2,2.4c-0.2,0.9-0.1,1.7,0,2.4v0.3c0,0-0.1-0.1-0.2-0.2
				c-0.9-1.7-1.1-3.1-0.7-4.2c0.3-0.7,2.2-3.4,2.7-4.2c0.2-0.3,0.3-0.6,0.2-0.7c-0.2-0.2-1.6-0.8-2-0.8c0,0,0,0-0.1,0
				c-0.3,0.1-0.5,0.4-0.7,0.7c0,0-0.1,0.1-0.1,0.2l-2.9,5.1l0,0.2c-0.2,0.5-0.3,1-0.2,1.6c0.2,0.8,0.4,1.6,0.6,2.2
				c0,0.2,0.1,0.3,0.1,0.5c0.2,0.9,0.5,1.7,0.9,2.2c0.2,0.3,0.6,0.4,1,0.4c0.2,0,0.5,0,0.7-0.1c0.4,0,0.7-0.1,1,0
				c0.4,0.1,0.7,0.4,1,0.7c0.3,0.3,0.6,0.7,1.1,0.8c0.9,0.3,1.8,0.5,2.7,0.8c1.2,0.3,2.4,0.6,3.6,1.1c0.7,0.2,1.4,0.4,2.1,0.4
				c0.7,0,1.2-0.2,1.9-0.7c0.9-0.7,1.2-1.5,1.5-2.6c0.2-1,0.5-1,1.2-1.1c0.3,0,0.4,0,0.7-0.1c0.4-0.1,1.4-1.4,1.9-2.4
				c0.2-0.3,0.3-0.5,0.5-0.7c0.2-0.2,0.2-0.5,0.2-0.7c0-0.5-0.4-0.7-0.7-0.7h-0.3c0,0-2.9,0-3.7,0c-1.2,0.1-1.7,1.2-2.2,2.2
				c-0.2,0.4-0.3,0.8-0.5,1.1c-0.3,0.6-0.9,0.9-1.7,0.9c-0.2,0-0.7-0.1-1-0.2c-1.6-0.4-3.2-0.8-3.9-2.4c-0.1-0.3-0.2-0.8,0.2-1.3
				c0.8-1,2-2.2,3.1-3.1c1.6-0.3,3.2-1.5,4-3c0.2-0.2,0.3-0.6,0.4-0.8c0.2-0.4,0.3-0.9,0.7-1.1c0.2-0.1,0.5-0.1,0.5,0.1
				c0.2,0.8-0.2,1.6-0.5,2.4c-0.1,0.2-0.1,0.4-0.2,0.5l0,0.1h0.2c0,0,0.9,0.1,1.4,0.1c1.7,0,3.3-0.3,4.8-0.6
				c1.5-0.3,3.1-0.6,4.8-0.7h0.5c0.7,0.2,1.4,0.2,2.1,0.3c0.7,0,1.4,0.1,2.1,0.1c0.2,0,0.5,0,0.7,0c2.1-0.1,3.6-1,4.1-2.5
				c0.5-1.3,0.4-3.5-0.1-6.6c0-0.2-0.2-0.2-0.2-0.2V52c0-0.1,0-0.2,0.2-0.3c0.2-0.1,0.4,0,0.5,0.2c0.8,2.2,1.2,4.7,1.5,6.5
				c0.3,1.7,1,3.4,2.2,5.3c1.5,2.2,3.9,3.5,6.7,3.5c0.7,0,1.3-0.1,2-0.2c0.5,0,0.6,0,0.9,0c3.6,0,6.7,1.6,9,4.4c0,0,0,0,0,0.1
				c0,0.1-0.2,0.2-0.3,0.2l-0.3-0.2c-2-1.6-4.1-3.1-6.7-3.5c-0.5-0.1-0.9-0.1-1.5-0.1c-0.7,0-1.5,0.1-2.2,0.2
				c-0.7,0.1-1.4,0.2-2.1,0.2c-0.9,0-1.6-0.1-2.3-0.4c-3-1-5.5-4.4-6.2-6.5c0-0.1-0.1-0.2-0.3-0.2c-0.1,0-0.2,0-0.2,0.1
				c-0.3,0.2-0.4,0.3-0.5,0.5c0,0.2,0.2,1.7,0.4,2.4c0.4,1.6,1,4.1,3.1,5c0.2,0.2,0.5,0.3,0.8,0.5c1.1,0.7,2.2,1.4,3.5,1.4
				c0.3,0,0.6,0,0.9-0.1c0.7-0.2,1.5-0.2,2.3-0.2c2.5,0,5,0.8,7.1,2.4c0.4,0.2,0.7,0.5,1,0.7c0.5,0.4,0.9,0.8,1.5,1
				c0.4,0.1,0.7,0.2,1.1,0.2c0.9,0,1.2-0.3,1.9-0.6c0.3-0.2,0.6-0.2,0.8-0.2c0.8,0,1.2,0.6,1.7,1.3c0.3,0.4,0.7,1,1.2,1.4
				c0.7,0.7,1.6,0.8,2.4,0.8c0.4,0,0.8,0,1.2,0c0.4,0,0.9,0,1.1-0.1c0.2,0,0.4-0.1,0.4-0.1L243.5,77.4z M162.5,66.2
				c-0.1,0.2-0.5,0.4-0.9,0.4c-0.4,0-0.8-0.1-1-0.3c-0.6-0.4-0.9-1.1-0.9-2c0-0.2,0-0.4,0.2-0.6c0.1-0.1,0.2-0.1,0.4-0.1
				c0.5,0,1.4,0.4,1.9,0.9C162.2,64.6,162.9,65.6,162.5,66.2z M163.3,53.6c-0.2,0.2-0.5,0.5-0.8,0.3c-0.3-0.1-0.5-0.5-0.7-0.7
				c-0.2-0.3-0.4-0.7-0.8-0.6c0,0,0,0-0.1,0c-0.4,0-0.7,0.2-1,0.5c-0.2,0.1-0.8,0.6-1,0.7c-0.9,0.7-1.8,1.5-2,2.6
				c-0.1,0.4-0.1,0.4-0.1,0.6c-0.1,0.4-0.1,0.7-0.5,0.9h0c0,0-0.1,0-0.1,0c-0.1,0-0.3,0-0.4-0.2c-0.1-0.1-0.2-0.2-0.2-0.4
				c-0.2-1.8,0.5-3.5,1.7-4.6c0.8-0.7,1.5-1.5,2.1-2.3c0.3-0.4,0.6-0.8,1-1.2c0.2-0.2,0.7,0,1.4,0.7c0.3,0.3,1.2,1.8,1.6,2.8
				C163.5,53.3,163.3,53.6,163.3,53.6z M178.3,32.6c-0.3,0.3-0.7,0.7-1.1,1c-1.3,1.2-2.6,2.3-3.5,3.7c-0.4,0.6-0.7,1.2-1,1.8
				c0,0.1-0.1,0.2-0.2,0.2c-0.1,0-0.1,0-0.2-0.1c-0.2-0.2,0-2,0.3-2.8c0.7-1.9,2.3-3.9,4.4-5.4c0.2-0.1,0.5-0.2,0.8-0.2
				c0.4,0,0.7,0.2,0.8,0.5C178.9,31.7,178.8,32.2,178.3,32.6z"/>
		</g>
		<g>
			<path class="st5" d="M93.2,68.5c-0.1-0.1-0.1-0.2-0.2-0.4c-0.2-0.4-0.3-0.8-0.5-1.2c-0.2-0.7-0.4-1.4-1.2-1.3
				c-1.2,0.2-2.3,0.2-3.5,0.2c0,0-0.4,0-0.5,0.3c-0.1,0.3,0.2,0.6,0.5,0.9c0.2,0.2,0.4,0.4,0.5,0.5c0.2,0.3,0.5,0.8,0.7,1.3
				c0.3,0.7,0.6,1.4,1,1.5c0.1,0,0.3,0.1,0.5,0.1c0.8,0,1.8-0.4,2.6-1C93.6,69.1,93.5,68.8,93.2,68.5z"/>
			<path class="st5" d="M37.4,67.3L37.4,67.3c-0.3-0.2-0.7-0.2-1,0c-0.2,0.1-0.4,0.3-0.6,0.4c-0.7,0.4-1.3,0.9-2,1.4
				c-0.2,0.2-0.4,0.6-0.4,0.9c0,0.2,0,0.5,0.1,0.6c0,0.1,0.6,0.6,0.7,0.7c0.2,0.1,0.5,0.3,0.8,0.3c0.2,0,0.5,0,0.7-0.2
				c1.2-0.6,2.5-2.9,2.5-3C38.4,68.1,38,67.8,37.4,67.3z"/>
			<path class="st5" d="M33.4,72.9c-0.2-0.4-1.1-1.4-1.6-1.4c0,0-0.1,0-0.1,0c-0.7,0.3-1.4,1.1-1.4,1.6c-0.2,2.2-0.2,2.5-0.8,3.1
				c-0.2,0.2-0.3,0.6-0.1,0.8c0.2,0.2,2.3,0.9,2.6,0.9h0c0.2,0,0.4-0.6,0.8-2.1c0.2-0.8,0.5-1.8,0.8-2.6
				C33.6,73.2,33.6,73.1,33.4,72.9z M31.9,77.7L31.9,77.7L31.9,77.7L31.9,77.7z"/>
			<path class="st5" d="M99.8,72.6c0.9-0.1,1.8-0.1,2.5-0.8c0.8-1.2,1.5-2.5,2.2-3.7c0.6-1.2,0.6-2.3,0-3.2c-1.7-2.7-2-3.4-2.6-5.2
				v0.2h0c-0.2-0.1-0.4-0.2-0.6-0.3c-0.4-0.2-1.3-0.5-1.3-0.5h-0.3c-0.6,0-1,0.2-1.1,0.5l0,0l3,6c0.2,0.5,0.4,1,0.3,1.6
				c-0.1,0.7-1.6,3-2,3.3c-0.1,0.1-0.2,0.1-0.2,0.1s-0.2,0-0.1-0.4c0.3-1,0.6-3.2,0.5-4c-0.1-0.8-2.6-5-2.7-5.2l0-0.1
				c-0.4-0.6-0.8-1.3-0.7-2.1c0-0.4,0.3-0.6,0.6-0.7c0.5-0.2,0.9-0.2,1.3-0.3c1.1-0.2,2.2-0.5,2.6-1.1c1.2-1.8,1.9-3.7,2.4-6.4
				c0-0.1,0.1-0.3,0.3-0.3c0.1,0,0.2,0,0.2,0.2c0.5,2.5-0.2,5.2-1.7,7.2c-0.1,0.1-0.2,0.4-0.1,0.6c0,0.2,0.3,0.4,0.3,0.4
				c0.6,0.4,2.7,0.2,4.2-0.6c1.2,0,2.3-0.2,3.3-0.4c0.3-0.1,0.7-0.1,1-0.2c0.1,0,0.2,0.2,0.2,0.2c-0.9,1-1.5,2.2-1.7,3.6
				c-0.2,0.2-0.5,0.5-0.8,0.7c-1,0.9-2,1.9-2.1,3.2c0,0,0,0.5,0.5,0.5c0.2,0,0.3-0.1,0.5-0.1c0.2-0.1,0.4-0.2,0.5-0.1
				c0.2,0,0.3,0.2,0.3,0.3l-1.1,1.7c-0.4,0.7-0.2,1.4-0.1,2.1c0.1,0.4,0.1,0.7,0.2,1c0.3,0.8,1.3,1.2,2.1,1.2c1.5-0.1,2.8-0.5,4.1-1
				c0.2-0.1,0.5-0.2,0.7-0.2c1.4-0.6,3.3-0.7,5.5-0.4c1.8-0.1,3.2-1.3,4.5-2.5c0.5,0,1.1,0.3,1.7,1c2,2.1,4.3,3.1,7.3,3.1
				c0.1,0,0.3,0,0.4,0l0.3,0c0.3-0.1,0.4-0.2,0.4-0.4c0-0.2-0.2-0.5-0.5-0.6l-1.7-0.9c-1.3-0.8-2.8-1.9-3.1-3.2
				c-0.4-1.4-1.2-2.9-1.8-3.8c-0.1-0.2-0.2-0.4-0.4-0.6c-0.2-0.3-0.5-0.7-0.7-1l0,0c1.8,0.7,2.8,2,4,4.2c0.9,1.7,3.3,3.4,5.5,3.4
				c0.3,0,0.6,0,0.9-0.1c0.2,0,0.4-0.2,0.4-0.4c0-0.2,0-0.4-0.2-0.5c-0.6-0.3-1.4-0.7-1.4-0.7c-1.6-1-2.5-2.5-3.4-4
				c-0.3-0.6-0.7-1.2-1.1-1.7c-0.2-0.4-0.7-0.8-1.1-1.1c-0.3-0.3-0.7-0.6-0.7-0.7c-1.4-4-3.1-8.7-3.4-13.9c0-0.8-0.6-2.6-1.3-3.7
				c-2.1-3.4-7-9.2-7.3-9.5c-0.2-0.2-0.4-0.4-0.5-0.5l-0.1-0.1l-8.9-7.4c-1.8-1.2-2.3-1.5-3.6-1.9c-0.8-0.3-1.8-0.5-2.8-0.5
				c-1.3,0-2.5,0.2-3.6,0.7c-0.7,0.4-1.4,0.8-2.1,1.2c-1.2,0.7-2.3,1.5-3.6,1.9c-1,0.5-2.1,0.8-3.1,1.1c-2,0.6-4.1,1.3-5.8,2.8
				c-0.5,0.5-0.9,0.8-1.2,1.1c-1.5,1.4-1.7,1.6-2.9,1.6c-2.9,0-5,0.7-7.1,2.5c-1.7,1.5-3.4,3-5.3,3.7c-0.9,0.3-1.9,0.4-2.9,0.5
				c-1.5,0.1-1.7,0.2-3.1,0.5c-2.1,0.5-4.4,2.2-6.3,3.7c-0.6,0.5-1.4,1.1-1.9,1.4c-0.2,0.1-0.5,0.3-0.7,0.4
				c-2.4,1.4-4.6,2.7-7.4,2.7c-0.1,0,0.2,0,0.1,0c-2.1-0.2-4-1.6-4.7-3.6c-0.6-2.2,0-4.4,1.8-6.1c0.8-0.8,1.8-1.6,2.7-2.4
				c1.4-1.2,2.8-2.4,3.8-3.7c1.1-1.5,1-4-0.2-5.3c-1.2-1.3-4-2-5-2.3l-0.2,0c-0.1,0-0.3,0-0.4-0.1c-0.7-0.1-1.3-0.2-1.9-0.4
				c-1.6-0.4-2.9-1.7-4.4-2.5c-0.6,0.9-0.7,1.8-0.7,2.8c0.3,2.2,2.1,4.5,4.1,5.4c0.1,0,0.2,0.1,0.2,0.1c0.7,0.3,1.3,0.3,2,0.3
				c0.1,0,0.3,0,0.4,0c0.1,0,0.3,0,0.4,0c0.4,0,0.9,0,1.3,0.1c0.4,0.1,0.8,0.5,0.9,1c0,0.3-0.1,0.5-0.5,0.8c-0.3,0.3-0.7,0.6-1,0.9
				c-1.8,1.4-3.6,3-5.1,4.8c-2,2.1-2.1,5.9-1.2,8.3c1.2,3.2,4.5,5,7.1,5.3c0.5,0.1,1,0.1,1.5,0.1c1.6,0,3.1-0.4,4.6-0.7
				c0,0,0.1,0,0.1,0c0.1,0,0.2,0,0.2,0.3c0,0.7,0.1,1.4,0.1,2.1c0,1.2,0.1,2.3,0.2,2.8c0.2,1,0.7,2.3,1.1,3.1
				c0.2,0.4,0.2,0.6,0.3,0.8c0.1,0.5,0,1-0.3,1.3c-1.1,1-3.4,1.9-3.8,1.9c-0.7,0.1-1.4,0.1-1.9,0.2c-0.2,0-0.5,0-0.6,0
				c-0.2,0-0.5,0.1-0.6,0.3c-0.3,0.3-0.7,1.2-1.1,2.2c-0.2,0.6-0.5,1.3-0.7,1.8c-0.7,1.2-1.9,1.9-3.1,2.6c-0.3,0.2-0.6,0.3-0.9,0.5
				l0,0c-0.5,0.7-0.9,1.5-1.6,2c-0.5,0.5-1.1,0.5-1.7,0.6h0l0,0c-0.9,1-1.2,2.3-1.5,3.7c0,0.2-0.1,0.4-0.1,0.6l0,0.2h-0.8
				c0.5,0,1,0.2,1.5,0.2c0.7,0.1,1.4,0.3,2,0.3c0.6,0,1.2-0.1,1.7-0.4c0.9-0.4,1.3-1.2,1.8-2c0.3-0.5,0.6-1,1-1.5
				c0.2-0.2,0.5-0.4,0.9-0.4c0.3,0,0.7,0.1,1.1,0.2c0.3,0.1,0.7,0.2,1,0.2c1.6,0.1,3.1-0.9,3.9-1.5c0.3-0.2,0.7-0.5,1-0.9
				c0.5-0.5,1-0.9,1.5-1.2c0.7-0.3,1.5-0.5,2.4-0.5c1.2,0,2.5,0.2,3.5,0.4c0.5,0.1,1.1,0.2,1.7,0.2c1,0,1.9-0.2,2.6-0.6
				c0.9-0.5,1.8-1,2.5-1.4c0.4-0.2,0.8-0.4,1.1-0.6c1.3-0.7,2.4-2.7,2.8-3.5c0.4-0.7,1-2.4,1-2.4l0-0.1l-1.5-1.1l0,0.1
				c0,0-1,1.6-1.6,2.4c-2.6,3.6-6.9,4-10.4,4c-0.2,0-0.5,0-0.7,0c-4.3,0-7.7,1.4-10.2,4.2c-0.1,0.1-0.3,0.2-0.4,0
				c0-0.1-0.1-0.2,0-0.3c0.1-0.3,0.1-0.4,0.3-0.7c2.7-3.8,7.2-4.4,10.9-4.4c2.7-0.2,4.7-0.7,6.4-1.5c2.2-1.1,3.8-3.6,4.5-5.6
				c0.4-1.3,0.6-2.7,0.8-4c0.2-1,0.3-2.2,0.6-3.2c0-0.1,0.2-0.2,0.3-0.2c0,0,0,0,0.1,0c0.1,0,0.4,0.1,0.4,0.3
				c-0.4,2.1-0.9,4.9,0.1,7.3c0.5,1,1.4,1.4,2.9,1.4c0.9,0,1.9-0.2,2.9-0.3c0.7-0.1,1.5-0.2,2-0.2c0.2,0,0.5,0,0.8,0
				c1.2,0,2.4,0.2,3.5,0.5c1,0.2,2,0.4,3,0.5c0.2,0,0.4,0,0.6,0c0.4,0,0.7,0,1.1,0c0.9,0,1.5-0.2,2-0.5c0.3-0.2,0.2-0.6,0.1-1.1
				l0-0.1c0-0.1,0-0.2-0.1-0.3c-0.2-0.7-0.5-1.6,0-2.1c0.1,0,0.2-0.1,0.3-0.1c0.1,0,0.2,0,0.2,0.2c0,0.2,0.1,0.4,0.2,0.6
				c0.2,0.8,0.5,1.6,1,2.3c1,1.3,2.7,2.6,4.7,3.7c1.3,0.9,2.9,2.4,3,4.5c0,1-0.9,1.6-1.6,2c-1.1,0.5-3,1.1-3.8,1.1
				c-0.2,0-0.3,0-0.3,0c-1.2-0.7-1.9-1.7-2.6-2.9c-0.4-0.6-0.7-1.2-1.2-1.8c-0.7-0.7-1.5-1-2.6-0.9c-1.1,0.1-2.1,0.3-3.2,0.5
				c-0.2,0-0.4,0.2-0.5,0.4c-0.1,0.2-0.1,0.5,0.1,0.8c0.6,1.1,1.2,2.1,1.8,3.1l0.3,0.5c0.2,0.2,0.5,0.3,0.7,0.3c0.1,0,0.3,0,0.5,0
				c0.2,0,0.4,0,0.5,0c0.5,0,0.9,0.1,1.1,0.4c0.2,0.3,0.4,0.6,0.5,0.9c0.4,0.7,0.8,1.5,1.5,2c0.7,0.6,1.6,0.9,2.5,0.9
				c0.4,0,0.8-0.1,1.2-0.2c2.8-0.9,5.6-1.8,8.2-3.2C98.4,72.6,99.5,72.6,99.8,72.6z M104.6,41.4c0,0.2-0.2,0.3-0.3,0.3
				c0,0-0.2,0-0.2-0.2c-0.5-2.4-0.7-3.5-1.3-4.6c-0.2-0.4-0.4-0.7-0.6-0.9c-0.4-0.5-0.7-1-0.4-1.6c0.1-0.2,0.4-0.3,0.7-0.3
				c0.2,0,0.3,0,0.4,0.1c0.5,0.2,0.9,0.8,1.4,1.7C105.5,38,104.6,41.4,104.6,41.4z M119.5,65.1c0,0-0.1,0.7-0.4,0.9
				c-0.3,0.3-1.4,0.5-2.1,0.4c-0.6,0-0.8-0.1-0.9-0.3c-0.1-0.2,0.1-0.6,0.1-0.6c0.1-0.2,0.8-1.6,2.2-2c0,0,0.5-0.2,0.9,0
				C119.7,63.8,119.5,64.9,119.5,65.1z M123.6,55.7c-0.1,0.5-0.2,0.8-0.3,0.9c-0.1,0.1-0.2,0.4-0.6,0.4c-0.5,0-0.4-0.5-0.4-0.6
				c0,0,0-1.5-0.3-2.1c-0.3-0.7-1.8-2.5-2.6-2.5c-0.2,0-0.8,0.4-1.2,0.9c-0.5,0.7-0.5,0.7-0.7,0.8c-0.2,0.1-0.4,0-0.4-0.3
				c-0.1-0.4-0.1-0.7,0-1.4c0.2-0.7,0.4-0.9,0.6-1.4c0,0,0.5-1,0.6-1.3c0.5-0.7,1.1-0.7,1.1-0.7c0.2,0,0.7,0,1.2,0.7
				c0.7,0.8,0.5,0.7,0.7,1c0.2,0.3,0.4,0.6,0.9,1.2c0.5,0.6,1.2,1.7,1.3,2.4C123.7,54.5,123.7,55.2,123.6,55.7z"/>
		</g>
	</g>
</g>
<g>
	<g>
		<path class="st7" d="M593.1,60.3c0-1.5-0.5-2.6-1.3-3.2c-0.9-0.6-2-0.9-3.4-0.9c-1.9,0-4.5,0.6-4.5,3.1c0,2.8,5.7,3.1,9.4,4.3
			c6.6,2.3,8.8,6,8.8,10.5c0,9.2-8.9,13.4-17.1,13.4c-8.7,0-16.6-4-16.1-13.7h11.4c0,2,0.5,3.3,1.4,4.3c1,0.9,2.4,0.9,4.3,0.9
			c2.3,0,5.1-1.1,5.1-3.7c0-2.8-3.8-3.2-9.2-4.9c-4.6-1.5-9.1-4-9.1-10.3c0-8.6,8.3-12.5,16-12.5c8,0,15.3,3.1,15.2,12.4h-11V60.3z"
			/>
		<path class="st7" d="M610.1,48.8h18.4c7,0,11.4,3.8,11.4,12.1c0,7.6-6.3,14.2-16.3,14.2h-7.7l-2.4,11.3h-11.3L610.1,48.8z
			 M617.9,66.3h4.3c4.6,0,6-1.7,6-4.2c0-2.8-2.5-3.3-4.9-3.3h-3.8L617.9,66.3z"/>
		<path class="st7" d="M661.5,48.5c10.5,0,16.9,5,16.9,16.3c0,12.5-8.3,22.7-20.9,22.7c-10.5,0-16.9-5.6-16.9-16.3
			C640.5,58.8,648.7,48.5,661.5,48.5 M657.8,78.4c6.9,0,9.1-8.1,9.1-13.7c0-3.4-1.3-6.8-5.8-6.8c-6.9,0-9.1,8.1-9.1,13.7
			C651.9,75,653.3,78.4,657.8,78.4"/>
		<path class="st7" d="M684.7,48.8h19c6.9,0,12.2,1.9,12.2,9.8c0,5.4-3.4,9.4-8.8,10.3v0.8c3.3,0.9,3.8,4,3.8,7.4s-0.4,7.1,0.5,9.2
			h-10.6c-0.4-0.9-0.5-1.9-0.5-3.5c0-1.7,0.6-3.9,0.6-5.7c0-1.8-1.5-3.3-4.5-3.3h-5.8L688,86.4h-11L684.7,48.8z M692.2,66.3h6.1
			c3.8,0,5.7-1.9,5.7-4.2c0-1.5-0.9-3.3-4-3.3h-6.4L692.2,66.3z"/>
		<polygon class="st7" points="727.4,58.8 716.3,58.8 718.4,48.8 751.9,48.8 749.8,58.8 738.7,58.8 733.1,86.4 721.7,86.4 		"/>
		<polygon class="st7" points="577.2,100.2 607.8,100.2 606,109 586.7,109 585.6,114 603.6,114 601.7,122.7 583.8,122.7 
			582.7,127.7 602.5,127.7 600.5,137.8 569.3,137.8 		"/>
		<polygon class="st7" points="611.4,100.2 622.8,100.2 629.6,120.2 629.7,120.2 634,100.2 645,100.2 637,137.8 625.9,137.8 
			619,116.5 618.8,116.5 614.4,137.8 603.5,137.8 		"/>
		<path class="st7" d="M668.4,132.9L668.4,132.9c-2.5,3.1-6.2,4.4-10,4.4c-12.8,0-14.9-10.9-14.9-15.4c0-11.5,6.5-22.9,21-22.9
			c8.3,0,15.1,4.2,15.2,13.7h-10.8c-0.2-3.3-2.3-4.5-5.1-4.5c-6.1,0-8.9,6.5-8.9,12.7c0,4.2,1.8,7,6.3,7c3,0,5.5-1.1,6.7-4h-5
			l1.5-7.5h15.3l-4.2,20.1h-7.3L668.4,132.9z"/>
		<polygon class="st7" points="686.8,100.2 698.3,100.2 692.6,127.7 709.1,127.7 707,137.8 679,137.8 		"/>
		<path class="st7" d="M729.6,100.2h11l5.6,36.3H735l-0.6-5h-11.6l-2.7,5h-11.6L729.6,100.2z M726.8,124h7.2l-1.3-11.3h-0.1
			L726.8,124z"/>
		<polygon class="st7" points="756.1,100.2 767.6,100.2 774.5,120.2 774.6,120.2 778.7,100.2 789.9,100.2 782,137.8 770.6,137.8 
			763.7,116.6 763.7,116.6 759.2,137.8 748.2,137.8 		"/>
		<path class="st7" d="M792.9,100.2h17.3c7,0,15.6,4.3,14.9,16.6c-0.6,12.5-8.5,21-21.5,21h-18.6L792.9,100.2z M798.6,127.7h5.7
			c7.8,0,9.6-8,9.6-11.7c0-5.8-3-7.1-7-7.1h-4.4L798.6,127.7z"/>
		<path class="st8" d="M542.9,90.9c0,0.6,0.3,1.4,0.3,2c-0.1,24.8-15.3,45.9-36.6,55l-0.3-20.1c0,0,0-17.3,10.5-26.4
			C528.9,91.2,542.9,90.9,542.9,90.9"/>
		<path class="st8" d="M460.2,147.9c-21.6-8.9-36.6-30.2-36.6-55c0-0.6,0.3-1.4,0.3-2c0,0,13.8,0.3,25.9,10.5
			c10.5,9.1,10.4,26.4,10.4,26.4S460.2,147.9,460.2,147.9z"/>
		<path class="st8" d="M462.5,69.3c0-11.4,9.4-20.7,20.9-20.7c11.4,0,20.7,9.4,20.7,20.7c0,11.4-9.4,20.7-20.7,20.7
			C471.9,90.2,462.5,80.8,462.5,69.3 M480.8,152.8h2.9h2.9v-28.4c-0.3,0,0-23.2,16.2-37S539,71.1,539,71.1
			c-8.8-22.2-30.2-37.7-55.4-37.7S436.9,49,428.2,71.1c0,0,19.9,2.4,36.3,16.3c16.3,13.8,16.4,37,16.9,37v27.8L480.8,152.8z"/>
	</g>
</g>
<g>
	<path class="st9" d="M37.5,340.4c-9.2-28.9,6.8-59.8,35.7-69c26.5-8.5,54.7,4.4,66.3,28.8c0.2,0.5,0.4,0.9,0.7,1.4
		c0.6,1.3,1,2.7,1.1,2.8c0.2,0.6,0.3,1,0.3,1l0.1-0.1c0,0-0.1-0.4-0.2-0.6c-0.1-0.2-0.1-0.3-0.2-0.5c-0.1-0.2-0.2-0.4-0.2-0.7
		c-9.8-30.8-42.7-47.9-73.5-38.1c-30.8,9.9-47.9,42.8-38.1,73.7S72.2,387,103,377.2c0.3-0.1,0.6-0.2,0.9-0.3c0.1,0,1.3-0.5,1.9-0.7
		c0.1-0.1,0.2-0.1,0.2-0.1v-0.1c0,0-1.2,0.4-2.6,0.8c-0.8,0.2-1.7,0.5-3.5,0.8c-0.3,0.1-1,0.2-1.4,0.2c-1.2,0.2-1.6,0.2-2.7,0.4
		C70.4,381.1,45.5,365.7,37.5,340.4"/>
	<path class="st10" d="M153.3,374.6c0.1,3.3,1,4.9,4.2,4.9c1.9,0,3.2-0.7,3.8-2l1.7,0.7c-0.9,1.8-2.4,2.9-5.6,2.9
		c-4.4,0-6.3-2.2-6.3-7.1c0-4.5,1.6-7.1,6.4-7.1c5.1,0,5.7,3.3,5.7,7.1v0.6L153.3,374.6L153.3,374.6z M157.5,368.5
		c-2.7,0-4,1.1-4.2,4.4h7.9C161.2,370.2,160.6,368.5,157.5,368.5"/>
	<path class="st10" d="M174.8,380.3l-3.4-4.7c-0.3-0.4-0.4-0.7-0.6-1.1c-0.2,0.4-0.3,0.7-0.6,1.1l-3.3,4.7h-2.2l4.9-6.9l-4.6-6.4
		h2.2l3.1,4.3c0.2,0.3,0.4,0.6,0.6,1.1c0.2-0.4,0.3-0.7,0.5-1.1l2.9-4.3h2.3l-4.6,6.5l4.9,6.8L174.8,380.3L174.8,380.3z"/>
	<path class="st10" d="M184.7,381.1c-1.2,0-2.3-0.3-3.2-1.2v7.1h-1.7v-19.9h0.7l0.7,1.6c1.7-1.3,2.7-1.8,4-1.8
		c4.1,0,5.8,2.7,5.8,6.8C191,378.3,189.1,381.1,184.7,381.1 M185.5,368.5c-1.3,0-2.7,0.9-4,1.8v8c1.2,0.9,2.4,1.2,3.6,1.2
		c3,0,4.2-2,4.2-5.8C189.3,370.7,188.4,368.5,185.5,368.5"/>
	<path class="st10" d="M195.6,374.6c0.1,3.3,1,4.9,4.2,4.9c2,0,3.2-0.7,3.8-2l1.7,0.7c-0.9,1.8-2.5,2.9-5.5,2.9
		c-4.3,0-6.3-2.2-6.3-7.1c0-4.5,1.6-7.1,6.4-7.1c5.1,0,5.7,3.3,5.7,7.1v0.6L195.6,374.6L195.6,374.6z M199.6,368.5
		c-2.7,0-4,1.1-4.2,4.4h7.9C203.3,370.2,202.6,368.5,199.6,368.5"/>
	<path class="st10" d="M214.1,368.9c-1.1,0-1.8,0.2-2.9,1.1l-0.7,0.7v9.7H208v-13.3h1.6l0.3,1.4l1.1-0.9c0.8-0.7,1.9-0.8,2.4-0.8
		c0.6,0,0.8,0.1,1.1,0.2v2.2c-0.4-0.2-0.8-0.2-1.2-0.2"/>
	<path class="st10" d="M219.6,365.4h-2.3c-0.1,0-0.2-0.1-0.2-0.2v-2.2c0-0.1,0.1-0.2,0.2-0.2h2.1c0.2,0,0.2,0,0.2,0.3v2.1
		c0,0.2,0,0.2-0.2,0.2 M217.1,367.1h1.7v13.3h-1.7V367.1z"/>
	<path class="st10" d="M223.7,374.6c0.1,3.3,1,4.9,4.2,4.9c2,0,3.2-0.7,3.8-2l1.7,0.7c-0.9,1.8-2.4,2.9-5.6,2.9
		c-4.4,0-6.3-2.2-6.3-7.1c0-4.5,1.6-7.1,6.4-7.1c5.1,0,5.7,3.3,5.7,7.1v0.6L223.7,374.6L223.7,374.6z M228.1,368.5
		c-2.7,0-4,1.1-4.2,4.4h7.9C231.8,370.2,231.2,368.5,228.1,368.5"/>
	<path class="st10" d="M245.3,380.7v-8.8c0-2.6-1.1-3.2-2.6-3.2c-1.1,0-1.7,0.3-2.9,1.1l-1.2,0.8v9.7H237v-13.3h1.3l0.4,1.9l1-0.7
		c1.2-0.9,2.3-1.3,3.5-1.3c2.7,0,4.8,1.4,4.6,5.1v8.2h-2.5V380.7z"/>
	<path class="st10" d="M256.8,381.1c-4.7,0-6.3-2.6-6.3-7.1c0-4.6,1.6-7.1,6.3-7.1c2.4,0,3.7,0.8,4.9,2.5l-1.6,0.8
		c-0.3-0.4-0.6-0.7-1-1.1c-0.5-0.3-1.2-0.6-2.2-0.6c-2.9,0-4.3,1.2-4.3,5.5c0,4.2,1.2,5.5,4.3,5.5c2,0,2.7-0.7,3.4-1.7l1.5,0.8
		C260.5,380.4,259,381.1,256.8,381.1"/>
	<path class="st10" d="M266,374.6c0.1,3.3,1,4.9,4.2,4.9c2,0,3.2-0.7,3.8-2l1.8,0.7c-0.9,1.8-2.5,2.9-5.5,2.9
		c-4.3,0-6.3-2.2-6.3-7.1c0-4.5,1.6-7.1,6.4-7.1c5.1,0,5.7,3.3,5.7,7.1v0.6L266,374.6L266,374.6z M269.8,368.5c-2.7,0-4,1.1-4.2,4.4
		h7.9C273.5,370.2,272.9,368.5,269.8,368.5"/>
	<path class="st10" d="M282.8,381.1c-2.3,0-4.5-1-5.1-3l1.8-0.6c0.5,1.3,1.7,2,3.4,2c2.6,0,3.5-1.1,3.5-2.7c0-1.2-0.7-1.8-1.8-2
		l-3.4-0.6c-1.8-0.3-3.1-1.4-3.1-3.5c0-2.4,1.7-4,5.1-4c2.1,0,3.9,0.7,4.8,2.3l-1.6,0.8c-0.6-0.8-1.4-1.5-3.1-1.5
		c-2.2,0-3.2,0.9-3.2,2.3c0,0.8,0.2,1.5,1.7,1.7l3.3,0.5c1.9,0.3,3.4,1.6,3.4,3.7C288.3,380,285.8,381.1,282.8,381.1"/>
	<path class="st11" d="M90.4,355.8c-12.6,0-21.5-4.8-26.7-16.1l13.8-6.4c3.1,5.9,6,8.3,13,8.3c6.6,0,8.1-2.1,8.1-5.2
		c0-2.6-0.7-4-4.2-4.6l-12.8-2.2c-10.1-1.7-15.8-8.1-15.8-18.1c0-13.8,12.9-18.4,24.7-18.4c11,0,19.1,3.2,24.9,12.8l-13.8,6.5
		c-2.5-3.9-5.5-5.5-11.2-5.5c-5.5,0-7.3,1.5-7.3,3.6c0,2.3,1,3.3,2.9,3.6c13.5,2.1,29.8,2.2,29.8,21.2
		C116,349.3,105.3,355.8,90.4,355.8"/>
	<path class="st11" d="M145.3,356.2c-2,0-4-0.3-6.1-1.3v26.3H121v-71.3h13.9l1,2.9c3.5-2.8,7.7-4.3,12.1-4.3
		c12.8,0,22.5,6.3,22.5,23.6C170.4,347.9,161.2,356.2,145.3,356.2 M143.6,319.7c-1.5,0-3.1,0.4-5.2,1.4v22.5
		c1.9,0.6,3.3,0.9,4.7,0.9c5.7,0,7.9-4.3,7.9-12.7C151,324.5,149.2,319.7,143.6,319.7"/>
	<path class="st11" d="M197.6,355.9c-18.5,0-25.3-9.9-25.3-23.6s6.8-23.7,25.3-23.7s25.4,9.9,25.4,23.6
		C222.9,345.8,216,355.9,197.6,355.9 M197.6,320.7c-4.8,0-7.4,2.2-7.4,11.6c0,9.3,2.6,11.5,7.4,11.5c4.8,0,7.5-2.2,7.5-11.6
		S202.4,320.7,197.6,320.7"/>
	<path class="st11" d="M253.5,323.1c-3.2,0-6.5,0.4-9,1.7v29.9H227v-44.7h14.8l1.6,4.1c2.8-3.9,7.2-5.4,11.9-5.4
		c1.3,0,2.7,0.1,4,0.3v14.6c-1.7-0.4-3.6-0.6-5.6-0.6"/>
	<path class="st11" d="M291.3,355.9c-9.2,0-17.9-3.4-17.9-15.3V324h-9.9v-14.9h9.9v-13.2l17.4-4.9v18.1h16.7l-4.6,14.9h-12.1v16.5
		c0,1.8,1.2,2.4,2.6,2.4c1.8,0,4.1-1,5.3-2.1l9.5,9c-4.2,3.8-10.9,6-17.2,6"/>
	<path class="st12" d="M42.4,341.3c-8.8-27.7,6.5-57.4,34.3-66.1c25.8-8.2,53.3,4.6,64,28.8c0.2,0.6,0.6,1.2,0.7,1.8h0.2l-0.1-0.2
		c-9.5-29.2-40.8-45.4-70.2-36C41.8,279,25.4,310.5,34.8,340c9.4,29.5,40.9,45.9,70.4,36.5c0.3-0.1,0.9-0.3,0.9-0.3h-0.1
		c0,0,0.1,0-0.2,0.1C78.9,383.3,50.9,368.1,42.4,341.3"/>
	<path class="st11" d="M72.9,397.2c0,0.2,0,0.6,0,0.6s0.5,0.2,0.4,0.3c0,0.1-0.1,0.2-0.1,0.2s-0.1,0.1-0.2,0.1s-0.1,0-0.2-0.1
		c-0.1,0-0.2-0.1-0.2-0.1c-0.1,0-0.2-0.1-0.3-0.1c-0.2,0-0.3-0.1-0.5-0.1c-0.2,0-0.4,0-0.6,0.1c-0.2,0.1-0.2,0.2-0.4,0.3
		c-0.1,0.2-0.2,0.3-0.2,0.6c-0.1,0.2-0.2,0.9-0.2,0.9v1.1h2.1c0.1,0,0.2,0,0.2,0.1c0.1,0,0.1,0.1,0.2,0.2c0,0.1,0.1,0.3,0.1,0.4
		c0,0.2,0,0.3,0,0.6c0,0.4,0,0.8-0.1,0.9c-0.1,0.2-0.2,0.3-0.3,0.3h-2.1v8.6c0,0.1,0,0.2-0.1,0.2s-0.2,0.1-0.3,0.2
		c-0.1,0-0.3,0.1-0.5,0.1c-0.2,0-0.4,0-0.8,0c-0.3,0-0.5,0-0.8,0c-0.2,0-0.3-0.1-0.5-0.1c-0.1,0-0.2-0.1-0.3-0.2
		c-0.1-0.1-0.1-0.2-0.1-0.2v-8.6h-1.3c-0.2,0-0.2-0.1-0.3-0.3c-0.1-0.2-0.1-0.5-0.1-0.9c0-0.3,0-0.4,0-0.6c0-0.2,0.1-0.3,0.1-0.4
		c0-0.1,0.1-0.2,0.2-0.2c0.1,0,0.2-0.1,0.2-0.1h1.2v-0.9c0-0.7,0.1-1.4,0.2-1.9c0.2-0.6,0.4-1,0.6-1.4c0.3-0.3,0.7-0.7,1.1-0.8
		c0.5-0.2,1-0.2,1.7-0.2c0.3,0,0.6,0,0.9,0.1c0.2,0.1,0.5,0.1,0.6,0.2s0.2,0.1,0.3,0.2s0.1,0.2,0.2,0.2c0,0.1,0.1,0.2,0.1,0.4
		C72.8,396.8,72.9,397.1,72.9,397.2z M85.3,406.7c0,0.9-0.1,1.7-0.3,2.5c-0.2,0.7-0.6,1.4-1.1,2c-0.5,0.6-1.1,1-1.8,1.2
		c-0.7,0.3-1.6,0.4-2.6,0.4c-1,0-1.8-0.2-2.5-0.4c-0.7-0.2-1.3-0.7-1.7-1.2c-0.5-0.5-0.8-1.2-1.1-1.9c-0.2-0.7-0.3-1.6-0.3-2.6
		c0-0.9,0.1-1.7,0.3-2.6c0.2-0.7,0.6-1.4,1.1-2s1.1-1,1.8-1.2c0.7-0.3,1.6-0.4,2.6-0.4s1.8,0.2,2.5,0.4c0.7,0.2,1.3,0.7,1.7,1.2
		c0.5,0.5,0.8,1.2,1.1,1.9C85.2,404.8,85.3,405.8,85.3,406.7z M82.1,406.8c0-0.5-0.1-1-0.2-1.5c-0.1-0.4-0.2-0.8-0.4-1.2
		c-0.2-0.3-0.5-0.6-0.8-0.7c-0.3-0.2-0.7-0.2-1.2-0.2c-0.4,0-0.8,0.1-1.2,0.2c-0.3,0.2-0.6,0.4-0.8,0.7c-0.2,0.3-0.4,0.7-0.5,1.2
		c-0.1,0.4-0.2,1-0.2,1.6c0,0.5,0.1,1,0.2,1.5c0.1,0.4,0.2,0.8,0.4,1.2c0.2,0.3,0.5,0.6,0.8,0.7s0.7,0.2,1.2,0.2
		c0.5,0,0.8-0.1,1.2-0.2s0.6-0.4,0.8-0.7c0.2-0.3,0.4-0.7,0.5-1.2C82.1,407.9,82.1,407.4,82.1,406.8z M94.5,402.4c0,0,0,0.4,0,0.7
		c0,0.2,0,0.4-0.1,0.4c0,0.1-0.1,0.2-0.2,0.3c-0.1,0-0.1,0.1-0.2,0.1c-0.1,0-0.2,0-0.3-0.1c-0.1,0-0.2-0.1-0.3-0.1s-0.3-0.1-0.4-0.1
		s-0.3-0.1-0.4-0.1c-0.2,0-0.4,0-0.5,0.1c-0.2,0.1-0.4,0.2-0.5,0.4c-0.2,0.2-0.4,0.4-0.6,0.6c-0.2,0.3-0.4,0.6-0.7,1v6.6
		c0,0,0.4,0.2,0.3,0.2c-0.1,0.1-0.2,0.1-0.2,0.2c-0.1,0-0.2,0.1-0.5,0.1h-0.7h-0.7c-0.2,0-0.3-0.1-0.5-0.1c-0.1,0-0.2-0.1-0.2-0.2
		s0.1-0.2,0.1-0.2v-10.9c0,0-0.2-0.2-0.1-0.2c0-0.1,0.1-0.1,0.2-0.2c0.1,0,0.2-0.1,0.4,0.2H89h0.7c0.2-0.3,0.3-0.2,0.4-0.2
		c0.1,0,0.2,0.1,0.2,0.2c0,0.1,0.1,0.2,0.1,0.2v1.3c0.3-0.4,0.6-0.7,0.8-1c0.2-0.2,0.5-0.5,0.7-0.7c0.2-0.2,0.4-0.2,0.7-0.3
		s0.7,0.4,0.7,0.4h0.3c0,0,0.2-0.5,0.4-0.4c0.2,0,0.2,0.1,0.3,0.1s0.2,0.1,0.2,0.1s0.1,0.1,0.1,0.2s0,0.1-0.2,0.2v0.4
		C94.7,401.9,94.5,402.4,94.5,402.4z M108.6,411.1c0,0.3,0,0.7-0.1,0.8c-0.1,0.2-0.1,0.3-0.2,0.4c-0.1,0.1-0.2,0.2-0.3,0.2
		c-0.2,0.1-0.3,0.1-0.5,0.2s-0.6-0.1-0.6-0.1s-0.6,0-0.8,0c-0.6,0-1.1-0.1-1.5-0.2s-0.8-0.4-1-0.7c-0.3-0.3-0.5-0.7-0.6-1.2
		c-0.2-0.5-0.2-1-0.2-1.7v-5.2h-1.3c-0.2,0-0.2-0.1-0.3-0.2c-0.1-0.2-0.1-0.5-0.1-0.9c0-0.2,0-0.7,0-0.7s0-0.2,0-0.4
		c0-0.1,0.1-0.2,0.2-0.2c0.1,0,0.2-0.1,0.2-0.1h1.2v-2.4c0.1-0.1,0.1-0.2,0.2-0.2c0.1-0.1,0.2-0.1,0.2-0.2c0.1-0.1,0.5-0.5,0.5-0.5
		h0.7h0.7c0.2,0.4,0.3,0.5,0.5,0.5c0.1,0.1,0.2,0.1,0.2,0.2s0.1,0.2,0.1,0.2v2.4h2.3c0.1,0,0.2,0,0.2,0.1c0.1,0,0.1,0.1,0.2,0.2
		c0,0.1-0.2,0.4-0.2,0.4v0.6c0,0,0.3,0.7,0.2,0.9c-0.1,0.2-0.2,0.2-0.3,0.4h-2.3v4.9c-0.1,0.6,0,1,0.2,1.3c0.2,0.3,0.5,0.4,1,0.4
		c0.2,0,0.3,0,0.4-0.1c0.2,0,0.2-0.1,0.3-0.1c0.1,0,0.2-0.1,0.2-0.1c0.1,0,0.2-0.1,0.2-0.1c0.1,0,0.1,0,0.2,0.1
		c0.1,0,0.1,0.1,0.1,0.2s0.1,0.2,0.1,0.3C108.6,410.7,108.6,410.9,108.6,411.1z M121.1,411.8c0,0.5,0,0.6-0.1,0.6
		c-0.1,0.1-0.2,0.1-0.2,0.2c-0.1,0-0.5,0-0.5,0s-0.7,0-1,0s-0.6,0-0.7,0c-0.2,0-0.3-0.1-0.5-0.1c-0.1,0-0.2-0.1-0.2-0.2
		c-0.1-0.1-0.1-0.2-0.1-0.2V406c0-0.5,0-0.9-0.1-1.2c-0.1-0.3-0.2-0.6-0.3-0.7c-0.2-0.2-0.3-0.4-0.6-0.5c-0.2-0.1-0.5-0.2-0.8-0.2
		c-0.4,0-0.7,0.2-1.1,0.4s-0.8,0.7-1.2,1.2v7.1c0,0.1,0,0.2-0.1,0.2c-0.1,0.1-0.2,0.1-0.3,0.2c-0.1,0-0.3,0.1-0.5,0.1
		c-0.2,0-0.4,0-0.8,0s-0.6,0-0.8,0c-0.2,0-0.3-0.1-0.5-0.1c-0.1,0-0.2-0.1-0.3-0.2c-0.1-0.1-0.1-0.2-0.1-0.2v-15.6
		c0-0.1,0-0.2,0.1-0.2s0.2-0.1,0.3-0.2c0.1-0.1,0.3-0.1,0.5-0.1c0.2,0,0.4,0,0.8,0s0.6,0,0.8,0c0.2,0,0.3,0.1,0.5,0.1
		c0.1,0.1,0.2,0.1,0.3,0.2c0.1,0.1,0.1,0.2,0.1,0.2v5.8c0,0,1.3-0.9,1.8-1.2c0.6-0.2,1.1-0.4,1.7-0.4c0.7,0,1.3,0.1,1.8,0.3
		c0.5,0.2,0.9,0.6,1.2,1c0.3,0.4,0.5,0.9,0.7,1.5c0.2,0.6,0.2,1.2,0.2,2.1L121.1,411.8L121.1,411.8z M134.1,406.9
		c0,0-0.1,0.3-0.2,0.5c-0.2,0.2-0.4,0.2-0.7,0.4h-6.5c0,0.4,0.1,0.8,0.2,1.1c0.1,0.4,0.2,0.7,0.5,1c0.2,0.2,0.6,0.5,0.9,0.6
		c0.4,0.2,0.8,0.2,1.3,0.2s1,0,1.4-0.1c0.4-0.1,0.7-0.2,1.1-0.2c0.3-0.1,0.6-0.2,0.7-0.2c0.2-0.1,0.3-0.1,0.5-0.1
		c0.1,0,0.2,0,0.2,0.1c0.1,0,0.1,0.1,0.1,0.2c0,0.1,0.1,0.2-0.1,0.3v0.5v0.4v0.3c0.2,0.1,0.2,0.2,0.1,0.2c0,0.1-0.1,0.1-0.2,0.2
		c-0.1,0.1-0.2,0.2-0.4,0.2c-0.2,0.1-0.5,0.2-0.9,0.2c-0.3,0.1-0.7,0.2-1.2,0.2c-0.5,0.1-1,0.1-1.5,0.1c-1,0-1.8-0.1-2.6-0.3
		c-0.7-0.2-1.3-0.6-1.8-1.1c-0.5-0.5-0.8-1.1-1.1-1.9c-0.2-0.7-0.3-1.7-0.3-2.7c0-1,0.2-1.8,0.4-2.6c0.2-0.7,0.6-1.4,1.1-2
		c0.5-0.5,1.1-0.9,1.7-1.2c0.7-0.2,1.5-0.4,2.3-0.4c0.9,0,1.7,0.2,2.3,0.4c0.7,0.2,1.2,0.7,1.6,1.1c0.4,0.5,0.7,1,0.9,1.7
		c0.2,0.7,0.3,1.3,0.4,2.1v0.9H134.1z M130.9,405.9c0-0.8-0.2-1.5-0.5-2c-0.3-0.5-0.9-0.7-1.7-0.7c-0.4,0-0.7,0.1-1,0.2
		s-0.5,0.3-0.7,0.6c-0.2,0.2-0.3,0.5-0.4,0.9c-0.1,0.3-0.2,0.7-0.2,1.1L130.9,405.9L130.9,405.9z M152.6,411.8c0,0.5,0,0.6-0.1,0.6
		c-0.1,0.1-0.2,0.1-0.2,0.2c-0.1,0-0.5,0-0.5,0H151h-0.7c-0.2,0.1-0.3,0-0.5,0c-0.1,0-0.2-0.1-0.2-0.2c-0.1-0.1-0.1-0.2-0.3-0.2
		v-6.1c0.3-0.5,0.3-0.9,0.2-1.2c-0.1-0.3-0.2-0.6-0.3-0.7c-0.2-0.2-0.3-0.4-0.6-0.5c-0.2-0.1-0.5-0.2-0.8-0.2
		c-0.4,0-0.7,0.2-1.2,0.4s-0.8,0.7-1.4,1.2v7.2c0.2,0.1,0.2,0.2,0.1,0.2c-0.1,0.1-0.2,0.1-0.2,0.2c-0.1,0-0.5,0.8-0.5,0.8
		s-0.1,0-0.4,0s-0.5,0-0.7,0s-0.3-0.1-0.5-0.1c-0.1,0-0.2-0.1-0.2-0.2c-0.1-0.1-0.1-0.2-0.1-0.3v-11.4c0-0.1,0-0.2,0.1-0.3
		c0-0.1,0.1-0.1,0.2-0.2c0.1,0,0.2-0.1,0.4-0.1s0.4,0,0.6,0s0.5,0,0.6,0s0.3,0.1,0.4,0.1s0.2,0.1,0.2,0.2s0.1,0.2,0.1,0.3v1.1
		c0,0,1-1.2,1.6-1.5c0.6-0.3,1.2-0.5,1.9-0.5c0.7,0,1.3,0.1,1.8,0.3c0.5,0.2,0.9,0.6,1.2,1c0.3,0.4,0.5,0.9,0.7,1.5
		c0.2,0.6,0.2,1.2,0.2,2L152.6,411.8L152.6,411.8z M165.6,406.9c0,0-0.1,0.3-0.2,0.5c-0.2,0.2-0.4,0.2-0.7,0.4h-6.5
		c0,0.4,0.1,0.8,0.2,1.1c0.1,0.4,0.2,0.7,0.5,1c0.2,0.2,0.6,0.5,0.9,0.6c0.4,0.2,0.8,0.2,1.3,0.2s1,0,1.4-0.1
		c0.4-0.1,0.7-0.2,1.1-0.2c0.3-0.1,0.6-0.2,0.7-0.2c0.2-0.1,0.3-0.1,0.5-0.1c0.1,0,0.2,0,0.2,0.1c0.1,0,0.1,0.1,0.1,0.2
		c0,0.1,0.1,0.2-0.1,0.3v0.5v0.4v0.3c0.2,0.1,0.2,0.2,0.1,0.2c0,0.1-0.1,0.1-0.2,0.2c-0.1,0.1-0.2,0.2-0.4,0.2
		c-0.2,0.1-0.5,0.2-0.9,0.2c-0.3,0.1-0.7,0.2-1.2,0.2c-0.5,0.1-1,0.1-1.5,0.1c-1,0-1.8-0.1-2.6-0.3c-0.7-0.2-1.3-0.6-1.8-1.1
		c-0.5-0.5-0.8-1.1-1.1-1.9c-0.2-0.7-0.3-1.7-0.3-2.7c0-1,0.2-1.8,0.4-2.6c0.2-0.7,0.6-1.4,1.1-2c0.5-0.5,1.1-0.9,1.7-1.2
		c0.7-0.2,1.5-0.4,2.3-0.4c0.9,0,1.7,0.2,2.3,0.4c0.7,0.2,1.2,0.7,1.6,1.1c0.4,0.5,0.7,1,0.9,1.7c0.2,0.7,0.3,1.3,0.4,2.1v0.9H165.6
		z M162.4,405.9c0-0.8-0.2-1.5-0.5-2s-0.9-0.7-1.7-0.7c-0.4,0-0.7,0.1-1,0.2s-0.5,0.3-0.7,0.6c-0.2,0.2-0.3,0.5-0.4,0.9
		c-0.1,0.3-0.2,0.7-0.2,1.1L162.4,405.9L162.4,405.9z M177.1,412c0.1,0.2,0.1,0.2,0.1,0.3c0,0.1-0.1,0.2-0.2,0.2s-0.2,0.1-0.5,0.1
		s-0.6,0-0.9,0c-0.3,0-0.7,0-0.9,0s-0.4,0-0.5-0.1c-0.2,0-0.2-0.1-0.2-0.2c-0.1-0.1-0.1-0.1-0.2-0.2l-2-3.8l-2,3.8
		c0,0.1-0.1,0.2-0.2,0.2c-0.1,0.1-0.2,0.1-0.2,0.2c-0.1,0-0.2,0.1-0.5,0.1s-0.5,0-0.8,0s-0.7,0-0.8,0c-0.2,0-0.3-0.1-0.5-0.1
		c-0.1-0.1-0.2-0.2-0.2-0.2c0-0.1,0-0.2,0.1-0.3l3-5.3l-2.7-5c-0.1-0.2-0.1-0.2-0.1-0.3s0.1-0.2,0.2-0.2c0.1-0.1,0.2-0.1,0.5-0.1
		c0.2,0,0.6,0,0.9,0s0.7,0,0.8,0c0.2,0,0.4,0,0.5,0.1c0.1,0,0.2,0.1,0.2,0.1c0.1,0.1,0.1,0.1,0.2,0.2l1.9,3.6l1.9-3.6
		c0-0.1,0.1-0.1,0.1-0.2c0.1-0.1,0.2-0.1,0.2-0.1c0.1,0,0.2-0.1,0.4-0.1s0.4,0,0.7,0s0.7,0,0.8,0c0.2,0,0.3,0.1,0.5,0.1
		c0.1,0.1,0.2,0.2,0.2,0.2c0,0.1-0.1,0.2-0.2,0.4l-2.7,4.9L177.1,412z M185.5,411.1c0,0.3,0,0.7-0.1,0.8c-0.1,0.2-0.1,0.3-0.2,0.4
		c-0.1,0.1-0.2,0.2-0.3,0.2c-0.2,0.1-0.3,0.1-0.5,0.2s-0.6-0.1-0.6-0.1s-0.4,0-0.7,0c-0.6,0-1.1-0.1-1.5-0.2c-0.4-0.2-0.8-0.4-1-0.7
		c-0.3-0.3-0.5-0.7-0.6-1.2c-0.2-0.5-0.2-1-0.2-1.7v-5.2h-1.3c-0.2,0-0.2-0.1-0.3-0.2c-0.1-0.2-0.1-0.5-0.1-0.9c0-0.2,0-0.7,0-0.7
		s-0.1-0.2-0.1-0.4c0-0.1,0.1-0.2,0.2-0.2s0.2-0.1,0.2-0.1h1.4v-2.4c-0.1-0.1-0.1-0.2,0-0.2c0.1-0.1,0.2-0.1,0.2-0.2
		c0.1-0.1,0.5-0.5,0.5-0.5h0.7h0.7c0.2,0.4,0.3,0.5,0.5,0.5c0.1,0.1,0.2,0.1,0.2,0.2s0.1,0.2,0.3,0.2v2.4h2.1c0.1,0,0.2,0,0.2,0.1
		c0.1,0,0.1,0.1,0.2,0.2c0,0.1,0,0.4,0,0.4v0.6c0,0,0.1,0.7,0,0.9c-0.1,0.2-0.2,0.2-0.3,0.4h-2.2v4.9c-0.2,0.6-0.1,1,0,1.3
		c0.2,0.3,0.5,0.4,1,0.4c0.2,0,0.3,0,0.4-0.1c0.2,0,0.2-0.1,0.3-0.1s0.2-0.1,0.2-0.1s0.2-0.1,0.2-0.1c0.1,0,0.1,0,0.2,0.1
		c0.1,0,0.1,0.1,0.1,0.2s0.1,0.2,0.1,0.3C185.5,410.7,185.5,410.9,185.5,411.1z M203,402.1c0,0.4-0.1,0.7-0.1,0.8
		c-0.1,0.2-0.2,0.2-0.3,0.6h-1.2c0.2-0.2,0.3,0.1,0.4,0.3c0.1,0.2,0.1,0.5,0.1,0.7c0,0.7-0.1,1.2-0.3,1.7s-0.5,0.9-0.9,1.2
		c-0.4,0.3-0.8,0.6-1.4,0.7s-1.2,0.2-1.8,0.2c-0.3,0-0.7-0.1-1-0.2s-0.6-0.2-0.7-0.3c-0.1,0.1-0.2,0.2-0.2,0.4
		c-0.1,0.2-0.1,0.3-0.1,0.5c0,0.2,0.1,0.4,0.3,0.6c0.2,0.2,0.5,0.2,0.8,0.2l2.7,0.1c0.6,0,1.2,0.1,1.7,0.2s0.9,0.3,1.2,0.7
		c0.3,0.2,0.6,0.6,0.7,1c0.2,0.4,0.2,0.8,0.2,1.3s-0.1,1.1-0.3,1.5c-0.2,0.5-0.6,0.9-1.1,1.2c-0.5,0.3-1.1,0.7-1.7,0.8
		c-0.7,0.2-1.6,0.3-2.5,0.3c-0.9,0-1.7-0.1-2.3-0.2c-0.7-0.2-1.2-0.3-1.6-0.6c-0.4-0.2-0.7-0.6-0.9-0.9c-0.2-0.3-0.2-0.7-0.2-1.2
		c0-0.2,0-0.5,0.1-0.7c0.1-0.2,0.2-0.5,0.3-0.7c0.2-0.2,0.3-0.4,0.5-0.7c0.2-0.2,0.4-0.4,0.7-0.6c-0.3-0.2-0.6-0.4-0.8-0.7
		c-0.2-0.3-0.2-0.7-0.2-1.1c0-0.5,0.1-0.9,0.3-1.3c0.2-0.4,0.5-0.7,0.8-1.1c-0.2-0.2-0.5-0.7-0.7-1c-0.2-0.4-0.2-0.9-0.2-1.5
		c0-0.7,0.1-1.2,0.3-1.7c0.2-0.5,0.5-0.9,0.9-1.2c0.4-0.3,0.8-0.6,1.4-0.8c0.6-0.2,1.2-0.2,1.8-0.2c0.3,0,0.7,0,1,0.1
		c0.3,0,0.6,0.1,0.8,0.3h3.4c0.2-0.1,0.2,0,0.3,0.1V402.1z M200.3,413.3c0-0.3-0.2-0.7-0.4-0.8c-0.3-0.2-0.7-0.3-1.2-0.3l-2.2-0.1
		c-0.2,0.2-0.4,0.3-0.5,0.4c-0.2,0.2-0.2,0.2-0.3,0.4s-0.2,0.2-0.2,0.4c0,0.1,0,0.2,0,0.4c0,0.4,0.2,0.7,0.6,0.9
		c0.4,0.2,1,0.3,1.7,0.3c0.5,0,0.8-0.1,1.2-0.2c0.3-0.1,0.6-0.2,0.7-0.3c0.2-0.2,0.3-0.3,0.4-0.5
		C200.2,413.7,200.3,413.5,200.3,413.3z M199.1,404.7c0-0.6-0.2-1-0.5-1.3c-0.3-0.3-0.7-0.5-1.4-0.5c-0.3,0-0.6,0.1-0.8,0.2
		c-0.2,0.1-0.4,0.2-0.6,0.4c-0.2,0.2-0.2,0.4-0.3,0.6c-0.1,0.2-0.1,0.5-0.1,0.7c0,0.6,0.2,1,0.5,1.3c0.3,0.3,0.7,0.5,1.3,0.5
		c0.3,0,0.6-0.1,0.8-0.2s0.4-0.2,0.6-0.4c0.2-0.2,0.2-0.3,0.3-0.6C199.1,405.2,199.1,404.9,199.1,404.7z M214.8,406.9
		c0,0-0.1,0.3-0.2,0.5c-0.2,0.2-0.4,0.2-0.7,0.4h-6.5c0,0.4,0.1,0.8,0.2,1.1c0.1,0.4,0.2,0.7,0.5,1c0.2,0.2,0.6,0.5,0.9,0.6
		c0.4,0.2,0.8,0.2,1.3,0.2s1,0,1.4-0.1c0.4-0.1,0.7-0.2,1.1-0.2c0.3-0.1,0.6-0.2,0.7-0.2c0.2-0.1,0.3-0.1,0.5-0.1
		c0.1,0,0.2,0,0.2,0.1c0.1,0,0.1,0.1,0.1,0.2c0,0.1,0.1,0.2-0.4,0.3v0.5v0.4v0.3c0.5,0.1,0.5,0.2,0.4,0.2c0,0.1-0.1,0.1-0.2,0.2
		c-0.1,0.1-0.2,0.2-0.4,0.2c-0.2,0.1-0.5,0.2-0.9,0.2c-0.3,0.1-0.7,0.2-1.2,0.2c-0.5,0.1-1,0.1-1.5,0.1c-1,0-1.8-0.1-2.6-0.3
		c-0.7-0.2-1.3-0.6-1.8-1.1c-0.5-0.5-0.8-1.1-1.1-1.9c-0.2-0.7-0.3-1.7-0.3-2.7c0-1,0.2-1.8,0.4-2.6c0.2-0.7,0.6-1.4,1.1-2
		c0.5-0.5,1.1-0.9,1.7-1.2c0.7-0.2,1.5-0.4,2.3-0.4c0.9,0,1.7,0.2,2.3,0.4c0.7,0.2,1.2,0.7,1.6,1.1c0.4,0.5,0.7,1,0.9,1.7
		c0.2,0.7,0.3,1.3,0.1,2.1v0.9H214.8z M212.1,405.9c0-0.8-0.2-1.5-0.5-2c-0.3-0.5-0.9-0.7-1.7-0.7c-0.4,0-0.7,0.1-1,0.2
		s-0.5,0.3-0.7,0.6c-0.2,0.2-0.3,0.5-0.4,0.9c-0.1,0.3-0.2,0.7-0.2,1.1L212.1,405.9L212.1,405.9z M227.6,411.8c0,0.5,0,0.6-0.1,0.6
		c-0.1,0.1-0.2,0.1-0.2,0.2c-0.1,0-0.5,0-0.5,0h-0.7h-0.7c-0.2,0.1-0.3,0-0.5,0c-0.1,0-0.2-0.1-0.2-0.2c-0.1-0.1-0.1-0.2,0-0.2v-6.1
		c-0.1-0.5-0.1-0.9-0.1-1.2c-0.1-0.3-0.2-0.6-0.3-0.7c-0.2-0.2-0.3-0.4-0.6-0.5c-0.2-0.1-0.5-0.2-0.8-0.2c-0.4,0-0.7,0.2-1.2,0.4
		c-0.4,0.2-0.8,0.7-1.1,1.2v7.2c-0.1,0.1-0.1,0.2-0.2,0.2s-0.2,0.1-0.2,0.2c-0.1,0-0.5,0.8-0.5,0.8s-0.6,0-0.9,0s-0.5,0-0.7,0
		s-0.3-0.1-0.5-0.1c-0.1,0-0.2-0.1-0.2-0.2s-0.1-0.2-0.1-0.3v-11.4c0-0.1,0-0.2,0.1-0.3c0-0.1,0.1-0.1,0.2-0.2
		c0.1,0,0.2-0.1,0.4-0.1s0.4,0,0.6,0s0.5,0,0.6,0s0.3,0.1,0.4,0.1s0.2,0.1,0.2,0.2s0.1,0.2,0.1,0.3v1.1c0,0,1.5-1.2,2.1-1.5
		c0.6-0.3,1.2-0.5,1.9-0.5c0.7,0,1.3,0.1,1.8,0.3c0.5,0.2,0.9,0.6,1.2,1c0.3,0.4,0.5,0.9,0.7,1.5c0.2,0.6,0.2,1.2-0.3,2v6.3H227.6z
		 M240.7,406.9c0,0-0.1,0.3-0.2,0.5c-0.2,0.2-0.4,0.2-0.7,0.4h-6.5c0,0.4,0.1,0.8,0.2,1.1c0.1,0.4,0.2,0.7,0.5,1
		c0.2,0.2,0.6,0.5,0.9,0.6c0.4,0.2,0.8,0.2,1.3,0.2s1,0,1.4-0.1c0.4-0.1,0.7-0.2,1.1-0.2c0.3-0.1,0.6-0.2,0.7-0.2
		c0.2-0.1,0.3-0.1,0.5-0.1c0.1,0,0.2,0,0.2,0.1c0.1,0,0.1,0.1,0.1,0.2c0,0.1,0.1,0.2,0.2,0.3v0.5v0.4v0.3c-0.1,0.1-0.1,0.2-0.2,0.2
		c0,0.1-0.1,0.1-0.2,0.2c-0.1,0.1-0.2,0.2-0.4,0.2c-0.2,0.1-0.5,0.2-0.9,0.2c-0.3,0.1-0.7,0.2-1.2,0.2c-0.5,0.1-1,0.1-1.5,0.1
		c-1,0-1.8-0.1-2.6-0.3c-0.7-0.2-1.3-0.6-1.8-1.1c-0.5-0.5-0.8-1.1-1.1-1.9c-0.2-0.7-0.3-1.7-0.3-2.7c0-1,0.2-1.8,0.4-2.6
		c0.2-0.7,0.6-1.4,1.1-2c0.5-0.5,1.1-0.9,1.7-1.2c0.7-0.2,1.5-0.4,2.3-0.4c0.9,0,1.7,0.2,2.3,0.4c0.7,0.2,1.2,0.7,1.6,1.1
		c0.4,0.5,0.7,1,0.9,1.7c0.2,0.7,0.3,1.3,0.7,2.1v0.9H240.7z M237.8,405.9c0-0.8-0.2-1.5-0.5-2s-0.9-0.7-1.7-0.7
		c-0.4,0-0.7,0.1-1,0.2s-0.5,0.3-0.7,0.6c-0.2,0.2-0.3,0.5-0.4,0.9c-0.1,0.3-0.2,0.7-0.2,1.1L237.8,405.9L237.8,405.9z M250.2,402.4
		c0,0,0,0.4,0,0.7c0,0.2,0,0.4-0.1,0.4c0,0.1-0.1,0.2-0.2,0.3c-0.1,0-0.1,0.1-0.2,0.1c-0.1,0-0.2,0-0.3-0.1c-0.1,0-0.2-0.1-0.3-0.1
		c-0.1,0-0.3-0.1-0.4-0.1s-0.3-0.1-0.4-0.1c-0.2,0-0.4,0-0.5,0.1c-0.2,0.1-0.4,0.2-0.5,0.4c-0.2,0.2-0.4,0.4-0.6,0.6
		c-0.2,0.3-0.4,0.6-0.7,1v6.7c0,0.1,0,0.2-0.1,0.2c-0.1,0.1-0.2,0.1-0.3,0.2c-0.1,0-0.3,0.1-0.5,0.1c-0.2,0-0.4,0-0.8,0
		s-0.6,0-0.8,0c-0.2,0-0.3-0.1-0.5-0.1c-0.1,0-0.2-0.1-0.3-0.2c-0.1-0.1-0.1-0.2-0.1-0.2v-10.9c0,0,0.3-0.2,0.3-0.2
		c0-0.1,0.1-0.1,0.2-0.2c0.1,0,0.2-0.1,0.4,0.2h0.7h0.7c0.2-0.3,0.3-0.2,0.4-0.2s0.2,0.1,0.2,0.2c0,0.1,0.1,0.2-0.4,0.2v1.3
		c0.8-0.4,1.1-0.7,1.3-1c0.2-0.2,0.5-0.5,0.7-0.7c0.2-0.2,0.4-0.2,0.7-0.3c0.2-0.1,0.7,0.4,0.7,0.4h0.3c0,0,0.2-0.5,0.4-0.4
		c0.2,0,0.2,0.1,0.3,0.1c0.1,0,0.2,0.1,0.2,0.1c0.1,0,0.1,0.1,0.1,0.2s0,0.1-0.7,0.2v0.4C250.1,401.9,250.2,402.4,250.2,402.4z
		 M260.9,412.7c0,0.1,0,0.2-0.1,0.3s-0.2,0.1-0.4,0.2c-0.2,0-0.4,0.1-0.7,0.1s-0.6,0-0.8-0.1c-0.2,0-0.2-0.1-0.3-0.2
		c-0.1-0.1-0.1-0.2-0.1-0.3v-0.8c-0.4,0.5-0.9,0.8-1.4,1.1c-0.6,0.3-1.2,0.4-1.8,0.4c-0.6,0-1-0.1-1.5-0.3s-0.9-0.3-1.2-0.7
		c-0.3-0.3-0.6-0.7-0.8-1.1c-0.2-0.4-0.3-0.9-0.3-1.5c0-0.7,0.1-1.2,0.3-1.7c0.2-0.5,0.6-0.8,1-1.2c0.5-0.3,1-0.5,1.8-0.7
		c0.7-0.2,1.5-0.3,2.5-0.3h0.7v-0.7c0-0.3,0-0.7-0.1-0.9c-0.1-0.2-0.2-0.5-0.3-0.7c-0.2-0.2-0.3-0.3-0.6-0.4
		c-0.2-0.1-0.5-0.1-0.9-0.1c-0.5,0-0.9,0.1-1.2,0.2c-0.4,0.1-0.7,0.2-1,0.4c-0.3,0.2-0.5,0.2-0.7,0.4c-0.2,0.1-0.4,0.2-0.5,0.2
		c-0.1,0-0.2,0-0.2-0.1c-0.1-0.1-0.2-0.2-0.2-0.2c-0.1-0.1-0.1-0.2-0.1-0.4s0-0.7,0-0.9c0-0.2,0-0.4,0.1-0.6c0-0.2,0.1-0.2,0.2-0.4
		c0.1-0.1,0.3-0.2,0.6-0.4c0.2-0.2,0.6-0.2,1-0.4c0.4-0.1,0.8-0.2,1.2-0.3c0.4-0.1,0.9-0.1,1.4-0.1c0.8,0,1.5,0.1,2.1,0.2
		c0.6,0.2,1.1,0.4,1.5,0.7c0.4,0.3,0.7,0.7,0.8,1.3c0.2,0.6,0.2,1.1,0.2,1.9L260.9,412.7L260.9,412.7z M257.8,407.7h-1.2
		c-0.5,0-0.9,0-1.2,0.1c-0.3,0.1-0.7,0.2-0.8,0.3c-0.2,0.2-0.4,0.3-0.5,0.5c-0.1,0.2-0.2,0.4-0.2,0.7c0,0.4,0.2,0.8,0.4,1.1
		c0.2,0.2,0.7,0.4,1.2,0.4c0.4,0,0.8-0.1,1.2-0.3c0.3-0.2,0.7-0.5,1.1-1L257.8,407.7L257.8,407.7z M274.3,401c0.3,0,0.5,0.1,0.7,0.2
		s0.2,0.3,0.2,0.7v10.3c0,0.1,0,0.2-0.1,0.2c-0.1,0.1-0.2,0.1-0.3,0.2c-0.1,0-0.3,0.1-0.5,0.1c-0.2,0-0.4,0-0.8,0
		c-0.3,0-0.6,0-0.8,0c-0.2,0-0.3-0.1-0.5-0.1c-0.1,0-0.2-0.1-0.3-0.2c-0.1-0.1-0.1-0.2-0.1-0.2v-8.6h-5v5.1c0,0.6,0.1,1,0.2,1.3
		c0.2,0.3,0.5,0.4,0.9,0.4c0.2,0,0.3,0,0.4-0.1c0.2,0,0.2-0.1,0.3-0.1c0.1,0,0.2-0.1,0.2-0.1s0.2-0.1,0.2-0.1c0.1,0,0.1,0,0.2,0.1
		c0.1,0,0.1,0.1,0.1,0.2c0,0.1,0.1,0.2,0.1,0.3c0,0.2,0,0.1,0,0.3c0,0.3,0,0.7-0.1,0.8c0,0.2-0.1,0.3-0.2,0.4
		c-0.1,0.1-0.2,0.2-0.3,0.2c-0.2,0.1-0.3,0.1-0.5,0.2c-0.2,0.1-0.4,0.1-0.6,0.1c-0.2,0-0.4,0-0.7,0c-0.6,0-1.2-0.1-1.6-0.2
		c-0.4-0.2-0.8-0.4-1.1-0.7c-0.3-0.3-0.5-0.7-0.7-1.2c-0.2-0.5-0.2-1.1-0.2-1.7v-5.1h-1.3c-0.2,0-0.2-0.1-0.3-0.3
		c-0.1-0.2-0.1-0.5-0.1-0.9c0-0.3,0-0.4,0-0.6c0-0.2,0.1-0.3,0.1-0.4c0-0.1,0.1-0.2,0.2-0.2s0.2-0.1,0.2-0.1h1.2v-2.4
		c0.4-0.1,0.4-0.2,0.5-0.2c0.1-0.1,0.2-0.1,0.2-0.2c0.1-0.1,0.2-0.1,0.5-0.5h0.7h0.7c0.2,0.4,0.3,0.5,0.5,0.5
		c0.1,0.1,0.2,0.1,0.2,0.2c0.1,0.1,0.1,0.2-0.2,0.2v2.4L274.3,401L274.3,401z M275.1,397.7c0,0.6-0.2,1.1-0.4,1.2
		c-0.2,0.2-0.7,0.3-1.4,0.3c-0.7,0-1.2-0.1-1.4-0.3c-0.2-0.2-0.3-0.7-0.3-1.2s0.1-1.1,0.3-1.2c0.2-0.2,0.7-0.3,1.4-0.3
		c0.7,0,1.2,0.1,1.4,0.3C275,396.7,275.1,397.1,275.1,397.7z M288.9,406.7c0,0.9-0.1,1.7-0.3,2.5c-0.2,0.7-0.6,1.4-1.1,2
		c-0.5,0.6-1.1,1-1.8,1.2c-0.7,0.3-1.6,0.4-2.6,0.4c-1,0-1.8-0.2-2.5-0.4c-0.7-0.2-1.3-0.7-1.7-1.2c-0.5-0.5-0.8-1.2-1.1-1.9
		c-0.2-0.7-0.3-1.6-0.3-2.6c0-0.9,0.1-1.7,0.3-2.6c0.2-0.7,0.6-1.4,1.1-2c0.5-0.6,1.1-1,1.8-1.2c0.7-0.3,1.6-0.4,2.6-0.4
		s1.8,0.2,2.5,0.4c0.7,0.2,1.3,0.7,1.7,1.2c0.5,0.5,0.8,1.2,1.1,1.9C288.8,404.8,288.9,405.8,288.9,406.7z M285.8,406.8
		c0-0.5-0.1-1-0.2-1.5c-0.1-0.4-0.2-0.8-0.4-1.2c-0.2-0.3-0.5-0.6-0.8-0.7c-0.3-0.2-0.7-0.2-1.2-0.2c-0.4,0-0.8,0.1-1.2,0.2
		c-0.3,0.2-0.6,0.4-0.8,0.7c-0.2,0.3-0.4,0.7-0.5,1.2c-0.1,0.4-0.2,1-0.2,1.6c0,0.5,0.1,1,0.2,1.5c0.1,0.4,0.2,0.8,0.4,1.2
		c0.2,0.3,0.5,0.6,0.8,0.7c0.3,0.2,0.7,0.2,1.2,0.2s0.8-0.1,1.2-0.2c0.3-0.2,0.6-0.4,0.8-0.7c0.2-0.3,0.4-0.7,0.5-1.2
		C285.7,407.9,285.8,407.4,285.8,406.8z M301.6,411.8c0,0.5,0,0.6-0.1,0.6c-0.1,0.1-0.2,0.1-0.2,0.2c-0.1,0-0.5,0-0.5,0h-0.7h-0.7
		c-0.2,0.1-0.3,0-0.5,0c-0.1,0-0.2-0.1-0.2-0.2c-0.1-0.1-0.1-0.2-0.3-0.2v-6.1c0.2-0.5,0.2-0.9,0.1-1.2c-0.1-0.3-0.2-0.6-0.3-0.7
		c-0.2-0.2-0.3-0.4-0.6-0.5c-0.2-0.1-0.5-0.2-0.8-0.2c-0.4,0-0.7,0.2-1.2,0.4s-0.8,0.7-1.3,1.2v7.2c0.1,0.1,0.1,0.2,0,0.2
		s-0.2,0.1-0.2,0.2c-0.1,0-0.5,0.8-0.5,0.8s-0.9,0-1.2,0c-0.3,0-0.5,0-0.7,0c-0.2,0-0.3-0.1-0.5-0.1c-0.1,0-0.2-0.1-0.2-0.2
		c-0.1-0.1-0.1-0.2-0.1-0.3v-11.4c0-0.1,0-0.2,0.1-0.3c0-0.1,0.1-0.1,0.2-0.2c0.1,0,0.2-0.1,0.4-0.1s0.4,0,0.6,0c0.2,0,0.5,0,0.6,0
		c0.2,0,0.3,0.1,0.4,0.1c0.1,0,0.2,0.1,0.2,0.2s0.1,0.2,0.1,0.3v1.1c0,0,1.8-1.2,2.3-1.5c0.6-0.3,1.2-0.5,1.9-0.5
		c0.7,0,1.3,0.1,1.8,0.3s0.9,0.6,1.2,1c0.3,0.4,0.5,0.9,0.7,1.5c0.2,0.6,0.2,1.2,0.3,2L301.6,411.8L301.6,411.8z"/>
</g>
<g>
	
		<linearGradient id="SVGID_1_" gradientUnits="userSpaceOnUse" x1="-1344.9135" y1="3268.8855" x2="-1344.9135" y2="3376.1216" gradientTransform="matrix(0.6463 0 0 -0.6463 1433.9736 2426.6807)">
		<stop  offset="0" style="stop-color:#B00005"/>
		<stop  offset="0.25" style="stop-color:#B70007"/>
		<stop  offset="0.5" style="stop-color:#BE010A"/>
		<stop  offset="0.75" style="stop-color:#C6010D"/>
		<stop  offset="1" style="stop-color:#CD010F"/>
	</linearGradient>
	<path class="st13" d="M665.5,244.6H459.5V314h205.9c2.5,0,4.6-2,4.6-4.6v-38.1l0,0v-22C670,246.5,668.1,244.6,665.5,244.6z"/>
	
		<linearGradient id="SVGID_2_" gradientUnits="userSpaceOnUse" x1="-1596.5596" y1="3376.3267" x2="-1596.5596" y2="3268.5679" gradientTransform="matrix(0.6463 0 0 -0.6463 1433.9736 2426.6807)">
		<stop  offset="0" style="stop-color:#001455"/>
		<stop  offset="0.25" style="stop-color:#001150"/>
		<stop  offset="0.5" style="stop-color:#000E4B"/>
		<stop  offset="0.75" style="stop-color:#000B46"/>
		<stop  offset="1" style="stop-color:#000841"/>
	</linearGradient>
	<path class="st14" d="M459.7,244.6H349.1c-2.5,0-4.6,2-4.6,4.6v42v18.4c0,2.5,2,4.6,4.6,4.6h110.5v-34.2l0,0v-35.3H459.7z"/>
	<path class="st15" d="M398.8,292.2c0,2.8-1.1,4.6-6.7,4.6c-0.7,0-1.3,0-2-0.2v-38c0-2.8,1.1-5.9,6.5-5.9c0.7,0,1.5,0,2.2,0.2V292.2
		L398.8,292.2z M388.1,286.3c0,5.4-3.5,9.3-10.6,10c-5.2,0.7-12.6,0-16.1-0.4c-0.2-0.7-0.2-1.3-0.2-2c0-4.8,2.6-5.9,5-5.9
		c2.4,0,6.3,0.4,9.3,0.4s4.1-1.1,4.1-2.2c0-1.3-1.3-2-3.7-2.4l-6.7-1.3c-5.6-1.1-8.7-5-8.7-9.1c0-5,3.5-9.1,10.4-10
		c5.2-0.7,11.7,0,15.2,0.4c0.2,0.7,0.2,1.1,0.2,1.7c0,4.8-2.4,5.6-4.8,5.6c-1.7,0-4.6-0.4-7.8-0.4s-4.6,0.9-4.6,2s1.3,1.7,3.3,2
		l6.5,1.1C385.3,278.1,388.1,281.8,388.1,286.3 M422.8,306.9c0.7,0.4,2.2,0.9,4.1,0.9c3.3,0,5-1.1,6.3-4.1l17.6-39.1
		c-0.7-0.4-2.4-0.9-3.7-0.9c-2.2,0-5.2,0.4-7.2,5l-5.6,13.5l-11.1-18c-0.7-0.2-2.4-0.4-3.7-0.4c-3.9,0-6.1,1.5-8.5,3.9l-10.8,11.7
		l8.7,13.7c1.5,2.4,3.7,3.7,7.2,3.7c2.2,0,4.1-0.4,5-0.9l-10.4-15.6l7.4-7.8l12.2,19.1"/>
	<g>
		<path id="path4078_1_" class="st15" d="M474.9,290.5c1.5,0,5.3,1.7,10.2,1.7c4.5,0,7.7-1.5,7.7-4.7c0-7-19.8-3.2-19.8-14.7
			c0-4.3,3.2-9,12.1-9c6.6,0,11.3,2.1,11.3,2.1s0,0.4,0,1.1c0,1.5-0.6,3-1.9,3c-2.1,0-4.5-1.5-9.6-1.5c-4.7,0-7,1.9-7,4.3
			c0,6.8,19.8,3.2,19.8,14.7c0,5.1-4,9.4-13,9.4c-7,0-12.1-2.1-12.1-2.1s0-0.4,0-1.1C472.7,290.9,474,290.5,474.9,290.5L474.9,290.5
			z"/>
		<path id="path4080_1_" class="st15" d="M521.6,263.8c-7.8,0-10,5.6-10,5.6v-3.3c0,0-2.2-2-3.9-2c-1.3,0-2.6,0.4-2.6,0.4v42.5
			c0,0,1.1,0.2,2.6,0.2c1.7,0,1.7-2.2,1.7-2.2v-13.9c0,0,4.3,5.6,12.1,5.6c8.5,0,15.4-6.3,15.4-16.5
			C537,268.7,528.5,263.8,521.6,263.8z M519.8,268.3c6.5,0,11.1,5.2,11.1,11.9c0,6.3-3.9,12.2-11.3,12.2c-5,0-8.9-3.5-10.2-6.1
			v-11.7C510.9,271.8,514.6,268.3,519.8,268.3L519.8,268.3z"/>
		<path id="path4084_1_" class="st15" d="M558.4,263.8c-8.9,0-16.5,6.5-16.5,16.5c0,9.8,7.2,16.5,16.5,16.5
			c9.3,0,16.5-6.9,16.5-16.5C574.9,270.3,567.6,263.8,558.4,263.8L558.4,263.8z M558.4,268.3c6.5,0,11.1,5.2,11.1,11.9
			c0,7.6-5,12.2-11.1,12.2c-6.1,0-11.1-4.8-11.1-12.2C547.4,273.1,552.4,268.3,558.4,268.3L558.4,268.3z"/>
		<path id="path4088_1_" class="st15" d="M633.3,290.5c1.5,0,5.3,1.7,10.2,1.7c4.5,0,7.7-1.5,7.7-4.7c0-7-19.8-3.2-19.8-14.7
			c0-4.3,3.2-9,12.1-9c6.6,0,11.3,2.1,11.3,2.1s0,0.4,0,1.1c0,1.5-0.6,3-1.9,3c-2.1,0-4.5-1.5-9.6-1.5c-4.7,0-7,1.9-7,4.3
			c0,6.8,19.8,3.2,19.8,14.7c0,5.1-4,9.4-13,9.4c-7,0-12.1-2.1-12.1-2.1s0-0.4,0-1.1C631.2,290.9,632.4,290.5,633.3,290.5
			L633.3,290.5z"/>
		<path id="path4090_1_" class="st15" d="M581,296.1v-31.7c0.2,0,1.1-0.4,2.6-0.4c2.2,0,2.8,0.9,1.7,2.2v3.7c3-2.8,6.5-5.9,12.4-5.9
			c1.5,0,2.6,0.2,2.6,0.2s0.2,0.7,0.2,2.2s-0.2,2.4-2.8,2.4c-5.4,0-9.1,2.4-12.4,6.9v18.4c1.1,1.3,0.2,2-1.5,2
			C582.1,296.5,581.2,296.1,581,296.1z"/>
		<path id="path4118_1_" class="st15" d="M615.7,297c-6.7,0-10.2-4.1-10.8-9.5v-28.9c0.6-1.1,1.1-2.2,3.5-2.2c1.3,0,2.4,0.4,0.9,0.4
			v7.3h14.3c0,0.3,0.2,1.2,0.2,2.5c0,2.2-0.9,2.4-2,1.9h-12.6v18.8c1.5,3,3,5,6.9,5c3,0,5.2-1.3,6.7-1.3c2,0,2.2,2.2,2,3.9
			C625.1,294.8,621.2,297,615.7,297L615.7,297z"/>
	</g>
	<path class="st16" d="M670,251.3c0-2.5-2-4.6-4.6-4.6H458.6l0,0H349.1c-2.5,0-4.6,2-4.6,4.6v41.2c0-2.6,1.5-6.5,6.9-6.7l107.2-4.3
		l0,0l0,0l0,0L670,273V251.3z"/>
</g>
</svg>
