<svg xmlns="http://www.w3.org/2000/svg" xmlns:xlink="http://www.w3.org/1999/xlink" width="100" zoomAndPan="magnify" viewBox="0 0 75 74.999997" height="100" preserveAspectRatio="xMidYMid meet" version="1.0"><defs><clipPath id="id1"><path d="M 5.824219 1.609375 L 65 1.609375 L 65 61 L 5.824219 61 Z M 5.824219 1.609375 " clip-rule="nonzero"/></clipPath><clipPath id="id2"><path d="M 44 47 L 68.824219 47 L 68.824219 73.609375 L 44 73.609375 Z M 44 47 " clip-rule="nonzero"/></clipPath></defs><g clip-path="url(#id1)"><path fill="#ffffff" d="M 35.03125 60.75 C 34.074219 60.75 33.121094 60.703125 32.167969 60.609375 C 31.214844 60.515625 30.269531 60.371094 29.332031 60.183594 C 28.394531 59.996094 27.46875 59.761719 26.554688 59.480469 C 25.636719 59.203125 24.738281 58.878906 23.855469 58.507812 C 22.972656 58.140625 22.105469 57.726562 21.261719 57.273438 C 20.421875 56.816406 19.601562 56.324219 18.804688 55.785156 C 18.011719 55.25 17.242188 54.675781 16.503906 54.066406 C 15.765625 53.453125 15.054688 52.804688 14.378906 52.125 C 13.703125 51.441406 13.0625 50.726562 12.453125 49.980469 C 11.847656 49.238281 11.277344 48.460938 10.746094 47.660156 C 10.214844 46.859375 9.726562 46.03125 9.273438 45.179688 C 8.824219 44.332031 8.414062 43.460938 8.046875 42.566406 C 7.683594 41.675781 7.359375 40.769531 7.082031 39.847656 C 6.804688 38.921875 6.574219 37.988281 6.386719 37.042969 C 6.199219 36.097656 6.058594 35.144531 5.964844 34.183594 C 5.871094 33.222656 5.824219 32.261719 5.824219 31.296875 C 5.824219 30.332031 5.871094 29.371094 5.964844 28.410156 C 6.058594 27.449219 6.199219 26.496094 6.386719 25.550781 C 6.574219 24.605469 6.804688 23.667969 7.082031 22.746094 C 7.359375 21.824219 7.683594 20.917969 8.046875 20.023438 C 8.414062 19.132812 8.824219 18.261719 9.273438 17.414062 C 9.726562 16.5625 10.214844 15.734375 10.746094 14.933594 C 11.277344 14.132812 11.847656 13.355469 12.453125 12.609375 C 13.0625 11.867188 13.703125 11.152344 14.378906 10.46875 C 15.054688 9.789062 15.765625 9.140625 16.503906 8.527344 C 17.242188 7.917969 18.011719 7.34375 18.804688 6.804688 C 19.601562 6.269531 20.421875 5.773438 21.261719 5.320312 C 22.105469 4.867188 22.972656 4.453125 23.855469 4.085938 C 24.738281 3.714844 25.636719 3.390625 26.554688 3.109375 C 27.46875 2.832031 28.394531 2.597656 29.332031 2.410156 C 30.269531 2.21875 31.214844 2.078125 32.167969 1.984375 C 33.121094 1.890625 34.074219 1.84375 35.03125 1.84375 C 35.988281 1.84375 36.941406 1.890625 37.894531 1.984375 C 38.84375 2.078125 39.789062 2.21875 40.726562 2.410156 C 41.667969 2.597656 42.59375 2.832031 43.507812 3.109375 C 44.425781 3.390625 45.324219 3.714844 46.207031 4.085938 C 47.089844 4.453125 47.953125 4.867188 48.796875 5.320312 C 49.640625 5.773438 50.460938 6.269531 51.257812 6.804688 C 52.050781 7.34375 52.820312 7.917969 53.558594 8.527344 C 54.296875 9.140625 55.003906 9.789062 55.683594 10.46875 C 56.359375 11.152344 57 11.867188 57.605469 12.609375 C 58.214844 13.355469 58.78125 14.132812 59.3125 14.933594 C 59.84375 15.734375 60.335938 16.5625 60.789062 17.414062 C 61.238281 18.261719 61.648438 19.132812 62.011719 20.023438 C 62.378906 20.917969 62.699219 21.824219 62.980469 22.746094 C 63.257812 23.667969 63.488281 24.605469 63.675781 25.550781 C 63.863281 26.496094 64 27.449219 64.09375 28.410156 C 64.1875 29.371094 64.234375 30.332031 64.234375 31.296875 C 64.234375 32.261719 64.1875 33.222656 64.09375 34.183594 C 64 35.144531 63.863281 36.097656 63.675781 37.042969 C 63.488281 37.988281 63.257812 38.921875 62.980469 39.847656 C 62.699219 40.769531 62.378906 41.675781 62.011719 42.566406 C 61.648438 43.460938 61.238281 44.332031 60.789062 45.179688 C 60.335938 46.03125 59.84375 46.859375 59.3125 47.660156 C 58.78125 48.460938 58.214844 49.238281 57.605469 49.980469 C 57 50.726562 56.359375 51.441406 55.683594 52.125 C 55.003906 52.804688 54.296875 53.453125 53.558594 54.066406 C 52.820312 54.675781 52.050781 55.25 51.257812 55.785156 C 50.460938 56.324219 49.640625 56.816406 48.796875 57.273438 C 47.953125 57.726562 47.089844 58.140625 46.207031 58.507812 C 45.324219 58.878906 44.425781 59.203125 43.507812 59.480469 C 42.59375 59.761719 41.667969 59.996094 40.726562 60.183594 C 39.789062 60.371094 38.84375 60.515625 37.894531 60.609375 C 36.941406 60.703125 35.988281 60.75 35.03125 60.75 Z M 35.03125 10.257812 C 34.347656 10.257812 33.667969 10.292969 32.984375 10.359375 C 32.304688 10.425781 31.632812 10.527344 30.960938 10.664062 C 30.289062 10.796875 29.628906 10.964844 28.976562 11.164062 C 28.320312 11.363281 27.679688 11.597656 27.046875 11.859375 C 26.417969 12.125 25.800781 12.417969 25.195312 12.742188 C 24.59375 13.066406 24.007812 13.421875 23.441406 13.804688 C 22.871094 14.1875 22.324219 14.597656 21.796875 15.035156 C 21.269531 15.472656 20.761719 15.933594 20.28125 16.421875 C 19.796875 16.90625 19.339844 17.417969 18.90625 17.949219 C 18.472656 18.484375 18.066406 19.035156 17.6875 19.609375 C 17.304688 20.179688 16.957031 20.773438 16.632812 21.378906 C 16.3125 21.988281 16.019531 22.609375 15.757812 23.246094 C 15.496094 23.882812 15.265625 24.53125 15.066406 25.191406 C 14.871094 25.847656 14.703125 26.515625 14.570312 27.191406 C 14.4375 27.867188 14.335938 28.546875 14.269531 29.234375 C 14.203125 29.921875 14.167969 30.609375 14.167969 31.296875 C 14.167969 31.984375 14.203125 32.671875 14.269531 33.359375 C 14.335938 34.042969 14.4375 34.726562 14.570312 35.402344 C 14.703125 36.078125 14.871094 36.746094 15.066406 37.402344 C 15.265625 38.0625 15.496094 38.710938 15.757812 39.347656 C 16.019531 39.984375 16.3125 40.605469 16.632812 41.214844 C 16.957031 41.820312 17.304688 42.414062 17.6875 42.984375 C 18.066406 43.558594 18.472656 44.109375 18.90625 44.644531 C 19.339844 45.175781 19.796875 45.6875 20.28125 46.171875 C 20.761719 46.660156 21.269531 47.121094 21.796875 47.558594 C 22.324219 47.996094 22.871094 48.40625 23.441406 48.789062 C 24.007812 49.171875 24.59375 49.527344 25.195312 49.851562 C 25.800781 50.175781 26.417969 50.46875 27.046875 50.734375 C 27.679688 50.996094 28.320312 51.230469 28.976562 51.429688 C 29.628906 51.628906 30.289062 51.796875 30.960938 51.929688 C 31.632812 52.066406 32.304688 52.167969 32.984375 52.234375 C 33.667969 52.300781 34.347656 52.335938 35.03125 52.335938 C 35.714844 52.335938 36.394531 52.300781 37.074219 52.234375 C 37.753906 52.167969 38.429688 52.066406 39.101562 51.929688 C 39.769531 51.796875 40.433594 51.628906 41.085938 51.429688 C 41.738281 51.230469 42.382812 50.996094 43.015625 50.734375 C 43.644531 50.46875 44.261719 50.175781 44.863281 49.851562 C 45.46875 49.527344 46.050781 49.171875 46.621094 48.789062 C 47.1875 48.40625 47.738281 47.996094 48.265625 47.558594 C 48.792969 47.121094 49.296875 46.660156 49.78125 46.171875 C 50.265625 45.6875 50.722656 45.175781 51.15625 44.644531 C 51.589844 44.109375 51.996094 43.558594 52.375 42.984375 C 52.753906 42.414062 53.105469 41.820312 53.429688 41.214844 C 53.75 40.605469 54.042969 39.984375 54.304688 39.347656 C 54.566406 38.710938 54.796875 38.0625 54.992188 37.402344 C 55.191406 36.746094 55.359375 36.078125 55.492188 35.402344 C 55.625 34.726562 55.722656 34.042969 55.792969 33.359375 C 55.859375 32.671875 55.890625 31.984375 55.890625 31.296875 C 55.890625 30.609375 55.859375 29.921875 55.792969 29.234375 C 55.722656 28.550781 55.625 27.867188 55.492188 27.191406 C 55.359375 26.515625 55.191406 25.847656 54.992188 25.191406 C 54.796875 24.53125 54.566406 23.882812 54.304688 23.246094 C 54.042969 22.609375 53.75 21.988281 53.429688 21.378906 C 53.105469 20.773438 52.753906 20.179688 52.375 19.609375 C 51.996094 19.035156 51.589844 18.484375 51.15625 17.949219 C 50.722656 17.417969 50.265625 16.90625 49.78125 16.421875 C 49.296875 15.933594 48.792969 15.472656 48.265625 15.035156 C 47.738281 14.597656 47.1875 14.1875 46.621094 13.804688 C 46.050781 13.421875 45.46875 13.066406 44.863281 12.742188 C 44.261719 12.417969 43.644531 12.125 43.015625 11.859375 C 42.382812 11.597656 41.738281 11.363281 41.085938 11.164062 C 40.433594 10.964844 39.769531 10.796875 39.101562 10.664062 C 38.429688 10.527344 37.753906 10.425781 37.074219 10.359375 C 36.394531 10.292969 35.714844 10.257812 35.03125 10.257812 Z M 35.03125 10.257812 " fill-opacity="1" fill-rule="nonzero"/></g><g clip-path="url(#id2)"><path fill="#ffffff" d="M 64.234375 73.375 C 63.65625 73.371094 63.105469 73.253906 62.574219 73.019531 C 62.046875 72.785156 61.582031 72.453125 61.191406 72.027344 L 45.796875 55.195312 C 45.589844 54.996094 45.40625 54.78125 45.242188 54.542969 C 45.082031 54.304688 44.945312 54.054688 44.835938 53.789062 C 44.722656 53.523438 44.640625 53.25 44.585938 52.96875 C 44.53125 52.6875 44.503906 52.402344 44.507812 52.113281 C 44.511719 51.824219 44.542969 51.542969 44.601562 51.261719 C 44.664062 50.980469 44.753906 50.707031 44.867188 50.445312 C 44.984375 50.179688 45.125 49.933594 45.292969 49.699219 C 45.460938 49.464844 45.648438 49.253906 45.859375 49.058594 C 46.066406 48.863281 46.296875 48.691406 46.539062 48.542969 C 46.785156 48.398438 47.042969 48.277344 47.3125 48.179688 C 47.582031 48.085938 47.859375 48.019531 48.140625 47.984375 C 48.421875 47.945312 48.707031 47.9375 48.992188 47.960938 C 49.277344 47.980469 49.554688 48.03125 49.828125 48.113281 C 50.105469 48.191406 50.367188 48.296875 50.621094 48.429688 C 50.871094 48.566406 51.109375 48.722656 51.328125 48.90625 C 51.550781 49.089844 51.75 49.292969 51.929688 49.515625 L 67.28125 66.347656 C 67.550781 66.648438 67.773438 66.980469 67.945312 67.34375 C 68.121094 67.710938 68.238281 68.09375 68.304688 68.492188 C 68.367188 68.890625 68.375 69.292969 68.324219 69.691406 C 68.273438 70.09375 68.167969 70.480469 68.007812 70.851562 C 67.847656 71.222656 67.636719 71.5625 67.378906 71.871094 C 67.121094 72.183594 66.824219 72.449219 66.492188 72.671875 C 66.15625 72.898438 65.796875 73.066406 65.414062 73.1875 C 65.03125 73.308594 64.636719 73.367188 64.234375 73.375 Z M 64.234375 73.375 " fill-opacity="1" fill-rule="nonzero"/></g></svg>