<?xml version="1.0" encoding="utf-8" ?>
<svg id="PRIMARY" xmlns="http://www.w3.org/2000/svg" xmlns:xlink="http://www.w3.org/1999/xlink" viewBox="0 0 559.92 120"><defs><linearGradient id="Plinth2_GRAD_RGB" x1="375.79" x2="375.79" y2="120" gradientUnits="userSpaceOnUse"><stop offset="0.4" stop-color="red"/><stop offset="1" stop-color="#d42321"/></linearGradient><linearGradient id="Plinth2_HL_GRAD_RGB" x1="376.43" y1="55.19" x2="374.35" y2="-4.57" gradientUnits="userSpaceOnUse"><stop offset="0" stop-color="#fff"/><stop offset="0.12" stop-color="#fff" stop-opacity="0.83"/><stop offset="0.27" stop-color="#fff" stop-opacity="0.66"/><stop offset="0.42" stop-color="#fff" stop-opacity="0.51"/><stop offset="0.57" stop-color="#fff" stop-opacity="0.4"/><stop offset="0.72" stop-color="#fff" stop-opacity="0.32"/><stop offset="0.86" stop-color="#fff" stop-opacity="0.27"/><stop offset="1" stop-color="#fff" stop-opacity="0.25"/></linearGradient><linearGradient id="Logo2_GRAD_RGB" x1="86.85" y1="6.93" x2="86.85" y2="113.07" gradientUnits="userSpaceOnUse"><stop offset="0" stop-color="#002a91"/><stop offset="0.8" stop-color="#002672"/></linearGradient><linearGradient id="Logo2_HL_GRAD_RGB" x1="87.68" y1="63.17" x2="86.28" y2="22.98" xlink:href="#Plinth2_HL_GRAD_RGB"/></defs><rect id="Plinth" x="191.66" width="368.26" height="120" rx="8" fill="url(#Plinth2_GRAD_RGB)"/><path id="p40" d="M197.42,59.54l.75,0C221.84,58.66,554,47.07,554,47.07a6,6,0,0,0,6-6.07V8a8,8,0,0,0-8-8H199.66a8,8,0,0,0-8,8V65.76A6.07,6.07,0,0,1,197.42,59.54Z" opacity="0.4" fill="url(#Plinth2_HL_GRAD_RGB)"/><path id="Sky_Logo" d="M119.89,111.37a19.89,19.89,0,0,0,8,1.7c6.27.14,9.68-2.26,12.22-7.87L173.7,30.36a18.43,18.43,0,0,0-7-1.62c-4.34-.09-10.15.79-13.84,9.62L142,64,120.67,29.3a30.91,30.91,0,0,0-7.19-1c-7.56,0-11.76,2.77-16.14,7.51L76.59,58.43,93.28,84.67c3.09,4.79,7.15,7.22,13.75,7.22a24.58,24.58,0,0,0,9.59-1.79L96.51,59.86l14.25-15.1L134.14,81.4ZM75.79,83.06c0,5.52-2.17,8.7-13,8.7A25.58,25.58,0,0,1,59,91.48V18.3c0-5.57,1.89-11.37,12.77-11.37a19.35,19.35,0,0,1,4.06.41ZM53.53,72c0,10.31-6.73,17.81-20.42,19.29-9.92,1.06-24.26-.19-31.08-1a19,19,0,0,1-.42-3.59c0-9,4.85-11,9.41-11,4.75,0,12.22.83,17.75.83,6.13,0,8-2.07,8-4,0-2.58-2.44-3.63-7.19-4.56l-13-2.48C5.76,63.36,0,55.9,0,48c0-9.62,6.82-17.67,20.24-19.14,10.15-1.11,22.5.13,29.28,1a17.27,17.27,0,0,1,.37,3.45c0,9-4.75,10.91-9.31,10.91-3.51,0-8.95-.64-15.17-.64s-8.95,1.75-8.95,3.86,2.49,3.18,6.46,3.87l12.4,2.3C48.05,55.9,53.53,63.13,53.53,72Z" fill="url(#Logo2_GRAD_RGB)"/><path id="s25" d="M173.7,30.36,161.39,57.75A5.69,5.69,0,0,1,156.27,61L145,61.35a3.2,3.2,0,0,0-2.75,2h0l10.61-25c3.69-8.83,9.5-9.71,13.84-9.62A18.43,18.43,0,0,1,173.7,30.36ZM141.47,63.1l-20.8-33.8a30.91,30.91,0,0,0-7.19-1c-7.56,0-11.76,2.77-16.14,7.51L76.59,58.43,78.25,61a5.53,5.53,0,0,0,4.91,2.47L95,63.1a6,6,0,0,1,5.24,2.35h0l-3.71-5.58,14.25-15.1,9.57,15h0a6.07,6.07,0,0,0,4.9,2.29l13.6-.48A3.21,3.21,0,0,1,141.47,63.1ZM71.73,6.92C60.85,6.92,59,12.73,59,18.3V68.45a4.26,4.26,0,0,1,4.14-4.24l8.43-.29a4.27,4.27,0,0,0,4.26-4.28V7.34A19.35,19.35,0,0,0,71.73,6.92ZM35.32,53.55l-12.4-2.3c-4-.69-6.46-1.61-6.46-3.87s2.63-3.86,9-3.86,11.66.64,15.17.64c4.56,0,9.31-1.93,9.31-10.91a17.27,17.27,0,0,0-.37-3.45c-6.78-.83-19.13-2.07-29.28-1C6.82,30.31,0,38.36,0,48A16.54,16.54,0,0,0,6.56,61.07a25,25,0,0,0,10,3.56,85.85,85.85,0,0,0,13.88.73l14.8-.52c5.55-.19,8.55,4.55,8.24,9.29,0-.06,0-.12,0-.19v-.06c0-.61.07-1.23.07-1.87C53.53,63.13,48.05,55.9,35.32,53.55Z" opacity="0.25" fill="url(#Logo2_HL_GRAD_RGB)"/><path d="M214.68,86.22c-.71-5,.82-7.54,3.65-7.54s9.3,2.95,18.49,2.95c9.66,0,13.31-3.42,13.31-7.9,0-3.18-1.41-6-10.13-8.36l-10-2.71c-11.07-2.94-15.43-8.48-15.43-15.31,0-8.48,6.71-16,21.91-16A64.41,64.41,0,0,1,257,34.86c.94,4.83-.59,7.42-3.54,7.42-2.59,0-8.48-2.47-16.84-2.47-9,0-12.25,3.06-12.25,7.07,0,2.82,1.29,5.41,9.3,7.65l10.25,2.83c11.43,3.18,16,8.48,16,16,0,8.83-6.83,16.73-23.32,16.73A69.12,69.12,0,0,1,214.68,86.22Z" fill="#fff"/><path d="M328,60.66c0,18.49-13,29.45-27.21,29.45a23.92,23.92,0,0,1-19.56-9.66v23.79c0,2.24-1.29,3.65-5.06,3.65a20.85,20.85,0,0,1-4.6-.47v-75a20.85,20.85,0,0,1,4.6-.47c3.77,0,5.06,1.41,5.06,3.65V41a23.9,23.9,0,0,1,19.56-9.66C315,31.33,328,42.28,328,60.66Zm-9.78,0c0-12.37-8.25-20.85-19.32-20.85a19.93,19.93,0,0,0-17.67,10.72V70.91A19.93,19.93,0,0,0,298.9,81.63C310,81.63,318.22,73.14,318.22,60.66Z" fill="#fff"/><path d="M337.3,60.66c0-16.85,12.37-29.33,29-29.33s29.1,12.48,29.1,29.33S383,90.11,366.28,90.11,337.3,77.38,337.3,60.66Zm48.3,0c0-13-8.72-20.85-19.32-20.85s-19.2,7.89-19.2,20.85,8.72,21,19.2,21S385.6,73.5,385.6,60.66Z" fill="#fff"/><path d="M442.26,36.63c0,3.88-1.65,4.71-5.65,4.71-8.13,0-15,3.77-19.2,12.6V85.87c0,2.35-1.3,3.65-5.19,3.65a22,22,0,0,1-4.47-.47V32.39a21.3,21.3,0,0,1,4.47-.47c3.89,0,5.19,1.41,5.19,3.65v7.89c5.53-8.36,13.9-12.6,24.38-11.19A28.3,28.3,0,0,1,442.26,36.63Z" fill="#fff"/><path d="M484.67,86.22a38.33,38.33,0,0,1-16.26,3.89c-11.19,0-17.9-6.6-17.9-17.55V23.91c0-2.48,1.41-4.13,5.18-4.13a21,21,0,0,1,4.48.59V32.62h22a31.14,31.14,0,0,1,.35,3.89c0,3.42-1.41,4.59-3.53,4.59H460.17V71.85c0,6.6,3.06,9.78,9.3,9.78,5.66,0,8.84-2.48,11.55-2.48S485.26,81.51,484.67,86.22Z" fill="#fff"/><path d="M491.38,86.22c-.7-5,.83-7.54,3.66-7.54s9.3,2.95,18.49,2.95c9.66,0,13.31-3.42,13.31-7.9,0-3.18-1.41-6-10.13-8.36l-10-2.71c-11.08-2.94-15.43-8.48-15.43-15.31,0-8.48,6.71-16,21.91-16a64.3,64.3,0,0,1,20.49,3.53c1,4.83-.59,7.42-3.53,7.42-2.59,0-8.48-2.47-16.85-2.47-8.95,0-12.25,3.06-12.25,7.07,0,2.82,1.3,5.41,9.31,7.65l10.25,2.83c11.42,3.18,16,8.48,16,16,0,8.83-6.83,16.73-23.33,16.73A69.22,69.22,0,0,1,491.38,86.22Z" fill="#fff"/></svg>