<?xml version="1.0" encoding="utf-8"?>
<!-- Generator: Adobe Illustrator 21.0.2, SVG Export Plug-In . SVG Version: 6.00 Build 0)  -->
<svg version="1.1" id="Layer_1" xmlns="http://www.w3.org/2000/svg" xmlns:xlink="http://www.w3.org/1999/xlink" x="0px" y="0px"
	 width="500px" height="161.5px" viewBox="0 0 500 161.5" style="enable-background:new 0 0 500 161.5;" xml:space="preserve">
<style type="text/css">
	.st0{fill:#FFFFFF;}
</style>
<g>
	<g>
		<g>
			<g>
				<path class="st0" d="M21.6,158.6c-8.8-1.7-15.7-4.2-20.6-7.4v-24c5.9,3.7,12.7,6.4,20.8,8.6s15.7,3.2,22.8,3.2s12.3-0.7,15.7-2
					c3.2-1.2,4.9-3.7,4.9-7.1c0-2.7-1-4.9-2.5-6.6c-1.7-1.7-4.4-3.2-8.3-4.7c-3.9-1.5-9.6-3.2-17.6-5.1c-8.8-2.5-15.9-5.1-21.1-7.8
					s-9.1-6.1-11.5-10C1.2,91.4,0,86.3,0,79.7c0-10.8,4.2-18.9,12.7-24.3s19.9-8.1,34.3-8.1c7.4,0,15,0.7,22.3,2.2
					s13.2,3.4,17.4,5.9v23c-4.4-2.7-9.8-4.9-16.4-6.4c-6.4-1.7-13-2.5-19.6-2.5c-7.4,0-12.7,0.7-16.4,2.2s-5.6,4.2-5.6,8.1
					c0,2.7,1,4.9,2.9,6.4c2,1.5,4.7,2.9,7.8,3.9c3.2,1.2,9.3,2.7,17.9,5.1c9.3,2.5,16.4,5.4,21.6,8.3c5.1,2.9,8.8,6.6,11.3,10.8
					c2.2,4.2,3.4,9.3,3.4,15.7c0,9.6-4.2,17.2-12.3,22.8s-19.9,8.6-35.3,8.6C38.5,161.3,30.1,160.3,21.6,158.6z"/>
				<path class="st0" d="M270.8,151.2c-6.1-6.6-9.1-15.7-9.1-27.7V72.1h-16.2V50.5h16.2V18.4H290v32.1h25.7v21.6H290v48
					c0,6.9,1.2,11.8,3.9,14.7c2.5,2.9,7.1,4.4,14,4.4c4.7,0,9.1-1,13.7-3.2v21.6c-6.4,2.5-14.2,3.9-23.5,3.9
					C286,161.3,277,157.8,270.8,151.2z"/>
				<path class="st0" d="M345.8,27.2c-2.9-2.9-4.7-6.6-4.7-11.3c0-4.4,1.5-8.3,4.7-11.3c2.9-2.9,6.9-4.7,11.3-4.7s8.3,1.5,11.5,4.7
					c3.2,2.9,4.7,6.9,4.7,11.3s-1.5,8.1-4.7,11.3c-3.2,2.9-6.9,4.4-11.5,4.4C352.7,31.9,349,30.4,345.8,27.2z M342.9,50.5h28.7
					v107.4h-28.7V50.5z"/>
				<path class="st0" d="M425.5,154.4c-9.6-4.4-16.9-11-22.1-19.4c-5.1-8.6-7.8-18.6-7.8-30.6s2.7-22.1,7.8-30.6
					c5.4-8.6,12.7-15.2,22.1-19.6c9.6-4.7,20.6-6.9,33.1-6.9c16.7,0,30.1,3.2,40,9.8v22.5c-9.8-6.9-22.1-10.3-37-10.3
					c-11.5,0-20.6,2.9-27.5,8.6c-6.9,5.6-10,14.5-10,26.5c0,11.8,3.4,20.6,10,26.2c6.9,5.6,15.7,8.6,27,8.6c15,0,27.9-3.7,39-10.8
					v22.3c-5.4,3.7-11.5,6.1-18.1,7.8c-6.9,1.7-14.7,2.5-23.5,2.5C445.8,161.3,434.8,159.1,425.5,154.4z"/>
			</g>
		</g>
	</g>
	<path class="st0" d="M189.5,129.7c3.4-3.4,5.9-6.9,8.3-10.5c2.7-4.4,4.7-9.3,6.1-14.2c1.7-5.9,2-12,1.5-18.1
		c-0.2-4.4-1.5-8.6-3.2-12.5c-1-2.2-2.2-4.4-3.7-6.6c-2.5-3.7-5.1-6.9-8.8-9.3c-2.2-1.7-4.7-3.2-7.1-4.4c-2-1-4.2-1.7-6.1-2.2
		c-0.5,0-1.2-0.2-1.2-0.7c0-0.5,0.7-0.5,1.2-0.5c5.1,0.2,10,0.7,15,2.2c3.9,1.2,7.8,2.7,11.3,4.9c2.9,1.7,5.9,3.7,8.3,5.9
		c1.5,1.2,2.9,2.2,4.2,3.7c2.5,2.9,4.9,5.6,6.9,8.8c3.7,5.9,6.4,12.3,7.6,19.1c1,4.9,1.2,10,0.7,15c-0.5,5.9-2,11.3-4.2,16.7
		c-1.5,3.4-3.2,6.6-5.4,9.8c-2.2,3.2-4.4,6.1-7.4,8.6c-2.7,2.5-5.6,4.9-8.8,6.9c-2.5,1.5-4.9,2.7-7.4,3.9
		c-6.6,2.7-13.2,4.2-20.6,3.2c-4.7-0.5-8.8-2-13-4.2c-4.7-2.5-9.1-5.6-12.3-9.8c-6.1-7.4-9.6-15.9-9.3-25.7c0-2,0.2-3.7,0.5-5.6
		c0-0.5,0-1.2,0.7-1.2c0.7,0,0.5,0.7,0.5,1.2c0.2,2.5,1,4.7,2,6.9c1.7,4.2,4.4,7.6,7.8,10.3c6.1,4.9,13.2,6.6,20.8,5.6
		c2.9-0.5,5.9-1.5,8.6-2.9C185.8,132.8,188,131.1,189.5,129.7z"/>
	<path class="st0" d="M153.4,82.1c-3.4,3.4-5.9,7.1-8.1,10.8c-2.7,4.4-4.4,9.3-5.9,14.2c-1.5,5.9-1.7,12-1.2,18.1
		c0.5,4.4,1.7,8.6,3.4,12.5c1,2.2,2.2,4.4,3.7,6.6c2.5,3.4,5.1,6.9,8.8,9.3c2.5,1.5,4.7,3.2,7.4,4.2c2,1,4.2,1.7,6.4,2.2
		c0.5,0,1.2,0.2,1.2,0.7c0,0.5-0.7,0.5-1.2,0.5c-5.1-0.2-10-0.7-15-2c-3.9-1.2-7.8-2.7-11.5-4.7c-2.9-1.7-5.9-3.7-8.6-5.9
		c-1.5-1.2-2.9-2.2-4.2-3.7c-2.5-2.7-4.9-5.6-7.1-8.8c-3.9-5.9-6.4-12.3-7.8-19.1c-1-4.9-1.2-10-1-15c0.5-5.9,1.7-11.5,3.9-16.9
		c1.5-3.4,3.2-6.6,5.1-9.8c2.2-3.2,4.4-6.1,7.1-8.8c2.7-2.5,5.6-4.9,8.8-6.9c2.5-1.5,4.7-2.9,7.4-3.9c6.6-2.9,13.2-4.4,20.3-3.4
		c4.7,0.5,8.8,2,13,3.9c4.7,2.5,9.1,5.4,12.5,9.6c6.1,7.4,9.8,15.7,9.8,25.5c0,2-0.2,3.7-0.5,5.6c0,0.5,0,1.2-0.5,1.2
		c-0.7,0-0.5-0.7-0.7-1.2c-0.2-2.5-1-4.7-2-6.9c-1.7-4.2-4.7-7.4-8.1-10.3c-6.1-4.9-13.2-6.6-20.8-5.1c-2.9,0.5-5.9,1.5-8.6,2.9
		C156.9,78.7,154.9,80.4,153.4,82.1z"/>
</g>
</svg>
