<?xml version="1.0" encoding="utf-8"?>
<!-- Generator: Adobe Illustrator 23.1.0, SVG Export Plug-In . SVG Version: 6.00 Build 0)  -->
<svg version="1.1" id="Layer_1" xmlns="http://www.w3.org/2000/svg" xmlns:xlink="http://www.w3.org/1999/xlink" x="0px" y="0px"
	 width="416px" height="124px" viewBox="0 0 416 124" style="enable-background:new 0 0 416 124;" xml:space="preserve">
<style type="text/css">
	.st0{fill:#0079C1;}
	.st1{fill:none;}
	.st2{fill-rule:evenodd;clip-rule:evenodd;fill:#016CA8;}
	.st3{fill-rule:evenodd;clip-rule:evenodd;fill:#FBEE3C;}
	.st4{fill-rule:evenodd;clip-rule:evenodd;fill:#D2003C;}
	.st5{fill:#D2003C;}
	.st6{fill:#FFCC00;}
	.st7{fill:#173F66;}
	.st8{fill-rule:evenodd;clip-rule:evenodd;fill:#173F66;}
	.st9{fill:#FFE990;}
	.st10{fill:#706F6F;}
	.st11{fill:#0064A7;}
	.st12{fill:#FEC905;}
	.st13{fill:url(#SVGID_1_);}
	.st14{fill:url(#SVGID_2_);}
	.st15{fill:#FFFFFF;}
	.st16{opacity:0.2;fill:#FFFFFF;enable-background:new    ;}
</style>
<g>
	<g>
		<path class="st0" d="M-382.6-353.7l-6.1,7.3h-17.5v4.9h20.7l-5.7,7.3h-15v12.1h-9.7v-31.6H-382.6z"/>
		<path class="st0" d="M-372.1-322.1h-9.7v-31.6h9.7V-322.1z"/>
		<path class="st0" d="M-332.4-353.7l-6.1,9.7h-9.3v21.9h-9.7V-344h-12.3l6.1-9.7H-332.4z"/>
		<path class="st0" d="M-294.4-326.4c0,2.7-1.2,4.2-3.9,4.2c-1.7,0-3.6-0.7-5.1-2l-17.8-15.2v17.2h-9.7v-27.3c0-1.2,0.2-2,1-3
			c0.7-0.7,1.7-1.2,3.1-1.2c1.7,0,3.4,0.7,4.8,2l17.8,15.4v-17.4h9.7C-294.4-353.7-294.4-326.4-294.4-326.4z"/>
		<path class="st0" d="M-258.1-329.4l-6.2,7.3H-292v-31.6h33.9l-6.2,7.3h-17.9v4.9h23l-6.1,7.3h-16.9v4.9H-258.1z"/>
		<path class="st0" d="M-216.7-353.2l-6.4,6.8h-21.6c-1.2,1-1.7,1.5-1.7,2.2c0,0.7,1.7,2.7,1.7,2.7h15.8c3.5,0,6.6,0.9,8.9,2.6
			c2.6,1.9,3.7,4.2,3.7,7.3c0,2.8-1.2,5.2-3.7,7c-2.3,1.6-5.4,2.6-8.9,2.6h-28l5.7-7.3h22c0,0,1.9-1.4,2.7-1.7c1-0.5,1.5-1,1.5-1.7
			s-0.5-1.5-1.5-1.7c-0.7-0.2-2.7,0.2-2.7,0.2h-16.6c-3.6,0-6.6-0.8-9.2-2.6c-2.6-1.8-3.8-4.1-3.8-7.2s1.3-5.4,3.8-7.2
			c2.6-1.8,5.4-2.6,9.2-2.6h29.1V-353.2z"/>
		<path class="st0" d="M-175.4-353.2l-5,6.8H-202c-1.2,1-1.7,1.5-1.7,2.2c0,0.7,1.7,2.7,1.7,2.7h15.8c3.5,0,6.6,0.9,8.9,2.6
			c2.6,1.9,3.7,4.2,3.7,7.3c0,2.8-1.2,5.2-3.7,7c-2.3,1.6-5.4,2.6-8.9,2.6h-28l5.7-7.3h22c0,0,1.9-1.4,2.7-1.7c1-0.5,1.5-1,1.5-1.7
			s-0.5-1.5-1.5-1.7c-0.7-0.2-2.7,0.2-2.7,0.2h-18.1c-3.6,0-6.6-0.8-9.2-2.6c-2.6-1.8-3.8-4.1-3.8-7.2s1.3-5.4,3.8-7.2
			c2.6-1.8,5.4-2.6,9.2-2.6h29.1V-353.2z"/>
	</g>
	<g>
		<path class="st1" d="M-267.4-414.4c-3.5-3-5.3-6.8-5.3-11.4s1.8-8.3,5.3-11.1c3.5-2.8,8.1-4.3,13.6-4.3h14.7h0.8
			c-8.4-30.9-41.2-51.8-76.8-40.2c-16.9,5.5-30.2,19-35.9,35.8c-13.7,41,16.7,79.2,55.8,79.2c27.3,0,50-18.4,56.8-43.2h-15.7
			C-259.4-409.8-263.9-411.3-267.4-414.4z M-285.6-412l-9.2-4.9H-309v4.9h-6.2h-3.1h-27.1v-29.1h9.7v21.9h17v-7.3h26.9
			c1.8,0,3-0.3,4-0.8c1.3-0.8,2-1.5,2-2.8c0-2.5-2-3.8-6-3.8h-25.1l5.7-7.3h19.7c4.5,0,8.2,0.9,11,2.6c3.3,1.9,4.7,4.7,4.7,8.5
			c0,2.1-0.7,4-1.9,5.6c-1.2,1.6-3.1,3.1-5.4,3.8l10.6,8.7H-285.6z"/>
		<polygon class="st0" points="-335.7,-419.3 -335.7,-441.1 -345.4,-441.1 -345.4,-412 -318.7,-412 -318.7,-419.3 		"/>
		<path class="st0" d="M-277.7-424.5c1.2-1.6,1.9-3.5,1.9-5.6c0-3.8-1.6-6.6-4.7-8.5c-2.8-1.6-6.6-2.6-11-2.6h-19.7l-5.7,7.3h27.5
			c4,0,6,1.3,6,3.8c0,1.3-0.8,2.3-2,2.8c-1,0.5-2.5,0.8-4,0.8h-26.9v9.7h2.3l0.7,7.3l6.8-2.4v-4.9h11.8l9.2,4.9h13.3l-10.6-8.7
			C-280.7-421.6-278.9-422.8-277.7-424.5z"/>
		<polygon class="st0" points="-316.3,-416.9 -316.3,-409.6 -313.3,-409.6 -314,-416.9 		"/>
		<path class="st0" d="M-232.1-429h-7.6H-263l5.9,7.3h11.3v2.4h-10.8c-2.6,0-4.8-0.7-6.2-1.9c-1.7-1.2-2.4-3.1-2.4-5.3
			s0.7-3.8,2.4-5.3s3.8-2.2,6.2-2.2h17.4h6.3c-0.2-1.7-0.7-4.4-1.5-6.8c-6.8-27.4-31.6-47.8-61.2-47.8c-34.7,0-63.1,28.2-63.1,63.1
			c0,34.7,28.2,63.1,63.1,63.1c29.6,0,54.4-20.4,61.2-47.8c1.2-4.9,1.9-10,1.9-15.1C-232.1-426.6-232.1-429-232.1-429z
			 M-295.3-371.3c-32.6,0-58.6-28.5-54.6-61.8c3.1-25.9,24.7-46.3,50.8-48c27.1-1.8,50,15.9,56.7,40.1h-0.7h-13.6
			c-5.2,0-9.4,1.4-12.7,4c-3.3,2.6-4.9,6.1-4.9,10.3c0,4.2,1.6,7.8,4.9,10.6c3.3,2.8,7.5,4.2,12.7,4.2h14.6
			C-248.8-388.5-269.9-371.3-295.3-371.3z"/>
	</g>
</g>
<g>
	<path d="M183.6-348.1v-4.5h0.8v0.4v0.5c0.2,1.5,0,2.6-0.4,3.6H183.6z M183.7-361.5h3.4c0-2.2,0.4-3.9,1.3-4.9
		c0.9-1.1,2.3-1.6,4.1-1.6h0v15.7v0.5c0,0.8,0,1.5-0.2,1.7c-0.1,0.2-0.2,0.5-0.5,0.5c-0.4,0.2-0.8,0.2-1.4,0.2
		c-0.5,0.1-1.2,0.1-2,0.1v3.2h16.3v-2.8c-1.3,0-2.2-0.1-2.7-0.1c-0.5-0.1-0.8-0.2-1.1-0.2c-0.2-0.1-0.4-0.2-0.5-0.5
		c-0.1-0.2-0.6-1.7-0.6-1.7V-368h0.4c1.9,0,3.3,0.5,4.2,1.6c0.9,1.1,1.3,2.7,1.3,4.9h3.8v-9.8h-26L183.7-361.5L183.7-361.5z
		 M184.4-371.3v9.8h-0.8v-9.8h0.4H184.4z M183.6-352.6h-1.5c0,1.6-0.1,2.6-0.3,3.2c-0.2,0.6-0.6,0.8-1.1,0.8c-0.4,0-0.7-0.2-0.9-0.6
		c-0.2-0.3-0.2-1.1-0.2-2.2v-2.5c0-1.6-0.3-2.8-1.1-3.6c-0.7-0.8-2-1.4-3.8-1.6c2-0.3,3.6-1.1,4.7-2c1.1-1,1.6-2.2,1.6-3.8
		c0-2.1-0.8-3.8-2.5-4.8c-1.6-1.1-4.1-1.6-7.4-1.6h-2.9v3.4c1.5,0.1,2.6,0.3,3.2,0.8c0.8,0.6,1.2,1.5,1.2,2.8s-0.4,2.2-1.2,2.7
		c-0.6,0.4-1.7,0.7-3.2,0.7v3.4c1.2,0.1,2,0.2,2.5,0.7c0.5,0.4,0.8,1.4,0.8,2.8v2.5c0,2.3,0.5,3.9,1.6,5c1,1.1,2.7,1.6,4.9,1.6
		c2.2,0,3.7-0.6,4.7-1.7c0.4-0.4,0.7-1,1-1.5V-352.6L183.6-352.6z M169-371.4v3.4c-0.2,0-0.6,0-0.9,0h-3.2v7.3h2.8
		c0.4,0,0.8,0,1.2-0.1v3.3c-0.2,0-0.5,0-0.7,0h-3.3v6c0,1,0.2,1.5,0.4,1.8c0.3,0.2,1,0.3,2,0.3h0.8v4.1h-15.5v-3.3h1.6
		c1.1,0,1.7-0.1,2.1-0.3c0.2-0.3,0.4-0.8,0.4-1.9v-15c0-1.1-0.2-1.7-0.4-1.9c-0.3-0.3-1-0.3-2.1-0.3h-0.8v-3.3H169V-371.4z
		 M107.9-345.6v-3.4c1.6-0.1,2.6-0.4,3.2-0.9c0.9-0.7,1.4-1.7,1.4-3.2s-0.4-2.5-1.4-3.3c-0.7-0.5-1.7-0.8-3.2-1v-3.4
		c1.2-0.2,1.9-0.4,2.5-0.8c0.8-0.6,1.2-1.5,1.2-2.8s-0.4-2.1-1.1-2.7c-0.5-0.4-1.3-0.7-1.7-0.7v-3.5h0.3c3.5,0.1,6.1,0.6,7.7,1.5
		c1.6,1,2.4,2.4,2.4,4.6c0,1.4-0.5,2.6-1.5,3.7c-1,1.1-2.4,1.8-4.2,2.4c2.4,0.5,4.2,1.3,5.3,2.3c1.1,1.1,1.7,2.4,1.7,4.2
		c0,2.5-0.9,4.3-2.8,5.4c-1.9,1.1-5,1.6-9.3,1.3h-0.6V-345.6z M122.6-345.9v-3.4h1.5c1.1,0,1.8-0.1,2.1-0.3c0.3-0.2,0.4-0.8,0.4-1.9
		v-14.3c0-1.1-0.2-1.6-0.4-1.9c-0.3-0.2-1-0.3-2.1-0.3h-1.5v-3.3h26.9v9.8h-3.6c-0.2-1.5-0.5-2.6-0.8-3.5c-0.3-0.7-0.7-1.4-1.2-1.8
		c-0.5-0.5-1.2-0.7-2-1c-0.8-0.2-2.2-0.2-4.3-0.2H134v7.3h0.7c1.5,0,2.6-0.2,3.1-0.8c0.5-0.5,0.8-1.6,0.8-3.3h3.6v11.4h-3.6
		c-0.1-1.7-0.3-2.8-0.8-3.3c-0.5-0.5-1.5-0.8-3.1-0.8H134v8.1h3.7c3,0,5-0.5,6.1-1.5c1.1-1,1.7-2.9,2.1-5.8h3.6v10.6h-26.9V-345.9z
		 M39.2-345.2l-1-1.9c-1.3,0.8-2.7,1.5-4.1,1.9c-1.4,0.4-2.8,0.6-4.4,0.6c-4.1,0-7.5-1.2-9.9-3.6c-2.4-2.4-3.7-5.6-3.7-9.6
		c0-4.1,1.3-7.5,3.8-10.1c2.5-2.5,5.8-3.8,9.9-3.8c1.5,0,2.8,0.2,4.1,0.6c1.3,0.4,2.5,1,3.7,1.8l0.7-1.9h4.3v10.6h-4.1
		c-0.3-2.4-1-4.2-2.2-5.5c-1.2-1.2-2.8-1.8-5.1-1.8c-2.2,0-3.9,0.8-5.1,2.4c-1.1,1.6-1.7,4-1.7,7.1c0,3.7,0.5,6.4,1.6,8.1
		c1,1.7,2.7,2.5,5,2.5c1.6,0,2.8-0.3,3.4-0.8c0.6-0.5,0.9-1.4,0.9-2.8v-2.5c0-0.9-0.2-1.5-0.3-1.7c-0.3-0.2-0.8-0.3-1.7-0.3h-2v-3.3
		h14.7v3.3h-1.4c-0.7,0-1.2,0.1-1.4,0.3c-0.2,0.2-0.4,0.6-0.4,1.4v8.9H39.2L39.2-345.2z M107.9-371.3v3.3c-0.4-0.1-0.9-0.1-1.4-0.1
		h-1.8v7.3h1.7c0.5,0,1.1,0,1.5-0.1v3.4c-0.4,0-0.8-0.1-1.3-0.1h-2v8.1h1.8c0.5,0,0.9,0,1.4-0.1v3.3H92.5v-3.3h2.1
		c1.1,0.3,1.7,0.2,2,0s0.4-0.8,0.8-1.9v-14.4c-0.4-1.1-0.5-1.6-0.8-1.9c-0.3-0.2-2-0.6-2-0.6h-2.1v-3.3L107.9-371.3L107.9-371.3z
		 M47.7-345.6v-3.7h1.7c1,0,1.7-0.1,2-0.3c0.3-0.2,0.4-0.8,0.4-1.9v-14.3c0-1.1-0.2-1.6-0.4-1.9c-0.3-0.2-1-0.3-2-0.3h-1.7v-3.3H64
		v3.3h-2.1c-1.1,0.3-1.8,0.5-2,0.7c-0.3,0.2-0.4,0.8-0.8,1.9v14.4c0.4,1,0.5,1.5,0.8,1.9c0.3,0.2,2-0.2,2-0.2H64v4.1H47.7V-345.6z
		 M64.8-371.3h16.3v3.3h-1.7c-1,0-1.8,0.2-2,0.4c-0.3,0.2-0.4,0.8-0.4,1.8v17.3h2.2c2.1,0,3.7-0.1,4.5-0.3c0.8-0.2,1.5-0.5,2-0.9
		c0.6-0.5,1-1.3,1.4-2.2c0.3-0.9,0.5-2.3,0.7-3.9h3v10.6h-26v-3.3h1.5c1.1,0,1.7-0.1,2-0.3c0.3-0.2,0.5-0.8,0.5-1.8V-366
		c0-1-0.2-1.5-0.5-1.7c-0.2-0.2-1-0.3-2-0.3h-1.5V-371.3z"/>
	<g>
		<path d="M77.8-473.3c35.2,9.8,59.5,26.1,59.5,44.6s-24.3,34.8-59.5,44.6v-4c24.9-9.9,40.3-24.4,40.3-40.6
			c0-16.1-15.5-30.7-40.3-40.6L77.8-473.3L77.8-473.3z M77.8-399.6v8.5c17.9-9.8,28.9-23,28.9-37.6s-11.1-27.8-28.9-37.6v8.5
			c8.6,8.4,13.3,18.4,13.3,29.1C91.2-417.9,86.4-408,77.8-399.6z M6.2-482.8c25.9,0.2,50.7,3.8,71.6,9.6v4
			c-11.7-4.7-25.3-8.2-40.5-10.6c15.5,2.8,29.3,7.5,40.5,13.6v8.6c-14.5-14-39.7-23.8-71.6-25V-482.8L6.2-482.8z M77.8-384.1
			c-21,5.8-45.8,9.3-71.6,9.6v-0.1c31.9-1.2,57.2-10.9,71.6-25v8.6c-11.2,6-25,10.8-40.5,13.6c15.1-2.3,28.8-6,40.5-10.6V-384.1z"/>
		<path d="M222.7-482.8c-25.9,0.2-50.7,3.8-71.6,9.6v4c11.7-4.7,25.3-8.2,40.5-10.6c-15.5,2.8-29.3,7.5-40.5,13.6v8.6
			c14.5-14.1,39.7-23.9,71.6-25L222.7-482.8L222.7-482.8z M151.1-384.1c21,5.8,45.8,9.3,71.6,9.6v-0.1c-31.9-1.2-57.2-10.9-71.6-25
			v8.6c11.2,6,25,10.8,40.5,13.6c-15.1-2.3-28.8-6-40.5-10.6L151.1-384.1L151.1-384.1z M151.1-473.3c-35.2,9.8-59.5,26.1-59.5,44.6
			s24.3,34.8,59.5,44.6v-4c-24.9-9.9-40.4-24.4-40.4-40.6c0-16.1,15.5-30.7,40.4-40.6V-473.3L151.1-473.3z M151.1-399.6v8.5
			c-17.9-9.8-28.9-23-28.9-37.6s11.1-27.8,28.9-37.6v8.5c-8.6,8.5-13.3,18.4-13.3,29.1C137.7-417.9,142.4-408,151.1-399.6z"/>
	</g>
	<g>
		<path d="M50-336.3c0-0.7-0.1-1.2-0.3-1.4c-0.2-0.2-0.7-0.3-1.5-0.3h-0.6v-2.4h8.6l6.8,13.1v-9c0-0.7-0.1-1.2-0.3-1.3
			c-0.2-0.2-0.6-0.3-1.4-0.3h-0.8v-2.4h8.1v2.4h-0.7c-0.7,0-1.1,0.1-1.4,0.2c-0.2,0.2-0.3,0.6-0.3,1.3v13.9h-5.6l-7.5-13.3v9.5
			c0,0,0.2,1.1,0.4,1.3c0.2,0.2,0.7,0.2,1.4,0.1h0.6v2.4h-8.1v-2.4h0.9c0.7,0,1-0.1,1.3-0.3c0.1-0.2,0.3-0.7,0.3-1.3L50-336.3
			L50-336.3z"/>
		<path d="M69.7-322.5v-2.4h0.9c0.7,0,1-0.1,1.3-0.2c0.1-0.2,0.3-0.6,0.3-1.3v-10c0-0.7-0.1-1.1-0.3-1.3c-0.1-0.2-0.6-0.2-1.3-0.2
			h-0.9v-2.4h18.7v7.3h-2.5c-0.2-1.2-0.3-2-0.5-2.6c-0.2-0.6-0.5-1.1-0.8-1.4c-0.3-0.4-0.8-0.6-1.4-0.7c-0.5-0.2-1.5-0.2-3-0.2h-2.5
			v5.7h0.4c1-0.6,1.7-0.7,2-1.1c0.3-0.4,0.5-1.1,0.5-2.1h2.8v8.1H81c0-1.3-0.2-2.3-0.5-2.6c-0.4-0.4-1.1-0.6-2.2-0.6h-0.5v5.7h2.3
			c1.9,0,3.2-0.3,3.9-1c0.7-0.6,1.1-1.9,1.3-3.9h2.2v7.3L69.7-322.5L69.7-322.5z"/>
		<path d="M107.9-340.3v7.2h-2.5c0,0-0.3-3-0.9-3.7c-0.6-0.7-1.5-1.1-2.7-1.1h-0.4v11.6c0.2,0.7,0.2,1.1,0.3,1.2
			c0.1,0.2,0.2,0.3,0.3,0.4c0.2,0.1,0.4,0.2,0.7,0.2s1.9,0.1,1.9,0.1v2H93.3v-2c0,0,1.5,0,1.9-0.1c0.4,0,0.7-0.1,1-0.2
			c0.2-0.1,0.2-0.2,0.3-0.4c0.1-0.2,0.1-0.6,0-1.2v-0.3v-11.2h-0.2c-1.2-0.1-2.1,0.3-2.8,1.1c-0.6,0.7-0.9,3.8-0.9,3.8H90v-7.3
			L107.9-340.3L107.9-340.3z"/>
		<path d="M108.7-322.6v-2.3h0.9c0.7,0,1-0.1,1.3-0.2c0.1-0.2,0.3-0.6,0.3-1.3v-10c0-0.7-0.1-1.1-0.3-1.3c-0.1-0.2-0.6-0.2-1.3-0.2
			h-0.9v-2.4h10.4c2.3,0,4,0.3,5.1,1c1.1,0.6,1.5,1.6,1.6,2.9c0,1-0.2,2-0.9,2.7c-0.6,0.8-1.6,1.4-2.8,1.8c1.5,0.3,2.7,0.9,3.4,1.6
			c0.7,0.7,1.1,1.7,1.1,3c0,1.8-0.6,3-1.8,3.8c-1.2,0.7-3.3,1.1-6.2,1.1h-10V-322.6z M116.9-333h1.1c1.1,0,2-0.2,2.4-0.6
			c0.5-0.4,0.8-1,0.8-1.9c0-0.8-0.2-1.4-0.8-1.8c-0.5-0.4-1.3-0.5-2.4-0.5h-1.2L116.9-333L116.9-333z M116.8-324.9h1.4
			c1.3,0,2.3-0.2,2.8-0.7c0.6-0.5,0.9-1.2,0.9-2.1c0-1-0.3-1.7-0.9-2.2c-0.6-0.5-1.6-0.7-2.8-0.7h-1.3L116.8-324.9L116.8-324.9z"/>
		<path d="M128.3-322.6v-2.3h0.6c0.6,0,1-0.1,1.3-0.2c0.2-0.2,0.6-0.6,0.8-1.4l4.6-13.8h5.3l4.4,13.8c0.2,0.6,0.5,1.1,0.7,1.4
			c0.2,0.2,0.6,0.3,1.1,0.3h0.7v2.4H138v-2.4h0.7c0.6,0,1-0.1,1.2-0.2s0.3-0.2,0.3-0.5c0-0.1,0-0.2-0.1-0.4c0-0.1-0.1-0.2-0.1-0.2
			l-0.7-2.1h-4.8l-0.6,2c0,0.2-0.1,0.2-0.1,0.4c0,0.2,0,0.2,0,0.3c0,0.2,0.1,0.4,0.2,0.5c0.2,0.1,0.5,0.2,1.1,0.2h1.1v2.4h-8.1
			V-322.6z M138.9-330.6l-1.8-5.7l-1.9,5.7H138.9z"/>
		<path d="M148.6-340.4h9.8v2.4h-0.7c-0.7-0.1-1.2,0-1.4,0.2c-0.2,0.2-0.4,1.3-0.4,1.3v11.6h1.4c1.4,0,2.3-0.1,2.8-0.2
			c0.5-0.2,1-0.3,1.3-0.6c0.4-0.3,0.6-0.8,0.9-1.4c0.2-0.6,0.3-1.5,0.4-2.6h2.1v7.3h-16.3v-2.4h0.9c0.7,0,1-0.1,1.3-0.3
			c0.1-0.2,0.3-0.7,0.3-1.3v-9.9c0-0.7-0.1-1.1-0.3-1.3c-0.1-0.2-0.6-0.2-1.3-0.2h-0.9L148.6-340.4L148.6-340.4z"/>
		<path d="M167.3-340.4h9.8v2.4h-0.7c-0.7-0.1-1.2,0-1.4,0.2c-0.2,0.2-0.4,1.3-0.4,1.3v11.6h1.4c1.4,0,2.3-0.1,2.8-0.2
			c0.5-0.2,1-0.3,1.3-0.6c0.4-0.3,0.6-0.8,0.9-1.4c0.2-0.6,0.3-1.5,0.4-2.6h2.1v7.3h-16.3v-2.4h0.9c0.7,0,1-0.1,1.3-0.3
			c0.1-0.2,0.3-0.7,0.3-1.3v-9.9c0-0.7-0.1-1.1-0.3-1.3c-0.1-0.2-0.6-0.2-1.3-0.2h-0.9L167.3-340.4L167.3-340.4z"/>
	</g>
</g>
<g>
	<g>
		<g>
			<g>
				<path d="M-343-143.7c0,0-74.8-8.7-76.7-36.9c0-48.2,206.6-42.8,219.5-28.4c-15.6-4.9-177.6-17-200.5,24
					C-416.1-156.5-343-143.7-343-143.7z"/>
			</g>
			<g>
				<path d="M-318.9-197.9v38.4h-7.7v-38.4H-318.9z"/>
			</g>
			<g>
				<path d="M-247.7-192.1c0,0-0.4,10.2-2.5,12.6c2.7,3.4,2.4,20.9,2.4,20.9h-7.8c0,0,0.3-22-3.9-13.8v12.9h-7.7v-38.4h7.7v16.8
					c2.5,1.5,4.5-11.1,4.5-11.1L-247.7-192.1z"/>
			</g>
			<g>
				<path d="M-224.2-174.9h-11.2v6.4c0,1.3,0.1,2.2,0.3,2.6c0.2,0.3,0.6,0.6,1.1,0.6c0.7,0,1.1-0.3,1.2-0.8c0.2-0.5,0.3-1.5,0.3-3
					v-3.9h8.6v2.1c-0.4,2-0.5,3.5-0.6,4.6c-0.2,1.1-0.7,2.2-1.5,3.5c-0.8,1.2-1.8,2.1-3,2.8c-1.2,0.6-2.8,1-4.6,1
					c-1.8,0-3.4-0.3-4.7-0.9c-1.3-0.6-2.4-1.4-3.2-2.5c-0.8-1.1-1.2-2.2-1.5-3.5s-0.5-3.1,0-5.5v-9.5c-0.5-2.9-0.2-5.1,0.5-6.7
					s1.7-2.9,3.2-3.7c1.5-0.9,3.2-1.3,5.1-1.3c2.4,0,4.3,0.5,5.9,1.5c1.5,1.1,2.6,2.4,3.3,4.2c0.6,1.7,1,4.2,1.3,7.3v4.7H-224.2z
					 M-232.6-180.7v-2.4c-0.1-1.7-0.2-2.8-0.3-3.3c-0.2-0.5-0.5-0.8-1-0.8c-0.6,0-1,0.2-1.1,0.6c-0.1,0.4-0.2,1.5-0.6,3.4v2.5
					H-232.6z"/>
			</g>
			<g>
				<path d="M-211.7-193.1l0.1,1.8c1.1-3.2,5.2-2.3,7.5-2.1c5.7,0.7,4.1,16.6,4.1,16.6h-7c0,0,1.2-10.8-2.5-10.5
					c0,0-1.4-0.2-1.6,0.8c-0.1,0.9-0.3,10.7-0.3,13.8v13.2h-7.7v-33.6H-211.7z"/>
			</g>
			<g>
				<path d="M-359.8-197.9c0,0,0.6,11-3.6,15.3c4.5,5,4,23.1,4,23.1h-8.9c0,0,0.9-20.3-3.5-16.4c0.1,0.2,0,16.4,0,16.4h-8.6v-38.4
					h8.6v14.9c2.8-0.6,3.8-14.9,3.8-14.9S-359.8-197.9-359.8-197.9z"/>
			</g>
			<g>
				<rect x="-354.4" y="-197.9" width="7.7" height="3.8"/>
			</g>
			<g>
				<rect x="-354.4" y="-192.2" width="7.7" height="32.6"/>
			</g>
			<g>
				<path d="M-333.3-197.6v5.4h1.9v5.8h-1.9v17.7c-0.3,2.2-0.2,3.5,0,3.7c0.2,0.3,2.9,0.4,2.9,0.4v5h-3.3c-1.9,0-3.2-0.1-3.9-0.3
					c-0.8-0.2-1.5-0.7-2.1-1.3c-0.6-0.7-1-1.5-1.1-2.4s-0.2-3.1-0.2-6.4v-16.4h-1.9v-5.8h1.9v-3.8L-333.3-197.6z"/>
			</g>
			<g>
				<path d="M-206.7-168.2h7.7v8.6h-7.7V-168.2z"/>
			</g>
			<g>
				<path d="M-176-178.8h-7.7v-4.8c0-1.7-0.1-2.7-0.4-3.1c-0.3-0.4-0.8-0.6-1.6-0.6c-0.7,0-1.2,0.2-1.5,0.6
					c-0.3,0.4-0.4,1.4-0.4,3.1v16.2c0,1.7,0.1,2.7,0.4,3.1s0.7,0.6,1.5,0.6c0.7,0,1.2-0.2,1.6-0.6c0.3-0.4,0.4-1.4,0.4-3.1v-4.8h7.7
					v3.5c0,4.2-0.8,7.2-2.2,8.9c-1.4,1.7-3.9,2.5-7.4,2.5c-3.5,0-6-0.8-7.4-2.5c-1.4-1.7-2.2-4.6-2.2-8.9v-13.8
					c0-4.2,0.8-7.1,2.2-8.9c1.4-1.7,3.9-2.6,7.4-2.6c3.5,0,6,0.8,7.4,2.6c1.4,1.7,2.2,4.6,2.2,8.9V-178.8z"/>
			</g>
			<g>
				<path d="M-172.2-182.3c0-3.9,0.8-6.6,2.2-8.2c1.4-1.5,3.9-2.4,7.4-2.4c3.5,0,6,0.8,7.4,2.4c1.4,1.5,2.2,4.3,2.2,8.2v12.7
					c0,3.9-0.8,6.6-2.2,8.2c-1.4,1.5-3.9,2.3-7.4,2.3c-3.5,0-6-0.8-7.4-2.3s-2.2-4.3-2.2-8.2V-182.3z M-160.7-167.7V-184
					c0-1.7-0.1-2.7-0.4-3.1c-0.3-0.4-0.8-0.6-1.6-0.6c-0.7,0-1.2,0.2-1.5,0.6c-0.3,0.4-0.4,1.5-0.4,3.1v16.3c0,1.7,0.1,2.7,0.4,3.1
					c0.3,0.4,0.7,0.6,1.5,0.6c0.7,0,1.2-0.2,1.6-0.6C-160.8-165.1-160.7-166.2-160.7-167.7z"/>
			</g>
			<g>
				<path d="M-148.2-159.5v-32.7h7.7v1.8c0.8-0.8,1.5-1.3,2.4-1.7c0.9-0.4,1.8-0.6,2.9-0.6c1,0,2.1,0.3,2.9,0.8
					c0.9,0.5,1.6,1.2,2.3,2.2c0.8-1,1.6-1.7,2.6-2.2c0.9-0.5,2-0.8,3.1-0.8c2.4,0,4.2,0.8,5.2,2.2c1,1.5,1.6,4.1,1.6,7.8v23.1h-7.7
					v-24c0-1.5-0.1-2.5-0.4-2.9c-0.3-0.4-0.8-0.6-1.6-0.6c-0.7,0-1.2,0.2-1.5,0.6c-0.3,0.4-0.4,1.3-0.4,2.9v24h-7.7v-24
					c0-1.5-0.1-2.5-0.4-2.9c-0.3-0.4-0.8-0.6-1.6-0.6c-0.7,0-1.2,0.2-1.5,0.6c-0.3,0.4-0.4,1.3-0.4,2.9v24L-148.2-159.5
					L-148.2-159.5z"/>
			</g>
			<g>
				<path d="M-117.5-196v-1h1.9v1h-1v2.9h-1V-196L-117.5-196z"/>
				<path d="M-113.7-193.1v-2.9c0.8,0.2,0.7,0.4,0.6,0.6c-0.1,0.2-0.1,0.5,0.4,0.9v0.2v1.3H-113.7v-1.5c-0.4-0.4-0.4-0.7-0.5-0.9
					c-0.1-0.2-0.2-0.4-0.5-0.6v2.9h-1v-3.8h1.2c0.1,0.1,0.2,0.3,0.3,0.5c0.1,0.2,0.2,0.4,0.3,0.5c0.1-0.2,0.2-0.4,0.3-0.5
					c0.1-0.2,0.2-0.4,0.4-0.5h1.2v3.8H-113.7z"/>
			</g>
			<g>
				<path d="M-271.9-178.8h-7.7v-4.8c0-1.7-0.1-2.7-0.4-3.1c-0.3-0.4-0.8-0.6-1.6-0.6s-1.2,0.2-1.5,0.6c-0.3,0.4-0.4,1.4-0.4,3.1
					v16.2c0,1.7,0.1,2.7,0.4,3.1s0.7,0.6,1.5,0.6s1.2-0.2,1.6-0.6c0.3-0.4,0.4-1.4,0.4-3.1v-4.8h7.7v3.5c0,4.2-0.8,7.2-2.2,8.9
					c-1.4,1.7-3.9,2.5-7.4,2.5c-3.5,0-6-0.8-7.4-2.5c-1.4-1.7-2.2-4.6-2.2-8.9v-13.8c0-4.2,0.8-7.1,2.2-8.9c1.4-1.7,3.9-2.6,7.4-2.6
					c3.5,0,6,0.8,7.4,2.6c1.4,1.7,2.2,4.6,2.2,8.9V-178.8z"/>
			</g>
			<g>
				<path d="M-314.2-182.3c0-3.9,0.8-6.6,2.2-8.2c1.4-1.5,3.9-2.4,7.4-2.4c3.5,0,6,0.8,7.4,2.4c1.4,1.5,2.2,4.3,2.2,8.2v12.7
					c0,3.9-0.8,6.6-2.2,8.2c-1.4,1.5-3.9,2.3-7.4,2.3c-3.5,0-6-0.8-7.4-2.3c-1.4-1.5-2.2-4.3-2.2-8.2V-182.3z M-302.6-167.7V-184
					c0-1.7-0.1-2.7-0.4-3.1c-0.3-0.4-0.8-0.6-1.6-0.6s-1.2,0.2-1.5,0.6c-0.3,0.4-0.4,1.5-0.4,3.1v16.3c0,1.7,0.1,2.7,0.4,3.1
					s0.7,0.6,1.5,0.6s1.2-0.2,1.6-0.6C-302.7-165.1-302.6-166.2-302.6-167.7z"/>
			</g>
		</g>
	</g>
</g>
<g>
	<rect x="27.3" y="-260.4" class="st2" width="218.9" height="137.2"/>
	<g>
		<path class="st3" d="M135.4-145.4c-1.5-0.1-4.1-0.1-6.8-0.2c-2.6-0.1-5.3-0.4-8-0.7c-2.5-0.2-5-0.6-7.4-0.9
			c-3.9-0.6-7.9-1.4-11.8-2.3c-6.1-1.5-12-3.4-17.8-5.9c-5.3-2.3-10.4-5-15.1-8.4c-3.6-2.6-6.9-5.4-9.7-8.8
			c-2.6-3.1-4.7-6.3-6.1-10.1c-1.5-3.9-2-7.9-1.6-12c0.4-3.6,1.5-7.1,3.2-10.4c1.8-3.4,4.1-6.4,6.8-9.1c3.6-3.7,7.8-6.8,12.3-9.4
			c5.5-3.3,11.3-5.8,17.4-8c5.5-1.9,11.2-3.4,16.9-4.5c3.2-0.7,6.5-1.2,9.7-1.5c2.6-0.3,5.3-0.6,7.8-0.8c3.1-0.2,6.3-0.4,9.4-0.4
			c3.4,0,6.8,0,10.2,0.2c2,0.1,3.9,0.3,6,0.4c1.9,0.1,3.7,0.4,5.6,0.6c2.9,0.4,5.8,0.8,8.7,1.4c4.8,0.9,9.6,2.1,14.2,3.6
			c6.6,2.1,13,4.7,19,8.2c4.2,2.4,8.2,5.2,11.9,8.5c3.1,2.8,5.8,5.9,7.9,9.5c1.7,2.8,2.9,5.9,3.6,9.1c0.9,4.7,0.6,9.3-0.9,13.8
			c-1.3,3.8-3.4,7.2-5.8,10.2c-2.9,3.5-6.3,6.6-10,9.2c-4.5,3.3-9.3,5.9-14.4,8.2c-5.8,2.6-11.7,4.5-17.8,6.1
			c-3.5,0.9-6.9,1.6-10.5,2.2c-2.6,0.4-5.3,0.8-8,1.1C148.4-145.7,142.5-145.4,135.4-145.4z M76.3-220.4c0,0.1,0,0.1,0.1,0.1
			c0.3,0,0.6,0,0.9,0c8.7,0,17.3,0,26,0c0.7,0,1.2,0,1.9,0c1.8,0.1,3.4,0.3,5.1,0.7c3.1,0.7,5.4,2.6,6.8,5.4c0.4,0.7,0.7,1.5,1,2.3
			c0.9,2.6,1.2,5.4,1.4,8.1c0.1,2.5,0.1,5.1,0,7.6c-0.1,2.1-0.4,4.1-0.9,6.1c-0.4,1.5-0.9,3.1-1.8,4.5c-1.3,2.2-3.3,3.7-5.8,4.3
			c-1.2,0.3-2.6,0.4-3.9,0.4c-7.4,0-14.9,0-22.3,0c-0.3,0-0.5,0-0.8,0c-0.1,0-0.3,0.1-0.5,0.1c0,6.8,0,13.4,0,20.2
			c0.3,0.1,0.7,0.3,0.9,0.4c8,3.6,16.5,6,25.1,7.6c3.7,0.7,7.3,1.2,11,1.6c2.3,0.2,4.7,0.5,7.1,0.6c2.6,0.1,5.1,0.2,7.6,0.3
			c5.1,0.1,10.2-0.1,15.3-0.5c2.4-0.2,4.7-0.4,7.2-0.7c3-0.4,5.9-0.9,8.9-1.5c5.3-1.1,10.6-2.4,15.7-4.3c5.7-2,11.2-4.4,16.4-7.5
			c2.4-1.5,4.7-3,7-4.8c0.1-0.1,0.4-0.2,0.5-0.6c-1.2,0-2.3,0-3.5,0s-2.3,0-3.4,0c-1.2,0-2.3,0-3.4,0c-1.2,0-2.3,0-3.4,0
			c-1.2,0-2.3,0-3.6,0c-1.2,0-2.3,0-3.4,0c-1.2,0-2.3,0-3.4,0c-1.2,0-2.3,0.1-3.5-0.1c0-2.5,0-5,0-7.4c0-2.5,0-4.9,0-7.4
			s0-4.9,0-7.4s0-4.9,0-7.4s0-4.9,0-7.4s0-4.9,0-7.4s0-4.9,0-7.4s0-4.9,0-7.4c-0.1-0.1-0.2-0.1-0.4-0.1c-1.2-0.4-2.4-0.7-3.6-1
			c-3.6-1-7.2-1.8-10.8-2.4c-1.9-0.4-3.9-0.7-5.8-0.9c-1.8-0.2-3.5-0.4-5.3-0.6c-1.8-0.1-3.7-0.4-5.4-0.4c-2-0.1-4-0.1-6.1-0.2
			c-3.4-0.1-6.9-0.1-10.3,0.1c-2.8,0.1-5.7,0.3-8.5,0.7c-2.4,0.5-4.5,0.7-6.7,1c-2.6,0.4-5,0.8-7.6,1.3c-5.7,1.1-11.3,2.6-16.8,4.6
			c-4.8,1.8-9.5,3.8-13.9,6.4C76.8-220.7,76.5-220.6,76.3-220.4z M190.8-223.6c-0.1,0.4-0.1,0.7-0.1,1.1c0,13.3,0,26.5,0,39.8
			c0,0.2,0,0.4,0,0.6s0.1,0.3,0.1,0.5c0.2,0,0.4,0,0.7,0c7.2,0,14.2,0,21.4-0.1c0.8,0,1.5,0,2.3-0.1c0.7-1.1,1.3-2.3,1.7-3.5
			c0.5-1.5,0.8-3.2,0.9-4.8c0.2-2.3,0.1-4.6-0.4-6.9c-0.7-3-1.8-5.7-3.4-8.2c-1.9-3-4.3-5.6-6.9-8c-4.7-4.2-10.1-7.4-15.8-10.1
			C191.1-223.5,190.9-223.5,190.8-223.6z M70.3-167.7c0.1-0.4,0.1-0.7,0.1-1c0-10.4,0-20.9,0-31.4c0-5.1,0-10.2,0-15.3
			c0-0.2,0-0.4,0-0.7c0-0.1,0-0.3-0.1-0.4c-0.1,0.1-0.2,0.1-0.3,0.1c-3.1,2.3-6,5-8.5,8c-1.9,2.4-3.5,5-4.6,7.9
			c-1.6,4.1-2,8.2-1.2,12.6c0.6,3.2,1.9,6.1,3.6,8.8c2.8,4.4,6.5,8,10.7,11C70-167.9,70.1-167.8,70.3-167.7z M83.5-193.4
			c0.3,0,0.6,0.1,0.9,0.1c5.7,0,11.4,0,17,0c0.3,0,0.6,0,0.9,0c1.4-0.1,2.4-0.8,2.9-2.1c0.2-0.4,0.4-0.9,0.4-1.4
			c0.1-0.6,0.2-1.1,0.3-1.8c0.1-1.7,0.1-3.4-0.3-5.2c-0.2-0.9-0.6-1.9-1.1-2.6c-0.7-1-1.7-1.5-2.9-1.6c-0.2,0-0.4,0-0.6,0
			c-2.9,0-5.8,0-8.7,0c-2.6,0-5.2,0-7.7,0c-0.3,0-0.6-0.1-0.9,0.1c0,0.1-0.1,0.2-0.1,0.3c0,4.6,0,9.3,0,13.9
			C83.5-193.6,83.5-193.5,83.5-193.4z"/>
		<path class="st3" d="M161.2-188.9c-1.7,0-3.4,0-5.1,0c-1.6,0-3.3,0-4.9,0c-1.6,0-3.3,0-4.9-0.1c-0.2-0.3-0.1-0.6-0.1-0.9
			c0-2.6,0-4.6,0-7.1c0-0.4,0-0.9,0-1.4c0.2-0.1,0.4-0.1,0.5-0.1s0.4,0,0.5,0c8.5,0,17.1,0,25.6,0c0.3,0,0.7,0,0.9,0
			c0.3,0.3,0.2,0.6,0.2,0.8c0,2.2,0,4.4,0,6.6c0,3,0,6.2,0,9.2c0,1.7-0.2,3.5-0.8,5.1c-0.7,2.1-2,3.7-3.9,4.9
			c-1.5,0.9-3,1.4-4.7,1.8c-1.9,0.4-3.7,0.7-5.7,0.7c-3.1,0.1-6.3,0.1-9.6,0.1c-2.6,0-5.1,0-7.7,0c-1.9,0-3.7-0.1-5.6-0.1
			c-1.7-0.1-3.3-0.3-4.9-0.8c-3.6-1-6.2-3.4-7.8-6.8c-0.8-1.7-1.2-3.5-1.5-5.4c-0.3-2.2-0.4-4.5-0.3-6.7c0-2.4,0-4.8,0-7.2
			c-0.1-2.9,0-5.5,0.1-8.3c0.1-2.1,0.4-4.2,1-6.3c0.4-1.3,0.9-2.6,1.7-3.7c1.3-2,3.1-3.4,5.3-4.2c1.5-0.6,3.1-1,4.7-1.2
			c2-0.3,4.1-0.4,6.2-0.4c10.8,0,21.7,0,32.4,0c0.4,0,0.7,0,1.1,0c0,0.2,0.1,0.4,0.1,0.5c0,0.1,0,0,0,0v10.7v0.7
			c-0.4,0-0.5,0.1-0.7,0.5h-1.9c-4.5-0.4-13.3,0-13.3,0h-15.9c0,0-2.4-0.2-3.6,0h-0.1c-2.3,0.6-3.7,1.9-4.2,4.3
			c-0.4,1.5-0.4,4.7-0.4,4.7s0,5.2,0,7.9c0,1.4,0.1,2.7,0.4,4.1c0.7,3.1,2.6,5,5.7,5.6c1.4,0.3,2.9,0.4,4.4,0.4c1.9,0,3.8,0,5.7,0
			c1.3,0,2.7,0,4.1-0.1c1,0,2.1-0.2,3.1-0.5c0.4-0.2,0.8-0.3,1.2-0.5c1.2-0.6,2-1.6,2.4-2.9C161.4-186.1,161.4-187.5,161.2-188.9z"
			/>
	</g>
</g>
<g>
	<g id="Red_Bull_1_">
		<path class="st4" d="M-207.7,117.4V96.3h-11.5v23.4c0,7.9,8.2,14.4,18.3,14.4c10.1,0,18.3-6.4,18.3-14.4V96.3h-11.5v21.2
			c0,3.5-3,6.4-6.8,6.4C-204.7,123.8-207.7,121-207.7,117.4z"/>
		<rect x="-156.4" y="70.8" class="st4" width="11.9" height="61.6"/>
		<rect x="-176.1" y="70.8" class="st4" width="11.9" height="61.6"/>
		<path class="st4" d="M-391.1,84h-6v48.9h-12.7V73.7c0,0,21,0,21.3,0c9.7,0,17.6,7.8,17.6,17.5c0,8.2-5.7,15.1-13.4,17l17.1,24.7
			h-14.6l-12.4-19.4V99.2h2.9c4.5,0,8.2-3.4,8.2-7.6C-383.1,87.4-386.5,84-391.1,84z"/>
		<path class="st5" d="M-329.8,116.8c0.1-0.8,0.1-1.6,0.1-2.5c0.2-12.7-8.2-19.7-18.9-19.7s-19.4,8.8-19.4,19.6s8.7,19.7,19.4,19.7
			c8.2,0,14.6-3.7,17.9-9.5l-9.5-4.4c-1.2,2.6-4.1,4.5-7.4,4.5c-4.6,0-7.9-3.4-8-7.3c0-0.3,0-0.4,0-0.4L-329.8,116.8z M-355.9,109.8
			c0-3.9,3.2-7.2,7.2-7.2c3.9,0,7.2,3.2,7.2,7.2H-355.9z"/>
		<path class="st5" d="M-283.3,132.4V70.8h-11.9v29.3c-2.8-3.1-7-5-11.5-5c-9.7,0-17.5,8.6-17.5,19.2c0,10.6,7.8,19.2,17.5,19.2
			c4.6,0,11.9-5.1,11.9-5.1v3.9L-283.3,132.4L-283.3,132.4z M-303.4,123.6c-4.8,0-8.6-4.2-8.6-9.4s3.9-9.4,8.6-9.4s8.6,4.2,8.6,9.4
			C-294.8,119.3-298.6,123.6-303.4,123.6z"/>
		<path class="st5" d="M-233.7,100.4c3.2-3,5.2-7,5.2-11.4c0-4-1.5-7.7-4.2-10.5c-2.8-3.1-7.8-4.8-14.4-4.8h-20.1v58.7h25.9
			c9.9-0.2,17.9-7.7,17.9-16.9C-223.5,108.9-225.9,104.1-233.7,100.4z M-243.5,122.6h-11.1V84h7.8c3.4,0,6.2,3.1,6.2,6.5
			c0,3.4-2.8,6.2-6.2,6.2h-4.1v10.7h7.4c4.1,0,7.2,3.4,7.2,7.6C-236.4,119.3-239,122.3-243.5,122.6z"/>
	</g>
	<g id="Sun_1_">
		<circle class="st6" cx="-276.8" cy="15.8" r="42.5"/>
	</g>
	<g id="Outline_1_">
		<g>
			<path class="st6" d="M-279.8,35.5c-2.4-1.4-2.9-4-4.1-5.7c-0.5-0.7-1.4-1.4-1.6-1.9c-2.2-5.5-2.9-8.7-3.7-14
				c-0.4-2.8-2.2-5.1-4.9-8.4c-1.2-1.4-2.8-3.8-4.3-5.2c-4.8-4.1-7.4-6.3-10.7-8.5c-0.7-0.5-1.4-0.8-2-1l0,0l0,0h0l0,0
				c-1.1-0.5-3.4-0.8-3.4-0.8s-0.3,0-0.4,0c-2.4,0-4.7,0.9-7,2.7c-1.7,1.1-3.6,1.7-5.5,2.3c-2.3,0.7-4.8,1.5-6.8,3.2
				c-0.4,0.2-0.7,0.6-1,0.9c-0.5,0.5-0.7,1-1.4,1.2c-0.6,0.1-1,0.1-1.4,0.2c-0.7,0.1-1.5,0.2-2.2,0.3c-2.5,0.6-4.3,2.1-6.3,3.7
				c-0.2,0.2-0.5,0.4-0.7,0.5c-1.3,1-3.5,1.9-4.7,2c-3.5,0.1-5.9,0.9-8.5,2.8c-2.6,2-5.5,4.1-8.6,5.4c-0.7,0.3-1.5,0.4-2.3,0.4
				c-0.8,0-2-0.2-2.9-1c-1.2-1.1-1.6-3.2-0.9-4.6c1.1-2.1,3.2-3.8,5-5.1c2.3-1.7,4.5-4,3.5-7.7c-1.1-3.4-5.3-4.5-8-5.3
				c-0.8-0.2-1.5-0.4-1.9-0.6c-0.9-0.4-1.5-0.8-2.1-1.2c-0.6-0.4-1.2-0.8-1.9-1.1c-0.1,0-0.2-0.1-0.3-0.1c-0.4,0-0.7,0.2-0.9,0.6
				c-1,1.7-1.3,3.5-0.9,5.3c0.7,2.8,3.5,5.4,6.4,5.9c0.3,0.1,0.6,0.1,0.9,0.1c0.3,0,0.6,0,0.9,0.1c-2,1.6-3.8,3.2-5.3,5.1
				c-2.1,2.5-2.7,6.7-1.4,9.7c1.2,3,4.2,5.4,7.3,5.9c0.6,0.1,1.3,0.2,2,0.2c1.1,0,2.2-0.1,3.2-0.2c0.2,0,0.5,0,0.8-0.1
				c0.1,2.4,0.2,3.8,1.5,7.2c0.1,0.2,0,0.6-0.2,0.8c-0.2,0.2-2.1,1-2.7,1.1c-0.2,0-0.5,0-0.7,0c-0.1,0-0.2,0-0.4,0s-0.3,0-0.4,0
				c-0.2,0-0.6,0-0.9,0c-1.2,0.2-1.8,1.2-2.2,2.2c-0.2,0.6-0.5,1.1-0.6,1.6c-0.4,1.1-0.7,1.8-1.4,2.3c0,0-1.6-1.4-1.9-1.6
				c-0.3-0.2-0.8-0.3-1.3-0.3c-1,0-1.9,0.7-2.8,1.3c-0.3,0.2-0.6,0.4-0.8,0.6c-0.7,0.5-1.3,1.3-1.5,2.1c-1.2,0.6-2.4,1.3-2.9,2.5
				c-0.2,0.5-0.3,1.2-0.4,1.7c0,0.3,0,0.6-0.1,0.9c-0.1,0.2-0.2,0.4-0.3,0.6c-0.3,0.5-0.6,1.2-0.6,1.6c0,0.9,0.3,1.2,0.8,1.6
				c0.6,0.4,2.2,0.9,3.4,1.2c0.1,0,0.2,0,0.2,0c0.4,0,0.6-0.2,0.9-0.4c0.1-0.1,0.2-0.2,0.4-0.2c0.9,0.2,2.4,0.5,3.7,0.5
				c0.7,0,1.4-0.1,1.9-0.2c1.4-0.4,2.6-2.3,3.2-3.3c0.2-0.2,0.3-0.5,0.4-0.5c0,0,0,0,0.1,0c0.2,0,0.6,0.1,0.9,0.2
				c0.4,0.1,0.9,0.2,1.4,0.3c1.6,0.1,3.1-0.8,4.1-1.6c0.4-0.3,0.8-0.7,1.3-1.1c0.5-0.5,0.9-0.9,1.4-1.2c0.5-0.2,1.1-0.3,1.7-0.3
				c0.2,0,0.5,0,0.7,0c1.2,0.2,2.6,0.5,4.1,0.5c1.4,0,2.5-0.2,3.5-0.7l0.9-0.5c0.9-0.5,1.9-1,2.9-1.5c1.8-1,2.5-2.6,3.1-3.9l0.2-0.3
				c0.3-0.7,0.9-2.1,1-2.4c0.3,0,0.6,0,0.9,0c1,0,1.9-0.2,2.8-0.4c0.9-0.2,1.9-0.4,2.8-0.4c0.5,0,0.9,0,1.4,0.2
				c1.7,0.3,3.9,0.7,6.2,0.7c1.3,0,2.5-0.1,3.5-0.4c0.2,0.2,0.6,0.5,0.8,0.7c0.3,0.2,0.5,0.4,0.8,0.7c-0.2,0-0.5,0.1-0.8,0.1
				c-0.8,0.1-1.6,0.2-2.2,0.8c-0.6-0.2-1.3-0.4-2.1-0.4s-1.6,0.1-2.4,0.2c-0.3,0-0.6,0.1-0.9,0.1c-1.2,0.1-2.1,0.6-2.5,1.4
				c-0.2,0.5-0.5,1.1,0,1.9l2.4,4c0.3,0.5,0.8,0.9,1.1,0.9c0.2,0,0.4,0,0.7,0c0.2,0,0.4,0,0.6,0c0.4,0,0.6,0.1,0.7,0.2
				c0.1,0.2,0.2,0.4,0.4,0.5c0.5,0.8,1,1.6,1.8,2.3c1.2,1,3,1.4,4.8,1c0.7-0.2,1.3-0.5,2-0.7c2.1-0.7,4.2-1.5,6.3-2.4l3.5-0.5
				c1.2-0.2,2-1.8,2.3-2.4l0,0c0,0,0-0.1,0.1-0.2c0,0,1-2.1,1.4-3.3c0,0.2,0,0.9,0,0.9s0.2,4.4,3.6,4.3c1.8-0.1,4.3-1.2,6-1.5
				c1.8-0.3,4.2,0.5,6-0.4c1.7-0.7,2.7-2.1,3-1.8c0.7,0.7,3.7,3.5,8.7,3.3c2.5-0.1,2.8-2.1,1-3c3.4,0.4,4.4-1.4,3.7-2
				C-278.3,36.4-278.6,36.2-279.8,35.5z M-310.2,33.6c-1.3-1.7-2.1-3-2.2-4.5c1.6-0.2,3.1-0.7,5.5-0.9
				C-307.5,30.1-309.7,31-310.2,33.6z"/>
			<path class="st6" d="M-166.6,45c-0.1-0.3-0.2-0.5-0.3-0.6c-0.1-0.4-0.1-0.8-0.2-1.2c0-0.5,0-0.9-0.2-1.4
				c-0.4-1.3-1.8-2.2-2.8-2.6c0-0.5-0.1-1-0.6-1.4c-1.9-1.4-2.9-2.2-3.5-2.7c-0.3-0.3-0.5-0.3-0.5-0.4c-0.2-0.1-0.5-0.2-0.7-0.2
				c-0.8,0-1.5,0.7-2.2,1.4c-0.2,0.2-0.3,0.3-0.5,0.5h-0.1c-0.2,0-0.6-0.6-0.7-0.9c-0.2-0.5-0.3-1-0.5-1.4c-0.2-0.8-0.5-1.6-0.9-2.4
				c-0.7-1.4-2.2-1.4-3.5-1.4c-0.1,0-0.3,0-0.4,0c-0.6,0-1.4-0.1-1.5-0.5c-0.1-0.4,0.2-1.2,0.3-1.7c0.1-0.4,0.2-0.8,0.3-1.1
				c0.3-1.5,0.4-3.5,0.1-5.1c0.3,0,0.7,0,1,0.1s0.6,0.1,0.9,0.1c0.1,0-0.1,0-0.1,0c2,0,3.7-0.4,5.2-1.2c3-1.8,4.8-4.7,4.9-7.8
				c-0.1-1.6-0.5-2.9-1.3-4.6c-1.1-2.2-3-4.3-5.7-6.6c1.5-0.3,2.8-0.7,4.1-1.5c2.4-1.5,3.5-4.4,3.1-7.9c-0.1-0.9-0.4-2.3-1.2-2.7
				c-0.1,0-0.2-0.1-0.3-0.1c-0.5,0-1,0.6-1.5,1.1c-0.2,0.2-0.3,0.4-0.4,0.5c-0.9,0.7-1.8,0.9-2.8,1.1c-0.5,0.1-1.1,0.2-1.6,0.4
				c-2.4,0.8-6.6,2.6-7,5.9s2,5.5,4.2,7.6c0.8,0.7,1.5,1.4,2.1,2.1c1.3,1.5,2.4,3,2.1,4.7c-0.1,0.6-0.9,1.5-1.7,1.8
				c-0.6,0.2-1.2,0.3-1.9,0.3c-2.1,0-4.1-1.1-5.9-2.2l-0.2-0.2c-4.1-2.8-8.3-5.8-13.6-6.3c-2-0.4-3.7-1.6-5.5-2.8
				c-0.4-0.3-0.8-0.5-1.2-0.8c-1.8-1.1-3.7-1.7-5.7-2c-1.1-0.1-1.9-0.8-2.8-1.5c-0.4-0.4-0.9-0.8-1.5-1.1c-2.1-1.3-4.3-2.2-6.8-2.7
				c-0.2-0.1-0.5-0.1-0.7-0.2c-0.7-0.1-1.3-0.3-1.7-0.8c-0.7-0.8-1.7-1.9-2.8-2.7c-1.5-1-3.9-2.1-6-2.1c-0.4,0-0.9,0-1.3,0.2
				c-1.2,0.3-2.1,1-3,1.7c-0.1,0.1-0.2,0.2-0.4,0.3l0,0c-1.9,1.5-4.5,3.5-6.5,5c-6,4.3-8.2,6.1-11.2,9.4c-7.6,8.3-5.3,20.8-11.9,28
				c-1.7,1.9-2.2,2.1-2.8,2.6c-0.8,0.7-0.9,4.1,4.1,2.4c-2.3,2-0.9,2.8,0.7,2.9c2.6,0,5.5-0.9,8.4-3.9c2,2.8,5.5,1.5,7.2,1.7
				c1.7,0.1,4.8,2,6.6,1.9c2.8-0.2,3.8-2.9,3.5-4.4c0.4,0,0.6-0.1,0.7-0.3c0.3,1.6,0.5,2.7,0.9,3.5c0,0,0,0.1,0.1,0.2l0,0l0,0
				c0.2,0.4,0.6,1.1,1,1.5c0.5,0.6,1.2,0.7,1.7,0.7c0.2,0,0.4,0,0.7,0c0.1,0,0.1,0,0.2,0c0.3,0.1,0.8,0.3,1.1,0.4
				c0.5,0.4,0.9,0.8,1.5,1c2.6,0.7,4.8,1.3,6.9,2c0.4,0.1,1.1,0.3,1.7,0.3c0.2,0,0.4,0,0.6,0c2-0.4,3.7-2.1,4.2-4.1
				c0-0.3,0.2-0.3,0.6-0.3c0.3,0,0.6,0,0.7-0.2c1.1-0.9,1.7-2,2.4-3.2c0.1-0.2,0.3-0.5,0.4-0.7c0.3-0.4,0.4-1.2,0.1-1.9
				c-0.2-0.4-0.6-0.7-1.1-0.9c-1.1-0.3-2.2-0.3-3.2-0.3c-0.2,0-0.4,0-0.6,0s-0.4,0-0.6,0c-0.5,0-1.1,0-1.7,0l-0.4-0.4
				c-0.3-0.3-0.7-0.3-1-0.4c-0.1,0-0.2,0-0.3,0l0.9-0.7c0.4,0,1.1,0,1.1,0s4.3-0.4,6.1-0.8c1.8-0.4,5-0.9,5-0.9s0.5,0,0.7,0
				c0.3,0,0.5,0,0.8,0c1,0.1,2,0.1,3,0.1c1.4,0,2.4-0.1,3.4-0.4c0.1,0.5,0.2,1,0.3,1.5c0.4,1.9,0.7,3.6,2.1,5.2
				c0.8,1.1,1.9,1.7,3,2.4c0.5,0.3,1.1,0.7,1.6,1c0.7,0.4,1.3,0.4,2.1,0.4c1.1,0,2.6-0.5,3.4-0.5c3.4,0,6,1.9,8.9,4.3
				c0.5,0.3,1.1,0.5,1.8,0.5c0.9,0,1.8-0.3,2.7-0.7l0.1,0.1c0.5,0.8,1.1,1.6,1.8,2.2c1.1,1,2.4,1.1,3.6,1.1c0.4,0,0.8,0,1.2,0
				c0.6,0,1.2,0,1.7,0c0.2,0.3,0.7,0.6,1,0.6s4-1.3,4.2-1.3c0.2-0.1,0.5-0.3,0.5-0.3C-165.4,47.3-166.1,46-166.6,45z M-242.8,33.7
				c-0.9-1.8-1.6-3.4-2.7-5c2.5,0.6,5.4,0.3,5.4,0.3C-240.9,30.2-241.8,31.8-242.8,33.7z"/>
		</g>
	</g>
	<g id="Bulls_red_1_">
		<g>
			<path class="st5" d="M-227.1,35.5c-0.1-0.2-0.5-0.4-0.5-0.4h-0.2l-1.3,0.4h-0.7h-0.5c-0.3-0.1-0.7,0-0.7,0h0l0,0
				c0,0.1-0.9,1.5-0.8,2.5c0.1,1,1.2,1.2,1.9,1.4c0.3,0,0.6,0.1,0.9,0.1c0.5,0,0.9-0.2,1.1-0.6c0.5-1.2,0.7-2.2,0.9-3.1
				C-227,35.7-227.1,35.5-227.1,35.5z"/>
			<path class="st5" d="M-171.6,38.8c-0.5-0.7-1.3-1.2-2-1.7c-0.3-0.2-0.6-0.4-0.8-0.5l-0.1-0.1c-0.2-0.1-0.3-0.2-0.5-0.2
				c-0.7,0-1.6,0.9-1.6,1.2c0,0.5,0.6,1.3,1.5,2.3l0.2,0.2c0.4,0.5,0.9,0.8,1.4,0.8l0,0c0.5,0,0.9-0.2,1.3-0.5
				C-172,40-171.4,39.3-171.6,38.8z"/>
			<path class="st5" d="M-168.1,44.6c-0.1-0.3-0.2-0.5-0.3-0.7c-0.1-0.3-0.1-0.7-0.2-1c-0.1-0.6-0.1-1.1-0.3-1.5
				c-0.2-0.5-0.8-0.9-1.4-0.9c-0.2,0-0.4,0-0.5,0.1c-0.8,0.4-1.3,0.9-1.2,1.8c0.5,1.4,0.7,2.3,1,3.7c0,0.2,0.2,0.9,0.5,0.9
				c0,0,0,0,0.1,0l2.4-0.8c0.1,0,0.2-0.1,0.2-0.2C-167.6,45.7-167.9,45.1-168.1,44.6z"/>
			<path class="st5" d="M-172.5,46.4c-0.2-1.4-0.6-2.8-1.2-4.2l0-0.1h-0.1c-1.4,0.1-2.3-1-3.1-2.1c-0.3-0.4-0.5-0.7-0.8-1
				c-0.4-0.5-0.9-0.9-1.3-1.3c-0.5-0.4-0.9-0.8-1.1-1.1c-0.2-0.4-0.4-1.2-0.6-1.9c-0.2-0.5-0.3-1.1-0.4-1.4c0-0.1,0-0.2-0.1-0.2
				c-0.2-0.7-0.6-1.5-1.4-1.6c-0.5-0.1-0.9-0.1-1.4-0.1c-1.2,0-2.5-0.3-3.2-1.1c-0.6-0.8-0.3-1.6,0-2.4c0.2-0.4,0.2-0.7,0.3-1
				c0.5-1.5,0.6-3.3,0.2-4.7c0-0.2-0.1-0.4-0.2-0.6c-0.2-0.5-0.4-1.4-0.2-1.6c0.1-0.2,0.3-0.3,0.5-0.3c0.2,0,0.5,0.1,0.7,0.1
				c0.2,0,0.3,0.1,0.5,0.1c0.6,0.2,1.6,0.3,2.4,0.3c1.4,0,2.9-0.3,4.1-0.9c2.4-1.1,4.8-3.8,4.7-7c-0.3-3.3-2.3-6.4-6.2-9.7
				c-0.1-0.1-0.2-0.2-0.3-0.2c-0.5-0.4-1.1-0.9-1.2-1.4c0-0.4,1.2-0.7,2-0.9c0.2,0,0.3-0.1,0.5-0.1l0.2,0c1-0.2,2-0.5,2.8-1.1
				c2.8-1.8,2.7-5.1,2.4-6.9c0,0,0-0.1,0-0.2c0-0.2-0.1-0.5-0.3-0.5c-0.1,0-0.1,0-0.2,0.1c-0.1,0.1-0.2,0.2-0.2,0.2
				c-0.3,0.3-0.7,0.7-1.1,0.9c-0.9,0.5-1.9,0.7-3,0.9c-0.7,0.1-1.3,0.3-2,0.5c-2.8,0.9-4.5,2.3-5.1,4.1c-0.3,0.9-0.2,2.1,0.5,3.2
				c0.9,1.4,2.2,2.7,3.5,3.9c2,1.9,4.1,3.8,4.5,6.5c0.2,1.6-0.4,2.9-1.9,4c-0.8,0.5-1.8,0.7-3,0.7c-1.4,0-3-0.4-4.2-1.1
				c-1.6-0.8-3.2-1.8-4.7-2.9c-2.3-1.5-4.6-3.1-7.2-3.9c-1.2-0.5-2.4-0.8-3.6-1c-1.7-0.4-3.5-0.7-4.9-1.8c-0.5-0.3-1-0.7-1.4-1
				c-1.3-0.9-2.6-1.9-4.1-2.3c-0.6-0.2-1.1-0.3-1.6-0.4c-0.8-0.1-1.6-0.2-2.3-0.7c-0.3-0.2-0.7-0.5-1-0.7c-1.2-0.9-2.5-1.8-3.7-2.4
				c-2.1-1.1-4.4-1.6-7-2.2c-0.8-0.2-1.3-0.8-1.8-1.5c-0.4-0.4-0.7-0.9-1.2-1.2c-2-1.6-3.7-2.6-6-2.6c-0.2,0-0.5,0-0.7,0
				c-1.2,0.1-2.4,1-3.2,1.7c-2.3,2-4.8,3.8-7.1,5.5c-3.6,2.6-7.2,5.2-10.4,8.6c-3.1,3.2-4.2,7.1-5.3,11c-0.2,0.6-0.3,1.1-0.5,1.7
				c-0.3,1.1-0.6,2.1-0.8,3.2c-1.4,5.7-2.9,11.3-8.6,15c-0.4,0.2-0.2,0.7,0.1,0.9c0.2,0,2.5,0.9,4.9-1.5c1.4-1.8,2.2-3.4,3.9-5.2
				c0,0,0.2-0.2,0.4-0.2c0.1,0,0.1,0.1,0.1,0.3c-0.2,0.7-0.7,1.4-1.1,2c-0.5,0.7-0.9,1.3-1.1,2c-0.5,1.6-2.1,2.9-3.4,4.1
				c0,0-0.2,0.1-0.3,0.3c-0.1,0.2-0.1,0.2-0.1,0.2c0,0.4,0.2,0.6,0.8,0.6l0,0c3.2,0,5.5-2.2,7.6-4.4c0.1-0.1,0.2-0.1,0.4-0.1
				c0.1,0,0.2,0,0.4,0c0.2,0.1,0.5,0.4,0.7,0.6c0.7,0.7,1.4,1.3,2.4,1.5l0,0l0,0c1.1-0.2,2.2-0.3,3.3-0.3c0.3,0,0.6,0,0.9,0
				c1.2,0.4,2.3,0.8,3.5,1.2c0.8,0.3,1.6,0.6,2.4,0.9l0,0l0,0c1.1,0,1.8-1,2.4-1.9c0.2-0.6,0.1-1.2,0-1.8c-0.1-0.4-0.1-0.7-0.1-1
				c0.2-0.1,0.5-0.1,0.7,0c0.2,0,0.6,0,0.7,0c0.3,0,0.6-0.4,0.5-0.8c-0.2-1.1-0.7-1.7-1.3-2.5c-0.5-0.7-0.9-1.3-1.1-2.1
				c-0.4-1-1.1-1.8-1.8-2.5c-0.8-0.9-1.6-1.8-1.8-2.8c0,0-0.1-0.2,0-0.3c0.1-0.1,0.3,0,0.3,0c0.4,0.3,0.8,0.6,1.2,0.9
				c1.2,1,2.5,2,4,2.2c1.4,0.1,3,0.3,4.5,0.2c0.4-0.1,0.6-0.4,0.5-0.7c-0.6-1.3-1.2-2.6-1.6-4.1c-0.3-1.1-1-4.1-0.3-6.3
				c0.1-0.2,0.2-0.3,0.3-0.3h0c0.2,0,0.4,0.3,0.5,0.6l0,0.3c0.2,3,0.4,5.9,2.3,8.3c0.5,0.8,1.2,1.2,1.9,1.6c0.5,0.3,1,0.5,1.4,1
				c0.4,0.5,0.5,1.3,0.2,1.8l-2.3,3.3c-0.5,0.8-1.1,1.6-1.2,2.4c-0.2,0.9-0.1,1.7,0,2.4v0.3c0,0-0.1-0.1-0.2-0.2
				c-0.9-1.7-1.1-3.1-0.7-4.2c0.3-0.7,2.2-3.4,2.7-4.2c0.2-0.3,0.3-0.6,0.2-0.7c-0.2-0.2-1.6-0.8-2-0.8c0,0,0,0-0.1,0
				c-0.3,0.1-0.5,0.4-0.7,0.7c0,0-0.1,0.1-0.1,0.2l-2.9,5.1l0,0.2c-0.2,0.5-0.3,1-0.2,1.6c0.2,0.8,0.4,1.6,0.6,2.2
				c0,0.2,0.1,0.3,0.1,0.5c0.2,0.9,0.5,1.7,0.9,2.2c0.2,0.3,0.6,0.4,1,0.4c0.2,0,0.5,0,0.7-0.1c0.4,0,0.7-0.1,1,0
				c0.4,0.1,0.7,0.4,1,0.7c0.3,0.3,0.6,0.7,1.1,0.8c0.9,0.3,1.8,0.5,2.7,0.8c1.2,0.3,2.4,0.6,3.6,1.1c0.7,0.2,1.4,0.4,2.1,0.4
				c0.7,0,1.2-0.2,1.9-0.7c0.9-0.7,1.2-1.5,1.5-2.6c0.2-1,0.5-1,1.2-1.1c0.3,0,0.4,0,0.7-0.1c0.4-0.1,1.4-1.4,1.9-2.4
				c0.2-0.3,0.3-0.5,0.5-0.7c0.2-0.2,0.2-0.5,0.2-0.7c0-0.5-0.4-0.7-0.7-0.7h-0.3c0,0-2.9,0-3.7,0c-1.2,0.1-1.7,1.2-2.2,2.2
				c-0.2,0.4-0.3,0.8-0.5,1.1c-0.3,0.6-0.9,0.9-1.7,0.9c-0.2,0-0.7-0.1-1-0.2c-1.6-0.4-3.2-0.8-3.9-2.4c-0.1-0.3-0.2-0.8,0.2-1.3
				c0.8-1,2-2.2,3.1-3.1c1.6-0.3,3.2-1.5,4-3c0.2-0.2,0.3-0.6,0.4-0.8c0.2-0.4,0.3-0.9,0.7-1.1c0.2-0.1,0.5-0.1,0.5,0.1
				c0.2,0.8-0.2,1.6-0.5,2.4c-0.1,0.2-0.1,0.4-0.2,0.5l0,0.1h0.2c0,0,0.9,0.1,1.4,0.1c1.7,0,3.3-0.3,4.8-0.6
				c1.5-0.3,3.1-0.6,4.8-0.7h0.5c0.7,0.2,1.4,0.2,2.1,0.3c0.7,0,1.4,0.1,2.1,0.1c0.2,0,0.5,0,0.7,0c2.1-0.1,3.6-1,4.1-2.5
				c0.5-1.3,0.4-3.5-0.1-6.6c0-0.2-0.2-0.2-0.2-0.2V21c0-0.1,0-0.2,0.2-0.3c0.2-0.1,0.4,0,0.5,0.2c0.8,2.2,1.2,4.7,1.5,6.5
				c0.3,1.7,1,3.4,2.2,5.3c1.5,2.2,3.9,3.5,6.7,3.5c0.7,0,1.3-0.1,2-0.2c0.5,0,0.6,0,0.9,0c3.6,0,6.7,1.6,9,4.4c0,0,0,0,0,0.1
				c0,0.1-0.2,0.2-0.3,0.2l-0.3-0.2c-2-1.6-4.1-3.1-6.7-3.5c-0.5-0.1-0.9-0.1-1.5-0.1c-0.7,0-1.5,0.1-2.2,0.2
				c-0.7,0.1-1.4,0.2-2.1,0.2c-0.9,0-1.6-0.1-2.3-0.4c-3-1-5.5-4.4-6.2-6.5c0-0.1-0.1-0.2-0.3-0.2c-0.1,0-0.2,0-0.2,0.1
				c-0.3,0.2-0.4,0.3-0.5,0.5c0,0.2,0.2,1.7,0.4,2.4c0.4,1.6,1,4.1,3.1,5c0.2,0.2,0.5,0.3,0.8,0.5c1.1,0.7,2.2,1.4,3.5,1.4
				c0.3,0,0.6,0,0.9-0.1c0.7-0.2,1.5-0.2,2.3-0.2c2.5,0,5,0.8,7.1,2.4c0.4,0.2,0.7,0.5,1,0.7c0.5,0.4,0.9,0.8,1.5,1
				c0.4,0.1,0.7,0.2,1.1,0.2c0.9,0,1.2-0.3,1.9-0.6c0.3-0.2,0.6-0.2,0.8-0.2c0.8,0,1.2,0.6,1.7,1.3c0.3,0.4,0.7,1,1.2,1.4
				c0.7,0.7,1.6,0.8,2.4,0.8c0.4,0,0.8,0,1.2,0c0.4,0,0.9,0,1.1-0.1c0.2,0,0.4-0.1,0.4-0.1L-172.5,46.4z M-253.5,35.2
				c-0.1,0.2-0.5,0.4-0.9,0.4c-0.4,0-0.8-0.1-1-0.3c-0.6-0.4-0.9-1.1-0.9-2c0-0.2,0-0.4,0.2-0.6c0.1-0.1,0.2-0.1,0.4-0.1
				c0.5,0,1.4,0.4,1.9,0.9C-253.8,33.6-253.1,34.6-253.5,35.2z M-252.7,22.6c-0.2,0.2-0.5,0.5-0.8,0.3c-0.3-0.1-0.5-0.5-0.7-0.7
				c-0.2-0.3-0.4-0.7-0.8-0.6c0,0,0,0-0.1,0c-0.4,0-0.7,0.2-1,0.5c-0.2,0.1-0.8,0.6-1,0.7c-0.9,0.7-1.8,1.5-2,2.6
				c-0.1,0.4-0.1,0.4-0.1,0.6c-0.1,0.4-0.1,0.7-0.5,0.9h0c0,0-0.1,0-0.1,0c-0.1,0-0.3,0-0.4-0.2c-0.1-0.1-0.2-0.2-0.2-0.4
				c-0.2-1.8,0.5-3.5,1.7-4.6c0.8-0.7,1.5-1.5,2.1-2.3c0.3-0.4,0.6-0.8,1-1.2c0.2-0.2,0.7,0,1.4,0.7c0.3,0.3,1.2,1.8,1.6,2.8
				C-252.5,22.3-252.7,22.6-252.7,22.6z M-237.7,1.6c-0.3,0.3-0.7,0.7-1.1,1c-1.3,1.2-2.6,2.3-3.5,3.7c-0.4,0.6-0.7,1.2-1,1.8
				c0,0.1-0.1,0.2-0.2,0.2c-0.1,0-0.1,0-0.2-0.1c-0.2-0.2,0-2,0.3-2.8c0.7-1.9,2.3-3.9,4.4-5.4c0.2-0.1,0.5-0.2,0.8-0.2
				c0.4,0,0.7,0.2,0.8,0.5C-237.1,0.7-237.2,1.2-237.7,1.6z"/>
		</g>
		<g>
			<path class="st5" d="M-322.8,37.5c-0.1-0.1-0.1-0.2-0.2-0.4c-0.2-0.4-0.3-0.8-0.5-1.2c-0.2-0.7-0.4-1.4-1.2-1.3
				c-1.2,0.2-2.3,0.2-3.5,0.2c0,0-0.4,0-0.5,0.3c-0.1,0.3,0.2,0.6,0.5,0.9c0.2,0.2,0.4,0.4,0.5,0.5c0.2,0.3,0.5,0.8,0.7,1.3
				c0.3,0.7,0.6,1.4,1,1.5c0.1,0,0.3,0.1,0.5,0.1c0.8,0,1.8-0.4,2.6-1C-322.4,38.1-322.5,37.8-322.8,37.5z"/>
			<path class="st5" d="M-378.6,36.3L-378.6,36.3c-0.3-0.2-0.7-0.2-1,0c-0.2,0.1-0.4,0.3-0.6,0.4c-0.7,0.4-1.3,0.9-2,1.4
				c-0.2,0.2-0.4,0.6-0.4,0.9c0,0.2,0,0.5,0.1,0.6c0,0.1,0.6,0.6,0.7,0.7c0.2,0.1,0.5,0.3,0.8,0.3c0.2,0,0.5,0,0.7-0.2
				c1.2-0.6,2.5-2.9,2.5-3C-377.6,37.1-378,36.8-378.6,36.3z"/>
			<path class="st5" d="M-382.6,41.9c-0.2-0.4-1.1-1.4-1.6-1.4c0,0-0.1,0-0.1,0c-0.7,0.3-1.4,1.1-1.4,1.6c-0.2,2.2-0.2,2.5-0.8,3.1
				c-0.2,0.2-0.3,0.6-0.1,0.8c0.2,0.2,2.3,0.9,2.6,0.9h0c0.2,0,0.4-0.6,0.8-2.1c0.2-0.8,0.5-1.8,0.8-2.6
				C-382.4,42.2-382.4,42.1-382.6,41.9z M-384.1,46.7L-384.1,46.7L-384.1,46.7L-384.1,46.7z"/>
			<path class="st5" d="M-316.2,41.6c0.9-0.1,1.8-0.1,2.5-0.8c0.8-1.2,1.5-2.5,2.2-3.7c0.6-1.2,0.6-2.3,0-3.2
				c-1.7-2.7-2-3.4-2.6-5.2v0.2h0c-0.2-0.1-0.4-0.2-0.6-0.3c-0.4-0.2-1.3-0.5-1.3-0.5h-0.3c-0.6,0-1,0.2-1.1,0.5l0,0l3,6
				c0.2,0.5,0.4,1,0.3,1.6c-0.1,0.7-1.6,3-2,3.3c-0.1,0.1-0.2,0.1-0.2,0.1c0,0-0.2,0-0.1-0.4c0.3-1,0.6-3.2,0.5-4
				c-0.1-0.8-2.6-5-2.7-5.2l0-0.1c-0.4-0.6-0.8-1.3-0.7-2.1c0-0.4,0.3-0.6,0.6-0.7c0.5-0.2,0.9-0.2,1.3-0.3c1.1-0.2,2.2-0.5,2.6-1.1
				c1.2-1.8,1.9-3.7,2.4-6.4c0-0.1,0.1-0.3,0.3-0.3c0.1,0,0.2,0,0.2,0.2c0.5,2.5-0.2,5.2-1.7,7.2c-0.1,0.1-0.2,0.4-0.1,0.6
				c0,0.2,0.3,0.4,0.3,0.4c0.6,0.4,2.7,0.2,4.2-0.6c1.2,0,2.3-0.2,3.3-0.4c0.3-0.1,0.7-0.1,1-0.2c0.1,0,0.2,0.2,0.2,0.2
				c-0.9,1-1.5,2.2-1.7,3.6c-0.2,0.2-0.5,0.5-0.8,0.7c-1,0.9-2,1.9-2.1,3.2c0,0,0,0.5,0.5,0.5c0.2,0,0.3-0.1,0.5-0.1
				c0.2-0.1,0.4-0.2,0.5-0.1c0.2,0,0.3,0.2,0.3,0.3l-1.1,1.7c-0.4,0.7-0.2,1.4-0.1,2.1c0.1,0.4,0.1,0.7,0.2,1
				c0.3,0.8,1.3,1.2,2.1,1.2c1.5-0.1,2.8-0.5,4.1-1c0.2-0.1,0.5-0.2,0.7-0.2c1.4-0.6,3.3-0.7,5.5-0.4c1.8-0.1,3.2-1.3,4.5-2.5
				c0.5,0,1.1,0.3,1.7,1c2,2.1,4.3,3.1,7.3,3.1c0.1,0,0.3,0,0.4,0l0.3,0c0.3-0.1,0.4-0.2,0.4-0.4c0-0.2-0.2-0.5-0.5-0.6l-1.7-0.9
				c-1.3-0.8-2.8-1.9-3.1-3.2c-0.4-1.4-1.2-2.9-1.8-3.8c-0.1-0.2-0.2-0.4-0.4-0.6c-0.2-0.3-0.5-0.7-0.7-1l0,0c1.8,0.7,2.8,2,4,4.2
				c0.9,1.7,3.3,3.4,5.5,3.4c0.3,0,0.6,0,0.9-0.1c0.2,0,0.4-0.2,0.4-0.4c0-0.2,0-0.4-0.2-0.5c-0.6-0.3-1.4-0.7-1.4-0.7
				c-1.6-1-2.5-2.5-3.4-4c-0.3-0.6-0.7-1.2-1.1-1.7c-0.2-0.4-0.7-0.8-1.1-1.1c-0.3-0.3-0.7-0.6-0.7-0.7c-1.4-4-3.1-8.7-3.4-13.9
				c0-0.8-0.6-2.6-1.3-3.7c-2.1-3.4-7-9.2-7.3-9.5c-0.2-0.2-0.4-0.4-0.5-0.5l-0.1-0.1l-8.9-7.4c-1.8-1.2-2.3-1.5-3.6-1.9
				c-0.8-0.3-1.8-0.5-2.8-0.5c-1.3,0-2.5,0.2-3.6,0.7c-0.7,0.4-1.4,0.8-2.1,1.2c-1.2,0.7-2.3,1.5-3.6,1.9c-1,0.5-2.1,0.8-3.1,1.1
				c-2,0.6-4.1,1.3-5.8,2.8c-0.5,0.5-0.9,0.8-1.2,1.1c-1.5,1.4-1.7,1.6-2.9,1.6c-2.9,0-5,0.7-7.1,2.5c-1.7,1.5-3.4,3-5.3,3.7
				c-0.9,0.3-1.9,0.4-2.9,0.5c-1.5,0.1-1.7,0.2-3.1,0.5c-2.1,0.5-4.4,2.2-6.3,3.7c-0.6,0.5-1.4,1.1-1.9,1.4
				c-0.2,0.1-0.5,0.3-0.7,0.4c-2.4,1.4-4.6,2.7-7.4,2.7c-0.1,0,0.2,0,0.1,0c-2.1-0.2-4-1.6-4.7-3.6c-0.6-2.2,0-4.4,1.8-6.1
				c0.8-0.8,1.8-1.6,2.7-2.4c1.4-1.2,2.8-2.4,3.8-3.7c1.1-1.5,1-4-0.2-5.3s-4-2-5-2.3l-0.2,0c-0.1,0-0.3,0-0.4-0.1
				c-0.7-0.1-1.3-0.2-1.9-0.4c-1.6-0.4-2.9-1.7-4.4-2.5c-0.6,0.9-0.7,1.8-0.7,2.8c0.3,2.2,2.1,4.5,4.1,5.4c0.1,0,0.2,0.1,0.2,0.1
				c0.7,0.3,1.3,0.3,2,0.3c0.1,0,0.3,0,0.4,0s0.3,0,0.4,0c0.4,0,0.9,0,1.3,0.1c0.4,0.1,0.8,0.5,0.9,1c0,0.3-0.1,0.5-0.5,0.8
				c-0.3,0.3-0.7,0.6-1,0.9c-1.8,1.4-3.6,3-5.1,4.8c-2,2.1-2.1,5.9-1.2,8.3c1.2,3.2,4.5,5,7.1,5.3c0.5,0.1,1,0.1,1.5,0.1
				c1.6,0,3.1-0.4,4.6-0.7c0,0,0.1,0,0.1,0c0.1,0,0.2,0,0.2,0.3c0,0.7,0.1,1.4,0.1,2.1c0,1.2,0.1,2.3,0.2,2.8c0.2,1,0.7,2.3,1.1,3.1
				c0.2,0.4,0.2,0.6,0.3,0.8c0.1,0.5,0,1-0.3,1.3c-1.1,1-3.4,1.9-3.8,1.9c-0.7,0.1-1.4,0.1-1.9,0.2c-0.2,0-0.5,0-0.6,0
				c-0.2,0-0.5,0.1-0.6,0.3c-0.3,0.3-0.7,1.2-1.1,2.2c-0.2,0.6-0.5,1.3-0.7,1.8c-0.7,1.2-1.9,1.9-3.1,2.6c-0.3,0.2-0.6,0.3-0.9,0.5
				l0,0c-0.5,0.7-0.9,1.5-1.6,2c-0.5,0.5-1.1,0.5-1.7,0.6h0l0,0c-0.9,1-1.2,2.3-1.5,3.7c0,0.2-0.1,0.4-0.1,0.6l0,0.2h-0.8
				c0.5,0,1,0.2,1.5,0.2c0.7,0.1,1.4,0.3,2,0.3c0.6,0,1.2-0.1,1.7-0.4c0.9-0.4,1.3-1.2,1.8-2c0.3-0.5,0.6-1,1-1.5
				c0.2-0.2,0.5-0.4,0.9-0.4c0.3,0,0.7,0.1,1.1,0.2c0.3,0.1,0.7,0.2,1,0.2c1.6,0.1,3.1-0.9,3.9-1.5c0.3-0.2,0.7-0.5,1-0.9
				c0.5-0.5,1-0.9,1.5-1.2c0.7-0.3,1.5-0.5,2.4-0.5c1.2,0,2.5,0.2,3.5,0.4c0.5,0.1,1.1,0.2,1.7,0.2c1,0,1.9-0.2,2.6-0.6
				c0.9-0.5,1.8-1,2.5-1.4c0.4-0.2,0.8-0.4,1.1-0.6c1.3-0.7,2.4-2.7,2.8-3.5c0.4-0.7,1-2.4,1-2.4l0-0.1l-1.5-1.1l0,0.1
				c0,0-1,1.6-1.6,2.4c-2.6,3.6-6.9,4-10.4,4c-0.2,0-0.5,0-0.7,0c-4.3,0-7.7,1.4-10.2,4.2c-0.1,0.1-0.3,0.2-0.4,0
				c0-0.1-0.1-0.2,0-0.3c0.1-0.3,0.1-0.4,0.3-0.7c2.7-3.8,7.2-4.4,10.9-4.4c2.7-0.2,4.7-0.7,6.4-1.5c2.2-1.1,3.8-3.6,4.5-5.6
				c0.4-1.3,0.6-2.7,0.8-4c0.2-1,0.3-2.2,0.6-3.2c0-0.1,0.2-0.2,0.3-0.2c0,0,0,0,0.1,0c0.1,0,0.4,0.1,0.4,0.3
				c-0.4,2.1-0.9,4.9,0.1,7.3c0.5,1,1.4,1.4,2.9,1.4c0.9,0,1.9-0.2,2.9-0.3c0.7-0.1,1.5-0.2,2-0.2c0.2,0,0.5,0,0.8,0
				c1.2,0,2.4,0.2,3.5,0.5c1,0.2,2,0.4,3,0.5c0.2,0,0.4,0,0.6,0c0.4,0,0.7,0,1.1,0c0.9,0,1.5-0.2,2-0.5c0.3-0.2,0.2-0.6,0.1-1.1
				l0-0.1c0-0.1,0-0.2-0.1-0.3c-0.2-0.7-0.5-1.6,0-2.1c0.1,0,0.2-0.1,0.3-0.1c0.1,0,0.2,0,0.2,0.2c0,0.2,0.1,0.4,0.2,0.6
				c0.2,0.8,0.5,1.6,1,2.3c1,1.3,2.7,2.6,4.7,3.7c1.3,0.9,2.9,2.4,3,4.5c0,1-0.9,1.6-1.6,2c-1.1,0.5-3,1.1-3.8,1.1
				c-0.2,0-0.3,0-0.3,0c-1.2-0.7-1.9-1.7-2.6-2.9c-0.4-0.6-0.7-1.2-1.2-1.8c-0.7-0.7-1.5-1-2.6-0.9c-1.1,0.1-2.1,0.3-3.2,0.5
				c-0.2,0-0.4,0.2-0.5,0.4c-0.1,0.2-0.1,0.5,0.1,0.8c0.6,1.1,1.2,2.1,1.8,3.1l0.3,0.5c0.2,0.2,0.5,0.3,0.7,0.3c0.1,0,0.3,0,0.5,0
				c0.2,0,0.4,0,0.5,0c0.5,0,0.9,0.1,1.1,0.4c0.2,0.3,0.4,0.6,0.5,0.9c0.4,0.7,0.8,1.5,1.5,2c0.7,0.6,1.6,0.9,2.5,0.9
				c0.4,0,0.8-0.1,1.2-0.2c2.8-0.9,5.6-1.8,8.2-3.2C-317.6,41.6-316.5,41.6-316.2,41.6z M-311.4,10.4c0,0.2-0.2,0.3-0.3,0.3
				c0,0-0.2,0-0.2-0.2c-0.5-2.4-0.7-3.5-1.3-4.6c-0.2-0.4-0.4-0.7-0.6-0.9c-0.4-0.5-0.7-1-0.4-1.6c0.1-0.2,0.4-0.3,0.7-0.3
				c0.2,0,0.3,0,0.4,0.1c0.5,0.2,0.9,0.8,1.4,1.7C-310.5,7-311.4,10.4-311.4,10.4z M-296.5,34.1c0,0-0.1,0.7-0.4,0.9
				c-0.3,0.3-1.4,0.5-2.1,0.4c-0.6,0-0.8-0.1-0.9-0.3c-0.1-0.2,0.1-0.6,0.1-0.6c0.1-0.2,0.8-1.6,2.2-2c0,0,0.5-0.2,0.9,0
				C-296.3,32.8-296.5,33.9-296.5,34.1z M-292.4,24.7c-0.1,0.5-0.2,0.8-0.3,0.9c-0.1,0.1-0.2,0.4-0.6,0.4c-0.5,0-0.4-0.5-0.4-0.6
				c0,0,0-1.5-0.3-2.1c-0.3-0.7-1.8-2.5-2.6-2.5c-0.2,0-0.8,0.4-1.2,0.9c-0.5,0.7-0.5,0.7-0.7,0.8c-0.2,0.1-0.4,0-0.4-0.3
				c-0.1-0.4-0.1-0.7,0-1.4s0.4-0.9,0.6-1.4c0,0,0.5-1,0.6-1.3c0.5-0.7,1.1-0.7,1.1-0.7c0.2,0,0.7,0,1.2,0.7c0.7,0.8,0.5,0.7,0.7,1
				c0.2,0.3,0.4,0.6,0.9,1.2c0.5,0.6,1.2,1.7,1.3,2.4C-292.3,23.5-292.3,24.2-292.4,24.7z"/>
		</g>
	</g>
</g>
<g>
	<g>
		<path class="st7" d="M177.1,29.3c0-1.5-0.5-2.6-1.3-3.2c-0.9-0.6-2-0.9-3.4-0.9c-1.9,0-4.5,0.6-4.5,3.1c0,2.8,5.7,3.1,9.4,4.3
			c6.6,2.3,8.8,6,8.8,10.5c0,9.2-8.9,13.4-17.1,13.4c-8.7,0-16.6-4-16.1-13.7h11.4c0,2,0.5,3.3,1.4,4.3c1,0.9,2.4,0.9,4.3,0.9
			c2.3,0,5.1-1.1,5.1-3.7c0-2.8-3.8-3.2-9.2-4.9c-4.6-1.5-9.1-4-9.1-10.3c0-8.6,8.3-12.5,16-12.5c8,0,15.3,3.1,15.2,12.4h-11V29.3z"
			/>
		<path class="st7" d="M194.1,17.8h18.4c7,0,11.4,3.8,11.4,12.1c0,7.6-6.3,14.2-16.3,14.2h-7.7l-2.4,11.3h-11.3L194.1,17.8z
			 M201.9,35.3h4.3c4.6,0,6-1.7,6-4.2c0-2.8-2.5-3.3-4.9-3.3h-3.8L201.9,35.3z"/>
		<path class="st7" d="M245.5,17.5c10.5,0,16.9,5,16.9,16.3c0,12.5-8.3,22.7-20.9,22.7c-10.5,0-16.9-5.6-16.9-16.3
			C224.5,27.8,232.7,17.5,245.5,17.5 M241.8,47.4c6.9,0,9.1-8.1,9.1-13.7c0-3.4-1.3-6.8-5.8-6.8c-6.9,0-9.1,8.1-9.1,13.7
			C235.9,44,237.3,47.4,241.8,47.4"/>
		<path class="st7" d="M268.7,17.8h19c6.9,0,12.2,1.9,12.2,9.8c0,5.4-3.4,9.4-8.8,10.3v0.8c3.3,0.9,3.8,4,3.8,7.4
			c0,3.4-0.4,7.1,0.5,9.2h-10.6c-0.4-0.9-0.5-1.9-0.5-3.5c0-1.7,0.6-3.9,0.6-5.7s-1.5-3.3-4.5-3.3h-5.8L272,55.4h-11L268.7,17.8z
			 M276.2,35.3h6.1c3.8,0,5.7-1.9,5.7-4.2c0-1.5-0.9-3.3-4-3.3h-6.4L276.2,35.3z"/>
		<polygon class="st7" points="311.4,27.8 300.3,27.8 302.4,17.8 335.9,17.8 333.8,27.8 322.7,27.8 317.1,55.4 305.7,55.4 		"/>
		<polygon class="st7" points="161.2,69.2 191.8,69.2 190,78 170.7,78 169.6,83 187.6,83 185.7,91.7 167.8,91.7 166.7,96.7 
			186.5,96.7 184.5,106.8 153.3,106.8 		"/>
		<polygon class="st7" points="195.4,69.2 206.8,69.2 213.6,89.2 213.7,89.2 218,69.2 229,69.2 221,106.8 209.9,106.8 203,85.5 
			202.8,85.5 198.4,106.8 187.5,106.8 		"/>
		<path class="st7" d="M252.4,101.9L252.4,101.9c-2.5,3.1-6.2,4.4-10,4.4c-12.8,0-14.9-10.9-14.9-15.4c0-11.5,6.5-22.9,21-22.9
			c8.3,0,15.1,4.2,15.2,13.7h-10.8c-0.2-3.3-2.3-4.5-5.1-4.5c-6.1,0-8.9,6.5-8.9,12.7c0,4.2,1.8,7,6.3,7c3,0,5.5-1.1,6.7-4h-5
			l1.5-7.5h15.3l-4.2,20.1h-7.3L252.4,101.9z"/>
		<polygon class="st7" points="270.8,69.2 282.3,69.2 276.6,96.7 293.1,96.7 291,106.8 263,106.8 		"/>
		<path class="st7" d="M313.6,69.2h11l5.6,36.3H319l-0.6-5h-11.6l-2.7,5h-11.6L313.6,69.2z M310.8,93h7.2l-1.3-11.3h-0.1L310.8,93z"
			/>
		<polygon class="st7" points="340.1,69.2 351.6,69.2 358.5,89.2 358.6,89.2 362.7,69.2 373.9,69.2 366,106.8 354.6,106.8 
			347.7,85.6 347.7,85.6 343.2,106.8 332.2,106.8 		"/>
		<path class="st7" d="M376.9,69.2h17.3c7,0,15.6,4.3,14.9,16.6c-0.6,12.5-8.5,21-21.5,21h-18.6L376.9,69.2z M382.6,96.7h5.7
			c7.8,0,9.6-8,9.6-11.7c0-5.8-3-7.1-7-7.1h-4.4L382.6,96.7z"/>
		<path class="st8" d="M126.9,59.9c0,0.6,0.3,1.4,0.3,2c-0.1,24.8-15.3,45.9-36.6,55l-0.3-20.1c0,0,0-17.3,10.5-26.4
			C112.9,60.2,126.9,59.9,126.9,59.9"/>
		<path class="st8" d="M44.2,116.9C22.7,108,7.6,86.7,7.6,61.9c0-0.6,0.3-1.4,0.3-2c0,0,13.8,0.3,25.9,10.5
			c10.5,9.1,10.4,26.4,10.4,26.4S44.2,116.9,44.2,116.9z"/>
		<path class="st8" d="M46.5,38.3c0-11.4,9.4-20.7,20.9-20.7c11.4,0,20.7,9.4,20.7,20.7c0,11.4-9.4,20.7-20.7,20.7
			C55.9,59.2,46.5,49.8,46.5,38.3 M64.8,121.8h2.9h2.9V93.4c-0.3,0,0-23.2,16.2-37S123,40.1,123,40.1C114.3,17.9,92.8,2.4,67.6,2.4
			S20.9,18,12.2,40.1c0,0,19.9,2.4,36.3,16.3c16.3,13.8,16.4,37,16.9,37v27.8L64.8,121.8z"/>
	</g>
</g>
<g>
	<path class="st9" d="M-378.5,309.4c-9.2-28.9,6.8-59.8,35.7-69c26.5-8.5,54.7,4.4,66.3,28.8c0.2,0.5,0.4,0.9,0.7,1.4
		c0.6,1.3,1,2.7,1.1,2.8c0.2,0.6,0.3,1,0.3,1l0.1-0.1c0,0-0.1-0.4-0.2-0.6c-0.1-0.2-0.1-0.3-0.2-0.5c-0.1-0.2-0.2-0.4-0.2-0.7
		c-9.8-30.8-42.7-47.9-73.5-38.1c-30.8,9.9-47.9,42.8-38.1,73.7s42.7,47.9,73.5,38.1c0.3-0.1,0.6-0.2,0.9-0.3c0.1,0,1.3-0.5,1.9-0.7
		c0.1-0.1,0.2-0.1,0.2-0.1v-0.1c0,0-1.2,0.4-2.6,0.8c-0.8,0.2-1.7,0.5-3.5,0.8c-0.3,0.1-1,0.2-1.4,0.2c-1.2,0.2-1.6,0.2-2.7,0.4
		C-345.6,350.1-370.5,334.7-378.5,309.4"/>
	<path class="st10" d="M-262.7,343.6c0.1,3.3,1,4.9,4.2,4.9c1.9,0,3.2-0.7,3.8-2l1.7,0.7c-0.9,1.8-2.4,2.9-5.6,2.9
		c-4.4,0-6.3-2.2-6.3-7.1c0-4.5,1.6-7.1,6.4-7.1c5.1,0,5.7,3.3,5.7,7.1v0.6L-262.7,343.6L-262.7,343.6z M-258.5,337.5
		c-2.7,0-4,1.1-4.2,4.4h7.9C-254.8,339.2-255.4,337.5-258.5,337.5"/>
	<path class="st10" d="M-241.2,349.3l-3.4-4.7c-0.3-0.4-0.4-0.7-0.6-1.1c-0.2,0.4-0.3,0.7-0.6,1.1l-3.3,4.7h-2.2l4.9-6.9l-4.6-6.4
		h2.2l3.1,4.3c0.2,0.3,0.4,0.6,0.6,1.1c0.2-0.4,0.3-0.7,0.5-1.1l2.9-4.3h2.3l-4.6,6.5l4.9,6.8L-241.2,349.3L-241.2,349.3z"/>
	<path class="st10" d="M-231.3,350.1c-1.2,0-2.3-0.3-3.2-1.2v7.1h-1.7v-19.9h0.7l0.7,1.6c1.7-1.3,2.7-1.8,4-1.8
		c4.1,0,5.8,2.7,5.8,6.8C-225,347.3-226.9,350.1-231.3,350.1 M-230.5,337.5c-1.3,0-2.7,0.9-4,1.8v8c1.2,0.9,2.4,1.2,3.6,1.2
		c3,0,4.2-2,4.2-5.8C-226.7,339.7-227.6,337.5-230.5,337.5"/>
	<path class="st10" d="M-220.4,343.6c0.1,3.3,1,4.9,4.2,4.9c2,0,3.2-0.7,3.8-2l1.7,0.7c-0.9,1.8-2.5,2.9-5.5,2.9
		c-4.3,0-6.3-2.2-6.3-7.1c0-4.5,1.6-7.1,6.4-7.1c5.1,0,5.7,3.3,5.7,7.1v0.6L-220.4,343.6L-220.4,343.6z M-216.4,337.5
		c-2.7,0-4,1.1-4.2,4.4h7.9C-212.7,339.2-213.4,337.5-216.4,337.5"/>
	<path class="st10" d="M-201.9,337.9c-1.1,0-1.8,0.2-2.9,1.1l-0.7,0.7v9.7h-2.5v-13.3h1.6l0.3,1.4l1.1-0.9c0.8-0.7,1.9-0.8,2.4-0.8
		c0.6,0,0.8,0.1,1.1,0.2v2.2c-0.4-0.2-0.8-0.2-1.2-0.2"/>
	<path class="st10" d="M-196.4,334.4h-2.3c-0.1,0-0.2-0.1-0.2-0.2v-2.2c0-0.1,0.1-0.2,0.2-0.2h2.1c0.2,0,0.2,0,0.2,0.3v2.1
		c0,0.2,0,0.2-0.2,0.2 M-198.9,336.1h1.7v13.3h-1.7V336.1z"/>
	<path class="st10" d="M-192.3,343.6c0.1,3.3,1,4.9,4.2,4.9c2,0,3.2-0.7,3.8-2l1.7,0.7c-0.9,1.8-2.4,2.9-5.6,2.9
		c-4.4,0-6.3-2.2-6.3-7.1c0-4.5,1.6-7.1,6.4-7.1c5.1,0,5.7,3.3,5.7,7.1v0.6L-192.3,343.6L-192.3,343.6z M-187.9,337.5
		c-2.7,0-4,1.1-4.2,4.4h7.9C-184.2,339.2-184.8,337.5-187.9,337.5"/>
	<path class="st10" d="M-170.7,349.7v-8.8c0-2.6-1.1-3.2-2.6-3.2c-1.1,0-1.7,0.3-2.9,1.1l-1.2,0.8v9.7h-1.7v-13.3h1.3l0.4,1.9l1-0.7
		c1.2-0.9,2.3-1.3,3.5-1.3c2.7,0,4.8,1.4,4.6,5.1v8.2h-2.5V349.7z"/>
	<path class="st10" d="M-159.2,350.1c-4.7,0-6.3-2.6-6.3-7.1c0-4.6,1.6-7.1,6.3-7.1c2.4,0,3.7,0.8,4.9,2.5l-1.6,0.8
		c-0.3-0.4-0.6-0.7-1-1.1c-0.5-0.3-1.2-0.6-2.2-0.6c-2.9,0-4.3,1.2-4.3,5.5c0,4.2,1.2,5.5,4.3,5.5c2,0,2.7-0.7,3.4-1.7l1.5,0.8
		C-155.5,349.4-157,350.1-159.2,350.1"/>
	<path class="st10" d="M-150,343.6c0.1,3.3,1,4.9,4.2,4.9c2,0,3.2-0.7,3.8-2l1.8,0.7c-0.9,1.8-2.5,2.9-5.5,2.9
		c-4.3,0-6.3-2.2-6.3-7.1c0-4.5,1.6-7.1,6.4-7.1c5.1,0,5.7,3.3,5.7,7.1v0.6L-150,343.6L-150,343.6z M-146.2,337.5
		c-2.7,0-4,1.1-4.2,4.4h7.9C-142.5,339.2-143.1,337.5-146.2,337.5"/>
	<path class="st10" d="M-133.2,350.1c-2.3,0-4.5-1-5.1-3l1.8-0.6c0.5,1.3,1.7,2,3.4,2c2.6,0,3.5-1.1,3.5-2.7c0-1.2-0.7-1.8-1.8-2
		l-3.4-0.6c-1.8-0.3-3.1-1.4-3.1-3.5c0-2.4,1.7-4,5.1-4c2.1,0,3.9,0.7,4.8,2.3l-1.6,0.8c-0.6-0.8-1.4-1.5-3.1-1.5
		c-2.2,0-3.2,0.9-3.2,2.3c0,0.8,0.2,1.5,1.7,1.7l3.3,0.5c1.9,0.3,3.4,1.6,3.4,3.7C-127.7,349-130.2,350.1-133.2,350.1"/>
	<path class="st11" d="M-325.6,324.8c-12.6,0-21.5-4.8-26.7-16.1l13.8-6.4c3.1,5.9,6,8.3,13,8.3c6.6,0,8.1-2.1,8.1-5.2
		c0-2.6-0.7-4-4.2-4.6l-12.8-2.2c-10.1-1.7-15.8-8.1-15.8-18.1c0-13.8,12.9-18.4,24.7-18.4c11,0,19.1,3.2,24.9,12.8l-13.8,6.5
		c-2.5-3.9-5.5-5.5-11.2-5.5c-5.5,0-7.3,1.5-7.3,3.6c0,2.3,1,3.3,2.9,3.6c13.5,2.1,29.8,2.2,29.8,21.2
		C-300,318.3-310.7,324.8-325.6,324.8"/>
	<path class="st11" d="M-270.7,325.2c-2,0-4-0.3-6.1-1.3v26.3H-295v-71.3h13.9l1,2.9c3.5-2.8,7.7-4.3,12.1-4.3
		c12.8,0,22.5,6.3,22.5,23.6C-245.6,316.9-254.8,325.2-270.7,325.2 M-272.4,288.7c-1.5,0-3.1,0.4-5.2,1.4v22.5
		c1.9,0.6,3.3,0.9,4.7,0.9c5.7,0,7.9-4.3,7.9-12.7C-265,293.5-266.8,288.7-272.4,288.7"/>
	<path class="st11" d="M-218.4,324.9c-18.5,0-25.3-9.9-25.3-23.6s6.8-23.7,25.3-23.7s25.4,9.9,25.4,23.6
		C-193.1,314.8-200,324.9-218.4,324.9 M-218.4,289.7c-4.8,0-7.4,2.2-7.4,11.6c0,9.3,2.6,11.5,7.4,11.5c4.8,0,7.5-2.2,7.5-11.6
		S-213.6,289.7-218.4,289.7"/>
	<path class="st11" d="M-162.5,292.1c-3.2,0-6.5,0.4-9,1.7v29.9H-189v-44.7h14.8l1.6,4.1c2.8-3.9,7.2-5.4,11.9-5.4
		c1.3,0,2.7,0.1,4,0.3v14.6c-1.7-0.4-3.6-0.6-5.6-0.6"/>
	<path class="st11" d="M-124.7,324.9c-9.2,0-17.9-3.4-17.9-15.3V293h-9.9v-14.9h9.9v-13.2l17.4-4.9v18.1h16.7l-4.6,14.9h-12.1v16.5
		c0,1.8,1.2,2.4,2.6,2.4c1.8,0,4.1-1,5.3-2.1l9.5,9c-4.2,3.8-10.9,6-17.2,6"/>
	<path class="st12" d="M-373.6,310.3c-8.8-27.7,6.5-57.4,34.3-66.1c25.8-8.2,53.3,4.6,64,28.8c0.2,0.6,0.6,1.2,0.7,1.8h0.2l-0.1-0.2
		c-9.5-29.2-40.8-45.4-70.2-36c-29.5,9.4-45.9,40.9-36.5,70.4c9.4,29.5,40.9,45.9,70.4,36.5c0.3-0.1,0.9-0.3,0.9-0.3h-0.1
		c0,0,0.1,0-0.2,0.1C-337.1,352.3-365.1,337.1-373.6,310.3"/>
	<path class="st11" d="M-343.1,366.2c0,0.2,0,0.6,0,0.6s0.5,0.2,0.4,0.3c0,0.1-0.1,0.2-0.1,0.2s-0.1,0.1-0.2,0.1s-0.1,0-0.2-0.1
		c-0.1,0-0.2-0.1-0.2-0.1c-0.1,0-0.2-0.1-0.3-0.1c-0.2,0-0.3-0.1-0.5-0.1c-0.2,0-0.4,0-0.6,0.1c-0.2,0.1-0.2,0.2-0.4,0.3
		c-0.1,0.2-0.2,0.3-0.2,0.6c-0.1,0.2-0.2,0.9-0.2,0.9v1.1h2.1c0.1,0,0.2,0,0.2,0.1c0.1,0,0.1,0.1,0.2,0.2c0,0.1,0.1,0.3,0.1,0.4
		c0,0.2,0,0.3,0,0.6c0,0.4,0,0.8-0.1,0.9c-0.1,0.2-0.2,0.3-0.3,0.3h-2.1v8.6c0,0.1,0,0.2-0.1,0.2s-0.2,0.1-0.3,0.2
		c-0.1,0-0.3,0.1-0.5,0.1c-0.2,0-0.4,0-0.8,0c-0.3,0-0.5,0-0.8,0c-0.2,0-0.3-0.1-0.5-0.1c-0.1,0-0.2-0.1-0.3-0.2
		c-0.1-0.1-0.1-0.2-0.1-0.2v-8.6h-1.3c-0.2,0-0.2-0.1-0.3-0.3c-0.1-0.2-0.1-0.5-0.1-0.9c0-0.3,0-0.4,0-0.6c0-0.2,0.1-0.3,0.1-0.4
		c0-0.1,0.1-0.2,0.2-0.2c0.1,0,0.2-0.1,0.2-0.1h1.2v-0.9c0-0.7,0.1-1.4,0.2-1.9c0.2-0.6,0.4-1,0.6-1.4c0.3-0.3,0.7-0.7,1.1-0.8
		c0.5-0.2,1-0.2,1.7-0.2c0.3,0,0.6,0,0.9,0.1c0.2,0.1,0.5,0.1,0.6,0.2c0.2,0.1,0.2,0.1,0.3,0.2c0.1,0.1,0.1,0.2,0.2,0.2
		c0,0.1,0.1,0.2,0.1,0.4C-343.2,365.8-343.1,366.1-343.1,366.2z M-330.7,375.7c0,0.9-0.1,1.7-0.3,2.5c-0.2,0.7-0.6,1.4-1.1,2
		c-0.5,0.6-1.1,1-1.8,1.2c-0.7,0.3-1.6,0.4-2.6,0.4s-1.8-0.2-2.5-0.4c-0.7-0.2-1.3-0.7-1.7-1.2c-0.5-0.5-0.8-1.2-1.1-1.9
		c-0.2-0.7-0.3-1.6-0.3-2.6c0-0.9,0.1-1.7,0.3-2.6c0.2-0.7,0.6-1.4,1.1-2c0.5-0.6,1.1-1,1.8-1.2c0.7-0.3,1.6-0.4,2.6-0.4
		s1.8,0.2,2.5,0.4c0.7,0.2,1.3,0.7,1.7,1.2c0.5,0.5,0.8,1.2,1.1,1.9C-330.8,373.8-330.7,374.8-330.7,375.7z M-333.9,375.8
		c0-0.5-0.1-1-0.2-1.5c-0.1-0.4-0.2-0.8-0.4-1.2c-0.2-0.3-0.5-0.6-0.8-0.7s-0.7-0.2-1.2-0.2c-0.4,0-0.8,0.1-1.2,0.2
		c-0.3,0.2-0.6,0.4-0.8,0.7c-0.2,0.3-0.4,0.7-0.5,1.2c-0.1,0.4-0.2,1-0.2,1.6c0,0.5,0.1,1,0.2,1.5c0.1,0.4,0.2,0.8,0.4,1.2
		c0.2,0.3,0.5,0.6,0.8,0.7c0.3,0.2,0.7,0.2,1.2,0.2s0.8-0.1,1.2-0.2s0.6-0.4,0.8-0.7c0.2-0.3,0.4-0.7,0.5-1.2
		C-333.9,376.9-333.9,376.4-333.9,375.8z M-321.5,371.4c0,0,0,0.4,0,0.7c0,0.2,0,0.4-0.1,0.4c0,0.1-0.1,0.2-0.2,0.3
		c-0.1,0-0.1,0.1-0.2,0.1c-0.1,0-0.2,0-0.3-0.1c-0.1,0-0.2-0.1-0.3-0.1c-0.1,0-0.3-0.1-0.4-0.1c-0.1,0-0.3-0.1-0.4-0.1
		s-0.4,0-0.5,0.1s-0.4,0.2-0.5,0.4s-0.4,0.4-0.6,0.6c-0.2,0.3-0.4,0.6-0.7,1v6.6c0,0,0.4,0.2,0.3,0.2c-0.1,0.1-0.2,0.1-0.2,0.2
		c-0.1,0-0.2,0.1-0.5,0.1h-0.7h-0.7c-0.2,0-0.3-0.1-0.5-0.1c-0.1,0-0.2-0.1-0.2-0.2c-0.1-0.1,0.1-0.2,0.1-0.2v-10.9
		c0,0-0.2-0.2-0.1-0.2c0-0.1,0.1-0.1,0.2-0.2c0.1,0,0.2-0.1,0.4,0.2h0.7h0.7c0.2-0.3,0.3-0.2,0.4-0.2s0.2,0.1,0.2,0.2
		c0,0.1,0.1,0.2,0.1,0.2v1.3c0.3-0.4,0.6-0.7,0.8-1c0.2-0.2,0.5-0.5,0.7-0.7c0.2-0.2,0.4-0.2,0.7-0.3c0.2-0.1,0.7,0.4,0.7,0.4h0.3
		c0,0,0.2-0.5,0.4-0.4c0.2,0,0.2,0.1,0.3,0.1s0.2,0.1,0.2,0.1s0.1,0.1,0.1,0.2s0,0.1-0.2,0.2v0.4
		C-321.3,370.9-321.5,371.4-321.5,371.4z M-307.4,380.1c0,0.3,0,0.7-0.1,0.8c-0.1,0.2-0.1,0.3-0.2,0.4c-0.1,0.1-0.2,0.2-0.3,0.2
		c-0.2,0.1-0.3,0.1-0.5,0.2s-0.6-0.1-0.6-0.1s-0.6,0-0.8,0c-0.6,0-1.1-0.1-1.5-0.2c-0.4-0.2-0.8-0.4-1-0.7c-0.3-0.3-0.5-0.7-0.6-1.2
		c-0.2-0.5-0.2-1-0.2-1.7v-5.2h-1.3c-0.2,0-0.2-0.1-0.3-0.2s-0.1-0.5-0.1-0.9c0-0.2,0-0.7,0-0.7s0-0.2,0-0.4c0-0.1,0.1-0.2,0.2-0.2
		s0.2-0.1,0.2-0.1h1.2v-2.4c0.1-0.1,0.1-0.2,0.2-0.2c0.1-0.1,0.2-0.1,0.2-0.2c0.1-0.1,0.5-0.5,0.5-0.5h0.7h0.7
		c0.2,0.4,0.3,0.5,0.5,0.5c0.1,0.1,0.2,0.1,0.2,0.2s0.1,0.2,0.1,0.2v2.4h2.3c0.1,0,0.2,0,0.2,0.1c0.1,0,0.1,0.1,0.2,0.2
		c0,0.1-0.2,0.4-0.2,0.4v0.6c0,0,0.3,0.7,0.2,0.9s-0.2,0.2-0.3,0.4h-2.3v4.9c-0.1,0.6,0,1,0.2,1.3c0.2,0.3,0.5,0.4,1,0.4
		c0.2,0,0.3,0,0.4-0.1c0.2,0,0.2-0.1,0.3-0.1s0.2-0.1,0.2-0.1c0.1,0,0.2-0.1,0.2-0.1c0.1,0,0.1,0,0.2,0.1c0.1,0,0.1,0.1,0.1,0.2
		s0.1,0.2,0.1,0.3C-307.4,379.7-307.4,379.9-307.4,380.1z M-294.9,380.8c0,0.5,0,0.6-0.1,0.6c-0.1,0.1-0.2,0.1-0.2,0.2
		c-0.1,0-0.5,0-0.5,0s-0.7,0-1,0s-0.6,0-0.7,0s-0.3-0.1-0.5-0.1c-0.1,0-0.2-0.1-0.2-0.2c-0.1-0.1-0.1-0.2-0.1-0.2V375
		c0-0.5,0-0.9-0.1-1.2c-0.1-0.3-0.2-0.6-0.3-0.7c-0.2-0.2-0.3-0.4-0.6-0.5c-0.2-0.1-0.5-0.2-0.8-0.2c-0.4,0-0.7,0.2-1.1,0.4
		c-0.4,0.2-0.8,0.7-1.2,1.2v7.1c0,0.1,0,0.2-0.1,0.2s-0.2,0.1-0.3,0.2c-0.1,0-0.3,0.1-0.5,0.1c-0.2,0-0.4,0-0.8,0s-0.6,0-0.8,0
		s-0.3-0.1-0.5-0.1c-0.1,0-0.2-0.1-0.3-0.2s-0.1-0.2-0.1-0.2v-15.6c0-0.1,0-0.2,0.1-0.2s0.2-0.1,0.3-0.2s0.3-0.1,0.5-0.1
		c0.2,0,0.4,0,0.8,0s0.6,0,0.8,0s0.3,0.1,0.5,0.1c0.1,0.1,0.2,0.1,0.3,0.2s0.1,0.2,0.1,0.2v5.8c0,0,1.3-0.9,1.8-1.2
		c0.6-0.2,1.1-0.4,1.7-0.4c0.7,0,1.3,0.1,1.8,0.3c0.5,0.2,0.9,0.6,1.2,1c0.3,0.4,0.5,0.9,0.7,1.5c0.2,0.6,0.2,1.2,0.2,2.1
		L-294.9,380.8L-294.9,380.8z M-281.9,375.9c0,0-0.1,0.3-0.2,0.5c-0.2,0.2-0.4,0.2-0.7,0.4h-6.5c0,0.4,0.1,0.8,0.2,1.1
		c0.1,0.4,0.2,0.7,0.5,1c0.2,0.2,0.6,0.5,0.9,0.6c0.4,0.2,0.8,0.2,1.3,0.2s1,0,1.4-0.1s0.7-0.2,1.1-0.2c0.3-0.1,0.6-0.2,0.7-0.2
		c0.2-0.1,0.3-0.1,0.5-0.1c0.1,0,0.2,0,0.2,0.1c0.1,0,0.1,0.1,0.1,0.2c0,0.1,0.1,0.2-0.1,0.3v0.5v0.4v0.3c0.2,0.1,0.2,0.2,0.1,0.2
		c0,0.1-0.1,0.1-0.2,0.2s-0.2,0.2-0.4,0.2c-0.2,0.1-0.5,0.2-0.9,0.2c-0.3,0.1-0.7,0.2-1.2,0.2c-0.5,0.1-1,0.1-1.5,0.1
		c-1,0-1.8-0.1-2.6-0.3c-0.7-0.2-1.3-0.6-1.8-1.1c-0.5-0.5-0.8-1.1-1.1-1.9c-0.2-0.7-0.3-1.7-0.3-2.7c0-1,0.2-1.8,0.4-2.6
		c0.2-0.7,0.6-1.4,1.1-2c0.5-0.5,1.1-0.9,1.7-1.2c0.7-0.2,1.5-0.4,2.3-0.4c0.9,0,1.7,0.2,2.3,0.4c0.7,0.2,1.2,0.7,1.6,1.1
		c0.4,0.5,0.7,1,0.9,1.7c0.2,0.7,0.3,1.3,0.4,2.1v0.9H-281.9z M-285.1,374.9c0-0.8-0.2-1.5-0.5-2c-0.3-0.5-0.9-0.7-1.7-0.7
		c-0.4,0-0.7,0.1-1,0.2s-0.5,0.3-0.7,0.6c-0.2,0.2-0.3,0.5-0.4,0.9c-0.1,0.3-0.2,0.7-0.2,1.1L-285.1,374.9L-285.1,374.9z
		 M-263.4,380.8c0,0.5,0,0.6-0.1,0.6c-0.1,0.1-0.2,0.1-0.2,0.2c-0.1,0-0.5,0-0.5,0h-0.7h-0.7c-0.2,0.1-0.3,0-0.5,0
		c-0.1,0-0.2-0.1-0.2-0.2c-0.1-0.1-0.1-0.2-0.3-0.2v-6.1c0.3-0.5,0.3-0.9,0.2-1.2c-0.1-0.3-0.2-0.6-0.3-0.7
		c-0.2-0.2-0.3-0.4-0.6-0.5c-0.2-0.1-0.5-0.2-0.8-0.2c-0.4,0-0.7,0.2-1.2,0.4c-0.4,0.2-0.8,0.7-1.4,1.2v7.2c0.2,0.1,0.2,0.2,0.1,0.2
		c-0.1,0.1-0.2,0.1-0.2,0.2c-0.1,0-0.5,0.8-0.5,0.8s-0.1,0-0.4,0s-0.5,0-0.7,0c-0.2,0-0.3-0.1-0.5-0.1c-0.1,0-0.2-0.1-0.2-0.2
		c-0.1-0.1-0.1-0.2-0.1-0.3v-11.4c0-0.1,0-0.2,0.1-0.3c0-0.1,0.1-0.1,0.2-0.2c0.1,0,0.2-0.1,0.4-0.1c0.2,0,0.4,0,0.6,0s0.5,0,0.6,0
		s0.3,0.1,0.4,0.1c0.1,0,0.2,0.1,0.2,0.2s0.1,0.2,0.1,0.3v1.1c0,0,1-1.2,1.6-1.5c0.6-0.3,1.2-0.5,1.9-0.5c0.7,0,1.3,0.1,1.8,0.3
		s0.9,0.6,1.2,1c0.3,0.4,0.5,0.9,0.7,1.5s0.2,1.2,0.2,2L-263.4,380.8L-263.4,380.8z M-250.4,375.9c0,0-0.1,0.3-0.2,0.5
		c-0.2,0.2-0.4,0.2-0.7,0.4h-6.5c0,0.4,0.1,0.8,0.2,1.1c0.1,0.4,0.2,0.7,0.5,1c0.2,0.2,0.6,0.5,0.9,0.6c0.4,0.2,0.8,0.2,1.3,0.2
		s1,0,1.4-0.1c0.4-0.1,0.7-0.2,1.1-0.2c0.3-0.1,0.6-0.2,0.7-0.2c0.2-0.1,0.3-0.1,0.5-0.1c0.1,0,0.2,0,0.2,0.1c0.1,0,0.1,0.1,0.1,0.2
		c0,0.1,0.1,0.2-0.1,0.3v0.5v0.4v0.3c0.2,0.1,0.2,0.2,0.1,0.2c0,0.1-0.1,0.1-0.2,0.2c-0.1,0.1-0.2,0.2-0.4,0.2
		c-0.2,0.1-0.5,0.2-0.9,0.2c-0.3,0.1-0.7,0.2-1.2,0.2c-0.5,0.1-1,0.1-1.5,0.1c-1,0-1.8-0.1-2.6-0.3c-0.7-0.2-1.3-0.6-1.8-1.1
		s-0.8-1.1-1.1-1.9c-0.2-0.7-0.3-1.7-0.3-2.7c0-1,0.2-1.8,0.4-2.6c0.2-0.7,0.6-1.4,1.1-2c0.5-0.5,1.1-0.9,1.7-1.2
		c0.7-0.2,1.5-0.4,2.3-0.4c0.9,0,1.7,0.2,2.3,0.4c0.7,0.2,1.2,0.7,1.6,1.1c0.4,0.5,0.7,1,0.9,1.7c0.2,0.7,0.3,1.3,0.4,2.1v0.9
		H-250.4z M-253.6,374.9c0-0.8-0.2-1.5-0.5-2s-0.9-0.7-1.7-0.7c-0.4,0-0.7,0.1-1,0.2s-0.5,0.3-0.7,0.6c-0.2,0.2-0.3,0.5-0.4,0.9
		c-0.1,0.3-0.2,0.7-0.2,1.1L-253.6,374.9L-253.6,374.9z M-238.9,381c0.1,0.2,0.1,0.2,0.1,0.3c0,0.1-0.1,0.2-0.2,0.2
		s-0.2,0.1-0.5,0.1s-0.6,0-0.9,0c-0.3,0-0.7,0-0.9,0s-0.4,0-0.5-0.1c-0.2,0-0.2-0.1-0.2-0.2c-0.1-0.1-0.1-0.1-0.2-0.2l-2-3.8l-2,3.8
		c0,0.1-0.1,0.2-0.2,0.2c-0.1,0.1-0.2,0.1-0.2,0.2c-0.1,0-0.2,0.1-0.5,0.1s-0.5,0-0.8,0s-0.7,0-0.8,0c-0.2,0-0.3-0.1-0.5-0.1
		c-0.1-0.1-0.2-0.2-0.2-0.2c0-0.1,0-0.2,0.1-0.3l3-5.3l-2.7-5c-0.1-0.2-0.1-0.2-0.1-0.3s0.1-0.2,0.2-0.2c0.1-0.1,0.2-0.1,0.5-0.1
		c0.2,0,0.6,0,0.9,0s0.7,0,0.8,0c0.2,0,0.4,0,0.5,0.1c0.1,0,0.2,0.1,0.2,0.1c0.1,0.1,0.1,0.1,0.2,0.2l1.9,3.6l1.9-3.6
		c0-0.1,0.1-0.1,0.1-0.2c0.1-0.1,0.2-0.1,0.2-0.1c0.1,0,0.2-0.1,0.4-0.1s0.4,0,0.7,0s0.7,0,0.8,0c0.2,0,0.3,0.1,0.5,0.1
		c0.1,0.1,0.2,0.2,0.2,0.2c0,0.1-0.1,0.2-0.2,0.4l-2.7,4.9L-238.9,381z M-230.5,380.1c0,0.3,0,0.7-0.1,0.8c-0.1,0.2-0.1,0.3-0.2,0.4
		c-0.1,0.1-0.2,0.2-0.3,0.2c-0.2,0.1-0.3,0.1-0.5,0.2s-0.6-0.1-0.6-0.1s-0.4,0-0.7,0c-0.6,0-1.1-0.1-1.5-0.2c-0.4-0.2-0.8-0.4-1-0.7
		c-0.3-0.3-0.5-0.7-0.6-1.2c-0.2-0.5-0.2-1-0.2-1.7v-5.2h-1.3c-0.2,0-0.2-0.1-0.3-0.2c-0.1-0.2-0.1-0.5-0.1-0.9c0-0.2,0-0.7,0-0.7
		s-0.1-0.2-0.1-0.4c0-0.1,0.1-0.2,0.2-0.2s0.2-0.1,0.2-0.1h1.4v-2.4c-0.1-0.1-0.1-0.2,0-0.2c0.1-0.1,0.2-0.1,0.2-0.2
		c0.1-0.1,0.5-0.5,0.5-0.5h0.7h0.7c0.2,0.4,0.3,0.5,0.5,0.5c0.1,0.1,0.2,0.1,0.2,0.2s0.1,0.2,0.3,0.2v2.4h2.1c0.1,0,0.2,0,0.2,0.1
		c0.1,0,0.1,0.1,0.2,0.2c0,0.1,0,0.4,0,0.4v0.6c0,0,0.1,0.7,0,0.9c-0.1,0.2-0.2,0.2-0.3,0.4h-2.2v4.9c-0.2,0.6-0.1,1,0,1.3
		c0.2,0.3,0.5,0.4,1,0.4c0.2,0,0.3,0,0.4-0.1c0.2,0,0.2-0.1,0.3-0.1s0.2-0.1,0.2-0.1s0.2-0.1,0.2-0.1c0.1,0,0.1,0,0.2,0.1
		c0.1,0,0.1,0.1,0.1,0.2s0.1,0.2,0.1,0.3C-230.5,379.7-230.5,379.9-230.5,380.1z M-213,371.1c0,0.4-0.1,0.7-0.1,0.8
		c-0.1,0.2-0.2,0.2-0.3,0.6h-1.2c0.2-0.2,0.3,0.1,0.4,0.3c0.1,0.2,0.1,0.5,0.1,0.7c0,0.7-0.1,1.2-0.3,1.7s-0.5,0.9-0.9,1.2
		c-0.4,0.3-0.8,0.6-1.4,0.7s-1.2,0.2-1.8,0.2c-0.3,0-0.7-0.1-1-0.2s-0.6-0.2-0.7-0.3c-0.1,0.1-0.2,0.2-0.2,0.4
		c-0.1,0.2-0.1,0.3-0.1,0.5c0,0.2,0.1,0.4,0.3,0.6c0.2,0.2,0.5,0.2,0.8,0.2l2.7,0.1c0.6,0,1.2,0.1,1.7,0.2s0.9,0.3,1.2,0.7
		c0.3,0.2,0.6,0.6,0.7,1c0.2,0.4,0.2,0.8,0.2,1.3s-0.1,1.1-0.3,1.5c-0.2,0.5-0.6,0.9-1.1,1.2c-0.5,0.3-1.1,0.7-1.7,0.8
		c-0.7,0.2-1.6,0.3-2.5,0.3c-0.9,0-1.7-0.1-2.3-0.2c-0.7-0.2-1.2-0.3-1.6-0.6c-0.4-0.2-0.7-0.6-0.9-0.9c-0.2-0.3-0.2-0.7-0.2-1.2
		c0-0.2,0-0.5,0.1-0.7c0.1-0.2,0.2-0.5,0.3-0.7c0.2-0.2,0.3-0.4,0.5-0.7c0.2-0.2,0.4-0.4,0.7-0.6c-0.3-0.2-0.6-0.4-0.8-0.7
		c-0.2-0.3-0.2-0.7-0.2-1.1c0-0.5,0.1-0.9,0.3-1.3c0.2-0.4,0.5-0.7,0.8-1.1c-0.2-0.2-0.5-0.7-0.7-1c-0.2-0.4-0.2-0.9-0.2-1.5
		c0-0.7,0.1-1.2,0.3-1.7c0.2-0.5,0.5-0.9,0.9-1.2c0.4-0.3,0.8-0.6,1.4-0.8c0.6-0.2,1.2-0.2,1.8-0.2c0.3,0,0.7,0,1,0.1
		c0.3,0,0.6,0.1,0.8,0.3h3.4c0.2-0.1,0.2,0,0.3,0.1V371.1z M-215.7,382.3c0-0.3-0.2-0.7-0.4-0.8c-0.3-0.2-0.7-0.3-1.2-0.3l-2.2-0.1
		c-0.2,0.2-0.4,0.3-0.5,0.4c-0.2,0.2-0.2,0.2-0.3,0.4s-0.2,0.2-0.2,0.4c0,0.1,0,0.2,0,0.4c0,0.4,0.2,0.7,0.6,0.9
		c0.4,0.2,1,0.3,1.7,0.3c0.5,0,0.8-0.1,1.2-0.2c0.3-0.1,0.6-0.2,0.7-0.3c0.2-0.2,0.3-0.3,0.4-0.5
		C-215.8,382.7-215.7,382.5-215.7,382.3z M-216.9,373.7c0-0.6-0.2-1-0.5-1.3c-0.3-0.3-0.7-0.5-1.4-0.5c-0.3,0-0.6,0.1-0.8,0.2
		c-0.2,0.1-0.4,0.2-0.6,0.4c-0.2,0.2-0.2,0.4-0.3,0.6c-0.1,0.2-0.1,0.5-0.1,0.7c0,0.6,0.2,1,0.5,1.3c0.3,0.3,0.7,0.5,1.3,0.5
		c0.3,0,0.6-0.1,0.8-0.2s0.4-0.2,0.6-0.4c0.2-0.2,0.2-0.3,0.3-0.6C-216.9,374.2-216.9,373.9-216.9,373.7z M-201.2,375.9
		c0,0-0.1,0.3-0.2,0.5c-0.2,0.2-0.4,0.2-0.7,0.4h-6.5c0,0.4,0.1,0.8,0.2,1.1c0.1,0.4,0.2,0.7,0.5,1c0.2,0.2,0.6,0.5,0.9,0.6
		c0.4,0.2,0.8,0.2,1.3,0.2s1,0,1.4-0.1c0.4-0.1,0.7-0.2,1.1-0.2c0.3-0.1,0.6-0.2,0.7-0.2c0.2-0.1,0.3-0.1,0.5-0.1
		c0.1,0,0.2,0,0.2,0.1c0.1,0,0.1,0.1,0.1,0.2c0,0.1,0.1,0.2-0.4,0.3v0.5v0.4v0.3c0.5,0.1,0.5,0.2,0.4,0.2c0,0.1-0.1,0.1-0.2,0.2
		c-0.1,0.1-0.2,0.2-0.4,0.2c-0.2,0.1-0.5,0.2-0.9,0.2c-0.3,0.1-0.7,0.2-1.2,0.2c-0.5,0.1-1,0.1-1.5,0.1c-1,0-1.8-0.1-2.6-0.3
		c-0.7-0.2-1.3-0.6-1.8-1.1c-0.5-0.5-0.8-1.1-1.1-1.9c-0.2-0.7-0.3-1.7-0.3-2.7c0-1,0.2-1.8,0.4-2.6c0.2-0.7,0.6-1.4,1.1-2
		c0.5-0.5,1.1-0.9,1.7-1.2c0.7-0.2,1.5-0.4,2.3-0.4c0.9,0,1.7,0.2,2.3,0.4c0.7,0.2,1.2,0.7,1.6,1.1c0.4,0.5,0.7,1,0.9,1.7
		c0.2,0.7,0.3,1.3,0.1,2.1v0.9H-201.2z M-203.9,374.9c0-0.8-0.2-1.5-0.5-2c-0.3-0.5-0.9-0.7-1.7-0.7c-0.4,0-0.7,0.1-1,0.2
		s-0.5,0.3-0.7,0.6c-0.2,0.2-0.3,0.5-0.4,0.9c-0.1,0.3-0.2,0.7-0.2,1.1L-203.9,374.9L-203.9,374.9z M-188.4,380.8
		c0,0.5,0,0.6-0.1,0.6c-0.1,0.1-0.2,0.1-0.2,0.2c-0.1,0-0.5,0-0.5,0h-0.7h-0.7c-0.2,0.1-0.3,0-0.5,0c-0.1,0-0.2-0.1-0.2-0.2
		c-0.1-0.1-0.1-0.2,0-0.2v-6.1c-0.1-0.5-0.1-0.9-0.1-1.2c-0.1-0.3-0.2-0.6-0.3-0.7c-0.2-0.2-0.3-0.4-0.6-0.5
		c-0.2-0.1-0.5-0.2-0.8-0.2c-0.4,0-0.7,0.2-1.2,0.4c-0.4,0.2-0.8,0.7-1.1,1.2v7.2c-0.1,0.1-0.1,0.2-0.2,0.2s-0.2,0.1-0.2,0.2
		c-0.1,0-0.5,0.8-0.5,0.8s-0.6,0-0.9,0s-0.5,0-0.7,0s-0.3-0.1-0.5-0.1c-0.1,0-0.2-0.1-0.2-0.2s-0.1-0.2-0.1-0.3v-11.4
		c0-0.1,0-0.2,0.1-0.3c0-0.1,0.1-0.1,0.2-0.2c0.1,0,0.2-0.1,0.4-0.1s0.4,0,0.6,0s0.5,0,0.6,0s0.3,0.1,0.4,0.1s0.2,0.1,0.2,0.2
		s0.1,0.2,0.1,0.3v1.1c0,0,1.5-1.2,2.1-1.5c0.6-0.3,1.2-0.5,1.9-0.5c0.7,0,1.3,0.1,1.8,0.3c0.5,0.2,0.9,0.6,1.2,1
		c0.3,0.4,0.5,0.9,0.7,1.5c0.2,0.6,0.2,1.2-0.3,2v6.3H-188.4z M-175.3,375.9c0,0-0.1,0.3-0.2,0.5c-0.2,0.2-0.4,0.2-0.7,0.4h-6.5
		c0,0.4,0.1,0.8,0.2,1.1c0.1,0.4,0.2,0.7,0.5,1c0.2,0.2,0.6,0.5,0.9,0.6c0.4,0.2,0.8,0.2,1.3,0.2s1,0,1.4-0.1
		c0.4-0.1,0.7-0.2,1.1-0.2c0.3-0.1,0.6-0.2,0.7-0.2c0.2-0.1,0.3-0.1,0.5-0.1c0.1,0,0.2,0,0.2,0.1c0.1,0,0.1,0.1,0.1,0.2
		c0,0.1,0.1,0.2,0.2,0.3v0.5v0.4v0.3c-0.1,0.1-0.1,0.2-0.2,0.2c0,0.1-0.1,0.1-0.2,0.2c-0.1,0.1-0.2,0.2-0.4,0.2
		c-0.2,0.1-0.5,0.2-0.9,0.2c-0.3,0.1-0.7,0.2-1.2,0.2c-0.5,0.1-1,0.1-1.5,0.1c-1,0-1.8-0.1-2.6-0.3c-0.7-0.2-1.3-0.6-1.8-1.1
		c-0.5-0.5-0.8-1.1-1.1-1.9c-0.2-0.7-0.3-1.7-0.3-2.7c0-1,0.2-1.8,0.4-2.6c0.2-0.7,0.6-1.4,1.1-2c0.5-0.5,1.1-0.9,1.7-1.2
		c0.7-0.2,1.5-0.4,2.3-0.4c0.9,0,1.7,0.2,2.3,0.4c0.7,0.2,1.2,0.7,1.6,1.1c0.4,0.5,0.7,1,0.9,1.7c0.2,0.7,0.3,1.3,0.7,2.1v0.9
		H-175.3z M-178.2,374.9c0-0.8-0.2-1.5-0.5-2s-0.9-0.7-1.7-0.7c-0.4,0-0.7,0.1-1,0.2s-0.5,0.3-0.7,0.6c-0.2,0.2-0.3,0.5-0.4,0.9
		c-0.1,0.3-0.2,0.7-0.2,1.1L-178.2,374.9L-178.2,374.9z M-165.8,371.4c0,0,0,0.4,0,0.7c0,0.2,0,0.4-0.1,0.4c0,0.1-0.1,0.2-0.2,0.3
		c-0.1,0-0.1,0.1-0.2,0.1c-0.1,0-0.2,0-0.3-0.1c-0.1,0-0.2-0.1-0.3-0.1c-0.1,0-0.3-0.1-0.4-0.1s-0.3-0.1-0.4-0.1
		c-0.2,0-0.4,0-0.5,0.1c-0.2,0.1-0.4,0.2-0.5,0.4c-0.2,0.2-0.4,0.4-0.6,0.6c-0.2,0.3-0.4,0.6-0.7,1v6.7c0,0.1,0,0.2-0.1,0.2
		c-0.1,0.1-0.2,0.1-0.3,0.2c-0.1,0-0.3,0.1-0.5,0.1c-0.2,0-0.4,0-0.8,0s-0.6,0-0.8,0c-0.2,0-0.3-0.1-0.5-0.1c-0.1,0-0.2-0.1-0.3-0.2
		c-0.1-0.1-0.1-0.2-0.1-0.2v-10.9c0,0,0.3-0.2,0.3-0.2c0-0.1,0.1-0.1,0.2-0.2c0.1,0,0.2-0.1,0.4,0.2h0.7h0.7
		c0.2-0.3,0.3-0.2,0.4-0.2s0.2,0.1,0.2,0.2c0,0.1,0.1,0.2-0.4,0.2v1.3c0.8-0.4,1.1-0.7,1.3-1c0.2-0.2,0.5-0.5,0.7-0.7
		c0.2-0.2,0.4-0.2,0.7-0.3c0.2-0.1,0.7,0.4,0.7,0.4h0.3c0,0,0.2-0.5,0.4-0.4c0.2,0,0.2,0.1,0.3,0.1c0.1,0,0.2,0.1,0.2,0.1
		c0.1,0,0.1,0.1,0.1,0.2s0,0.1-0.7,0.2v0.4C-165.9,370.9-165.8,371.4-165.8,371.4z M-155.1,381.7c0,0.1,0,0.2-0.1,0.3
		c-0.1,0.1-0.2,0.1-0.4,0.2c-0.2,0-0.4,0.1-0.7,0.1s-0.6,0-0.8-0.1c-0.2,0-0.2-0.1-0.3-0.2c-0.1-0.1-0.1-0.2-0.1-0.3v-0.8
		c-0.4,0.5-0.9,0.8-1.4,1.1c-0.6,0.3-1.2,0.4-1.8,0.4c-0.6,0-1-0.1-1.5-0.3s-0.9-0.3-1.2-0.7c-0.3-0.3-0.6-0.7-0.8-1.1
		c-0.2-0.4-0.3-0.9-0.3-1.5c0-0.7,0.1-1.2,0.3-1.7c0.2-0.5,0.6-0.8,1-1.2c0.5-0.3,1-0.5,1.8-0.7c0.7-0.2,1.5-0.3,2.5-0.3h0.7v-0.7
		c0-0.3,0-0.7-0.1-0.9c-0.1-0.2-0.2-0.5-0.3-0.7c-0.2-0.2-0.3-0.3-0.6-0.4c-0.2-0.1-0.5-0.1-0.9-0.1c-0.5,0-0.9,0.1-1.2,0.2
		c-0.4,0.1-0.7,0.2-1,0.4c-0.3,0.2-0.5,0.2-0.7,0.4c-0.2,0.1-0.4,0.2-0.5,0.2c-0.1,0-0.2,0-0.2-0.1c-0.1-0.1-0.2-0.2-0.2-0.2
		c-0.1-0.1-0.1-0.2-0.1-0.4s0-0.7,0-0.9c0-0.2,0-0.4,0.1-0.6c0-0.2,0.1-0.2,0.2-0.4c0.1-0.1,0.3-0.2,0.6-0.4c0.2-0.2,0.6-0.2,1-0.4
		c0.4-0.1,0.8-0.2,1.2-0.3c0.4-0.1,0.9-0.1,1.4-0.1c0.8,0,1.5,0.1,2.1,0.2c0.6,0.2,1.1,0.4,1.5,0.7c0.4,0.3,0.7,0.7,0.8,1.3
		c0.2,0.6,0.2,1.1,0.2,1.9L-155.1,381.7L-155.1,381.7z M-158.2,376.7h-1.2c-0.5,0-0.9,0-1.2,0.1c-0.3,0.1-0.7,0.2-0.8,0.3
		c-0.2,0.2-0.4,0.3-0.5,0.5c-0.1,0.2-0.2,0.4-0.2,0.7c0,0.4,0.2,0.8,0.4,1.1c0.2,0.2,0.7,0.4,1.2,0.4c0.4,0,0.8-0.1,1.2-0.3
		s0.7-0.5,1.1-1L-158.2,376.7L-158.2,376.7z M-141.7,370c0.3,0,0.5,0.1,0.7,0.2c0.2,0.2,0.2,0.3,0.2,0.7v10.3c0,0.1,0,0.2-0.1,0.2
		c-0.1,0.1-0.2,0.1-0.3,0.2c-0.1,0-0.3,0.1-0.5,0.1c-0.2,0-0.4,0-0.8,0s-0.6,0-0.8,0c-0.2,0-0.3-0.1-0.5-0.1c-0.1,0-0.2-0.1-0.3-0.2
		c-0.1-0.1-0.1-0.2-0.1-0.2v-8.6h-5v5.1c0,0.6,0.1,1,0.2,1.3c0.2,0.3,0.5,0.4,0.9,0.4c0.2,0,0.3,0,0.4-0.1c0.2,0,0.2-0.1,0.3-0.1
		s0.2-0.1,0.2-0.1c0.1,0,0.2-0.1,0.2-0.1c0.1,0,0.1,0,0.2,0.1c0.1,0,0.1,0.1,0.1,0.2c0,0.1,0.1,0.2,0.1,0.3c0,0.2,0,0.1,0,0.3
		c0,0.3,0,0.7-0.1,0.8c0,0.2-0.1,0.3-0.2,0.4c-0.1,0.1-0.2,0.2-0.3,0.2c-0.2,0.1-0.3,0.1-0.5,0.2c-0.2,0.1-0.4,0.1-0.6,0.1
		c-0.2,0-0.4,0-0.7,0c-0.6,0-1.2-0.1-1.6-0.2c-0.4-0.2-0.8-0.4-1.1-0.7c-0.3-0.3-0.5-0.7-0.7-1.2c-0.2-0.5-0.2-1.1-0.2-1.7v-5.1
		h-1.3c-0.2,0-0.2-0.1-0.3-0.3c-0.1-0.2-0.1-0.5-0.1-0.9c0-0.3,0-0.4,0-0.6c0-0.2,0.1-0.3,0.1-0.4c0-0.1,0.1-0.2,0.2-0.2
		s0.2-0.1,0.2-0.1h1.2v-2.4c0.4-0.1,0.4-0.2,0.5-0.2c0.1-0.1,0.2-0.1,0.2-0.2c0.1-0.1,0.2-0.1,0.5-0.5h0.7h0.7
		c0.2,0.4,0.3,0.5,0.5,0.5c0.1,0.1,0.2,0.1,0.2,0.2c0.1,0.1,0.1,0.2-0.2,0.2v2.4L-141.7,370L-141.7,370z M-140.9,366.7
		c0,0.6-0.2,1.1-0.4,1.2c-0.2,0.2-0.7,0.3-1.4,0.3c-0.7,0-1.2-0.1-1.4-0.3c-0.2-0.2-0.3-0.7-0.3-1.2s0.1-1.1,0.3-1.2
		c0.2-0.2,0.7-0.3,1.4-0.3c0.7,0,1.2,0.1,1.4,0.3C-141,365.7-140.9,366.1-140.9,366.7z M-127.1,375.7c0,0.9-0.1,1.7-0.3,2.5
		c-0.2,0.7-0.6,1.4-1.1,2c-0.5,0.6-1.1,1-1.8,1.2c-0.7,0.3-1.6,0.4-2.6,0.4c-1,0-1.8-0.2-2.5-0.4c-0.7-0.2-1.3-0.7-1.7-1.2
		c-0.5-0.5-0.8-1.2-1.1-1.9c-0.2-0.7-0.3-1.6-0.3-2.6c0-0.9,0.1-1.7,0.3-2.6c0.2-0.7,0.6-1.4,1.1-2c0.5-0.6,1.1-1,1.8-1.2
		c0.7-0.3,1.6-0.4,2.6-0.4c1,0,1.8,0.2,2.5,0.4c0.7,0.2,1.3,0.7,1.7,1.2c0.5,0.5,0.8,1.2,1.1,1.9
		C-127.2,373.8-127.1,374.8-127.1,375.7z M-130.2,375.8c0-0.5-0.1-1-0.2-1.5c-0.1-0.4-0.2-0.8-0.4-1.2c-0.2-0.3-0.5-0.6-0.8-0.7
		s-0.7-0.2-1.2-0.2c-0.4,0-0.8,0.1-1.2,0.2s-0.6,0.4-0.8,0.7c-0.2,0.3-0.4,0.7-0.5,1.2c-0.1,0.4-0.2,1-0.2,1.6c0,0.5,0.1,1,0.2,1.5
		c0.1,0.4,0.2,0.8,0.4,1.2c0.2,0.3,0.5,0.6,0.8,0.7s0.7,0.2,1.2,0.2s0.8-0.1,1.2-0.2s0.6-0.4,0.8-0.7c0.2-0.3,0.4-0.7,0.5-1.2
		C-130.3,376.9-130.2,376.4-130.2,375.8z M-114.4,380.8c0,0.5,0,0.6-0.1,0.6c-0.1,0.1-0.2,0.1-0.2,0.2c-0.1,0-0.5,0-0.5,0h-0.7h-0.7
		c-0.2,0.1-0.3,0-0.5,0c-0.1,0-0.2-0.1-0.2-0.2c-0.1-0.1-0.1-0.2-0.3-0.2v-6.1c0.2-0.5,0.2-0.9,0.1-1.2c-0.1-0.3-0.2-0.6-0.3-0.7
		c-0.2-0.2-0.3-0.4-0.6-0.5c-0.2-0.1-0.5-0.2-0.8-0.2c-0.4,0-0.7,0.2-1.2,0.4s-0.8,0.7-1.3,1.2v7.2c0.1,0.1,0.1,0.2,0,0.2
		s-0.2,0.1-0.2,0.2c-0.1,0-0.5,0.8-0.5,0.8s-0.9,0-1.2,0s-0.5,0-0.7,0c-0.2,0-0.3-0.1-0.5-0.1c-0.1,0-0.2-0.1-0.2-0.2
		c-0.1-0.1-0.1-0.2-0.1-0.3v-11.4c0-0.1,0-0.2,0.1-0.3c0-0.1,0.1-0.1,0.2-0.2c0.1,0,0.2-0.1,0.4-0.1s0.4,0,0.6,0s0.5,0,0.6,0
		c0.2,0,0.3,0.1,0.4,0.1s0.2,0.1,0.2,0.2s0.1,0.2,0.1,0.3v1.1c0,0,1.8-1.2,2.3-1.5c0.6-0.3,1.2-0.5,1.9-0.5c0.7,0,1.3,0.1,1.8,0.3
		c0.5,0.2,0.9,0.6,1.2,1c0.3,0.4,0.5,0.9,0.7,1.5c0.2,0.6,0.2,1.2,0.3,2L-114.4,380.8L-114.4,380.8z"/>
</g>
<g>
	
		<linearGradient id="SVGID_1_" gradientUnits="userSpaceOnUse" x1="-1760.9135" y1="3237.8855" x2="-1760.9135" y2="3345.1216" gradientTransform="matrix(0.6463 0 0 -0.6463 1286.8345 2375.6455)">
		<stop  offset="0" style="stop-color:#B00005"/>
		<stop  offset="0.25" style="stop-color:#B70007"/>
		<stop  offset="0.5" style="stop-color:#BE010A"/>
		<stop  offset="0.75" style="stop-color:#C6010D"/>
		<stop  offset="1" style="stop-color:#CD010F"/>
	</linearGradient>
	<path class="st13" d="M249.5,213.6H43.5V283h205.9c2.5,0,4.6-2,4.6-4.6v-38.1l0,0v-22C254,215.5,252.1,213.6,249.5,213.6z"/>
	
		<linearGradient id="SVGID_2_" gradientUnits="userSpaceOnUse" x1="-2012.5596" y1="3345.3267" x2="-2012.5596" y2="3237.5679" gradientTransform="matrix(0.6463 0 0 -0.6463 1286.8345 2375.6455)">
		<stop  offset="0" style="stop-color:#001455"/>
		<stop  offset="0.25" style="stop-color:#001150"/>
		<stop  offset="0.5" style="stop-color:#000E4B"/>
		<stop  offset="0.75" style="stop-color:#000B46"/>
		<stop  offset="1" style="stop-color:#000841"/>
	</linearGradient>
	<path class="st14" d="M43.7,213.6H-66.9c-2.5,0-4.6,2-4.6,4.6v42v18.4c0,2.5,2,4.6,4.6,4.6H43.5v-34.2l0,0v-35.3H43.7z"/>
	<path class="st15" d="M-17.2,261.2c0,2.8-1.1,4.6-6.7,4.6c-0.7,0-1.3,0-2-0.2v-38c0-2.8,1.1-5.9,6.5-5.9c0.7,0,1.5,0,2.2,0.2V261.2
		L-17.2,261.2z M-27.9,255.3c0,5.4-3.5,9.3-10.6,10c-5.2,0.7-12.6,0-16.1-0.4c-0.2-0.7-0.2-1.3-0.2-2c0-4.8,2.6-5.9,5-5.9
		s6.3,0.4,9.3,0.4s4.1-1.1,4.1-2.2c0-1.3-1.3-2-3.7-2.4l-6.7-1.3c-5.6-1.1-8.7-5-8.7-9.1c0-5,3.5-9.1,10.4-10
		c5.2-0.7,11.7,0,15.2,0.4c0.2,0.7,0.2,1.1,0.2,1.7c0,4.8-2.4,5.6-4.8,5.6c-1.7,0-4.6-0.4-7.8-0.4c-3.3,0-4.6,0.9-4.6,2
		c0,1.1,1.3,1.7,3.3,2l6.5,1.1C-30.7,247.1-27.9,250.8-27.9,255.3 M6.8,275.9c0.7,0.4,2.2,0.9,4.1,0.9c3.3,0,5-1.1,6.3-4.1
		l17.6-39.1c-0.7-0.4-2.4-0.9-3.7-0.9c-2.2,0-5.2,0.4-7.2,5l-5.6,13.5l-11.1-18c-0.7-0.2-2.4-0.4-3.7-0.4c-3.9,0-6.1,1.5-8.5,3.9
		l-10.8,11.7l8.7,13.7c1.5,2.4,3.7,3.7,7.2,3.7c2.2,0,4.1-0.4,5-0.9l-10.4-15.6l7.4-7.8l12.2,19.1"/>
	<g>
		<path id="path4078_1_" class="st15" d="M58.9,259.5c1.5,0,5.3,1.7,10.2,1.7c4.5,0,7.7-1.5,7.7-4.7c0-7-19.8-3.2-19.8-14.7
			c0-4.3,3.2-9,12.1-9c6.6,0,11.3,2.1,11.3,2.1s0,0.4,0,1.1c0,1.5-0.6,3-1.9,3c-2.1,0-4.5-1.5-9.6-1.5c-4.7,0-7,1.9-7,4.3
			c0,6.8,19.8,3.2,19.8,14.7c0,5.1-4,9.4-13,9.4c-7,0-12.1-2.1-12.1-2.1s0-0.4,0-1.1C56.7,259.9,58,259.5,58.9,259.5L58.9,259.5z"/>
		<path id="path4080_1_" class="st15" d="M105.6,232.8c-7.8,0-10,5.6-10,5.6v-3.3c0,0-2.2-2-3.9-2c-1.3,0-2.6,0.4-2.6,0.4v42.5
			c0,0,1.1,0.2,2.6,0.2c1.7,0,1.7-2.2,1.7-2.2v-13.9c0,0,4.3,5.6,12.1,5.6c8.5,0,15.4-6.3,15.4-16.5
			C121,237.7,112.5,232.8,105.6,232.8z M103.8,237.3c6.5,0,11.1,5.2,11.1,11.9c0,6.3-3.9,12.2-11.3,12.2c-5,0-8.9-3.5-10.2-6.1
			v-11.7C94.9,240.8,98.6,237.3,103.8,237.3L103.8,237.3z"/>
		<path id="path4084_1_" class="st15" d="M142.4,232.8c-8.9,0-16.5,6.5-16.5,16.5c0,9.8,7.2,16.5,16.5,16.5
			c9.3,0,16.5-6.9,16.5-16.5C158.9,239.3,151.6,232.8,142.4,232.8L142.4,232.8z M142.4,237.3c6.5,0,11.1,5.2,11.1,11.9
			c0,7.6-5,12.2-11.1,12.2s-11.1-4.8-11.1-12.2C131.4,242.1,136.4,237.3,142.4,237.3L142.4,237.3z"/>
		<path id="path4088_1_" class="st15" d="M217.3,259.5c1.5,0,5.3,1.7,10.2,1.7c4.5,0,7.7-1.5,7.7-4.7c0-7-19.8-3.2-19.8-14.7
			c0-4.3,3.2-9,12.1-9c6.6,0,11.3,2.1,11.3,2.1s0,0.4,0,1.1c0,1.5-0.6,3-1.9,3c-2.1,0-4.5-1.5-9.6-1.5c-4.7,0-7,1.9-7,4.3
			c0,6.8,19.8,3.2,19.8,14.7c0,5.1-4,9.4-13,9.4c-7,0-12.1-2.1-12.1-2.1s0-0.4,0-1.1C215.2,259.9,216.4,259.5,217.3,259.5
			L217.3,259.5z"/>
		<path id="path4090_1_" class="st15" d="M165,265.1v-31.7c0.2,0,1.1-0.4,2.6-0.4c2.2,0,2.8,0.9,1.7,2.2v3.7c3-2.8,6.5-5.9,12.4-5.9
			c1.5,0,2.6,0.2,2.6,0.2s0.2,0.7,0.2,2.2c0,1.5-0.2,2.4-2.8,2.4c-5.4,0-9.1,2.4-12.4,6.9v18.4c1.1,1.3,0.2,2-1.5,2
			C166.1,265.5,165.2,265.1,165,265.1z"/>
		<path id="path4118_1_" class="st15" d="M199.7,266c-6.7,0-10.2-4.1-10.8-9.5v-28.9c0.6-1.1,1.1-2.2,3.5-2.2c1.3,0,2.4,0.4,0.9,0.4
			v7.3h14.3c0,0.3,0.2,1.2,0.2,2.5c0,2.2-0.9,2.4-2,1.9h-12.6v18.8c1.5,3,3,5,6.9,5c3,0,5.2-1.3,6.7-1.3c2,0,2.2,2.2,2,3.9
			C209.1,263.8,205.2,266,199.7,266L199.7,266z"/>
	</g>
	<path class="st16" d="M254,220.3c0-2.5-2-4.6-4.6-4.6H42.6l0,0H-66.9c-2.5,0-4.6,2-4.6,4.6v41.2c0-2.6,1.5-6.5,6.9-6.7l107.2-4.3
		l0,0l0,0l0,0L254,242V220.3z"/>
</g>
</svg>
