<svg xmlns="http://www.w3.org/2000/svg" xmlns:xlink="http://www.w3.org/1999/xlink" width="200" zoomAndPan="magnify" viewBox="0 0 150 149.999998" height="200" preserveAspectRatio="xMidYMid meet" version="1.0"><defs><clipPath id="id1"><path d="M 1.207031 16 L 148.957031 16 L 148.957031 136.550781 L 1.207031 136.550781 Z M 1.207031 16 " clip-rule="nonzero"/></clipPath></defs><g clip-path="url(#id1)"><path fill="#ffffff" d="M 133.703125 46.605469 C 133.789062 47.90625 133.789062 49.203125 133.789062 50.515625 C 133.789062 90.46875 103.367188 136.542969 47.734375 136.542969 L 47.734375 136.519531 C 31.296875 136.546875 15.207031 131.839844 1.371094 122.964844 C 3.757812 123.253906 6.164062 123.398438 8.570312 123.402344 C 22.191406 123.414062 35.421875 118.847656 46.136719 110.433594 C 33.191406 110.1875 21.84375 101.753906 17.875 89.4375 C 22.410156 90.3125 27.082031 90.132812 31.53125 88.914062 C 17.417969 86.0625 7.269531 73.667969 7.269531 59.277344 C 7.269531 59.144531 7.269531 59.019531 7.269531 58.894531 C 11.472656 61.234375 16.179688 62.535156 20.996094 62.679688 C 7.707031 53.804688 3.613281 36.128906 11.636719 22.308594 C 26.992188 41.199219 49.648438 52.683594 73.972656 53.898438 C 71.535156 43.394531 74.867188 32.390625 82.722656 25.007812 C 94.90625 13.5625 114.066406 14.148438 125.515625 26.320312 C 132.289062 24.984375 138.78125 22.5 144.722656 18.980469 C 142.464844 25.980469 137.742188 31.925781 131.429688 35.703125 C 137.421875 34.996094 143.28125 33.390625 148.800781 30.941406 C 144.734375 37.027344 139.621094 42.324219 133.703125 46.605469 Z M 133.703125 46.605469 " fill-opacity="1" fill-rule="nonzero"/></g></svg>