<svg xmlns="http://www.w3.org/2000/svg" xmlns:xlink="http://www.w3.org/1999/xlink" width="200" zoomAndPan="magnify" viewBox="0 0 150 149.999998" height="200" preserveAspectRatio="xMidYMid meet" version="1.0"><defs><clipPath id="id1"><path d="M 36.164062 51.242188 L 114.164062 51.242188 L 114.164062 98.492188 L 36.164062 98.492188 Z M 36.164062 51.242188 " clip-rule="nonzero"/></clipPath></defs><rect x="-15" width="180" fill="#ffffff" y="-15" height="179.999997" fill-opacity="1"/><rect x="-15" width="180" fill="#1d1d1b" y="-15" height="179.999997" fill-opacity="1"/><rect x="-15" width="180" fill="#ffffff" y="-15" height="179.999997" fill-opacity="1"/><rect x="-15" width="180" fill="#1d1d1b" y="-15" height="179.999997" fill-opacity="1"/><g clip-path="url(#id1)"><path fill="#ffffff" d="M 111.898438 96.210938 C 111.535156 96.578125 111.140625 96.90625 110.710938 97.199219 C 110.285156 97.488281 109.835938 97.734375 109.359375 97.933594 C 108.882812 98.132812 108.394531 98.285156 107.890625 98.386719 C 107.382812 98.488281 106.875 98.539062 106.359375 98.539062 C 105.84375 98.539062 105.335938 98.488281 104.832031 98.386719 C 104.324219 98.285156 103.835938 98.132812 103.359375 97.933594 C 102.886719 97.734375 102.433594 97.488281 102.007812 97.199219 C 101.578125 96.90625 101.183594 96.578125 100.820312 96.210938 L 75.164062 70.222656 L 49.503906 96.210938 C 49.140625 96.578125 48.746094 96.90625 48.320312 97.199219 C 47.890625 97.488281 47.441406 97.734375 46.964844 97.933594 C 46.488281 98.132812 46 98.285156 45.496094 98.386719 C 44.992188 98.488281 44.480469 98.539062 43.964844 98.539062 C 43.449219 98.539062 42.941406 98.488281 42.4375 98.386719 C 41.929688 98.285156 41.441406 98.132812 40.964844 97.933594 C 40.492188 97.734375 40.039062 97.488281 39.613281 97.199219 C 39.1875 96.90625 38.789062 96.578125 38.429688 96.210938 C 38.0625 95.84375 37.738281 95.445312 37.449219 95.011719 C 37.160156 94.582031 36.917969 94.125 36.722656 93.644531 C 36.523438 93.167969 36.375 92.671875 36.273438 92.164062 C 36.171875 91.652344 36.121094 91.136719 36.121094 90.617188 C 36.121094 90.097656 36.171875 89.582031 36.273438 89.074219 C 36.375 88.5625 36.523438 88.070312 36.722656 87.589844 C 36.917969 87.109375 37.160156 86.652344 37.449219 86.222656 C 37.738281 85.792969 38.0625 85.394531 38.429688 85.027344 L 69.625 53.527344 C 69.988281 53.15625 70.382812 52.828125 70.808594 52.539062 C 71.238281 52.246094 71.6875 52.003906 72.164062 51.804688 C 72.636719 51.601562 73.128906 51.453125 73.632812 51.351562 C 74.136719 51.25 74.648438 51.195312 75.164062 51.195312 C 75.675781 51.195312 76.1875 51.25 76.691406 51.351562 C 77.195312 51.453125 77.6875 51.601562 78.160156 51.804688 C 78.636719 52.003906 79.089844 52.246094 79.515625 52.539062 C 79.941406 52.828125 80.335938 53.15625 80.699219 53.527344 L 111.898438 85.027344 C 112.261719 85.394531 112.589844 85.792969 112.875 86.222656 C 113.164062 86.652344 113.40625 87.109375 113.605469 87.589844 C 113.800781 88.070312 113.953125 88.5625 114.050781 89.074219 C 114.152344 89.582031 114.203125 90.097656 114.203125 90.617188 C 114.203125 91.136719 114.152344 91.652344 114.050781 92.164062 C 113.953125 92.671875 113.800781 93.167969 113.605469 93.644531 C 113.40625 94.125 113.164062 94.582031 112.875 95.011719 C 112.589844 95.445312 112.261719 95.84375 111.898438 96.210938 Z M 111.898438 96.210938 " fill-opacity="1" fill-rule="nonzero"/></g></svg>