<?xml version="1.0" encoding="utf-8"?>
<!-- Generator: Adobe Illustrator 24.0.1, SVG Export Plug-In . SVG Version: 6.00 Build 0)  -->
<svg version="1.1" id="Layer_1" xmlns="http://www.w3.org/2000/svg" xmlns:xlink="http://www.w3.org/1999/xlink" x="0px" y="0px"
	 width="152.4px" height="83.5px" viewBox="0 0 152.4 83.5" style="enable-background:new 0 0 152.4 83.5;" xml:space="preserve">
<style type="text/css">
	.st0{fill:#EE3D72;}
</style>
<g id="_x37_vZXPs.tif">
	<g>
		<path class="st0" d="M61,38.7c-0.3,0-0.6,0-0.8,0c-3.1,0.2-6.2,0.5-9.3,0.6c-1.2,0.1-1.7,0.4-1.9,1.5c-1,5.3-2,10.6-3.2,15.9
			c-0.6,2.6-2.3,4.5-4.7,5.8c-0.3,0.2-0.7,0.2-1.2,0.3c0-0.4-0.1-0.8-0.1-1.1c0-3.7-0.2-7.4,0.1-11.2c0.2-3.2,0.6-6.4,1.1-9.6
			c0.2-1.1-0.1-2-0.8-2.8c-1.6-2.1-1.3-3.4,1-4.8c0.6-0.4,1.1-1,1.4-1.6c2.7-7.7,5.9-15.3,9.6-22.5c0.9-1.7,0.9-1.7,2.7-0.9
			c0.5,0.2,0.9,0.5,1.4,0.8c1.6,1.1,1.9,2.2,1.3,4.1c-1.5,4.2-3.1,8.4-4.5,12.6c-0.7,2-1.2,4-1.8,6c-0.2,0.7,0,1,0.8,1.1
			c4.4,0.3,8.8,0.5,13.1,0.9c2.2,0.2,4.3,0.9,6.4,1.5c1.4,0.4,1.5,1.1,0.5,2.2c-1,1.1-2.2,2-3.7,2.7c-4.7,1.9-8.3,5.1-10.4,9.8
			c-0.7,1.6-1.3,3.3-0.8,5.1c0.1,0.5,0.5,1.1,0.9,1.3c0.4,0.1,1.1-0.2,1.4-0.6c2.7-3,5.3-6,7.9-8.9c0.9-1,1.8-2,2.7-3
			c0.6-0.7,1.4-0.9,2.1-0.3c1.2,1.1,2.4,2.3,3.5,3.6c0.3,0.3,0.2,1,0.1,1.5c-0.7,2.4-1.5,4.8-2.1,7.2c-0.5,1.9,0.5,3.1,2.5,2.9
			c0.2,0,0.4,0,0.6-0.1c3-0.5,3.2-0.7,3.2-3.7C80,45.7,81.8,36.8,84.6,28c1.7-5.3,3.7-10.6,6.5-15.4c0.9-1.6,1-1.6,2.7-1
			c0.6,0.2,1.2,0.5,1.7,0.8c1.9,1.1,2.3,2.4,1.4,4.4c-2.2,5.4-4.4,10.8-6.3,16.3c-1.6,4.6-2.8,9.4-3.8,14.2c-0.5,2.4-0.2,5-0.2,7.5
			c0,0.5,0.5,1.2,0.9,1.4c0.4,0.1,1.1-0.3,1.5-0.7c3.5-3.8,6.7-7.9,9.4-12.3c0.9-1.4,4.4-3.1,6-2.8c1.1,0.2,2,0.9,2.3,1.9
			c0.4,1.3,0.8,2.7,0.8,4.2c0.2,2.7,0.1,5.5,0.3,8.2c0.1,1.1,0.2,2.3,0.5,3.4c0.3,1.2,1,2,2.3,2.2c0.4,0.1,0.7,0.4,1,0.7
			c-0.3,0.3-0.6,0.8-0.9,0.9c-1.4,0.3-2.8,0.7-4.2,0.8c-1.7,0.1-3.2-0.8-3.7-2.4c-0.8-2.1-1.2-4.3-1.8-6.5c-0.3-1-0.3-2.1-0.6-3.1
			c-0.1-0.4-0.4-0.7-0.7-1.1c-0.3,0.2-0.8,0.4-1,0.7c-1.6,2.2-3.1,4.5-4.9,6.6c-1.3,1.6-2.9,3.1-4.6,4.3c-3.1,2.2-5.1,1.9-7.7-0.9
			c-0.8-0.8-1.3-0.9-2.3-0.3c-1.4,0.8-2.9,1.6-4.4,2.2c-3.6,1.3-6.8-0.5-7.8-4c-0.4-1.3-0.9-1.5-1.8-0.5c-1.8,1.8-3.7,3.4-6.1,4.4
			c-2.3,0.9-4.4,0.7-6.4-0.8c-1.6-1.2-2.3-2.7-2.2-4.7c0.1-4.7,1.7-8.7,4.9-12.1c1.5-1.6,3.2-3.1,4.9-4.7c0.3-0.3,0.6-0.5,1-0.7
			C61.2,39,61.1,38.8,61,38.7z"/>
		<path class="st0" d="M123.8,83.3c9.9-3.8,15-11.7,18.7-21c0.6-1.6,1.1-3.3,1.6-5c0.1-0.4,0-0.8,0-1.2c-0.4,0.2-0.8,0.3-1.1,0.6
			c-2.6,2.8-5.6,4.9-9.4,5.6c-1.5,0.3-3.1,0.3-4.7,0.1c-2.3-0.3-3.6-2.3-4-4.8c-0.5-3.4,0.6-6.5,1.8-9.6c0.6-1.5,1.3-3,1.9-4.5
			c0.1-0.3,0.3-0.7,0.4-1.2c-1.5,0.1-2.8,0.2-4.1,0.3c-0.5,0-1.1,0.1-1.6,0.1c-1.4-0.2-2,0.5-2.5,1.7c-1.4,3.6-2.4,7.2-2.6,11
			c-0.2,2.9-1.6,5-3.7,6.7c-0.2,0.1-0.4,0.3-0.6,0.4c-0.1,0.1-0.2,0.1-0.5,0.1c-0.1-1.2-0.2-2.3-0.3-3.4c-0.1-5.1,0.1-10.2,1.2-15.2
			c0.1-0.5-0.2-1.3-0.6-1.8c-0.6-0.7-1.4-1.2-2.1-1.7c-1.1-0.9-1-1.9,0.4-2.5c0.3-0.2,0.7-0.3,1.1-0.3c1.8-0.1,2.5-1.1,3-2.8
			c1.8-6.7,4.1-13.2,7.2-19.4c1.1-2.2,1.1-2.2,3.3-1.2c2.4,1,3.1,2.4,2.4,4.8c-1.7,5.4-3.6,10.7-5.4,16.1c-0.1,0.4-0.3,0.9-0.4,1.5
			c0.6,0.1,1.1,0.2,1.5,0.3c1.8,0.5,3.7,0.9,5.6,1.5c0.6,0.2,1.1,0.4,1.7-0.2c0.5-0.5,1.3,0,1.3,0.9c0,1.1-0.2,2.2-0.4,3.3
			c-0.8,3.8-1.6,7.5-2.4,11.3c-0.2,1.1-0.3,2.4,0.8,3.2c1.1,0.8,2.4,0.2,3.2-0.5c1.6-1.3,3.3-2.6,4.4-4.3c2.9-4.2,5.4-8.6,8.1-13
			c1-1.6,1.1-1.7,2.7-0.7c0.1,0,0.1,0.1,0.2,0.1c2,1,2.6,2.4,2.4,4.7c-0.6,6.9-1.8,13.6-4.4,20c-2.5,6-6.1,11.4-11,15.7
			c-3.4,3-7.4,4.7-12,4.6C124.6,83.5,124.2,83.4,123.8,83.3z"/>
		<path class="st0" d="M47.4,0.4c-0.1,0.2-0.2,0.3-0.2,0.3c-6.5,3.5-10.8,9.1-14.5,15.3c-4.8,8-8.3,16.6-10.9,25.5
			c-1.9,6.3-3.3,12.7-5.1,19.1c-0.1,0.5-0.6,1.1-1.1,1.3c-2.7,1-5.6,1-8.4,0.5C6.7,62.2,6,61.5,5.9,61c-0.7-2.6-1.5-5.3-1.8-8
			c-0.7-6.6-1.3-13.2-1.6-19.8c-0.2-5.7,0.1-11.4,0.2-17.1c0-0.6,0.2-1.2,0.2-1.8c0.3-1.9,1-2.5,3-2.1C7.8,12.6,9,14.3,9,16.9
			c0.1,3.6-0.1,7.1,0,10.7c0.1,6.6,0.4,13.1,1.6,19.6c0.1,0.5,0.4,0.9,0.6,1.3c0.3-0.4,0.6-0.8,0.8-1.2c2-5.6,3.9-11.2,6.2-16.7
			c3.3-8,7.3-15.6,13-22.1c2.8-3.2,6-6,10-7.7C43.2,0.1,45.2-0.4,47.4,0.4z"/>
		<path class="st0" d="M24.3,57.5c0.5-5.7,1.2-11.3,3.7-16.5c0.8-1.6,1.8-3,2.7-4.5c0.4-0.7,1-0.8,1.7-0.4c2.2,1.1,3.4,3.5,2.8,6
			c-0.9,4.2-1.8,8.4-2.8,12.6c-0.2,0.9-0.3,1.8,0.2,2.7c0.2,0.4,0.1,1.1-0.1,1.6c-0.7,2.8-4.3,4.3-6.6,2.8
			C24.3,60.8,24.1,59.2,24.3,57.5z"/>
		<path class="st0" d="M31.3,25c0-1.2,0.5-2,1.5-2.5c0.9-0.5,1.8-0.3,2.6,0.3c2.2,1.6,3.5,3.9,4.3,6.4c0.3,1-0.3,1.8-1.4,2.2
			c-2.3,0.9-5-0.3-6-2.7C31.8,27.5,31.6,26.3,31.3,25z"/>
		<path class="st0" d="M104.6,35.7c-1.2,0-2-0.6-2.7-1.4c-1.3-1.6-1.9-3.6-2.2-5.6c-0.2-1.6,1.8-2.9,3.4-2.2c2.6,1.1,4,3.4,4.8,5.9
			C108.3,33.6,106,35.7,104.6,35.7z"/>
	</g>
</g>
</svg>
