<svg xmlns="http://www.w3.org/2000/svg" xmlns:xlink="http://www.w3.org/1999/xlink" width="200" zoomAndPan="magnify" viewBox="0 0 150 149.999998" height="200" preserveAspectRatio="xMidYMid meet" version="1.0"><defs><clipPath id="id1"><path d="M 0 22.074219 L 149.933594 22.074219 L 149.933594 127.824219 L 0 127.824219 Z M 0 22.074219 " clip-rule="nonzero"/></clipPath></defs><path fill="#ffffff" d="M 142.167969 42.214844 C 140.8125 33.503906 133.347656 27.285156 124.640625 27.285156 L 24.320312 27.285156 C 15.609375 27.285156 8.144531 33.617188 6.789062 42.214844 C 5.542969 50.246094 4.300781 61.441406 4.300781 75.125 C 4.414062 88.8125 5.542969 100.007812 6.789062 108.039062 C 8.144531 116.632812 15.609375 122.96875 24.320312 122.96875 L 124.527344 122.96875 C 133.234375 122.96875 140.8125 116.632812 142.054688 108.039062 C 143.300781 99.894531 144.542969 88.8125 144.542969 75.125 C 144.542969 61.441406 143.414062 50.246094 142.167969 42.214844 Z M 59.605469 94.242188 L 59.605469 56.125 L 95.121094 75.238281 Z M 59.605469 94.242188 " fill-opacity="1" fill-rule="nonzero"/><g clip-path="url(#id1)"><path fill="#ffffff" d="M 74.421875 209.375 C 0.453125 209.375 -59.828125 149.207031 -59.828125 75.125 C -59.828125 1.160156 0.453125 -59.125 74.421875 -59.125 C 148.390625 -59.125 208.671875 1.160156 208.671875 75.125 C 208.671875 149.207031 148.503906 209.375 74.421875 209.375 Z M 74.421875 -51.773438 C 4.414062 -51.773438 -52.476562 5.117188 -52.476562 75.125 C -52.476562 145.136719 4.414062 202.023438 74.421875 202.023438 C 144.433594 202.023438 201.320312 145.136719 201.320312 75.125 C 201.320312 5.117188 144.433594 -51.773438 74.421875 -51.773438 Z M 74.421875 -51.773438 " fill-opacity="1" fill-rule="nonzero"/></g></svg>